<svg width="0" height="0" class="hidden">

  <symbol xmlns="http://www.w3.org/2000/svg" viewBox="0 0 24 24" id="email">
    <rect width="24" height="24" rx="12"></rect>
    <path fill-rule="evenodd" clip-rule="evenodd" d="M5.22888 7.67033C4.99999 8.10706 4.99999 8.67878 4.99999 9.82223V14.1778C4.99999 15.3212 4.99999 15.8929 5.22888 16.3297C5.43021 16.7138 5.75147 17.0262 6.14661 17.2219C6.59583 17.4445 7.18388 17.4445 8.35999 17.4445H15.64C16.8161 17.4445 17.4042 17.4445 17.8534 17.2219C18.2485 17.0262 18.5698 16.7138 18.7711 16.3297C19 15.8929 19 15.3212 19 14.1778V9.82223C19 8.67878 19 8.10706 18.7711 7.67033C18.5698 7.28616 18.2485 6.97383 17.8534 6.77809C17.4042 6.55556 16.8161 6.55556 15.64 6.55556H8.35999C7.18388 6.55556 6.59583 6.55556 6.14661 6.77809C5.75147 6.97383 5.43021 7.28616 5.22888 7.67033ZM8.89598 9.39714C8.57718 9.18452 8.14146 9.26341 7.92276 9.57335C7.70407 9.8833 7.78521 10.3069 8.10401 10.5195L10.812 12.3256C11.5279 12.8031 12.4721 12.8031 13.1879 12.3256L15.896 10.5195C16.2148 10.3069 16.2959 9.8833 16.0772 9.57335C15.8585 9.26341 15.4228 9.18452 15.104 9.39714L12.396 11.2032C12.1574 11.3624 11.8426 11.3624 11.604 11.2032L8.89598 9.39714Z" fill="white"></path>
  </symbol>

  <symbol xmlns="http://www.w3.org/2000/svg" viewBox="0 0 24 24" id="telegram">
    <rect width="24" height="24" rx="12"></rect>
    <path d="M16.8125 7.09716C14.9655 7.82435 7.04645 10.9431 4.85834 11.7932C3.39085 12.3377 4.24986 12.8481 4.24986 12.8481C4.24986 12.8481 5.50248 13.2564 6.5762 13.5627C7.64992 13.869 8.22259 13.5286 8.22259 13.5286L13.269 10.2958C15.0585 9.13889 14.6291 10.0917 14.1997 10.5C13.269 11.3848 11.7301 12.7799 10.4417 13.9029C9.86898 14.3793 10.1553 14.7877 10.4058 14.9918C11.3365 15.7405 13.8775 17.2718 14.0208 17.3739C14.7769 17.8828 16.2641 18.6155 16.4904 17.0676L17.3852 11.7251C17.6715 9.92157 17.9578 8.25408 17.9937 7.77769C18.1009 6.62078 16.8125 7.09716 16.8125 7.09716Z" fill="white"></path>
  </symbol>

  <symbol xmlns="http://www.w3.org/2000/svg" viewBox="0 0 24 24" id="whatsapp">
    <g clip-path="url(#clip0_103_2543)">
      <path d="M12.003 0H11.997C5.38051 0 5.25498e-06 5.382 5.25498e-06 12C-0.00410339 14.5275 0.795979 16.9908 2.28451 19.0335L0.789005 23.4915L5.4015 22.017C7.35806 23.3151 9.65502 24.005 12.003 24C18.6195 24 24 18.6165 24 12C24 5.3835 18.6195 0 12.003 0Z"></path>
      <path d="M18.9858 16.9453C18.6963 17.7628 17.5473 18.4408 16.6308 18.6388C16.0038 18.7723 15.1848 18.8788 12.4278 17.7358C8.90132 16.2748 6.63032 12.6913 6.45332 12.4588C6.28382 12.2263 5.02832 10.5613 5.02832 8.83928C5.02832 7.11728 5.90282 6.27878 6.25532 5.91878C6.54482 5.62328 7.02332 5.48828 7.48232 5.48828C7.63082 5.48828 7.76432 5.49578 7.88432 5.50178C8.23682 5.51678 8.41382 5.53778 8.64632 6.09428C8.93582 6.79178 9.64082 8.51378 9.72482 8.69078C9.81032 8.86778 9.89582 9.10778 9.77582 9.34028C9.66332 9.58028 9.56432 9.68678 9.38732 9.89078C9.21032 10.0948 9.04232 10.2508 8.86532 10.4698C8.70332 10.6603 8.52032 10.8643 8.72432 11.2168C8.92832 11.5618 9.63332 12.7123 10.6713 13.6363C12.0108 14.8288 13.0968 15.2098 13.4853 15.3718C13.7748 15.4918 14.1198 15.4633 14.3313 15.2383C14.5998 14.9488 14.9313 14.4688 15.2688 13.9963C15.5088 13.6573 15.8118 13.6153 16.1298 13.7353C16.4538 13.8478 18.1683 14.6953 18.5208 14.8708C18.8733 15.0478 19.1058 15.1318 19.1913 15.2803C19.2753 15.4288 19.2753 16.1263 18.9858 16.9453Z" fill="white"></path>
    </g>
    <defs>
      <clipPath id="clip0_103_2543">
        <rect width="24" height="24" fill="white"></rect>
      </clipPath>
    </defs>
  </symbol>

  <symbol viewBox="0 0 24 24" xmlns="http://www.w3.org/2000/svg" id="location">
    <path fill-rule="evenodd" clip-rule="evenodd" d="M3 11C3 6.02944 7.02944 2 12 2C16.9706 2 21 6.02944 21 11C21 14.0264 19.1902 16.5918 17.1049 18.399L13.6635 21.3816C12.7088 22.209 11.2912 22.209 10.3365 21.3816L6.89505 18.399C4.80977 16.5918 3 14.0264 3 11ZM12 13C13.1046 13 14 12.1046 14 11C14 9.89543 13.1046 9 12 9C10.8954 9 10 9.89543 10 11C10 12.1046 10.8954 13 12 13Z"/>
  </symbol>

  <symbol xmlns="http://www.w3.org/2000/svg" viewBox="0 0 24 24" id="arrow">
    <path fill-rule="evenodd" clip-rule="evenodd" d="M7 8C6.44772 8 6 7.55228 6 7C6 6.44772 6.44772 6 7 6H17C17.5523 6 18 6.44772 18 7V17C18 17.5523 17.5523 18 17 18C16.4477 18 16 17.5523 16 17V9.41421L7.70711 17.7071C7.31658 18.0976 6.68342 18.0976 6.29289 17.7071C5.90237 17.3166 5.90237 16.6834 6.29289 16.2929L14.5858 8H7Z"/>
  </symbol>

  <symbol viewBox="0 0 24 24" xmlns="http://www.w3.org/2000/svg" id="check">
    <path fill-rule="evenodd" clip-rule="evenodd" d="M20.7071 5.29289C21.0976 5.68342 21.0976 6.31658 20.7071 6.70711L9.70711 17.7071C9.31658 18.0976 8.68342 18.0976 8.29289 17.7071L3.29289 12.7071C2.90237 12.3166 2.90237 11.6834 3.29289 11.2929C3.68342 10.9024 4.31658 10.9024 4.70711 11.2929L9 15.5858L19.2929 5.29289C19.6834 4.90237 20.3166 4.90237 20.7071 5.29289Z"/>
  </symbol>

  <symbol viewBox="0 0 24 24" xmlns="http://www.w3.org/2000/svg" id="user">
    <path d="M17.294 7.29105C17.294 10.2281 14.9391 12.5831 12 12.5831C9.0619 12.5831 6.70601 10.2281 6.70601 7.29105C6.70601 4.35402 9.0619 2 12 2C14.9391 2 17.294 4.35402 17.294 7.29105Z"/>
    <path d="M12 21.9999C7.66237 21.9999 4 21.2949 4 18.5749C4 15.8538 7.68538 15.1738 12 15.1738C16.3386 15.1738 20 15.8788 20 18.5989C20 21.3199 16.3146 21.9999 12 21.9999Z"/>
  </symbol>

  <symbol viewBox="0 0 24 24" xmlns="http://www.w3.org/2000/svg" id="phone">
    <path d="M20.4824 19.5175L20 19.9999C18.51 21.4899 13.0001 22 7.50012 16.5C2.00012 11 2.50002 5.49991 4.00002 3.99991L4.49107 3.50885C5.27195 2.72798 6.57154 2.85717 7.18412 3.77602L9.20427 6.80617C9.66702 7.50027 9.5755 8.42451 8.98561 9.01437L7.93707 10.0629C7.66922 10.3307 7.57951 10.726 7.75434 11.062C8.07305 11.6746 8.73786 12.7377 10.0001 14C11.2624 15.2622 12.3254 15.927 12.9379 16.2457C13.2739 16.4205 13.6692 16.3308 13.937 16.063L14.9856 15.0145C15.5754 14.4246 16.4996 14.3331 17.1937 14.7958L20.2137 16.8091C21.1378 17.4251 21.2677 18.7322 20.4824 19.5175Z"/>
  </symbol>

  <symbol viewBox="0 0 24 24" xmlns="http://www.w3.org/2000/svg" id="clock">
    <path fill-rule="evenodd" clip-rule="evenodd" d="M12 22C17.5228 22 22 17.5228 22 12C22 6.47715 17.5228 2 12 2C6.47715 2 2 6.47715 2 12C2 17.5228 6.47715 22 12 22ZM13 7C13 6.44772 12.5523 6 12 6C11.4477 6 11 6.44772 11 7V12C11 12.5523 11.4477 13 12 13H15C15.5523 13 16 12.5523 16 12C16 11.4477 15.5523 11 15 11H13V7Z"/>
  </symbol>

  <symbol viewBox="0 0 24 24" xmlns="http://www.w3.org/2000/svg" id="minus">
    <path fill-rule="evenodd" clip-rule="evenodd" d="M2 12C2 6.47715 6.47715 2 12 2C17.5228 2 22 6.47715 22 12C22 17.5228 17.5228 22 12 22C6.47715 22 2 17.5228 2 12ZM8 11C7.44772 11 7 11.4477 7 12C7 12.5523 7.44772 13 8 13H16C16.5523 13 17 12.5523 17 12C17 11.4477 16.5523 11 16 11H8Z" />
  </symbol>


  <symbol viewBox="0 0 24 24" xmlns="http://www.w3.org/2000/svg" id="info">
    <path fill-rule="evenodd" clip-rule="evenodd" d="M2 12C2 6.47715 6.47715 2 12 2C17.5228 2 22 6.47715 22 12C22 17.5228 17.5228 22 12 22C6.47715 22 2 17.5228 2 12ZM11 8C11 7.44772 11.4477 7 12 7C12.5523 7 13 7.44772 13 8C13 8.55228 12.5523 9 12 9C11.4477 9 11 8.55228 11 8ZM12 11C12.5523 11 13 11.4477 13 12V16C13 16.5523 12.5523 17 12 17C11.4477 17 11 16.5523 11 16V12C11 11.4477 11.4477 11 12 11Z"/>
  </symbol>

  <symbol viewBox="0 0 24 24" xmlns="http://www.w3.org/2000/svg" id="mail">
    <path fill-rule="evenodd" clip-rule="evenodd" d="M2.32698 5.63803C2 6.27976 2 7.11984 2 8.8V15.2C2 16.8802 2 17.7202 2.32698 18.362C2.6146 18.9265 3.07354 19.3854 3.63803 19.673C4.27976 20 5.11984 20 6.8 20H17.2C18.8802 20 19.7202 20 20.362 19.673C20.9265 19.3854 21.3854 18.9265 21.673 18.362C22 17.7202 22 16.8802 22 15.2V8.8C22 7.11984 22 6.27976 21.673 5.63803C21.3854 5.07354 20.9265 4.6146 20.362 4.32698C19.7202 4 18.8802 4 17.2 4H6.8C5.11984 4 4.27976 4 3.63803 4.32698C3.07354 4.6146 2.6146 5.07354 2.32698 5.63803ZM7.56569 8.17538C7.11026 7.86296 6.4878 7.97889 6.17538 8.43431C5.86296 8.88974 5.97889 9.5122 6.43431 9.82462L10.3029 12.4785C11.3256 13.18 12.6744 13.18 13.6971 12.4785L17.5657 9.82462C18.0211 9.5122 18.137 8.88974 17.8246 8.43431C17.5122 7.97889 16.8897 7.86296 16.4343 8.17538L12.5657 10.8293C12.2248 11.0631 11.7752 11.0631 11.4343 10.8293L7.56569 8.17538Z"/>
  </symbol>

  <symbol viewBox="0 0 24 24" xmlns="http://www.w3.org/2000/svg" id="check-circle">
    <path fill-rule="evenodd" clip-rule="evenodd" d="M2 12C2 6.47715 6.47715 2 12 2C17.5228 2 22 6.47715 22 12C22 17.5228 17.5228 22 12 22C6.47715 22 2 17.5228 2 12ZM15.7071 10.7071C16.0976 10.3166 16.0976 9.68342 15.7071 9.29289C15.3166 8.90237 14.6834 8.90237 14.2929 9.29289L11 12.5858L9.70711 11.2929C9.31658 10.9024 8.68342 10.9024 8.29289 11.2929C7.90237 11.6834 7.90237 12.3166 8.29289 12.7071L10.2929 14.7071C10.6834 15.0976 11.3166 15.0976 11.7071 14.7071L15.7071 10.7071Z"/>
  </symbol>

  <symbol viewBox="0 0 24 24" xmlns="http://www.w3.org/2000/svg" id="close">
    <path d="M18.7071 6.70711C19.0976 6.31658 19.0976 5.68342 18.7071 5.29289C18.3166 4.90237 17.6834 4.90237 17.2929 5.29289L12 10.5858L6.70711 5.29289C6.31658 4.90237 5.68342 4.90237 5.29289 5.29289C4.90237 5.68342 4.90237 6.31658 5.29289 6.70711L10.5858 12L5.29289 17.2929C4.90237 17.6834 4.90237 18.3166 5.29289 18.7071C5.68342 19.0976 6.31658 19.0976 6.70711 18.7071L12 13.4142L17.2929 18.7071C17.6834 19.0976 18.3166 19.0976 18.7071 18.7071C19.0976 18.3166 19.0976 17.6834 18.7071 17.2929L13.4142 12L18.7071 6.70711Z" />
  </symbol>

  <symbol viewBox="0 0 24 24" xmlns="http://www.w3.org/2000/svg" id="burger">
    <path d="M2 6C2 5.44772 2.44772 5 3 5H21C21.5523 5 22 5.44772 22 6C22 6.55228 21.5523 7 21 7H3C2.44772 7 2 6.55228 2 6Z" />
    <path d="M2 12C2 11.4477 2.44772 11 3 11H21C21.5523 11 22 11.4477 22 12C22 12.5523 21.5523 13 21 13H3C2.44772 13 2 12.5523 2 12Z" />
    <path d="M3 17C2.44772 17 2 17.4477 2 18C2 18.5523 2.44772 19 3 19H21C21.5523 19 22 18.5523 22 18C22 17.4477 21.5523 17 21 17H3Z" />
  </symbol>


  <symbol viewBox="0 0 24 24" xmlns="http://www.w3.org/2000/svg" id="plus">
    <path fill-rule="evenodd" clip-rule="evenodd" d="M2 12C2 6.47715 6.47715 2 12 2C17.5228 2 22 6.47715 22 12C22 17.5228 17.5228 22 12 22C6.47715 22 2 17.5228 2 12ZM13 8C13 7.44772 12.5523 7 12 7C11.4477 7 11 7.44772 11 8V11H8C7.44772 11 7 11.4477 7 12C7 12.5523 7.44772 13 8 13H11V16C11 16.5523 11.4477 17 12 17C12.5523 17 13 16.5523 13 16V13H16C16.5523 13 17 12.5523 17 12C17 11.4477 16.5523 11 16 11H13V8Z"/>
  </symbol>


  <symbol viewBox="0 0 24 24" xmlns="http://www.w3.org/2000/svg" id="message">
    <path fill-rule="evenodd" clip-rule="evenodd" d="M2.32698 5.63803C2 6.27976 2 7.11984 2 8.8V15.2C2 16.8802 2 17.7202 2.32698 18.362C2.6146 18.9265 3.07354 19.3854 3.63803 19.673C4.27976 20 5.11984 20 6.8 20H17.2C18.8802 20 19.7202 20 20.362 19.673C20.9265 19.3854 21.3854 18.9265 21.673 18.362C22 17.7202 22 16.8802 22 15.2V8.8C22 7.11984 22 6.27976 21.673 5.63803C21.3854 5.07354 20.9265 4.6146 20.362 4.32698C19.7202 4 18.8802 4 17.2 4H6.8C5.11984 4 4.27976 4 3.63803 4.32698C3.07354 4.6146 2.6146 5.07354 2.32698 5.63803ZM7.56569 8.17538C7.11026 7.86296 6.4878 7.97889 6.17538 8.43431C5.86296 8.88974 5.97889 9.5122 6.43431 9.82462L10.3029 12.4785C11.3256 13.18 12.6744 13.18 13.6971 12.4785L17.5657 9.82462C18.0211 9.5122 18.137 8.88974 17.8246 8.43431C17.5122 7.97889 16.8897 7.86296 16.4343 8.17538L12.5657 10.8293C12.2248 11.0631 11.7752 11.0631 11.4343 10.8293L7.56569 8.17538Z"/>
  </symbol>

  <symbol viewBox="0 0 64 64" xmlns="http://www.w3.org/2000/svg" id="badge">
    <path
      d="M60.2385 42.8593C61.5175 41.6681 62.9604 40.3146 63.3464 38.4338C63.7324 36.553 62.9367 34.74 62.233 33.1419C61.7733 32.0921 61.3375 31.0988 61.2894 30.2586C61.2343 29.3599 61.5582 28.2857 61.9002 27.15C62.4172 25.4267 62.9513 23.6471 62.3686 21.8969C61.773 20.1168 60.1953 18.9572 58.802 17.9335C57.8615 17.2369 56.972 16.5834 56.4878 15.8524C56.0061 15.122 55.7537 14.0439 55.487 12.903C55.0944 11.2217 54.6479 9.31162 53.2505 8.06929C51.8687 6.84378 50.0278 6.63472 48.2329 6.42694C47.0543 6.29392 45.9425 6.16646 45.1376 5.76441C44.3843 5.3893 43.6456 4.59797 42.8591 3.76141C41.6674 2.48508 40.3144 1.03954 38.4336 0.653515C36.5528 0.267491 34.7393 1.06584 33.1417 1.76695C32.0892 2.22606 31.0986 2.66247 30.2579 2.71314C29.357 2.76509 28.2855 2.44171 27.1518 2.10286C25.4312 1.58637 23.6469 1.04865 21.8967 1.63132C20.1197 2.22484 18.957 3.80467 17.9338 5.19536C17.2393 6.13898 16.5826 7.03049 15.8522 7.51214C15.1218 7.99379 14.0442 8.24357 12.9028 8.51291C11.222 8.90296 9.31454 9.34991 8.06591 10.7515C6.84147 12.1281 6.63081 13.9768 6.42986 15.7649C6.29423 16.943 6.16885 18.0579 5.7668 18.8629C5.38907 19.6156 4.5972 20.3569 3.76119 21.1408C2.48225 22.332 1.03931 23.6855 0.653289 25.5663C0.267264 27.4471 1.063 29.2601 1.76673 30.8583C2.22637 31.9081 2.66224 32.9014 2.7103 33.7415C2.76539 34.6403 2.44149 35.7144 2.09949 36.8502C1.58246 38.5734 1.04842 40.3531 1.63109 42.1033C2.22669 43.8834 3.80444 45.0429 5.19774 46.0666C6.13821 46.7633 7.02765 47.4168 7.51191 48.1477C7.99356 48.8782 8.24596 49.9562 8.51269 51.0972C8.90534 52.7784 9.35176 54.6885 10.7492 55.9309C12.1284 57.1558 13.9745 57.366 15.7668 57.5732C16.9428 57.7057 18.0572 57.8337 18.8621 58.2357C19.6154 58.6109 20.3541 59.4022 21.1406 60.2387C22.3323 61.5151 23.6853 62.9606 25.5661 63.3466C27.4469 63.7327 29.2604 62.9343 30.858 62.2332C31.9105 61.7741 32.9011 61.3377 33.7418 61.287C34.6427 61.2351 35.7142 61.5584 36.8479 61.8973C38.5706 62.4169 40.3549 62.9547 42.103 62.3688C43.88 61.7753 45.0427 60.1955 46.0659 58.8048C46.7604 57.8612 47.4171 56.9697 48.1475 56.488C48.8779 56.0064 49.9555 55.7566 51.0969 55.4872C52.7777 55.0972 54.6852 54.6502 55.9338 53.2487C57.1582 51.8721 57.3689 50.0233 57.5698 48.2352C57.7055 47.0571 57.8309 45.9422 58.2329 45.1373C58.6106 44.3845 59.4025 43.6433 60.2385 42.8593Z"
    />
  </symbol>

</svg>