<svg width="140" height="64" viewBox="0 0 140 64" fill="none" xmlns="http://www.w3.org/2000/svg">
<path d="M16.5304 23.3998C16.5703 22.5675 16.6302 21.7569 16.7117 20.9751C15.5876 21.1426 14.3258 21.2957 12.9043 21.4399C1.87546 22.5603 0.631714 32.7489 0.631714 32.7489C0.631714 32.7489 4.35936 31.0304 10.5745 30.9043C11.4067 25.9865 14.0085 23.969 16.5304 23.3998Z" fill="#6EAB40"/>
<path d="M16.4999 27.4798C18.1296 25.9037 20.2982 24.9972 22.5718 24.9417C21.4415 23.8793 19.957 23.2676 18.4018 23.2231C17.7723 23.2043 17.143 23.2649 16.5289 23.4033C16.4672 24.7093 16.4455 26.0765 16.4999 27.4798Z" fill="#A6ACB0"/>
<path d="M14.3257 31.0254C14.7547 29.6876 15.5008 28.4718 16.5014 27.4803C16.4543 26.077 16.4688 24.7098 16.5322 23.4001C14.0103 23.9694 11.4085 25.9869 10.58 30.9047C11.8298 30.881 13.0801 30.9213 14.3257 31.0254Z" fill="#D1A53B"/>
<path d="M16.4074 48.6432C14.5897 47.1251 13.1355 45.2236 12.1503 43.077C9.12248 46.206 8.72723 50.8409 8.72723 50.8409C10.0912 51.0472 11.4839 50.9576 12.8097 50.5783C14.1355 50.1989 15.3628 49.5388 16.4074 48.6432Z" fill="#6EAB40"/>
<path d="M14.3259 31.0256C13.0796 30.9214 11.8287 30.8812 10.5783 30.9049C10.3912 32.0634 10.3009 33.2353 10.3081 34.4086C10.3081 37.9159 11.0714 40.7927 12.1502 43.0769C12.8884 42.3102 13.7584 41.6806 14.7193 41.2179C14.0698 39.0254 13.7574 36.7479 13.7928 34.4627C13.79 33.2965 13.9699 32.1369 14.3259 31.0256Z" fill="#B0D0DB"/>
<path d="M14.3259 31.0255C15.1145 31.0903 15.9304 31.1822 16.7753 31.3065C16.6303 30.0149 16.5414 28.7341 16.4997 27.4803C15.4998 28.472 14.7543 29.6878 14.3259 31.0255Z" fill="#B0D0DB"/>
<path d="M25.8151 15.1674C26.6183 9.64613 22.1292 7.68442 19.154 11.878C18.0861 13.3822 17.136 16.7418 16.71 20.975C23.6848 19.9428 25.3456 18.3919 25.8151 15.1674Z" fill="#6EAB40"/>
<path d="M22.5718 24.9418C20.2982 24.9974 18.1296 25.9039 16.4998 27.48C16.5415 28.741 16.6304 30.0145 16.7754 31.3061C17.1036 31.3548 17.4372 31.407 17.7726 31.4664C20.7811 31.963 23.6731 33.0008 26.3067 34.5288C26.0021 30.2991 24.6912 26.8747 22.5718 24.9418Z" fill="#D1A53B"/>
<path d="M26.3772 36.4868C26.3772 36.6057 26.3772 36.7228 26.3772 36.838C26.3772 36.9533 26.3772 37.0578 26.3772 37.1659C26.3781 37.1749 26.3781 37.1839 26.3772 37.1929C26.3772 37.2722 26.3771 37.3496 26.3663 37.4271C26.3663 37.5328 26.3608 37.6373 26.35 37.7405C26.35 37.8504 26.3354 37.9585 26.3264 38.0666V38.0774C26.3155 38.2017 26.3046 38.3278 26.2919 38.4503C26.2792 38.5728 26.2702 38.6538 26.2575 38.7547C26.2394 38.9222 26.2158 39.088 26.1922 39.2501C26.1795 39.3384 26.165 39.4302 26.1505 39.5149C26.1288 39.6536 26.1034 39.7905 26.078 39.9238C26.0581 40.0265 26.0381 40.1292 26.0163 40.2283C25.9946 40.3273 25.9674 40.4534 25.942 40.5633C25.8191 41.0884 25.6684 41.6067 25.4906 42.1161C25.139 41.8691 24.77 41.6475 24.3864 41.4532C24.2903 41.4028 24.1942 41.3559 24.0945 41.3109C24.0202 41.2749 23.944 41.2406 23.8679 41.21C23.8244 41.1884 23.779 41.1704 23.7355 41.1506L23.4998 41.0569L23.4563 41.0389C23.3711 41.0064 23.2859 40.974 23.1989 40.9452C23.1445 40.9254 23.0901 40.9056 23.0357 40.8894C22.9997 40.8749 22.9627 40.8629 22.9251 40.8533C22.8381 40.8227 22.7438 40.7957 22.6604 40.7705L22.5534 40.7398C22.47 40.7164 22.3866 40.693 22.3014 40.6732C22.2561 40.6606 22.2107 40.648 22.1654 40.639C22.1201 40.63 22.0222 40.6029 21.9497 40.5885L21.7683 40.5489C21.6451 40.5237 21.52 40.4985 21.393 40.4768C21.2661 40.4552 21.1374 40.4354 21.0069 40.4174C20.9162 40.4048 20.8256 40.3922 20.7295 40.3832C20.6696 40.3742 20.608 40.367 20.5482 40.3616C20.4122 40.3471 20.2726 40.3345 20.133 40.3237C19.7885 40.2985 19.4531 40.2859 19.1285 40.2859C19.0161 40.2859 18.9037 40.2859 18.7931 40.2859C18.7278 40.1058 18.6662 39.9256 18.6118 39.7455C18.5574 39.5653 18.4994 39.4032 18.445 39.2321C18.4343 39.2044 18.4252 39.1761 18.4178 39.1474C18.3652 38.9799 18.3127 38.8106 18.2619 38.6412C18.2111 38.4719 18.1531 38.281 18.1005 38.0864C17.9954 37.7153 17.8975 37.3406 17.8032 36.9659C17.8024 36.96 17.8024 36.9539 17.8032 36.9479L17.6726 36.4075C17.4998 35.6726 17.3481 34.9352 17.2176 34.1954C17.2176 34.1558 17.2031 34.1162 17.1976 34.0783C17.1741 33.945 17.1523 33.8135 17.1305 33.682C17.0907 33.4569 17.0562 33.2335 17.0236 33.0101C16.9402 32.4427 16.8658 31.8752 16.8024 31.3114C16.9655 31.3348 17.1305 31.36 17.2973 31.3889C17.4641 31.4177 17.6309 31.4429 17.7996 31.4717C17.9682 31.5005 18.1622 31.5366 18.3435 31.5708L18.4523 31.5924C18.5937 31.6194 18.7351 31.6483 18.8747 31.6789C19.056 31.7149 19.221 31.7545 19.3914 31.7942L19.6978 31.868C19.7976 31.8914 19.8991 31.9167 19.9988 31.9437C20.0985 31.9707 20.1982 31.9941 20.2961 32.0229C20.394 32.0518 20.4938 32.0752 20.5899 32.104C20.8038 32.1635 21.0159 32.2247 21.2226 32.2842C21.393 32.3358 21.5617 32.3898 21.7285 32.4463C22.0059 32.5381 22.2724 32.6264 22.5425 32.7327C22.7238 32.7975 22.8961 32.8642 23.0683 32.9344L23.324 33.0371C23.4092 33.0714 23.4944 33.1056 23.5778 33.1434L23.8062 33.2407C23.9984 33.3235 24.1852 33.4082 24.3683 33.4947L24.769 33.6856C25.3213 33.9558 25.8453 34.2374 26.3409 34.5305C26.3518 34.689 26.3626 34.8493 26.3717 35.0096C26.3808 35.17 26.3862 35.2925 26.3917 35.4348C26.3971 35.5771 26.4007 35.7086 26.4043 35.8473C26.4043 35.9229 26.4043 35.9986 26.4043 36.0761C26.3753 36.213 26.3772 36.3499 26.3772 36.4868Z" fill="#A6ACB0"/>
<path d="M22.1473 46.9978C22.0512 47.068 21.9569 47.1329 21.8626 47.1959L21.8209 47.2229L21.578 47.3689C21.5308 47.3959 21.4855 47.4211 21.4384 47.4445C21.3604 47.486 21.2843 47.522 21.2081 47.5562L21.1863 47.567L21.0612 47.6193C21.0304 47.6319 20.9996 47.6445 20.9706 47.6535C20.9025 47.6812 20.8328 47.7053 20.7621 47.7255L20.6587 47.7562C20.5485 47.7856 20.4365 47.8079 20.3233 47.8228C20.2979 47.8228 20.2726 47.8228 20.2454 47.8336C20.1728 47.8336 20.1003 47.8444 20.0314 47.8444C19.9873 47.8471 19.9431 47.8471 19.8991 47.8444C19.8852 47.8463 19.8712 47.8463 19.8574 47.8444C19.8239 47.8419 19.7907 47.8377 19.7577 47.8318H19.7268C19.676 47.8243 19.6257 47.8134 19.5763 47.7994C19.5238 47.7868 19.4694 47.7706 19.415 47.7526C19.3606 47.7345 19.3062 47.7147 19.2518 47.6931C19.1974 47.6715 19.1267 47.6409 19.0705 47.6084L18.9309 47.5382C18.8312 47.4841 18.7296 47.4247 18.6263 47.3581C18.5913 47.3364 18.5568 47.313 18.523 47.2878C18.4118 47.2121 18.3012 47.1293 18.1912 47.0392L18.0334 46.9041C17.912 46.7996 17.7905 46.6861 17.6708 46.5618L17.5584 46.4466C17.5113 46.3961 17.4623 46.3457 17.417 46.2916C17.3173 46.1836 17.2212 46.0719 17.1251 45.953C17.029 45.8341 16.9057 45.6774 16.7987 45.5278C16.6084 45.2684 16.4216 44.9874 16.2421 44.6866C16.1841 44.5911 16.1279 44.4957 16.0717 44.3966C16.0155 44.2975 15.9611 44.1966 15.9067 44.0939C15.8523 43.9913 15.8015 43.894 15.749 43.7913C15.7476 43.7872 15.7476 43.7828 15.749 43.7787C15.6946 43.6706 15.642 43.5625 15.5894 43.4509C15.5368 43.3392 15.4861 43.2275 15.4353 43.1122C15.3845 42.9969 15.3356 42.8798 15.2848 42.7519C15.089 42.2763 14.9059 41.7684 14.7409 41.2279C15.1042 41.0536 15.4792 40.9043 15.8632 40.7812C15.9412 40.7542 16.0209 40.7308 16.1025 40.7073C16.2639 40.6587 16.4289 40.6155 16.5975 40.5758C16.7661 40.5362 16.9383 40.5002 17.1142 40.4678C17.2955 40.4371 17.4678 40.4083 17.6491 40.3849C17.9065 40.3525 18.173 40.3291 18.445 40.3128C18.48 40.311 18.5151 40.311 18.5501 40.3128L18.7931 40.3038C18.8983 40.6029 19.0076 40.8989 19.1213 41.1919C19.1757 41.3324 19.2319 41.4729 19.2881 41.6134C19.2937 41.6326 19.301 41.6513 19.3098 41.6693L19.4621 42.0296C19.4715 42.056 19.4823 42.0819 19.4948 42.107C19.9107 43.1021 20.3822 44.0734 20.9071 45.0163C21.0606 45.2889 21.219 45.5579 21.3821 45.8233C21.4637 45.9566 21.5471 46.0881 21.6305 46.2196C21.7139 46.3511 21.7992 46.4808 21.8844 46.6105C21.9696 46.7402 22.0657 46.8645 22.1473 46.9978Z" fill="#A6ACB0"/>
<path d="M30.3043 54.0113C30.1502 53.9392 29.9979 53.8636 29.8474 53.7879L29.7785 53.7537C29.6353 53.6798 29.4921 53.606 29.3525 53.5303L29.289 53.4961C29.1693 53.4313 29.0515 53.3664 28.9264 53.298C28.8666 53.2655 28.8085 53.2313 28.7451 53.1971C28.6381 53.1358 28.533 53.0728 28.4278 53.0079L28.1776 52.853L28.0924 52.799L27.8476 52.6404C27.7497 52.5774 27.6518 52.5107 27.5557 52.4441L27.3744 52.3252C27.1508 52.1703 26.9314 52.01 26.7163 51.8442C26.6256 51.7758 26.535 51.7055 26.4479 51.6353C26.3609 51.565 26.2666 51.4948 26.1832 51.4227C26.0998 51.3507 26.0019 51.2804 25.9221 51.2065L25.6919 50.9868L25.4399 50.7634C25.3565 50.6895 25.2749 50.6139 25.1933 50.5346L24.9503 50.3041C24.8706 50.2284 24.789 50.1509 24.711 50.0699C24.6331 49.9888 24.5533 49.9113 24.4753 49.8303C24.3974 49.7492 24.3212 49.67 24.2451 49.5889C24.0819 49.4196 23.926 49.2466 23.7719 49.0719L23.5742 48.8431C23.5017 48.7603 23.4292 48.6738 23.3603 48.5891C23.2914 48.5045 23.2189 48.409 23.1482 48.3297C22.9397 48.0703 22.7348 47.8055 22.5372 47.5371L22.3414 47.2669C22.2743 47.1768 22.2108 47.0868 22.1492 46.9949C22.3015 46.8814 22.4574 46.7571 22.6097 46.622C22.6876 46.5554 22.7638 46.4851 22.8399 46.4095C22.9161 46.3338 22.9922 46.2599 23.0684 46.1825C23.6172 45.6084 24.0939 44.9702 24.488 44.282C24.5206 44.2244 24.5551 44.1667 24.5877 44.1019L24.6856 43.9217C24.7292 43.8443 24.769 43.7668 24.8089 43.6876L24.8778 43.5489L24.9703 43.3561C25.0029 43.2895 25.0337 43.221 25.0646 43.1526C25.1244 43.0229 25.1806 42.8896 25.235 42.7545C25.2418 42.7404 25.2479 42.7259 25.2531 42.7112C25.3039 42.5869 25.3528 42.4608 25.4 42.3311C25.4254 42.2591 25.4526 42.187 25.4779 42.1132C25.6266 42.2158 25.7698 42.3239 25.9076 42.4338L26.0799 42.5743C26.2122 42.6842 26.341 42.7977 26.4643 42.913C26.5078 42.9544 26.5531 42.9958 26.5948 43.0391C26.8751 43.3093 27.1379 43.5969 27.3817 43.9001C27.4433 43.974 27.5013 44.0496 27.563 44.1253C27.6246 44.201 27.6881 44.291 27.7443 44.3739C27.8005 44.4568 27.8549 44.5306 27.9074 44.6099C27.9818 44.7198 28.0543 44.8296 28.1232 44.9413C28.1667 45.008 28.2084 45.0764 28.2483 45.1449C28.2882 45.2133 28.3516 45.325 28.4006 45.4079C28.4496 45.4908 28.4985 45.588 28.5456 45.6745C28.5928 45.761 28.6164 45.8078 28.649 45.8744C28.8821 46.3365 29.0879 46.8117 29.2654 47.2975C29.2944 47.3732 29.3216 47.4507 29.347 47.5263C29.4467 47.8127 29.5374 48.0992 29.6172 48.3802C29.6389 48.4576 29.6607 48.5333 29.6806 48.6089C29.7858 48.9962 29.8728 49.3763 29.9471 49.7456L29.9798 49.9258C30.0287 50.187 30.0722 50.441 30.1067 50.6859L30.1339 50.8661C30.1466 50.9616 30.1593 51.0462 30.1702 51.1471C30.181 51.248 30.1883 51.2966 30.1955 51.3687C30.2137 51.5344 30.23 51.6947 30.2427 51.8496C30.2427 51.9397 30.259 52.0298 30.2644 52.1108V52.1955C30.2644 52.2586 30.2644 52.3216 30.2771 52.3756C30.2762 52.3816 30.2762 52.3877 30.2771 52.3937C30.2771 52.4783 30.2771 52.5612 30.288 52.6404C30.2971 52.8206 30.3025 52.9881 30.3043 53.1394C30.3043 53.1755 30.3043 53.2115 30.3043 53.2457C30.3206 53.7321 30.3043 54.0113 30.3043 54.0113Z" fill="#6EAB40"/>
<path d="M16.7754 31.3063C15.9305 31.182 15.1146 31.0902 14.3259 31.0253C13.9699 32.1366 13.7901 33.2962 13.7929 34.4624C13.7574 36.7476 14.0698 39.0251 14.7193 41.2176C15.9904 40.6241 17.3745 40.3072 18.7788 40.288C17.7724 37.3787 17.1003 34.3657 16.7754 31.3063Z" fill="#D1A53B"/>
<path d="M28.9645 27.0026C27.1434 25.5905 24.8803 24.8603 22.5717 24.94C24.6911 26.8729 26.002 30.2973 26.3066 34.5305C31.7349 37.7244 33.7691 41.9306 33.7691 41.9306C33.7691 41.9306 36.1261 32.567 28.9645 27.0026Z" fill="#6EAB40"/>
<path d="M25.4781 42.116C25.4527 42.1899 25.4255 42.2619 25.4001 42.334C25.3512 42.4637 25.3022 42.5898 25.2533 42.7141C25.248 42.7288 25.2419 42.7432 25.2351 42.7573C25.1789 42.8924 25.1227 43.0257 25.0647 43.1554C25.0339 43.2239 25.0031 43.2923 24.9704 43.359L24.878 43.5517L24.8091 43.6904C24.7692 43.7697 24.7293 43.8472 24.6858 43.9246L24.5879 44.1048C24.5552 44.1642 24.5208 44.2218 24.4882 44.2849C24.094 44.9731 23.6173 45.6112 23.0685 46.1854C22.9924 46.2628 22.9162 46.3403 22.8401 46.4123C22.7639 46.4844 22.6878 46.5564 22.6098 46.6249C22.4575 46.76 22.3016 46.8843 22.1493 46.9978C22.0605 46.8699 21.968 46.742 21.8864 46.6123C21.8048 46.4826 21.716 46.3529 21.6326 46.2214C21.5492 46.0899 21.4658 45.9584 21.3842 45.8251C21.221 45.5585 21.0627 45.2895 20.9092 45.0181C20.3793 44.0749 19.9029 43.103 19.4823 42.107C19.4699 42.0819 19.459 42.056 19.4497 42.0296L19.2974 41.6693C19.2886 41.6513 19.2813 41.6326 19.2756 41.6134C19.2194 41.4729 19.1632 41.3324 19.1088 41.1919C18.994 40.8989 18.8846 40.6029 18.7806 40.3038C18.8912 40.3038 19.0036 40.3038 19.1161 40.3038C19.4406 40.3038 19.776 40.3164 20.1205 40.3417C20.2601 40.3525 20.3997 40.3651 20.5357 40.3795C20.5955 40.3795 20.6572 40.3921 20.717 40.4011C20.8095 40.4011 20.8983 40.4227 20.9944 40.4353C21.1249 40.4533 21.2536 40.4732 21.3806 40.4948C21.5075 40.5164 21.6326 40.5416 21.7559 40.5668L21.9372 40.6065C22.0097 40.6209 22.0822 40.6371 22.1529 40.6569C22.2236 40.6767 22.2436 40.6785 22.2889 40.6911C22.3741 40.7109 22.4593 40.7344 22.5409 40.7578L22.6479 40.7884C22.7367 40.8136 22.8292 40.8406 22.9126 40.8713C22.9502 40.8808 22.9872 40.8929 23.0232 40.9073C23.0776 40.9235 23.132 40.9433 23.1864 40.9631C23.2734 40.992 23.3677 41.0244 23.4438 41.0568L23.4873 41.0748L23.723 41.1685C23.7684 41.1865 23.8119 41.2063 23.8554 41.2279C23.9315 41.2586 24.0077 41.2928 24.082 41.3288C24.1817 41.3739 24.2778 41.4207 24.3739 41.4711C24.757 41.6597 25.126 41.8752 25.4781 42.116Z" fill="#B0D0DB"/>
<path d="M34.6847 36.4924C34.2659 32.3493 32.4238 28.8924 29.3525 26.5074C29.1875 26.3795 29.0479 26.2786 28.9246 26.1939C28.8013 26.1093 28.7306 26.0606 28.62 25.9868C28.5094 25.9129 28.4387 25.8769 28.3734 25.8337C28.3082 25.7904 28.2066 25.7346 28.125 25.6877C27.6959 25.4408 27.2486 25.2265 26.787 25.0465C26.6819 25.0032 26.5749 24.9618 26.4679 24.924H26.4425L26.292 24.8717H26.2685L26.1579 24.8339H26.1379L25.9476 24.7744C24.9687 24.4686 23.9495 24.309 22.9234 24.3007H22.8073C22.0856 23.6718 21.2414 23.1971 20.3271 22.9064C20.2346 22.8758 20.1458 22.847 20.0189 22.8163C19.9355 22.7911 19.8484 22.7713 19.7614 22.7533C19.5583 22.7083 19.348 22.6704 19.1395 22.6434C19.0924 22.6434 19.0434 22.6308 18.9963 22.6272C18.9492 22.6236 18.8603 22.611 18.7914 22.6074H18.7316C18.6319 22.6074 18.5303 22.5948 18.4216 22.5912C18.2529 22.5912 18.117 22.5912 18.0082 22.5912H17.8613H17.7199C17.651 22.5912 17.5821 22.5912 17.5132 22.6056C17.4443 22.62 17.3954 22.6056 17.3319 22.6218L17.2032 22.6344C17.2032 22.4939 17.2213 22.3534 17.2322 22.2093L17.2648 21.8022C17.2648 21.7067 17.2793 21.6094 17.2884 21.5139L17.7507 21.4383L17.932 21.4077L18.0571 21.386C18.2257 21.3572 18.3907 21.3284 18.5503 21.2978L18.6464 21.2798C18.8277 21.2455 19.009 21.2095 19.1758 21.1735C19.5783 21.0906 19.9282 21.0132 20.2473 20.9339L20.6534 20.8294L20.7259 20.8096C21.1067 20.7069 21.4512 20.6024 21.7703 20.4926L21.812 20.4781L22.006 20.4097L22.2471 20.3376C22.3196 20.3106 22.3922 20.2836 22.4538 20.2566C22.7312 20.1449 23.0068 20.0206 23.2715 19.8855C23.3875 19.8242 23.4999 19.763 23.6178 19.7054C23.7356 19.6477 23.8716 19.5504 23.9931 19.4694C24.1146 19.3883 24.198 19.3307 24.2995 19.2514C24.3448 19.219 24.3883 19.1848 24.43 19.1505L24.4699 19.1199L24.5932 19.0154L24.731 18.8911C24.8217 18.8065 24.9123 18.72 24.9939 18.6281C25.0338 18.5849 25.0719 18.5435 25.1099 18.4984C25.148 18.4534 25.1843 18.4102 25.2205 18.3669C25.2568 18.3237 25.2731 18.3003 25.2985 18.266L25.3348 18.221C25.3692 18.176 25.4 18.1291 25.4345 18.0823C25.5414 17.9286 25.6389 17.7685 25.7264 17.6031C25.7735 17.5167 25.8152 17.423 25.866 17.3275L25.8823 17.2897C25.9022 17.2447 25.924 17.1996 25.9385 17.1618L25.9512 17.1312C25.9693 17.0861 25.9875 17.0429 25.9983 17.0123C26.0382 16.9114 26.0763 16.8051 26.1126 16.7006C26.1126 16.7006 26.1126 16.6826 26.1126 16.679C26.1252 16.643 26.1361 16.607 26.147 16.5691L26.1706 16.4899C26.1978 16.3962 26.2232 16.3097 26.2485 16.1981C26.2739 16.0864 26.3084 15.9459 26.3337 15.8144L26.3972 15.4775C26.4081 15.4127 26.4171 15.3478 26.428 15.274C26.8505 12.3683 25.8841 10.0013 23.9623 9.24112C22.1728 8.53317 20.1258 9.41045 18.6192 11.5325C18.425 11.8132 18.2517 12.1076 18.1006 12.4134L18.0354 12.5431C17.8384 12.9597 17.663 13.3859 17.5096 13.8202L17.4461 14.0004C17.2648 14.5408 17.0835 15.1406 16.9312 15.7621C16.8279 16.18 16.7263 16.6286 16.6321 17.097C16.4199 18.1454 16.2459 19.2586 16.1153 20.4385C15.5116 20.5232 14.8698 20.6042 14.1971 20.6799L13.8581 20.7195L13.3504 20.7754L12.8283 20.8276C6.89048 21.4185 3.714 24.6105 2.09675 27.1829C1.03676 28.8563 0.325314 30.7239 0.00447818 32.6753C-0.00889309 32.7867 0.00780648 32.8997 0.05287 33.0025C0.0979335 33.1054 0.169742 33.1945 0.260912 33.2607C0.352081 33.3269 0.459335 33.3678 0.571668 33.3792C0.684002 33.3906 0.797366 33.3721 0.900131 33.3256C0.900131 33.3256 0.988965 33.286 1.14307 33.2229L1.16303 33.2139L1.23011 33.1869C1.45855 33.0968 1.83386 32.9581 2.35239 32.7978L2.49381 32.7528L2.58084 32.7258L2.76215 32.6717L2.81472 32.6573L2.99603 32.6069C3.1447 32.5654 3.30244 32.5222 3.47286 32.479L3.94064 32.3619L4.10925 32.3222L4.2688 32.2862H4.29781H4.30868H4.34676C4.6985 32.207 5.07199 32.1331 5.4346 32.0646C5.56514 32.0394 5.70112 32.016 5.84435 31.9944C6.69286 31.8503 7.56132 31.7404 8.42433 31.6683H8.45878C8.87216 31.6323 9.30669 31.6047 9.76237 31.5855H9.84577C9.82582 31.7512 9.80588 31.9187 9.78956 32.0863C9.77506 32.2142 9.76419 32.3421 9.75331 32.4772L9.73699 32.6897C9.72792 32.8158 9.72067 32.9437 9.71342 33.0734C9.71342 33.1725 9.70254 33.2752 9.69891 33.3779C9.69891 33.4067 9.69891 33.4355 9.69891 33.4661V33.4913C9.69891 33.5742 9.69891 33.6589 9.69891 33.7435V34.0137V34.0318C9.69891 34.1651 9.69891 34.3002 9.69891 34.4371C9.69891 34.6767 9.69891 34.9162 9.70979 35.1414C9.70979 35.2639 9.70979 35.3846 9.72248 35.5017C9.73517 35.6188 9.73155 35.7052 9.73699 35.8079V35.8331L9.75331 36.0835C9.75331 36.1898 9.76781 36.2961 9.77687 36.4024L9.83309 36.9824C9.83229 36.9884 9.83229 36.9945 9.83309 37.0004V37.0671C9.83309 37.1554 9.85303 37.2472 9.8639 37.3211C9.87478 37.4274 9.88928 37.5336 9.90379 37.6327C9.9328 37.8345 9.9618 38.0326 9.99444 38.2236C10.0597 38.6181 10.1377 39.0126 10.2319 39.4233C10.27 39.5926 10.3099 39.7602 10.3516 39.9187C10.3933 40.0772 10.4368 40.2537 10.4822 40.4033C10.4967 40.4573 10.5112 40.5113 10.5239 40.5546C10.5656 40.6987 10.6091 40.8446 10.6544 40.9815C10.7088 41.1616 10.765 41.322 10.8212 41.4841C10.8774 41.6462 10.939 41.8209 11.0025 41.9813C11.1149 42.2803 11.2382 42.5883 11.3651 42.8928V42.909C11.3651 42.9234 11.3778 42.936 11.3833 42.9486C11.3887 42.9612 11.3959 42.9774 11.4014 42.99C11.3071 43.0981 11.2201 43.208 11.1294 43.3089C11.0859 43.3611 11.0442 43.4116 11.0043 43.4638L10.9735 43.5016L10.8647 43.6439C10.6192 43.9672 10.3905 44.3027 10.1794 44.6491C10.1395 44.7122 10.1014 44.7752 10.0706 44.8293C9.83441 45.2312 9.61898 45.6449 9.42515 46.0686C9.38889 46.1479 9.35443 46.2271 9.31817 46.31C9.2384 46.4901 9.16043 46.6811 9.08972 46.863C9.06434 46.9261 9.04077 46.9873 9.02446 47.0341C8.93562 47.2701 8.86309 47.4773 8.80326 47.6592C8.78694 47.7061 8.77244 47.7511 8.75793 47.7961C8.64915 48.136 8.55004 48.4849 8.4606 48.8427L8.43884 48.922C8.43884 48.9328 8.43884 48.9436 8.43884 48.9562C8.43884 48.9688 8.43884 48.9742 8.43884 48.9832V49.0013C8.43884 49.0193 8.42977 49.0391 8.42615 49.0571C8.41346 49.1093 8.40258 49.1598 8.38988 49.2102L8.37175 49.2931V49.3183L8.35544 49.3976L8.34637 49.4372C8.34637 49.4732 8.33186 49.5075 8.32642 49.5363L8.3083 49.6191C8.25209 49.9056 8.20314 50.1956 8.16144 50.4928V50.5721C8.14149 50.727 8.13243 50.8117 8.13243 50.8117C8.11834 50.9656 8.16146 51.1193 8.25366 51.2437C8.34586 51.3682 8.48074 51.4548 8.63283 51.4872C9.13692 51.5791 9.64877 51.6225 10.1612 51.6169C12.6199 51.6219 14.9979 50.7456 16.8587 49.149C16.9293 49.0889 16.9858 49.0142 17.024 48.93C17.0623 48.8458 17.0814 48.7543 17.08 48.6619C17.0786 48.5696 17.0568 48.4787 17.016 48.3956C16.9753 48.3126 16.9166 48.2396 16.8442 48.1816C16.3858 47.8074 15.9528 47.4037 15.5478 46.9729L15.4191 46.8324L15.2886 46.6901C15.2034 46.5946 15.12 46.4973 15.0366 46.4001C14.8027 46.1226 14.5761 45.8326 14.353 45.5264C14.3132 45.4742 14.2733 45.4201 14.2334 45.3625L14.101 45.1715C13.8708 44.8383 13.6659 44.514 13.4646 44.1699C13.4248 44.1051 13.3885 44.0384 13.3468 43.9646C13.3051 43.8907 13.2652 43.8205 13.2253 43.7466C13.1854 43.6728 13.1474 43.6079 13.1075 43.5287C13.0676 43.4494 13.0059 43.3341 12.957 43.2368C13.0331 43.1648 13.1111 43.0963 13.1872 43.0297C13.2634 42.963 13.3341 42.9018 13.4121 42.8387L13.432 42.8243L13.4465 42.8117C13.4882 42.7775 13.5354 42.7433 13.5916 42.7C13.6478 42.6568 13.675 42.6334 13.7203 42.6027L13.7493 42.5811C13.7874 42.5505 13.8291 42.5235 13.8689 42.4965L13.9052 42.4712C13.9397 42.4442 13.9759 42.4208 14.0122 42.3956L14.0394 42.3794C14.1463 42.3073 14.2443 42.2443 14.3422 42.1866L14.3639 42.174L14.3802 42.1632H14.3893C14.4908 42.4532 14.5978 42.7379 14.7138 43.0153C14.7664 43.1414 14.8172 43.2657 14.8661 43.3755C14.9151 43.4854 14.9767 43.6205 15.0275 43.7358C15.0783 43.8511 15.1399 43.9772 15.1943 44.0781C15.1936 44.0835 15.1936 44.0889 15.1943 44.0943C15.2469 44.2024 15.3031 44.3087 15.3593 44.4131C15.4155 44.5176 15.4735 44.6275 15.5406 44.7302C15.6077 44.8329 15.6603 44.9409 15.7219 45.0328C15.9021 45.3372 16.0976 45.6324 16.3075 45.9173C16.4163 46.0704 16.5305 46.2199 16.6556 46.373C16.7807 46.5262 16.8605 46.618 16.9657 46.7333C17.0055 46.7802 17.0491 46.827 17.0908 46.872L17.1524 46.9351C17.1832 46.9693 17.2159 47.0017 17.2485 47.0341C17.3754 47.1638 17.5096 47.2881 17.6365 47.3944C17.6963 47.4467 17.7543 47.4971 17.8178 47.5475C17.9393 47.6466 18.0626 47.7403 18.1804 47.8232C18.2239 47.8556 18.2674 47.8844 18.3001 47.9042C18.4089 47.9763 18.5249 48.0465 18.6627 48.1168L18.815 48.1924C18.8948 48.2339 18.9745 48.2681 19.0634 48.3041C19.1522 48.3402 19.1885 48.351 19.2574 48.3744C19.3263 48.3978 19.3915 48.4158 19.4568 48.432C19.5164 48.4492 19.5769 48.463 19.6381 48.4735L19.6979 48.4843L19.8085 48.4987C19.8363 48.501 19.8642 48.501 19.8919 48.4987C19.9523 48.5019 20.0129 48.5019 20.0732 48.4987C20.1639 48.4987 20.2545 48.4987 20.3506 48.4843H20.3851L20.4667 48.4717C20.6001 48.4543 20.7322 48.4278 20.8619 48.3924C20.9054 48.3816 20.9508 48.3672 20.9798 48.3582C21.065 48.3329 21.1466 48.3059 21.2282 48.2735C21.2681 48.2609 21.3079 48.2447 21.346 48.2285L21.482 48.1708L21.5056 48.16C21.5962 48.1204 21.6869 48.0772 21.7793 48.0285C21.8319 48.0015 21.8827 47.9745 21.9316 47.9456L22.0277 47.8898L22.0622 47.9384C22.2725 48.2267 22.4864 48.5023 22.6859 48.7473C22.7602 48.8409 22.8345 48.9274 22.9071 49.0175C22.9796 49.1075 23.0575 49.1976 23.1264 49.2787C23.1953 49.3597 23.2642 49.4408 23.3349 49.5183C23.4637 49.6642 23.6341 49.8551 23.819 50.0479C23.8952 50.1325 23.975 50.2172 24.0584 50.3001C24.1418 50.3829 24.2179 50.4658 24.2995 50.545C24.3811 50.6243 24.4681 50.7108 24.5406 50.781C24.6132 50.8513 24.7111 50.9468 24.7981 51.0242C24.8851 51.1017 24.9685 51.1881 25.0519 51.2602C25.1353 51.3323 25.2332 51.4169 25.3039 51.4836C25.3746 51.5502 25.4852 51.6439 25.5741 51.7178C25.6629 51.7916 25.7554 51.8709 25.846 51.9411C25.9367 52.0114 26.0273 52.0924 26.1107 52.1555C26.1941 52.2185 26.3047 52.3104 26.3936 52.3735C26.613 52.5428 26.8396 52.7085 27.068 52.8688C27.1315 52.9157 27.1968 52.9589 27.2493 52.9931C27.3527 53.0634 27.456 53.1336 27.5539 53.1967L27.8114 53.3642L27.8966 53.4183L28.1504 53.575C28.261 53.6434 28.3734 53.7101 28.4786 53.7695C28.5402 53.8074 28.6055 53.8434 28.6599 53.8722C28.7832 53.9443 28.9065 54.0127 29.0461 54.0884L29.1041 54.119C29.2455 54.1965 29.3906 54.2703 29.5356 54.3442L29.5574 54.355L29.619 54.3856C29.7713 54.4631 29.9254 54.5405 30.0832 54.6126C30.1673 54.6532 30.2597 54.6742 30.3533 54.6738C30.4674 54.6733 30.5794 54.6429 30.6778 54.5855C30.7668 54.5324 30.8413 54.4586 30.895 54.3704C30.9487 54.2822 30.98 54.1823 30.9861 54.0794C30.9861 54.0668 31.0042 53.7731 30.9988 53.2868C30.9988 53.2453 30.9988 53.2039 30.9988 53.1625C30.9988 53.0057 30.9988 52.8364 30.9824 52.6671C30.9824 52.6094 30.9824 52.5518 30.9824 52.4869V52.4023C30.9824 52.3879 30.9824 52.3753 30.9824 52.3626C30.9824 52.2996 30.9824 52.2347 30.9697 52.1825V52.0978C30.9697 52.006 30.9571 51.9177 30.948 51.8258C30.9335 51.6655 30.9172 51.4998 30.899 51.3341C30.899 51.2566 30.8827 51.1773 30.8737 51.1017C30.8646 51.026 30.8537 50.9468 30.8428 50.8675L30.8066 50.6225C30.7739 50.3883 30.7322 50.1307 30.676 49.8335L30.6416 49.6534C30.5582 49.2372 30.4603 48.8517 30.366 48.4807C30.3497 48.4176 30.3334 48.3546 30.3152 48.2915L30.3007 48.2411C30.2173 47.9493 30.1194 47.6502 30.0215 47.3584C29.9925 47.2755 29.9635 47.1891 29.9345 47.1134C29.7496 46.6065 29.5346 46.1108 29.2908 45.6291C29.2546 45.5552 29.2165 45.4796 29.1803 45.4147C29.1295 45.3174 29.0787 45.222 29.028 45.1355C28.9772 45.049 28.9228 44.9554 28.8702 44.8599C28.8176 44.7644 28.7778 44.705 28.736 44.6437C28.6635 44.5248 28.5856 44.4077 28.5094 44.2942C28.4514 44.2078 28.3934 44.1141 28.3281 44.0366C28.2628 43.9592 28.1976 43.8565 28.1323 43.7736C28.067 43.6908 28.0054 43.6097 27.951 43.5377C27.6926 43.2167 27.4146 42.9117 27.1188 42.6244L27.0046 42.5145L26.9738 42.4857C26.8414 42.3614 26.7018 42.2389 26.5622 42.1254C26.5042 42.0749 26.4425 42.0263 26.3809 41.9759C26.3537 41.9524 26.3265 41.9344 26.2993 41.9128C26.4208 41.5273 26.5296 41.1328 26.6202 40.7419C26.6492 40.6212 26.6764 40.4987 26.6982 40.3816C26.7199 40.2645 26.7453 40.1637 26.7634 40.061C26.7888 39.9205 26.816 39.7764 26.8378 39.6377C26.8541 39.5476 26.8686 39.4575 26.8813 39.3603C26.9067 39.1909 26.9302 39.0162 26.9484 38.8523C26.9611 38.7478 26.9738 38.6433 26.9846 38.5334C26.9955 38.4235 27.0082 38.2794 27.0209 38.1515C27.0201 38.1407 27.0201 38.1299 27.0209 38.1191C27.03 38.011 27.0372 37.9011 27.0427 37.8039C27.0481 37.7066 27.0553 37.5895 27.059 37.4796C27.059 37.404 27.068 37.3265 27.0717 37.2382V37.195C27.0717 37.0887 27.0717 36.9824 27.0717 36.8761V36.8563C27.0717 36.741 27.0717 36.624 27.0717 36.5069C27.0717 36.3898 27.0717 36.2367 27.0717 36.0979C27.0717 36.0187 27.0717 35.9412 27.0717 35.853C27.0717 35.8115 27.0717 35.7701 27.0717 35.7305C27.2004 35.8151 27.3273 35.9016 27.4633 35.9971C27.5304 36.0421 27.5956 36.0889 27.67 36.143C27.9111 36.3231 28.1069 36.4582 28.2846 36.5987L28.3009 36.6095C28.3626 36.6546 28.4206 36.7014 28.4822 36.7573C28.611 36.8563 28.7361 36.959 28.8702 37.0725C28.9264 37.1157 28.9808 37.1626 29.0515 37.222C29.2963 37.4256 29.5284 37.6309 29.7441 37.8327C30.2526 38.2989 30.7367 38.7907 31.1946 39.3062C31.2326 39.3476 31.2671 39.3873 31.3015 39.4305L31.316 39.4467C31.4357 39.5818 31.5481 39.7151 31.6569 39.852C31.7657 39.9889 31.8672 40.1078 31.9524 40.2231L31.9742 40.2501C31.9978 40.279 32.0195 40.306 32.0395 40.3348L32.0594 40.3618C32.121 40.4393 32.1772 40.5167 32.2407 40.5978C32.2824 40.6518 32.3205 40.7059 32.3586 40.7581L32.3803 40.7888C32.3857 40.7988 32.3917 40.8084 32.3984 40.8176C32.4691 40.9148 32.5344 41.0085 32.5979 41.104C32.8342 41.449 33.0521 41.8062 33.2506 42.174C33.2543 42.1847 33.2592 42.195 33.2651 42.2046C33.2698 42.2164 33.2752 42.2278 33.2814 42.2389C33.3075 42.2883 33.3398 42.3343 33.3775 42.3758C33.4546 42.4609 33.5536 42.5236 33.6638 42.5571C33.774 42.5906 33.8914 42.5936 34.0032 42.5658C34.1151 42.5381 34.2172 42.4805 34.2986 42.3994C34.38 42.3183 34.4376 42.2168 34.4653 42.1056C34.8364 40.2578 34.9105 38.3633 34.6847 36.4924ZM17.8958 17.3293C17.9864 16.879 18.0771 16.4485 18.1822 16.0503C18.3309 15.4631 18.4941 14.9029 18.6681 14.3913L18.7261 14.2255C18.8637 13.8331 19.0222 13.4483 19.2012 13.0727C19.2193 13.033 19.2374 12.997 19.261 12.9502C19.3828 12.704 19.5221 12.4668 19.678 12.2404C20.5827 10.9578 21.7032 10.2499 22.7221 10.2499C22.9909 10.2492 23.2573 10.2994 23.5072 10.3976C24.8634 10.938 25.5233 12.7718 25.1861 15.0812C25.1861 15.1334 25.1698 15.1857 25.1607 15.2451L25.1027 15.555C25.0827 15.663 25.0592 15.7711 25.0338 15.872C25.0084 15.9729 24.9885 16.0521 24.9703 16.1098L24.9196 16.2701C24.8906 16.3566 24.8597 16.4503 24.8217 16.5421L24.7836 16.634L24.7673 16.6754C24.7673 16.7006 24.7455 16.7241 24.7346 16.7493L24.7201 16.7817C24.6857 16.852 24.653 16.9204 24.6132 16.9943C24.5491 17.1188 24.477 17.2392 24.3974 17.3545L24.3285 17.4536L24.2977 17.4933L24.2451 17.5599C24.2161 17.5959 24.1871 17.632 24.1563 17.6662C24.1254 17.7004 24.0946 17.7346 24.0656 17.7653C24.0058 17.8301 23.9405 17.895 23.8662 17.9634C23.8354 17.994 23.8009 18.0247 23.7701 18.0517L23.6722 18.1345L23.6504 18.1526C23.616 18.1796 23.5833 18.2066 23.5471 18.2318L23.5289 18.2462C23.46 18.3003 23.3839 18.3525 23.2932 18.4138C23.2026 18.475 23.0884 18.5471 22.9887 18.6065C22.8889 18.666 22.7965 18.7128 22.6967 18.765C22.4665 18.8821 22.2272 18.9902 21.9715 19.0911C21.9135 19.1163 21.8519 19.1379 21.7793 19.1667L21.5727 19.2442L21.3913 19.3054L21.3496 19.3199C21.0596 19.4189 20.735 19.518 20.3905 19.6099L20.3216 19.6279C20.1965 19.6621 20.066 19.6963 19.9336 19.7288C19.6327 19.8026 19.2991 19.8783 18.9075 19.9575C18.7443 19.9936 18.5738 20.0278 18.4052 20.0584L18.3128 20.0764L17.8377 20.1611L17.7108 20.1845L17.5386 20.2115L17.4171 20.2332C17.5531 19.2118 17.7145 18.239 17.8958 17.3293ZM21.0559 25.7598C21.1103 25.7454 21.1665 25.7364 21.2372 25.7238C21.3388 25.704 21.4385 25.6859 21.5509 25.6697L21.6923 25.6499H21.7123L21.792 25.6391H21.8228L22.0042 25.6193H22.0386L22.1401 25.6085L22.3468 25.5959C22.5256 25.7675 22.6956 25.9478 22.8563 26.1363C23.6434 27.116 24.2532 28.2241 24.6585 29.4112C24.6947 29.5031 24.7274 29.5913 24.76 29.7012C24.8996 30.1065 25.0229 30.5353 25.1353 30.9874C25.1625 31.0901 25.1879 31.1946 25.2133 31.3099C25.2387 31.4252 25.264 31.5332 25.2876 31.6449C25.2876 31.6593 25.2876 31.6719 25.2876 31.6828C25.3329 31.9025 25.3764 32.1223 25.4145 32.3529C25.4363 32.4682 25.4544 32.5834 25.4725 32.7131C25.5088 32.9401 25.5396 33.1707 25.5686 33.4067C25.3873 33.313 25.206 33.2175 25.0247 33.1275C24.8851 33.059 24.7473 32.9906 24.615 32.9329C24.4337 32.8428 24.2324 32.7528 24.0475 32.6753C23.9677 32.6393 23.8843 32.6033 23.8027 32.5708C23.7211 32.5384 23.6214 32.4952 23.5471 32.4646C23.4727 32.4339 23.3658 32.3871 23.2842 32.3583C23.1029 32.2844 22.9216 32.216 22.7403 32.1511C22.4538 32.0412 22.1782 31.9458 21.9099 31.8575C21.7286 31.798 21.5473 31.7404 21.3913 31.6918C21.2354 31.6431 21.0015 31.5711 20.7423 31.499C20.6407 31.4684 20.5392 31.4414 20.4377 31.4144C20.3361 31.3873 20.2328 31.3585 20.1385 31.3351L19.8249 31.2558H19.8031L19.5094 31.1856C19.3281 31.1441 19.1468 31.1045 18.9836 31.0685C18.8204 31.0325 18.6917 31.0072 18.5503 30.9784L18.4161 30.9532C18.2348 30.919 18.0644 30.8847 17.8867 30.8559H17.8468C17.6873 30.8289 17.5295 30.8019 17.3863 30.7803H17.3609C17.3619 30.7719 17.3619 30.7634 17.3609 30.755C17.2612 29.7751 17.1923 28.7735 17.1524 27.7629L17.2358 27.6891L17.2539 27.6729C17.2956 27.635 17.3355 27.599 17.3772 27.5648L17.3954 27.5504C17.4933 27.4675 17.593 27.3865 17.6873 27.3126C17.7435 27.2694 17.7997 27.2279 17.8686 27.1811C18.0336 27.0604 18.1877 26.9577 18.3381 26.8659L18.3617 26.8514C18.4687 26.783 18.5811 26.7199 18.6826 26.6623L18.8349 26.5812L18.8621 26.5668C18.9129 26.538 18.9637 26.5128 19.0217 26.4858C19.2519 26.3705 19.4913 26.266 19.7306 26.1741H19.7487C19.8031 26.1507 19.8575 26.1309 19.9101 26.1129L19.9536 26.0967L20.1041 26.0462C20.2255 26.0048 20.347 25.9688 20.4776 25.9309L20.6407 25.8859H20.6625L20.8547 25.8391L21.036 25.7976L21.0559 25.7598ZM17.1524 23.9278C17.1869 23.9278 17.2231 23.9152 17.2594 23.9116C17.3283 23.9008 17.3972 23.8936 17.4661 23.8864H17.4951C17.535 23.8864 17.5749 23.8864 17.6166 23.8756H17.6492C17.6921 23.8729 17.735 23.8729 17.7779 23.8756H17.8106H17.9193H18.0317C18.1514 23.8756 18.2711 23.8756 18.3853 23.8756C18.4705 23.8756 18.5539 23.8756 18.6373 23.89H18.6645H18.7062L18.8531 23.9044C18.8724 23.9062 18.8918 23.9062 18.9111 23.9044H18.9782C19.15 23.9258 19.3207 23.9558 19.4894 23.9945H19.5148C19.5681 24.0049 19.6207 24.0181 19.6726 24.0341H19.6979C19.7759 24.0539 19.8502 24.0737 19.9409 24.1043C20.2672 24.2055 20.5829 24.3376 20.8837 24.4988L20.7658 24.5223L20.5537 24.5691C20.4812 24.5871 20.4087 24.6033 20.3307 24.6249H20.3053L20.124 24.6772C19.979 24.7186 19.8357 24.7618 19.7034 24.8069L19.5311 24.8645L19.4822 24.8825C19.4115 24.9078 19.339 24.933 19.2682 24.9636C18.9927 25.0681 18.7243 25.1888 18.4614 25.3239C18.3907 25.3581 18.3236 25.3905 18.2547 25.4284L18.0571 25.5346C17.9411 25.5995 17.8051 25.6769 17.6691 25.7634C17.4939 25.8715 17.3162 25.9916 17.1361 26.1237L17.1198 26.1345C17.1016 25.4013 17.118 24.661 17.147 23.9278H17.1524ZM10.7922 27.8044C10.7583 27.8836 10.7257 27.9647 10.6943 28.0476C10.6472 28.1665 10.6018 28.2889 10.5601 28.4078C10.5365 28.4763 10.5112 28.5465 10.4912 28.6114L10.4296 28.8005C10.3861 28.9392 10.3462 29.0798 10.3063 29.2239C10.2465 29.4364 10.1902 29.6562 10.1395 29.8832C10.1214 29.957 10.105 30.0327 10.0924 30.0939C10.0797 30.1552 10.0652 30.2218 10.0525 30.2885H9.98356C9.88384 30.2885 9.78594 30.2885 9.69891 30.2993C9.22751 30.3191 8.767 30.3497 8.32824 30.3876H8.29923C7.40721 30.4614 6.50974 30.5677 5.63766 30.7226C5.48536 30.7478 5.33488 30.7713 5.19709 30.8001C4.81997 30.8685 4.44466 30.9442 4.08024 31.0253L3.99865 31.0433L3.81734 31.0829L3.62335 31.1297C3.45655 31.1694 3.29519 31.2108 3.1447 31.2504C2.99422 31.2901 2.79841 31.3405 2.64611 31.3837L2.45211 31.4396L2.41585 31.4504C2.3397 31.4702 2.26717 31.4918 2.19828 31.5134L2.12213 31.5368C2.06049 31.5549 2.00247 31.5729 1.95715 31.5891C1.78853 31.6413 1.63261 31.6918 1.49119 31.7404C2.17109 29.1824 4.6713 22.9028 12.9679 22.0598L13.4955 22.0057L14.0049 21.9499L14.3675 21.9084C14.9332 21.8454 15.4826 21.7769 16.0084 21.7049L15.9757 22.1156C15.9558 22.3876 15.9395 22.6452 15.925 22.8992L15.876 22.9136L15.6294 22.9893C15.5388 23.0199 15.4481 23.0541 15.3448 23.092C15.2414 23.1298 15.1798 23.1568 15.1109 23.1874C15.0076 23.2289 14.906 23.2757 14.8009 23.3261L14.7755 23.3387C14.712 23.3694 14.6468 23.4 14.5942 23.427C14.5126 23.4684 14.4328 23.5117 14.3476 23.5603C14.2624 23.609 14.1663 23.6702 14.0629 23.7405C13.9596 23.8107 13.9306 23.8215 13.8726 23.8611C13.6804 23.9908 13.51 24.1187 13.3504 24.2466C13.2906 24.2935 13.2308 24.3421 13.1691 24.3944C13.1075 24.4466 13.0168 24.5241 12.9425 24.5943L12.8428 24.688C12.7992 24.7312 12.7539 24.7744 12.7122 24.8195C12.519 25.0117 12.3374 25.215 12.1683 25.4284C12.1175 25.4896 12.0668 25.5526 12.0269 25.6085C11.987 25.6643 11.9272 25.74 11.8818 25.803C11.8365 25.8661 11.7876 25.9363 11.7386 26.0084C11.4458 26.4442 11.1887 26.9026 10.9699 27.3792L10.8575 27.6296C10.8248 27.6909 10.8049 27.7539 10.7867 27.8044H10.7922ZM16.0646 30.5713L15.6149 30.5173L15.2179 30.4722V30.456C15.2432 30.3948 15.2686 30.3335 15.2976 30.2759L15.3085 30.2543C15.3375 30.1876 15.3684 30.1246 15.4101 30.0471C15.4518 29.9696 15.4844 29.8976 15.5297 29.8147C15.575 29.7319 15.6022 29.6796 15.6494 29.6004C15.7328 29.4526 15.8198 29.3139 15.925 29.1608L15.9413 29.1356C15.9757 29.6166 16.0138 30.0975 16.0591 30.5713H16.0646ZM13.0186 45.8596L13.151 46.0506C13.2017 46.1208 13.2525 46.1929 13.296 46.2487C13.5263 46.5676 13.7729 46.881 14.0213 47.1837L14.2986 47.5007L14.4383 47.6538L14.5742 47.8015L14.5887 47.8159C14.8571 48.1006 15.1327 48.369 15.4064 48.6212C13.6748 49.8564 11.5621 50.4492 9.43602 50.2965C9.46141 50.1433 9.4886 49.9884 9.51942 49.8371L9.53756 49.747C9.54257 49.731 9.54862 49.7154 9.55568 49.7002V49.6732L9.56474 49.6281C9.56474 49.5975 9.57743 49.5669 9.58469 49.5345L9.59919 49.4696C9.61189 49.4192 9.62277 49.3669 9.63546 49.3129C9.63546 49.2895 9.64814 49.2643 9.65358 49.2372C9.65902 49.2102 9.66265 49.203 9.66628 49.185C9.66628 49.1598 9.67897 49.1346 9.6826 49.1184C9.76419 48.7959 9.86391 48.4717 9.95637 48.1564L9.99625 48.0393C10.0543 47.8592 10.1214 47.67 10.2084 47.4359C10.2229 47.3944 10.2392 47.353 10.2573 47.3062C10.3262 47.126 10.3988 46.9585 10.4731 46.7838C10.5039 46.7135 10.5347 46.6451 10.5674 46.5748C10.7487 46.1641 10.9499 45.7948 11.1584 45.4363L11.2491 45.2886C11.4415 44.9708 11.6509 44.6636 11.8764 44.3681L11.9598 44.2582L11.987 44.224L11.9997 44.2078C12.0214 44.2492 12.0432 44.2906 12.0668 44.3321C12.1085 44.4095 12.152 44.4852 12.1919 44.5554C12.2318 44.6257 12.2825 44.7194 12.326 44.7896C12.5454 45.1463 12.7684 45.4958 13.0186 45.8596ZM13.7257 41.0337L13.6605 41.0734C13.548 41.14 13.4338 41.2121 13.316 41.2913C13.2953 41.3035 13.2754 41.3167 13.2561 41.331C13.2072 41.3616 13.16 41.394 13.1129 41.43C13.0658 41.4661 12.9987 41.5093 12.9425 41.5525C12.8863 41.5958 12.8283 41.6372 12.7829 41.6732C12.7376 41.7093 12.6651 41.7597 12.6107 41.8047L12.5944 41.8191L12.5817 41.8282L12.3714 42.0083C12.3043 41.8426 12.239 41.6768 12.1774 41.5129C12.1157 41.349 12.065 41.2139 12.0124 41.0536C11.9598 40.8932 11.9054 40.7401 11.8528 40.5744C11.8111 40.4447 11.7712 40.3132 11.7314 40.1709C11.7187 40.1294 11.7078 40.0898 11.6933 40.0376C11.6498 39.8899 11.6099 39.7403 11.57 39.58C11.5301 39.4197 11.4957 39.2756 11.4594 39.1189C11.3706 38.7298 11.298 38.3623 11.2364 37.9876C11.2038 37.8075 11.1766 37.6273 11.1494 37.4256C11.1367 37.3373 11.124 37.2454 11.1131 37.1427C11.1022 37.0653 11.0932 36.986 11.0823 36.8942V36.8707V36.8167L11.0297 36.2655C11.0206 36.1664 11.0134 36.0673 11.0061 35.9718L10.9898 35.7179C10.9898 35.6206 10.9789 35.5269 10.9753 35.4224C10.9717 35.3179 10.9753 35.2081 10.9644 35.091C10.9572 34.8676 10.9536 34.6424 10.9536 34.4155C10.9536 34.284 10.9536 34.1543 10.9536 34.0173V33.7489C10.9536 33.6751 10.9536 33.6012 10.9536 33.5328V33.4607C10.9536 33.4463 10.9536 33.4319 10.9536 33.4175C10.9536 33.3202 10.9536 33.2247 10.9662 33.1311C10.9654 33.1257 10.9654 33.1202 10.9662 33.1149C10.9662 32.9942 10.9771 32.8771 10.9862 32.7546L11.0025 32.551C11.0116 32.4267 11.0224 32.306 11.0351 32.1817C11.0569 31.9584 11.0841 31.7404 11.1131 31.526C11.5229 31.526 11.9435 31.526 12.3714 31.5422H12.3913C12.7539 31.5513 13.1165 31.5693 13.49 31.5927C13.49 31.6161 13.4773 31.6395 13.4719 31.6647C13.4538 31.7386 13.4374 31.8125 13.4229 31.8773C13.3903 32.0232 13.3613 32.1727 13.3341 32.3222V32.3529C13.3341 32.4069 13.3142 32.461 13.3051 32.5222L13.2761 32.7023C13.2761 32.7023 13.2761 32.7222 13.2761 32.7258L13.2561 32.8789C13.2138 33.1899 13.1842 33.5226 13.1673 33.8768C13.1673 33.9651 13.1673 34.057 13.1582 34.1362C13.1492 34.2155 13.1582 34.3452 13.1582 34.4443C13.1582 34.6388 13.1582 34.8298 13.1582 35.0081C13.1582 35.0856 13.1582 35.1612 13.1582 35.2297C13.1582 35.3414 13.1582 35.4549 13.1673 35.5647C13.1665 35.5719 13.1665 35.5792 13.1673 35.5864C13.1673 35.7143 13.1673 35.844 13.1836 35.9718C13.1836 36.0043 13.1836 36.0403 13.1836 36.0817V36.2078C13.1836 36.3069 13.1963 36.4042 13.2036 36.4943C13.2217 36.7699 13.2453 37.0437 13.2743 37.3067C13.2743 37.3823 13.2888 37.4562 13.2978 37.5192C13.3105 37.6273 13.3214 37.7354 13.3359 37.8309C13.3504 37.9264 13.3649 38.0669 13.3812 38.1912C13.4066 38.3713 13.432 38.5298 13.4592 38.6865C13.51 38.9982 13.5589 39.2666 13.6097 39.5044C13.6677 39.7908 13.7257 40.0448 13.791 40.2826C13.8218 40.4141 13.8545 40.5438 13.8871 40.6663C13.907 40.7437 13.9288 40.8176 13.9487 40.8932C13.8816 40.9419 13.8001 40.9869 13.7257 41.0337ZM14.2696 29.4851C14.2279 29.5661 14.1881 29.6472 14.15 29.7319C14.1119 29.8165 14.0865 29.8724 14.0539 29.9462C14.0412 29.9714 14.0303 29.9985 14.0213 30.0201C13.985 30.1047 13.9505 30.1894 13.9215 30.2633C13.9088 30.2957 13.898 30.3263 13.8853 30.3569C13.3885 30.3227 12.899 30.2975 12.4348 30.2849H12.4167C12.0541 30.2723 11.6915 30.2669 11.3506 30.2669C11.3506 30.2308 11.3651 30.1948 11.3742 30.157C11.4195 29.957 11.4703 29.7571 11.5247 29.5625C11.5609 29.4328 11.5972 29.3067 11.6371 29.1824L11.6969 29.0023C11.7132 28.9465 11.7332 28.8906 11.7531 28.833C11.793 28.7213 11.8329 28.6114 11.8764 28.5033C11.876 28.4973 11.876 28.4913 11.8764 28.4853C11.9 28.4205 11.9254 28.3556 11.958 28.2781L12.0196 28.1304C12.0523 28.0548 12.0867 27.9809 12.1194 27.9089C12.3084 27.4953 12.531 27.0977 12.7847 26.7199C12.8246 26.6605 12.8663 26.6011 12.9117 26.5398C12.957 26.4786 12.9914 26.4317 13.0386 26.3687C13.0857 26.3056 13.1057 26.2804 13.1474 26.23C13.2921 26.0479 13.4477 25.8747 13.6133 25.7112C13.6221 25.7037 13.63 25.6952 13.6369 25.6859L13.7257 25.5977L13.7928 25.5346L13.8146 25.5166C13.8676 25.464 13.9232 25.4141 13.9814 25.3671C13.9888 25.3621 13.9956 25.356 14.0013 25.3491L14.1409 25.2338C14.2733 25.1257 14.4165 25.0212 14.5851 24.906C14.6268 24.8789 14.6667 24.8519 14.7084 24.8285L14.7356 24.8123C14.8136 24.7618 14.8915 24.715 14.9659 24.6736C15.0402 24.6321 15.0982 24.5997 15.178 24.5583L15.3194 24.4898L15.343 24.4772C15.4227 24.4394 15.5025 24.4034 15.5968 24.3637L15.7908 24.2845L15.8561 24.2611C15.8252 25.25 15.8216 26.2426 15.8561 27.2387C15.7962 27.3018 15.7364 27.3648 15.6748 27.4315C15.5515 27.5648 15.4336 27.7035 15.3303 27.835C15.2723 27.9071 15.2161 27.9791 15.1617 28.053C15.1073 28.1268 15.0474 28.2043 14.9967 28.2817C14.9459 28.3592 14.9024 28.4132 14.8679 28.4619C14.7501 28.642 14.6431 28.8041 14.5507 28.9699C14.5017 29.0509 14.4564 29.1356 14.4092 29.2203C14.3621 29.3049 14.315 29.404 14.2696 29.4851ZM15.1254 40.3546C15.0946 40.2411 15.0656 40.1258 15.0366 39.9943C14.9804 39.7692 14.926 39.5296 14.8698 39.2576C14.8226 39.0342 14.7773 38.7856 14.7283 38.483C14.7012 38.3299 14.6794 38.1767 14.6558 38.02L14.6105 37.6778C14.5978 37.5877 14.5887 37.4976 14.5779 37.3949C14.5779 37.3949 14.5779 37.3823 14.5779 37.3751C14.5688 37.3211 14.5634 37.2652 14.5597 37.2112C14.5588 37.2046 14.5588 37.198 14.5597 37.1914C14.5307 36.9428 14.509 36.6852 14.4908 36.4168C14.4908 36.3267 14.4781 36.2367 14.4727 36.1448V36.0151C14.4727 35.9989 14.4727 35.9809 14.4727 35.9664C14.4737 35.9551 14.4737 35.9436 14.4727 35.9322L14.4564 35.5503V35.5359C14.4564 35.4332 14.4564 35.3288 14.4473 35.2171C14.4473 35.1522 14.4473 35.0892 14.4473 35.0099C14.4473 34.8298 14.4473 34.6496 14.4473 34.4695C14.4473 34.3794 14.4473 34.2894 14.4473 34.1903C14.4473 34.0912 14.4473 34.0282 14.4473 33.9525C14.4636 33.6391 14.4908 33.3382 14.5271 33.0518L14.576 32.7113C14.576 32.6681 14.5906 32.6267 14.5978 32.5834V32.551C14.6232 32.4177 14.6468 32.2862 14.6776 32.1493C14.6903 32.0917 14.703 32.034 14.7175 31.9692C14.7181 31.959 14.7181 31.9487 14.7175 31.9386C14.7302 31.8827 14.7447 31.8269 14.7646 31.7584L14.7809 31.6954H14.8607C15.0547 31.7134 15.2505 31.735 15.4536 31.7584C15.7038 31.7872 15.9522 31.8179 16.1951 31.8503C16.2441 32.261 16.3021 32.6753 16.3619 33.0842C16.3964 33.313 16.4326 33.5436 16.4707 33.7598C16.4906 33.8931 16.5142 34.03 16.5378 34.1633C16.545 34.2029 16.5523 34.2443 16.5595 34.2876C16.6955 35.0604 16.8514 35.8169 17.0219 36.5303C17.0636 36.7104 17.1089 36.9014 17.1542 37.0869L17.1651 37.1247C17.2557 37.485 17.3464 37.8651 17.4606 38.238C17.5132 38.4307 17.5694 38.6217 17.6238 38.8018C17.6782 38.982 17.7271 39.1423 17.7815 39.3116C17.7906 39.3476 17.8033 39.3837 17.816 39.4197C17.845 39.5152 17.8758 39.5998 17.9066 39.6989C17.7834 39.7115 17.6619 39.7241 17.544 39.7403C17.3537 39.7638 17.1814 39.7908 17.0001 39.8214H16.962C16.7807 39.8556 16.5885 39.8935 16.4181 39.9367C16.2477 39.9799 16.0555 40.0268 15.896 40.0754C15.8017 40.1006 15.7146 40.1294 15.6367 40.1547C15.4699 40.2219 15.3013 40.2886 15.1308 40.3546H15.1254ZM21.259 46.818L21.152 46.8756L21.1103 46.8972C21.0523 46.9279 20.9943 46.9549 20.929 46.9873H20.9181L20.8293 47.0251L20.8057 47.0341H20.7912C20.7701 47.0397 20.7495 47.047 20.7296 47.0558C20.6775 47.0768 20.6242 47.0948 20.57 47.1098L20.4921 47.1332C20.4092 47.1551 20.325 47.1719 20.24 47.1837H20.1893H20.1693C20.1037 47.1908 20.0374 47.1908 19.9717 47.1837H19.9318H19.8901H19.8502H19.814C19.7906 47.1813 19.7675 47.1765 19.7451 47.1693H19.7197C19.6854 47.1614 19.6515 47.1518 19.6182 47.1404L19.4876 47.0936C19.4345 47.0728 19.3825 47.0494 19.3317 47.0233L19.2211 46.9675C19.1286 46.9171 19.0398 46.8666 18.9528 46.8072C18.9296 46.7928 18.9072 46.7771 18.8857 46.7603L18.8694 46.7495C18.7751 46.6847 18.6772 46.6126 18.5829 46.5352C18.5376 46.4973 18.4904 46.4577 18.4361 46.4091C18.3255 46.3136 18.2149 46.2109 18.1115 46.1046L18.0934 46.0866C18.0734 46.0686 18.0553 46.047 18.0354 46.0272L17.9774 45.9659C17.9483 45.9353 17.9175 45.9029 17.8903 45.8705L17.8704 45.847C17.7797 45.7498 17.6891 45.6507 17.602 45.5372C17.515 45.4237 17.3954 45.2742 17.2975 45.1373C17.1075 44.8797 16.9308 44.6128 16.768 44.3375C16.7137 44.251 16.6629 44.1573 16.6103 44.0691C16.5577 43.9808 16.507 43.8889 16.458 43.7899V43.7736C16.4109 43.6872 16.3637 43.5935 16.3202 43.5088C16.3202 43.4944 16.3075 43.48 16.3003 43.4674C16.2495 43.3719 16.2024 43.2729 16.1516 43.1612C16.1008 43.0495 16.0537 42.9558 16.0029 42.8333C15.9522 42.7108 15.9068 42.6154 15.8597 42.5019C15.7346 42.1974 15.6204 41.8822 15.5116 41.5633C15.6929 41.4931 15.8742 41.4282 16.0555 41.367C16.119 41.3454 16.1842 41.3238 16.2495 41.3076H16.2695C16.4127 41.2643 16.5614 41.2247 16.7336 41.1833C16.9058 41.1418 17.0273 41.1166 17.1796 41.0896H17.2195C17.3772 41.0608 17.5404 41.0355 17.7217 41.0121C17.903 40.9887 18.126 40.9671 18.3436 40.9527C18.4034 41.113 18.4614 41.2643 18.5249 41.4084C18.5757 41.5399 18.6282 41.6714 18.6863 41.8173C18.6953 41.8408 18.7044 41.8642 18.7153 41.8876C18.7146 41.893 18.7146 41.8984 18.7153 41.9038C18.7153 41.9038 18.7153 41.9038 18.7153 41.9128L18.8549 42.2551C18.8555 42.2605 18.8555 42.2659 18.8549 42.2713C18.8549 42.2947 18.8748 42.3199 18.8857 42.3433C18.8863 42.3481 18.8863 42.353 18.8857 42.3578C18.9038 42.4028 18.9256 42.446 18.9437 42.4893C19.3553 43.456 19.8202 44.3996 20.3361 45.3156C20.5066 45.6201 20.6679 45.8921 20.8202 46.1371C20.9036 46.274 20.9888 46.4091 21.0741 46.5424C21.1285 46.6306 21.1847 46.7225 21.2409 46.8036L21.259 46.818ZM20.0714 40.9509C20.2038 40.9509 20.338 40.9725 20.4776 40.9869L20.6226 41.0049H20.6552C20.735 41.0049 20.8166 41.0229 20.9054 41.0355C21.0305 41.0536 21.1538 41.0716 21.2681 41.0932C21.3823 41.1148 21.5056 41.1364 21.6307 41.1598L21.7902 41.1959H21.8156C21.8712 41.2067 21.9274 41.2193 21.9842 41.2337L22.0332 41.2463C22.0626 41.2524 22.0917 41.2602 22.1202 41.2697H22.1474C22.2217 41.2859 22.2961 41.3057 22.3686 41.3274H22.3885L22.4592 41.3472H22.4774C22.5535 41.3688 22.6297 41.3922 22.7022 41.4174L22.762 41.4354C22.7722 41.4374 22.782 41.4411 22.791 41.4463L22.8436 41.4643L22.9705 41.5075H22.9887C23.0648 41.5327 23.1391 41.5615 23.2135 41.5886H23.2244L23.2624 41.6048H23.286C23.3531 41.63 23.4165 41.657 23.4818 41.684L23.567 41.7237L23.6142 41.7435C23.674 41.7669 23.732 41.7939 23.7955 41.8227L23.8208 41.8354C23.9079 41.875 23.9913 41.9164 24.0747 41.9597H24.0874C24.3013 42.0695 24.5098 42.1866 24.7092 42.3109C24.6947 42.3469 24.6821 42.3866 24.6657 42.4226V42.437C24.6604 42.4448 24.6562 42.4533 24.653 42.4622C24.6005 42.5919 24.5461 42.7198 24.4899 42.8441C24.4627 42.9054 24.4355 42.9684 24.4047 43.0243C24.4021 43.0325 24.3985 43.0404 24.3938 43.0477C24.3938 43.0693 24.3738 43.0909 24.3629 43.1125L24.3466 43.1486L24.3158 43.2116C24.2904 43.2621 24.2651 43.3107 24.2469 43.3503C24.2107 43.4206 24.1762 43.4908 24.1345 43.5647L24.0366 43.7448L23.9659 43.8691L23.9441 43.9069C23.5773 44.5695 23.129 45.1843 22.6097 45.7372C22.539 45.8092 22.4683 45.8813 22.3922 45.9533L22.3758 45.9713L22.2797 46.0578C22.2489 46.0074 22.2145 45.9587 22.1837 45.9083C22.1764 45.8985 22.1697 45.8883 22.1637 45.8777C22.0821 45.7498 22.0005 45.6201 21.9208 45.4904C21.7648 45.2382 21.6089 44.9734 21.4566 44.705C20.9398 43.7814 20.4737 42.8307 20.0606 41.857C20.055 41.8415 20.0483 41.8265 20.0406 41.8119C20.0384 41.8027 20.0354 41.7936 20.0316 41.7849L19.8901 41.4138L19.8811 41.3976C19.8811 41.385 19.8811 41.3724 19.8684 41.3616C19.814 41.2283 19.7614 41.095 19.7088 40.9599V40.9455C19.8158 40.9329 19.9427 40.9401 20.0714 40.9509ZM26.8958 44.3069C26.952 44.3735 27.0046 44.442 27.0626 44.5158C27.1206 44.5897 27.1768 44.6689 27.233 44.7464C27.2892 44.8239 27.3327 44.8887 27.3835 44.9662C27.4343 45.0436 27.5213 45.1715 27.5938 45.2886C27.6319 45.3463 27.6682 45.4057 27.7062 45.4687C27.7443 45.5318 27.8023 45.6327 27.8531 45.7227C27.9039 45.8128 27.9419 45.8849 27.9909 45.9767C28.0235 46.0362 28.0525 46.0938 28.0852 46.1569C28.3084 46.5998 28.5057 47.0551 28.6762 47.5205C28.7016 47.5872 28.7252 47.6574 28.7506 47.7313C28.8467 48.0069 28.9319 48.2825 29.0098 48.5491L29.0243 48.5978C29.0388 48.6554 29.0552 48.7112 29.0715 48.7779C29.1658 49.1274 29.2528 49.4858 29.3271 49.8587L29.3597 50.0389C29.4105 50.3163 29.4522 50.5559 29.483 50.7756L29.5157 51.0062C29.5157 51.0783 29.5356 51.1485 29.5429 51.2242C29.5501 51.2998 29.561 51.3647 29.5683 51.4385C29.5864 51.5971 29.6009 51.752 29.6154 51.9141C29.6154 51.9952 29.6299 52.0744 29.6353 52.1519V52.2492C29.6353 52.2996 29.6353 52.3482 29.6462 52.4059C29.6462 52.4203 29.6462 52.4401 29.6462 52.4617V52.523C29.6462 52.5716 29.6462 52.6166 29.6462 52.6797C29.6462 52.7878 29.6571 52.8904 29.6589 52.9859L29.639 52.9751L29.6226 52.9661L29.5773 52.9409C29.4631 52.8796 29.3525 52.8202 29.231 52.7481C29.1766 52.7175 29.1222 52.6869 29.0606 52.6491C28.9591 52.5914 28.8593 52.532 28.756 52.4689C28.6527 52.4059 28.5946 52.3698 28.5112 52.3158L28.4333 52.2672L28.1903 52.1105C28.0979 52.051 28.009 51.988 27.902 51.9159C27.8549 51.8853 27.806 51.8529 27.7606 51.8186L27.7443 51.8078C27.5304 51.6583 27.3182 51.5034 27.1007 51.3359C27.0191 51.2764 26.9375 51.2116 26.8432 51.1359C26.7489 51.0602 26.6819 51.0098 26.6021 50.9414L26.5839 50.9269C26.5024 50.8639 26.4226 50.7954 26.3356 50.7216C26.2485 50.6477 26.1778 50.5901 26.0908 50.5108C26.0038 50.4316 25.9294 50.3685 25.8442 50.291C25.759 50.2136 25.6937 50.1559 25.6176 50.0821C25.6132 50.0768 25.6084 50.072 25.6031 50.0677C25.5269 49.9992 25.4526 49.929 25.3692 49.8461C25.2858 49.7632 25.2223 49.7074 25.1516 49.6335L25.1371 49.6191C25.0628 49.5471 24.9903 49.4732 24.9214 49.3994L24.9051 49.3832C24.8343 49.3129 24.7655 49.2408 24.7002 49.1688L24.6857 49.1526C24.5134 48.9724 24.3521 48.7923 24.2306 48.6536C24.1671 48.5833 24.1037 48.5113 24.0348 48.4284C23.9659 48.3456 23.9006 48.2699 23.8299 48.1834C23.7592 48.097 23.6957 48.0249 23.6232 47.9312C23.4274 47.6935 23.2298 47.4359 23.0285 47.162C23.0158 47.144 23.005 47.126 22.9923 47.1098V47.1008L23.0122 47.0828H23.0213C23.0993 47.0143 23.1736 46.9459 23.2388 46.881C23.3041 46.8162 23.402 46.7207 23.4872 46.6342C24.0624 46.0293 24.5633 45.3587 24.9794 44.6365V44.6257L25.0138 44.5645C25.0374 44.5248 25.061 44.4834 25.0827 44.442L25.1099 44.3933C25.1281 44.3627 25.1444 44.3303 25.1607 44.2996L25.1788 44.2672C25.2223 44.188 25.264 44.1069 25.3094 44.0186V44.0078C25.3167 43.995 25.3234 43.9818 25.3293 43.9682L25.3783 43.8727C25.382 43.862 25.3869 43.8518 25.3928 43.8421L25.4707 43.68V43.6638C25.5016 43.5989 25.5306 43.5341 25.5614 43.4656C25.6013 43.3755 25.6393 43.2855 25.6774 43.1918C25.7699 43.2693 25.8587 43.3485 25.9439 43.4278L25.9748 43.4566C26.002 43.4818 26.0292 43.507 26.0545 43.5341L26.0709 43.5503C26.3617 43.7842 26.6366 44.037 26.894 44.3069H26.8958ZM25.7409 36.8347C25.7409 36.9356 25.7409 37.0347 25.7409 37.1337V37.1788C25.7409 37.2472 25.7409 37.3157 25.7318 37.3823C25.7308 37.3901 25.7308 37.398 25.7318 37.4058C25.7318 37.503 25.7318 37.6003 25.7155 37.7102C25.6992 37.8201 25.7028 37.9065 25.6937 38.0146C25.6937 38.0146 25.6937 38.0326 25.6937 38.0416C25.6937 38.1587 25.6738 38.2722 25.6629 38.3839C25.652 38.4956 25.6412 38.5803 25.6285 38.6865C25.6103 38.8469 25.5886 39.0054 25.565 39.1603C25.5541 39.2432 25.5396 39.3296 25.5251 39.4179C25.5052 39.5494 25.4798 39.6791 25.4544 39.8142C25.4381 39.9097 25.4181 39.9943 25.3946 40.1096C25.371 40.2249 25.3529 40.3132 25.3257 40.4213C25.2695 40.6645 25.2042 40.904 25.1444 41.1418C24.9939 41.0554 24.8452 40.9725 24.6929 40.895C24.5932 40.8446 24.4953 40.796 24.3956 40.7491H24.3793C24.2995 40.7113 24.2179 40.6735 24.1363 40.6392C24.0856 40.6158 24.0348 40.5924 23.9876 40.5744L23.7556 40.4807L23.6903 40.4555L23.4165 40.3546L23.2515 40.2988C23.208 40.2826 23.1627 40.2682 23.1192 40.2555C23.0303 40.2249 22.9379 40.1979 22.8509 40.1727L22.7276 40.1367C22.6424 40.1114 22.5553 40.088 22.4665 40.0682C22.4194 40.0538 22.3704 40.0412 22.3233 40.0304C22.2471 40.0106 22.171 39.9925 22.093 39.9781C22.015 39.9637 21.977 39.9511 21.9117 39.9403H21.899C21.7703 39.9133 21.6379 39.8863 21.5038 39.8646C21.3696 39.843 21.2354 39.8196 21.0849 39.7998C20.9925 39.7872 20.9036 39.7746 20.8112 39.7656L20.619 39.7439H20.6081C20.4691 39.7295 20.3277 39.7169 20.1838 39.7061C19.8647 39.6827 19.5529 39.6701 19.2483 39.6665L19.2102 39.5548C19.154 39.3891 19.0996 39.2233 19.0489 39.0576C19.0489 39.045 19.0344 39.0162 19.0289 39.0054C19.0261 38.9914 19.0225 38.9775 19.018 38.9639C18.9655 38.8036 18.9147 38.6397 18.8657 38.4686C18.8168 38.2974 18.7588 38.1083 18.708 37.9282C18.601 37.5553 18.5031 37.1842 18.4161 36.8275C18.4153 36.8161 18.4153 36.8047 18.4161 36.7933C18.3726 36.6131 18.3309 36.4492 18.291 36.2709C18.126 35.5755 17.9755 34.8442 17.8414 34.0876L17.8251 33.9975C17.8259 33.9904 17.8259 33.9831 17.8251 33.9759C17.8033 33.8498 17.7797 33.7219 17.7598 33.5814C17.7199 33.3634 17.6873 33.1455 17.6546 32.9257C17.6129 32.6429 17.573 32.3583 17.535 32.0737L17.6546 32.0953H17.6963C17.8668 32.1241 18.0317 32.1547 18.1985 32.1871L18.3291 32.2124L18.7406 32.297C18.9111 32.3331 19.0779 32.3709 19.2465 32.4105C19.339 32.4303 19.4278 32.4537 19.5203 32.4754H19.5511C19.6436 32.497 19.7324 32.5186 19.8394 32.5474C19.9463 32.5762 20.0207 32.5925 20.1113 32.6195H20.1331C20.2237 32.6429 20.3144 32.6663 20.4159 32.6969C20.6661 32.7654 20.8529 32.8212 21.0378 32.8771C21.2227 32.9329 21.3587 32.9761 21.5273 33.0338C21.7884 33.1185 22.0459 33.2139 22.3196 33.313C22.4901 33.3761 22.6587 33.4391 22.8382 33.513C22.9161 33.5418 22.9941 33.5724 23.0829 33.6102C23.1718 33.6481 23.2352 33.6715 23.3096 33.7057L23.3368 33.7165L23.5507 33.8084C23.732 33.8876 23.9133 33.9687 24.0946 34.057C24.2252 34.1164 24.3503 34.1777 24.4772 34.2371C24.9014 34.4443 25.3166 34.6658 25.7191 34.8964C25.7191 34.9415 25.7191 34.9865 25.7282 35.0351C25.7282 35.1702 25.7409 35.3071 25.7463 35.4458C25.7518 35.5846 25.7554 35.7125 25.759 35.8566C25.759 35.925 25.759 35.9917 25.759 36.0619V36.0835C25.759 36.2114 25.759 36.3411 25.759 36.4708C25.759 36.6005 25.759 36.6924 25.759 36.8005L25.7409 36.8347ZM33.4283 40.1222C33.4174 40.1096 33.4083 40.0952 33.3993 40.0826L33.3775 40.0484L33.3358 39.9925L33.2052 39.8124C33.1454 39.7313 33.0838 39.6467 33.0239 39.562C32.9913 39.517 32.9551 39.4683 32.9152 39.4197C32.8191 39.2918 32.7121 39.1585 32.5961 39.0198C32.48 38.8811 32.3567 38.728 32.2335 38.5893C32.1899 38.537 32.1464 38.4866 32.1011 38.4361C31.6201 37.8899 31.1106 37.3692 30.5745 36.8761C30.3442 36.6618 30.0958 36.4402 29.8493 36.2294L29.648 36.0619C29.512 35.9484 29.3724 35.8349 29.2401 35.7341C29.1694 35.6764 29.0987 35.6206 29.0243 35.5647C28.8321 35.4152 28.6236 35.2603 28.3734 35.0838C28.2919 35.0243 28.2121 34.9667 28.1432 34.9216C27.9818 34.8082 27.8168 34.6965 27.6482 34.5848L27.4288 34.4443C27.2856 34.3506 27.1369 34.2641 26.9973 34.1741L26.9466 34.1434V34.0678C26.8994 33.5274 26.836 33.0032 26.7562 32.5024C26.7381 32.3727 26.7163 32.243 26.6946 32.1223C26.6583 31.9097 26.6166 31.6864 26.5586 31.4017C26.5594 31.3946 26.5594 31.3873 26.5586 31.3801C26.5332 31.2576 26.506 31.1333 26.4788 31.0198C26.4516 30.9064 26.4208 30.7659 26.3918 30.6596C26.2757 30.1858 26.1397 29.7229 25.9929 29.2905C25.9548 29.1734 25.9149 29.0563 25.875 28.9555C25.4456 27.7637 24.8334 26.6451 24.0602 25.6391C24.5756 25.7021 25.0846 25.8094 25.5813 25.9598L25.7481 26.012L25.7826 26.0228L25.8515 26.0462L25.8841 26.057L26.0273 26.1075H26.0564L26.3156 26.2066C26.7209 26.3663 27.1141 26.5547 27.4923 26.7704C27.5594 26.81 27.6265 26.8478 27.7062 26.8983L27.9292 27.0352C28.0126 27.091 28.0979 27.1487 28.1921 27.2153C28.2864 27.282 28.4296 27.3829 28.5729 27.4927C33.5661 31.3801 33.6893 37.2941 33.4083 40.1385L33.4283 40.1222Z" fill="#363636"/>
<path d="M49.9415 25.4771V41.495H47.4576V25.4771H49.9415Z" fill="#363636"/>
<path d="M53.3412 27.5433C53.1166 27.3223 52.9634 27.0397 52.9012 26.7317C52.8391 26.4237 52.8707 26.1043 52.9921 25.8142C53.1136 25.5242 53.3193 25.2767 53.583 25.1034C53.8466 24.9301 54.1564 24.8388 54.4725 24.8413C54.6792 24.8374 54.8844 24.8758 55.0755 24.9538C55.2667 25.0319 55.4397 25.1481 55.5839 25.2952C55.8775 25.5974 56.0415 26.0011 56.0415 26.4211C56.0415 26.8411 55.8775 27.2447 55.5839 27.5469C55.4397 27.6941 55.2667 27.8102 55.0755 27.8883C54.8844 27.9664 54.6792 28.0047 54.4725 28.0009C54.2625 28.0056 54.0537 27.9674 53.8591 27.8887C53.6645 27.81 53.4882 27.6924 53.3412 27.5433ZM55.6981 29.5771V41.5041H53.2143V29.5681L55.6981 29.5771Z" fill="#363636"/>
<path d="M63.6012 39.2865L66.9989 29.568H69.6351L65.0608 41.495H62.0982L57.5438 29.568H60.2018L63.6012 39.2865Z" fill="#363636"/>
<path d="M82.4225 36.4507H73.2521C73.2878 37.3257 73.6711 38.151 74.3181 38.7457C74.9625 39.3246 75.8067 39.6343 76.6751 39.6103C78.0107 39.6103 78.9547 39.0549 79.5071 37.944H82.1868C81.8354 39.0298 81.1451 39.9762 80.216 40.6461C79.2648 41.3475 78.0845 41.6975 76.6751 41.6963C75.5974 41.7144 74.5341 41.449 73.5929 40.9271C72.6901 40.4211 71.9497 39.6717 71.4571 38.7655C70.9253 37.7679 70.6595 36.6516 70.6848 35.523C70.6597 34.397 70.9177 33.2825 71.4354 32.2805C71.9141 31.3737 72.6488 30.6256 73.5494 30.1278C74.5072 29.6093 75.5846 29.3479 76.6751 29.3695C77.7316 29.3502 78.775 29.604 79.7029 30.1062C80.5775 30.5845 81.2959 31.3014 81.7734 32.1724C82.2796 33.1135 82.5344 34.1679 82.5132 35.2348C82.5153 35.6418 82.485 36.0484 82.4225 36.4507ZM79.9169 34.4692C79.9256 34.0555 79.8425 33.6451 79.6732 33.2671C79.504 32.8891 79.2529 32.5528 78.9378 32.2823C78.2754 31.7264 77.4293 31.4338 76.5627 31.4609C75.7526 31.4435 74.9662 31.7333 74.3635 32.2715C73.7379 32.8438 73.3499 33.6275 73.2756 34.4692H79.9169Z" fill="#363636"/>
<path d="M84.874 32.2843C85.346 31.3841 86.0677 30.6371 86.9536 30.1316C87.885 29.6144 88.9381 29.3526 90.0049 29.3733C91.4554 29.3733 92.6568 29.7161 93.6093 30.4019C94.5618 31.0876 95.2048 32.0651 95.5384 33.3345H92.8587C92.6649 32.7751 92.2989 32.2905 91.8126 31.9492C91.2751 31.5999 90.6412 31.4261 89.9995 31.4521C88.9818 31.4521 88.172 31.8087 87.57 32.5221C86.9681 33.2354 86.6659 34.2352 86.6635 35.5214C86.6635 36.8052 86.9657 37.8079 87.57 38.5297C88.1744 39.2515 88.9842 39.6117 89.9995 39.6105C91.4379 39.6105 92.3891 38.983 92.8533 37.7281H95.533C95.2219 38.8798 94.5312 39.8946 93.5712 40.6103C92.6139 41.3308 91.4234 41.6881 89.9995 41.6821C88.9313 41.7027 87.8772 41.437 86.9481 40.9129C86.0631 40.4023 85.342 39.6527 84.8685 38.7513C84.374 37.7432 84.1169 36.6365 84.1169 35.5151C84.1169 34.3936 84.374 33.2869 84.8685 32.2789L84.874 32.2843Z" fill="#363636"/>
<path d="M100.504 25.4771V41.495H98.0203V25.4771H100.504Z" fill="#363636"/>
<path d="M103.904 27.5433C103.679 27.3223 103.526 27.0397 103.464 26.7317C103.402 26.4237 103.433 26.1043 103.555 25.8142C103.676 25.5242 103.882 25.2767 104.146 25.1034C104.409 24.9301 104.719 24.8388 105.035 24.8413C105.242 24.8374 105.447 24.8758 105.638 24.9538C105.829 25.0319 106.002 25.1481 106.147 25.2952C106.44 25.5974 106.604 26.0011 106.604 26.4211C106.604 26.8411 106.44 27.2447 106.147 27.5469C106.002 27.6941 105.829 27.8102 105.638 27.8883C105.447 27.9664 105.242 28.0047 105.035 28.0009C104.825 28.0056 104.616 27.9674 104.422 27.8887C104.227 27.81 104.051 27.6924 103.904 27.5433ZM106.261 29.5771V41.5041H103.777V29.5681L106.261 29.5771Z" fill="#363636"/>
<path d="M118.118 29.9583C118.865 30.3461 119.477 30.9497 119.871 31.6895C120.314 32.5453 120.531 33.4984 120.502 34.46V41.4854H118.042V34.8203C118.042 33.7515 117.773 32.9324 117.235 32.3632C116.697 31.794 115.964 31.5093 115.036 31.5093C114.107 31.5093 113.369 31.794 112.824 32.3632C112.279 32.9324 112.006 33.7515 112.006 34.8203V41.4854H109.524V29.5674H112.006V30.9311C112.427 30.4318 112.961 30.0386 113.564 29.7836C114.2 29.509 114.886 29.3691 115.58 29.3729C116.462 29.358 117.333 29.5591 118.118 29.9583Z" fill="#363636"/>
<path d="M123.793 27.5433C123.568 27.3221 123.415 27.0394 123.353 26.7312C123.291 26.4231 123.323 26.1035 123.444 25.8134C123.566 25.5233 123.772 25.2758 124.036 25.1026C124.3 24.9295 124.61 24.8385 124.926 24.8412C125.133 24.8376 125.337 24.876 125.528 24.954C125.719 25.0321 125.892 25.1482 126.036 25.2952C126.329 25.5974 126.493 26.001 126.493 26.4211C126.493 26.8411 126.329 27.2447 126.036 27.5469C125.892 27.6939 125.719 27.81 125.528 27.8881C125.337 27.9662 125.133 28.0045 124.926 28.0009C124.716 28.0057 124.507 27.9676 124.312 27.8889C124.117 27.8102 123.94 27.6926 123.793 27.5433ZM126.15 29.5771V41.504H123.668V29.5681L126.15 29.5771Z" fill="#363636"/>
<path d="M129.337 32.2843C129.809 31.3837 130.531 30.6366 131.417 30.1316C132.348 29.6144 133.4 29.3526 134.466 29.3733C135.917 29.3733 137.119 29.7161 138.073 30.4019C139.026 31.0876 139.669 32.0651 140 33.3345H137.32C137.127 32.7753 136.762 32.2907 136.276 31.9492C135.738 31.6008 135.104 31.427 134.463 31.4521C133.447 31.4521 132.638 31.8087 132.035 32.5221C131.432 33.2354 131.13 34.2352 131.129 35.5214C131.129 36.8052 131.431 37.8079 132.035 38.5297C132.329 38.8836 132.7 39.1653 133.121 39.3528C133.543 39.5403 134.002 39.6285 134.463 39.6105C135.901 39.6105 136.852 38.983 137.317 37.7281H139.996C139.686 38.8799 138.996 39.8949 138.036 40.6103C137.077 41.3309 135.885 41.6881 134.463 41.6821C133.395 41.7028 132.342 41.437 131.413 40.9129C130.528 40.4028 129.807 39.6531 129.334 38.7513C128.839 37.7432 128.582 36.6365 128.582 35.5151C128.582 34.3937 128.839 33.2869 129.334 32.2789L129.337 32.2843Z" fill="#363636"/>
</svg>
