<svg width="740" height="554" viewBox="0 0 740 554" fill="none" xmlns="http://www.w3.org/2000/svg">
<path d="M528.784 214.657C525.985 217.271 522.378 218.852 518.559 219.141C517.896 219.135 517.36 218.599 517.355 217.937C517.371 217.278 517.901 216.748 518.559 216.732C521.743 216.464 524.744 215.133 527.081 212.954C528.212 211.895 529.918 213.596 528.784 214.657Z" fill="#A3A9B6"/>
<path fill-rule="evenodd" clip-rule="evenodd" d="M518.918 251.146C519.708 250.54 520.504 249.941 521.305 249.351C521.871 251.604 522.556 253.826 523.357 256.007C524.113 257.98 525.188 259.898 527.076 260.984C531.061 263.276 534.593 259.86 536.518 256.606C538.72 252.884 540.095 248.447 539.302 244.111C538.964 242.264 538.18 240.287 536.568 239.191C534.685 237.911 532.834 238.801 531.105 239.858C526.479 242.689 522.005 245.763 517.702 249.067C517.146 249.416 516.957 250.137 517.27 250.714C517.608 251.285 518.343 251.478 518.918 251.146ZM523.514 248.251C523.476 248.104 523.42 247.977 523.349 247.87C525.042 246.663 526.759 245.49 528.501 244.351C528.836 244.132 529.172 243.909 529.51 243.685L529.511 243.684L529.512 243.684C530.804 242.827 532.111 241.961 533.474 241.25C534.946 240.482 535.95 241.581 536.489 242.929C537.8 246.208 537.01 250.087 535.59 253.19C534.55 255.462 532.279 260.086 529.077 259.232C527.181 258.727 526.179 256.741 525.561 255.047C524.75 252.827 524.104 250.538 523.514 248.251Z" fill="#A3A9B6"/>
<path fill-rule="evenodd" clip-rule="evenodd" d="M124.513 341.337C124.271 341.331 124.031 341.261 123.834 341.129L123.82 341.125C118.102 339.433 112.22 338.157 106.384 336.949C100.503 335.733 94.5661 334.603 88.6059 333.851C80.1712 332.658 71.5812 333.216 63.3714 335.489C48.5385 339.843 37.2452 350.861 29.4725 363.89C19.8644 379.996 15.2564 398.474 11.1143 416.588C8.33625 428.526 6.1751 440.598 4.63945 452.758C3.22279 464.338 2.30719 476.121 2.80933 487.792C3.27881 498.702 5.40825 509.723 11.3337 519.062C16.3849 527.023 23.7265 533.258 31.8739 537.887C50.5239 548.482 72.9093 551.177 94.0268 550.574C118.271 549.882 142.106 544.472 165.39 538.018C187.189 531.975 208.877 525.278 229.9 516.892C250.684 508.602 270.848 498.52 289.215 485.679L289.474 485.498C293.69 482.551 297.985 479.548 301.571 475.839C303.329 474.073 304.809 472.05 305.961 469.84C306.724 468.324 308.921 463.689 305.97 463.445C304.708 463.468 303.458 463.703 302.274 464.14C300.929 464.503 299.591 464.891 298.261 465.304C295.509 466.157 292.794 467.111 290.116 468.167L289.971 468.224L289.867 468.265C285.177 471.765 279.838 474.391 274.101 475.96C273.524 476.101 272.93 475.802 272.699 475.255C272.469 474.708 272.669 474.074 273.173 473.759C278.16 470.848 283.352 468.305 288.709 466.15C292.621 463.177 296.017 459.581 298.761 455.503C300.114 453.491 301.298 451.371 302.301 449.163C302.373 449.005 302.454 448.831 302.541 448.645C303.495 446.609 305.125 443.128 302.446 442.167C300.439 441.446 297.966 442.157 295.893 442.753L295.645 442.824C295.432 442.885 295.223 442.945 295.021 443C291.542 443.948 288.156 445.177 284.894 446.672C280.865 450.148 276.261 452.959 271.248 454.961C270.158 455.399 269.145 453.675 270.076 452.949C274.251 449.679 278.779 446.9 283.571 444.661C285.167 443.264 286.667 441.758 288.06 440.15C289.65 438.317 291.087 436.356 292.357 434.288C292.419 434.188 292.483 434.085 292.548 433.981L292.658 433.805L292.771 433.624C293.982 431.693 295.483 429.298 295.33 427.081C295.161 424.639 292.501 423.474 290.331 423.602C287.854 423.747 285.634 425.215 283.609 426.553C283.497 426.628 283.385 426.702 283.274 426.775C278.273 430.086 273.275 433.402 268.28 436.722C267.419 437.294 266.547 437.908 265.661 438.532C262.065 441.064 258.246 443.753 253.983 444.475C250.186 445.119 245.611 443.744 243.841 440.053C242.229 436.692 243.795 433.197 245.6 430.286C245.887 429.823 246.212 429.339 246.548 428.837C248.254 426.291 250.258 423.3 249.216 420.32C247.982 416.789 243.345 416.524 240.246 417.12C236.001 417.937 232.452 420.758 229.376 423.655C226.567 426.301 224.062 429.241 221.558 432.18C218.066 436.279 214.576 440.374 210.267 443.665C201.964 450.005 191.531 452.359 181.538 454.586C169.728 457.218 157.916 459.846 146.065 462.29L145.413 462.424C144.889 463.897 144.356 465.368 143.814 466.834C143.686 467.188 143.559 467.541 143.431 467.895C143.301 468.258 143.17 468.622 143.039 468.985C141.081 474.427 139.115 479.89 136.847 485.204C135.679 488.086 134.143 490.806 132.277 493.294C130.369 495.643 128.149 497.719 125.678 499.465C121.843 502.3 117.836 504.924 113.835 507.543L113.831 507.546C112.141 508.652 110.453 509.758 108.779 510.878L99.9444 516.791C99.4749 517.106 99.0074 517.424 98.5397 517.743L98.5377 517.744C97.5426 518.422 96.5468 519.1 95.5297 519.74C94.4235 520.57 92.994 520.837 91.6626 520.464C90.472 519.943 89.4863 519.044 88.8579 517.906C87.9766 516.546 87.2082 515.098 86.4519 513.666C84.9154 510.75 83.5441 507.749 82.3445 504.679C80.0304 498.773 77.8606 492.036 80.3575 485.83C81.5887 483.061 83.2021 480.478 85.1506 478.158C86.4292 476.515 87.7159 474.878 89.0025 473.241L89.0075 473.235C89.4234 472.706 89.8393 472.176 90.255 471.647C89.2279 471.764 88.2004 471.878 87.1728 471.991L87.1511 471.994L87.1328 471.996L87.1133 471.998C86.2871 472.089 85.4609 472.181 84.6348 472.274C84.1787 473.305 83.6929 474.323 83.1716 475.324C83.0914 475.478 83.0147 475.638 82.9376 475.798C82.497 476.714 82.0461 477.652 80.8943 477.645C78.898 477.633 77.7949 475.385 78.1011 473.623C78.5034 471.307 80.8831 470.389 82.9518 470.069C85.2032 464.603 86.5155 458.778 86.8173 452.843C86.8956 451.298 89.3042 451.294 89.2258 452.843C89.0789 455.883 88.6838 458.905 88.0443 461.881C87.4644 464.54 86.6824 467.15 85.7054 469.688C87.9423 469.395 90.1845 469.134 92.4275 468.877C96.3732 463.842 100.3 458.792 104.208 453.728C112.584 442.872 120.855 431.934 128.899 420.83C132.926 415.282 136.884 409.687 140.775 404.044C142.778 401.139 144.741 398.205 146.704 395.272C148.411 392.722 150.118 390.171 151.852 387.638C153.702 384.829 155.686 382.112 157.795 379.496C157.517 379.5 157.231 379.391 156.98 379.123C154.942 376.953 153.112 374.598 151.512 372.088C150.683 370.782 149.921 369.435 149.23 368.051C148.474 366.711 147.877 365.287 147.452 363.808C146.821 361.039 148.438 358.943 151.078 358.255C153.919 357.514 157.193 357.917 160.06 358.288C163.158 358.689 166.478 359.243 169.325 360.587C171.66 361.689 173.369 364.027 172.494 366.681C171.785 368.831 170.004 370.357 168.294 371.822C167.812 372.235 167.335 372.643 166.889 373.06C164.856 375.032 162.92 377.1 161.088 379.255C161.205 382.36 161.225 385.465 161.15 388.57C160.713 401.896 158.888 415.141 155.702 428.088C153.071 438.791 149.947 449.366 146.341 459.778C152.499 458.503 158.648 457.179 164.791 455.833C165.699 455.633 166.608 455.434 167.517 455.235L167.715 455.192L167.721 455.191L167.727 455.189C173.409 453.945 179.092 452.701 184.759 451.393C190.657 450.031 196.597 448.494 202.068 445.847C207.122 443.314 211.646 439.839 215.394 435.606C216.942 433.924 218.423 432.182 219.903 430.44L219.905 430.438C221.943 428.04 223.982 425.642 226.193 423.4C229.573 419.973 233.596 416.433 238.326 415.101C241.99 414.07 246.694 414.033 249.674 416.755C252.832 419.639 252.095 424.005 250.245 427.373C249.83 428.129 249.275 428.945 248.692 429.801C246.819 432.554 244.653 435.735 245.889 438.757C246.866 441.147 249.695 442.252 252.116 442.244C255.271 442.233 258.168 440.497 260.736 438.841C264.52 436.401 268.262 433.893 272.004 431.386L272.027 431.37L272.032 431.367C274.039 430.023 276.045 428.678 278.058 427.344C278.684 426.93 279.333 426.473 280.004 426.002C283.913 423.256 288.54 420.006 293.271 421.606C295.468 422.238 297.145 424.019 297.645 426.25C298.137 428.944 296.665 431.6 295.397 433.868C293.687 436.89 291.669 439.699 289.386 442.256C289.449 442.234 289.512 442.211 289.575 442.188C292.591 441.032 295.716 440.182 298.902 439.65C301.074 439.346 303.676 439.449 305.255 441.192C307.295 443.442 305.986 446.583 304.985 448.985C303.919 451.552 302.616 454.014 301.092 456.34C299.31 459.057 297.264 461.563 294.996 463.829C295.956 463.507 296.919 463.197 297.887 462.899C298.351 462.757 298.823 462.603 299.301 462.448L299.306 462.446C301.341 461.785 303.487 461.087 305.57 461.036C307.756 460.981 309.695 462.196 309.868 464.516C310.038 466.789 308.961 469.29 307.937 471.263C305.534 475.892 301.533 479.476 297.465 482.624C292.895 486.158 288.117 489.441 283.265 492.574C263.338 505.444 241.622 515.313 219.394 523.48C196.247 531.952 172.634 539.094 148.671 544.87C123.874 550.873 98.1408 554.846 72.5997 552.25C52.2626 550.182 30.7663 543.932 16.1024 528.904C8.69851 521.197 3.7434 511.47 1.86238 500.949C-0.411839 489.058 0.080914 476.709 1.02553 464.703C2.08526 451.899 3.91389 439.17 6.50153 426.586C8.88748 414.743 11.643 402.884 15.1556 391.32C20.0541 375.193 27.3295 358.915 39.5467 346.965C45.1507 341.422 51.8557 337.117 59.2282 334.329C67.4861 331.39 76.284 330.279 85.0133 331.074C90.8508 331.634 96.6533 332.514 102.395 333.708C108.774 334.921 115.105 336.344 121.385 337.977C121.572 338.025 121.767 338.075 121.969 338.127C122.414 338.24 122.892 338.363 123.388 338.498C123.452 334.3 123.517 330.102 123.586 325.905C123.901 306.493 124.296 287.081 125.098 267.683C125.488 257.921 126.008 248.166 126.658 238.419C126.697 237.843 126.735 237.268 126.773 236.692C127.348 228.029 127.925 219.329 129.287 210.752C130.614 202.403 132.857 194.13 136.907 186.665C140.365 180.349 144.89 174.679 150.284 169.908C161.063 160.24 174.775 154.471 189.223 153.522C202.757 152.768 217.944 157.097 226.538 168.188C228.771 171.07 230.441 174.348 231.459 177.85C231.956 179.759 232.352 181.691 232.645 183.639C234.735 183.229 236.811 182.745 238.87 182.187C239.502 182.036 240.139 182.412 240.312 183.038C240.484 183.664 240.13 184.315 239.51 184.509C237.341 185.097 235.154 185.604 232.953 186.031C233.122 187.617 233.224 189.211 233.257 190.808C233.292 191.494 233.324 192.18 233.356 192.866L233.357 192.879C233.535 196.648 233.712 200.411 234.168 204.163C234.729 208.729 235.59 213.253 236.746 217.706C237.896 222.159 239.435 226.439 241.017 230.75C241.772 232.808 241.761 234.764 240.386 236.544C239.931 237.132 239.438 237.677 238.946 238.221C238.193 239.053 237.442 239.882 236.837 240.861C232.952 247.137 233.149 255.042 233.645 262.137C233.733 263.386 233.829 264.636 233.924 265.885C234.285 270.587 234.646 275.292 234.556 280.009C234.452 285.461 233.839 291.345 230.964 296.111C229.657 298.308 227.82 300.142 225.621 301.445C223.164 302.875 220.35 303.469 217.579 304.053C216.936 304.189 216.294 304.324 215.66 304.469C214.341 304.771 213.022 305.086 211.7 305.402C207.921 306.306 204.129 307.212 200.302 307.813L200.227 307.825C199.767 307.897 199.187 307.989 198.595 308.022C198.547 308.926 198.503 309.829 198.46 310.732C198.233 315.483 198.061 320.235 197.889 324.988C197.82 326.902 197.751 328.816 197.678 330.73C197.65 331.461 197.623 332.194 197.596 332.926C197.417 337.772 197.238 342.628 196.813 347.457C199.446 347.21 202.084 347.009 204.726 346.87C213.889 346.386 223.079 346.812 232.159 348.14C236.954 348.842 241.715 349.77 246.447 350.81C251.785 351.982 257.137 353.203 262.386 354.728C267.614 356.151 272.644 358.218 277.362 360.883C281.445 363.32 285.161 366.325 288.401 369.807C294.961 376.774 299.779 385.171 304.096 393.651C309.425 404.12 314.508 414.713 319.59 425.306C324.49 435.518 329.39 445.73 334.511 455.831C341.525 469.665 352.366 487.604 370.026 487.469L370.05 487.47C372.015 487.493 373.975 487.279 375.888 486.833C383.917 484.924 390.277 479.078 395.211 472.722C400.839 465.47 404.893 457.211 408.898 449L416.514 433.39C409.149 437.741 400.614 431.077 397.137 424.404C394.69 419.498 394.713 413.722 397.199 408.835C397.344 408.537 397.497 408.242 397.657 407.953C393.802 407.99 389.919 406.499 386.819 403.998C381.926 400.049 379.323 393.974 378.846 387.8C378.451 381.465 379.905 375.152 383.031 369.628C386.32 363.708 391.245 358.846 396.584 354.762C399.307 352.7 402.139 350.785 405.066 349.024C405.354 348.839 405.643 348.655 405.934 348.475C403.297 346.305 401.254 343.448 400.065 340.167C397.942 334.155 398.842 327.434 401.499 321.747C404.287 315.781 409.221 311.111 414.894 307.885C426.553 301.255 440.079 300.823 453.2 300.404C454.928 300.349 456.649 300.294 458.358 300.225C460.459 300.14 462.56 300.064 464.663 299.988L464.67 299.988C473.535 299.667 482.406 299.347 491.227 298.379C496.231 297.923 501.184 297.02 506.026 295.68C507.872 295.168 509.655 294.452 511.343 293.546C512.33 293.035 513.214 292.35 513.954 291.527C507.977 283.237 506.036 272.357 506.422 262.286L506.466 261.173C506.72 254.823 506.984 248.212 504.059 242.372C503.331 240.898 502.395 239.536 501.28 238.327C501.213 238.255 501.146 238.183 501.078 238.112L500.912 237.936L500.91 237.934C499.854 236.817 498.783 235.686 498.54 234.1C498.291 232.482 498.925 230.92 499.534 229.422L499.535 229.42C499.673 229.078 499.811 228.739 499.936 228.404C500.655 226.481 501.318 224.54 501.924 222.581C503.336 218.023 504.438 213.378 505.222 208.68C503.18 210.002 501.091 211.26 498.96 212.453C497.605 213.211 496.391 211.129 497.745 210.373C500.472 208.854 503.127 207.223 505.705 205.488C506.041 203.015 506.289 200.53 506.449 198.036C506.545 196.52 506.61 194.991 506.676 193.458V193.451C506.948 187.083 507.223 180.642 509.707 174.704C514.627 162.94 526.881 156.196 538.984 154.165C551.754 152.024 565.073 154.744 576.475 160.713C588.073 166.722 597.561 176.124 603.675 187.667C610.81 201.46 611.924 217.362 612.992 232.618C613.037 233.27 613.083 233.922 613.129 234.572C614.372 252.139 615.127 269.738 615.639 287.341C616.136 304.393 616.403 321.451 616.663 338.508C616.789 338.473 616.914 338.439 617.037 338.405C616.332 337.578 616.971 335.985 618.202 336.442C619.063 336.759 619.918 337.091 620.766 337.439C626.169 336.077 631.606 334.87 637.076 333.819C647.394 331.836 657.861 330.008 668.382 331.336C676.452 332.313 684.203 335.077 691.071 339.427C697.697 343.786 703.464 349.326 708.087 355.77C719.222 370.898 724.667 389.127 729.148 407.117C735.301 431.824 739.901 457.386 739.763 482.929C739.701 494.493 738.251 506.376 732.829 516.756C728.274 525.475 721.114 532.545 712.897 537.845C694.167 549.924 670.809 553.317 648.923 553.042C623.191 552.719 597.851 546.977 573.172 540.104C549.925 533.63 526.798 526.425 504.49 517.173C482.772 508.165 461.522 497.182 442.829 482.812C438.788 479.705 434.815 476.2 432.332 471.673C430.561 468.446 428.084 461.274 434.079 461.036C436.104 460.956 438.24 461.648 440.23 462.293L440.233 462.294C440.508 462.383 440.78 462.472 441.049 462.557C441.245 462.619 441.438 462.679 441.63 462.737C442.775 463.083 443.914 463.446 445.047 463.827C442.305 461.085 439.89 457.993 437.875 454.606C436.412 452.166 435.2 449.584 434.255 446.9C433.411 444.457 433.471 441.618 436.002 440.243C438.238 439.03 441.012 439.538 443.356 440.089C445.821 440.669 448.251 441.389 450.634 442.245C448.409 439.743 446.441 437.006 444.77 434.075L444.746 434.033C443.44 431.723 441.9 429 442.405 426.25C442.882 424.087 444.475 422.343 446.586 421.672C448.989 420.915 451.594 421.134 453.839 422.28C456.049 423.267 458.089 424.672 460.102 426.059C460.733 426.494 461.362 426.927 461.992 427.344C464.825 429.222 467.657 431.102 470.488 432.983C471.432 433.61 472.374 434.242 473.317 434.873L473.321 434.876C475.312 436.21 477.302 437.543 479.315 438.841C481.825 440.46 484.652 442.164 487.728 442.244C490.138 442.306 492.97 441.292 494.056 438.975C494.977 437.009 494.261 434.889 493.299 433.091C492.773 432.108 492.138 431.137 491.495 430.155C489.818 427.591 488.093 424.954 488.149 421.86C488.225 417.715 491.526 415.117 495.397 414.597C505.46 413.244 513.239 422.352 519.094 429.207L519.142 429.263C519.493 429.674 519.843 430.086 520.194 430.498C523.358 434.219 526.54 437.961 530.335 441.057C535.029 444.885 540.666 447.312 546.416 449.073C551.332 450.578 556.369 451.677 561.396 452.773C562.503 453.015 563.609 453.256 564.714 453.502C564.729 453.505 564.743 453.508 564.758 453.512C554.233 446.039 544.756 437.18 536.584 427.171C534.33 424.433 532.176 421.621 530.123 418.735C529.078 417.266 528.061 415.779 527.072 414.273C525.99 412.82 525.075 411.249 524.345 409.591C523.053 406.082 525.666 403.366 527.937 401.007C528.11 400.826 528.282 400.648 528.449 400.472C529.033 399.859 529.619 399.247 530.207 398.638C528.982 397.958 527.87 397.042 526.852 396.114C525.332 394.729 523.864 393.282 522.396 391.836C521.75 391.199 521.104 390.562 520.453 389.931C520.109 389.597 519.758 389.262 519.405 388.926C515.969 385.651 512.365 382.216 512.758 377.051C513.128 372.185 516.009 367.849 518.674 363.836C518.953 363.417 519.229 363.001 519.5 362.589C522.535 357.972 525.726 353.468 529.073 349.078C528.341 349.07 527.609 349.067 526.876 349.071C518.105 349.169 509.362 350.079 500.758 351.788C495.752 352.748 490.781 353.885 485.828 355.089C480.646 356.248 475.556 357.782 470.597 359.681C461.694 363.278 454.444 369.379 448.727 377.032C443.223 384.4 439.065 392.662 435.039 400.897C430.98 409.216 426.922 417.534 422.864 425.852C422.856 425.868 422.849 425.885 422.84 425.901C422.722 426.157 422.599 426.409 422.47 426.659L412.161 447.791C411.758 448.617 411.356 449.446 410.955 450.274L410.953 450.277L410.952 450.28C409.251 453.788 407.549 457.297 405.696 460.727C398.375 474.277 387.166 490.009 370.026 489.878L370.01 489.877C368.082 489.893 366.157 489.706 364.268 489.319C356.497 487.719 350.012 482.57 344.961 476.66C339.491 470.26 335.295 462.861 331.577 455.34C328.19 448.487 324.848 441.61 321.507 434.733L321.482 434.681L321.476 434.669C319.842 431.305 318.207 427.941 316.568 424.58C315.133 421.64 313.71 418.695 312.286 415.749L312.285 415.748C308.931 408.81 305.577 401.871 302.086 395.004C297.935 386.838 293.351 378.718 287.106 371.948C284.068 368.604 280.579 365.699 276.74 363.318C272.246 360.685 267.43 358.644 262.413 357.246C257.329 355.734 252.138 354.546 246.963 353.389C242.234 352.331 237.479 351.377 232.688 350.639C224.054 349.314 215.312 348.829 206.585 349.192C203.234 349.329 199.889 349.573 196.551 349.892C196.311 351.403 195.911 352.887 195.358 354.318C194.188 357.114 192.007 359.381 188.859 359.629C187.35 359.813 185.832 359.371 184.657 358.407C183.483 357.443 182.754 356.041 182.64 354.525C182.528 353.05 182.985 351.588 183.915 350.437C185.186 348.886 186.902 348.58 188.79 348.344C190.652 348.111 192.517 347.895 194.383 347.699C194.635 344.884 194.778 342.059 194.913 339.236C195.14 334.486 195.312 329.732 195.484 324.979L195.484 324.97C195.553 323.06 195.623 321.149 195.695 319.239C195.723 318.513 195.75 317.786 195.777 317.059L195.777 317.039L195.777 317.036V317.034C195.895 313.862 196.012 310.686 196.198 307.516C195.847 307.228 195.621 306.796 195.602 306.162C195.635 305.524 195.778 304.898 196.023 304.309C196.143 303.943 196.262 303.576 196.362 303.203C196.42 302.983 196.473 302.762 196.518 302.538C196.525 302.507 196.535 302.449 196.546 302.382L196.558 302.305L196.57 302.235C196.599 302.053 196.623 301.906 196.593 302.138C196.784 300.635 199.143 300.575 199.002 302.138C198.897 303.292 198.811 304.449 198.736 305.606C198.793 305.602 198.849 305.597 198.905 305.592L198.95 305.587L199.073 305.573L199.107 305.569L199.108 305.568L199.225 305.555L199.32 305.541L199.462 305.521L199.511 305.514L199.557 305.507C199.899 305.454 200.239 305.396 200.579 305.334C202.545 304.978 204.497 304.539 206.447 304.101L206.792 304.023C209.131 303.498 211.467 302.962 213.803 302.426C214.873 302.18 215.944 301.935 217.015 301.69C217.206 301.646 217.398 301.603 217.589 301.56L217.917 301.487C220.624 300.883 223.289 300.288 225.575 298.601C229.546 295.669 231.1 290.596 231.736 285.912C232.513 280.186 232.138 274.327 231.721 268.587C231.657 267.701 231.587 266.815 231.517 265.927C231.075 260.279 230.63 254.609 231.501 248.978C231.974 245.437 233.22 242.044 235.15 239.038C235.671 238.267 236.245 237.533 236.868 236.842C237.513 236.219 238.114 235.55 238.665 234.842C239.646 233.388 238.881 231.611 238.21 230.055C238.06 229.705 237.913 229.365 237.793 229.044C234.7 220.734 232.638 212.076 231.655 203.264C231.329 200.382 231.211 197.45 231.092 194.512C230.983 191.819 230.874 189.122 230.606 186.454C224.698 187.441 218.7 187.849 212.698 187.667C207.089 187.491 200.827 187.106 195.712 184.463C195.446 185.92 195.034 187.349 194.568 188.658C193.414 191.814 191.79 194.779 189.753 197.452C187.745 200.106 185.495 202.568 183.03 204.804C182.56 205.235 182.074 205.651 181.588 206.067C180.79 206.749 179.992 207.432 179.261 208.183C178.217 209.257 177.12 210.644 177.51 212.23L177.511 212.233C177.66 212.864 177.283 213.5 176.658 213.673C176.033 213.845 175.383 213.492 175.188 212.873C173.81 209.218 170.266 206.923 166.554 206.166C158.62 204.548 151.904 210.718 149.427 217.8C147.975 222.322 147.696 227.138 148.615 231.797C149.057 234.275 149.68 236.718 150.48 239.105C150.674 239.934 150.971 240.736 151.362 241.491C151.979 241.275 152.61 241.143 153.252 241.164C154.513 241.203 156.202 242.274 155.596 243.765C154.984 245.269 152.967 245.573 151.616 245.048C151.254 244.907 150.935 244.717 150.652 244.488C150.439 244.601 150.226 244.717 150.014 244.832L150.011 244.834C149.668 245.02 149.326 245.206 148.984 245.38L129.215 255.405C128.795 255.618 128.39 255.574 128.069 255.39C127.593 264.751 127.229 274.117 126.937 283.485C126.357 302.066 126.069 320.655 125.786 339.242C128.741 340.309 131.548 342.032 131.461 345.256C131.369 348.675 126.748 351.564 124.38 348.378C123.453 347.132 125.545 345.933 126.459 347.163C126.947 347.819 127.931 347.08 128.32 346.678C128.966 346.116 129.187 345.208 128.873 344.411C128.191 342.719 126.214 341.88 124.513 341.337ZM531.834 349.135C531.816 349.297 531.765 349.457 531.679 349.606C528.21 354.116 524.911 358.746 521.783 363.495C521.459 363.987 521.126 364.483 520.791 364.983C518.549 368.324 516.179 371.856 515.356 375.782C514.861 377.878 515.192 380.084 516.281 381.942C517.239 383.524 518.612 384.829 519.957 386.106C520.229 386.364 520.501 386.622 520.767 386.88L526.325 392.275C526.543 392.486 526.76 392.699 526.977 392.913C528.334 394.249 529.713 395.606 531.383 396.531C531.574 396.637 531.77 396.736 531.97 396.826C533.7 395.06 535.45 393.313 537.218 391.585C537.691 391.122 538.447 391.122 538.921 391.585C540.459 393.368 540.162 395.694 538.757 397.465C537.351 399.267 535.036 400.103 532.802 399.616C532.739 399.603 532.676 399.59 532.613 399.576C530.983 401.22 529.37 402.886 527.866 404.63C526.931 405.713 526.097 407.006 526.514 408.485C526.836 409.631 527.566 410.7 528.259 411.715C528.443 411.983 528.624 412.248 528.794 412.509C532.162 417.689 535.86 422.647 539.865 427.353C547.907 436.816 557.123 445.214 567.29 452.346C567.504 452.496 567.72 452.648 567.937 452.801C568.974 453.533 570.046 454.29 571.169 454.938C573.514 455.456 575.861 455.97 578.209 456.48C580.352 456.028 582.348 454.787 584.165 453.61C589.591 450.067 594.676 446.027 599.355 441.543C609.218 432.163 617.259 421.112 625.084 410.031C626.937 407.548 628.53 404.881 629.839 402.073C630.977 399.449 631.782 396.309 631.156 393.454C630.772 391.701 629.75 389.803 628.35 388.322L625.184 393.253C624.899 393.714 624.35 393.937 623.824 393.807C622.497 393.498 621.3 392.779 620.404 391.752C619.43 390.642 618.808 389.267 618.62 387.802C618.468 386.589 618.509 384.614 619.749 384.003C622.306 382.742 625.428 383.31 627.771 384.77L643.407 360.418C643.507 360.262 643.62 360.098 643.736 359.929C644.266 359.159 644.881 358.265 644.819 357.365C644.751 356.391 643.898 355.586 643.201 354.927C643.12 354.85 643.041 354.776 642.966 354.704C642.249 354.014 641.518 353.34 640.775 352.68C634.765 347.363 627.934 343.066 620.554 339.951C619.241 340.29 617.933 340.643 616.629 341.011C616.497 341.048 616.362 341.086 616.224 341.126C616.02 341.264 615.771 341.335 615.52 341.338C613.786 341.886 611.854 342.728 611.179 344.411C610.855 345.265 611.127 346.23 611.848 346.789C612.248 347.16 613.137 347.775 613.592 347.163C614.507 345.931 616.596 347.133 615.671 348.378C613.363 351.483 608.996 348.84 608.624 345.569C608.24 342.201 611.229 340.373 614.267 339.263C614.209 335.453 614.15 331.644 614.089 327.834C613.845 312.584 613.559 297.335 613.071 282.091C612.854 282.057 612.636 281.953 612.437 281.762C609.843 279.278 607.42 276.621 605.186 273.81C601.221 268.83 597.861 263.397 595.179 257.624C594.404 255.949 593.741 254.235 593.077 252.52C592.648 251.411 592.219 250.303 591.76 249.204C591.458 248.482 591.117 247.733 590.707 247.028C590.515 247.042 590.319 247.042 590.118 247.027C587.822 246.86 585.603 244.825 586.305 242.397C586.49 241.763 587.147 241.39 587.787 241.556C589.386 242.027 590.635 242.986 591.634 244.193C592.074 243.895 592.459 243.492 592.764 243.123C594.45 241.075 595.582 238.297 596.499 235.836C598.209 231.25 599.086 226.129 597.853 221.311C596.886 217.318 594.462 213.831 591.055 211.534C587.819 209.345 583.652 209.073 580.159 210.824C576.772 212.555 574.215 215.89 574.531 219.819C574.63 221.053 572.862 221.401 572.287 220.427C569.805 216.224 565.979 213.12 562.116 210.24C558.489 207.655 555.016 204.86 551.714 201.871C548.412 198.741 545.403 195.317 542.724 191.641C539.952 187.978 537.603 184.012 535.722 179.821L535.686 179.737C528.052 190.305 518.663 199.482 507.931 206.871C507.908 207.032 507.885 207.193 507.861 207.353C506.685 215.238 504.632 222.967 501.742 230.397C501.299 231.3 501.011 232.27 500.889 233.268C500.913 234.082 501.255 234.855 501.843 235.419C502.975 236.591 504.024 237.841 504.983 239.158C506.714 241.876 507.877 244.917 508.402 248.096C508.961 251.375 509.173 254.704 509.036 258.027C509.01 258.903 508.972 259.776 508.933 260.649C508.84 262.777 508.747 264.9 508.83 267.038C509.267 278.379 513.192 290.442 523.007 297.051C526.326 299.169 529.911 300.84 533.667 302.022C535.466 302.721 537.357 303.157 539.282 303.315C539.812 303.378 540.349 303.3 540.839 303.087C540.839 303.087 540.957 302.982 540.944 303.02C540.95 303.008 540.957 302.996 540.964 302.983C540.979 302.955 540.995 302.924 541.009 302.898L541.019 302.879C541.026 302.865 541.032 302.854 541.037 302.845C541.064 302.739 541.08 302.631 541.085 302.523C541.073 302.394 541.062 302.266 541.05 302.137C540.91 300.585 543.301 300.617 543.459 302.137C543.471 302.232 543.48 302.326 543.484 302.419C543.727 305.185 543.868 307.96 544 310.732C544.227 315.477 544.399 320.224 544.571 324.971V324.982C544.64 326.898 544.71 328.814 544.783 330.73C544.809 331.418 544.834 332.108 544.86 332.797L544.865 332.925C545.046 337.853 545.229 342.79 545.669 347.701C547.412 347.883 549.152 348.084 550.891 348.299L550.984 348.31C552.884 348.545 554.696 348.769 556.026 350.303C558.056 352.679 557.844 356.234 555.547 358.352C553.34 360.22 549.848 359.984 547.611 358.303C545.01 356.348 543.985 353.059 543.514 349.893C542.603 349.806 541.692 349.725 540.781 349.65C537.803 349.405 534.82 349.226 531.834 349.135ZM624.34 339.011C631.568 342.414 638.228 346.939 644.068 352.43L644.098 352.457C645.676 353.941 647.482 355.639 647.181 358.009C646.917 359.267 646.373 360.45 645.591 361.471L629.679 386.252C631.321 387.79 632.551 389.732 633.235 391.901C634.248 395.115 633.689 398.701 632.53 401.797C631.154 405.164 629.35 408.34 627.164 411.247C624.898 414.452 622.602 417.633 620.274 420.791C615.677 427.171 610.679 433.253 605.311 438.998C600.119 444.476 594.396 449.425 588.227 453.773C588.018 453.919 587.807 454.067 587.594 454.217C586.002 455.336 584.331 456.51 582.561 457.421C583.45 457.612 584.34 457.803 585.229 457.993C598.915 460.918 612.643 463.66 626.453 465.929C633.346 467.062 640.257 468.077 647.19 468.932C648.514 469.095 649.844 469.232 651.174 469.37L651.176 469.37L651.182 469.371C652.242 469.481 653.302 469.59 654.36 469.713C652.299 464.315 651.104 458.622 650.824 452.843C650.745 451.291 653.154 451.301 653.232 452.843C653.534 458.779 654.847 464.603 657.098 470.07C659.111 470.381 661.428 471.246 661.928 473.463C662.326 475.232 661.266 477.488 659.304 477.627C658.001 477.72 657.498 476.652 657.013 475.621C656.927 475.437 656.841 475.255 656.751 475.081C656.277 474.158 655.832 473.221 655.414 472.273C631.779 469.514 608.447 465.405 585.176 460.441C583.153 460.01 581.128 459.581 579.102 459.153C578.767 459.082 578.432 459.011 578.097 458.94C575.444 459.315 572.968 458.564 570.665 457.359C564.112 455.95 557.57 454.489 551.08 452.859C546.068 451.692 541.193 450.001 536.534 447.814C532.134 445.619 528.137 442.693 524.714 439.162C522.549 436.966 520.536 434.585 518.522 432.2L518.521 432.199C514.495 427.434 510.457 422.655 505.162 419.31C502.032 417.332 498.025 416.185 494.362 417.258C490.535 418.379 489.874 422.069 491.467 425.356C492.068 426.596 492.833 427.765 493.598 428.935C494.83 430.818 496.064 432.703 496.62 434.894C497.591 438.55 495.684 442.356 492.174 443.766C487.744 445.715 483.122 444.011 479.231 441.634C475.758 439.513 472.378 437.219 469.002 434.928L468.999 434.926C467.426 433.859 465.855 432.792 464.275 431.744C461.779 430.082 459.279 428.426 456.776 426.775C456.672 426.706 456.567 426.637 456.462 426.568C454.43 425.223 452.206 423.753 449.719 423.602C447.56 423.471 444.874 424.643 444.72 427.081C444.579 429.313 446.072 431.697 447.286 433.635L447.29 433.641C447.429 433.863 447.564 434.079 447.693 434.288C450.103 438.188 453.069 441.677 456.476 444.658C461.27 446.901 465.799 449.682 469.974 452.949C470.906 453.675 469.892 455.399 468.802 454.961C466.353 453.991 463.988 452.824 461.728 451.472C459.376 450.05 457.159 448.436 455.097 446.65C453.778 446.046 452.438 445.485 451.08 444.969C448.351 443.935 445.557 443.081 442.716 442.411L442.592 442.382C440.827 441.965 437.499 441.179 436.371 443.088C435.691 444.239 436.373 445.882 436.884 447.112L436.959 447.294C436.978 447.34 436.997 447.386 437.015 447.431C437.034 447.478 437.053 447.524 437.071 447.569C437.508 448.669 438.001 449.746 438.535 450.802C441.616 456.89 446.017 462.114 451.336 466.147C456.694 468.303 461.889 470.847 466.877 473.759C467.38 474.074 467.581 474.707 467.35 475.255C467.12 475.802 466.526 476.101 465.949 475.96C460.198 474.39 454.855 471.76 450.166 468.258C447.497 467.199 444.794 466.242 442.056 465.387C441.535 465.224 440.997 465.041 440.448 464.855C438.506 464.197 436.427 463.492 434.481 463.444C432.819 463.404 432.403 464.427 432.708 465.957C432.96 467.155 433.355 468.319 433.885 469.423C434.978 471.658 436.417 473.706 438.149 475.492C441.701 479.263 446.003 482.285 450.226 485.251L450.394 485.369C454.961 488.571 459.631 491.612 464.403 494.492C483.618 506.09 504.275 515.097 525.382 522.638C547.138 530.405 569.286 537.028 591.734 542.479C615.129 548.158 639.275 552.005 663.406 550.198C683.18 548.718 704.171 543.472 719.336 529.978C726.836 523.355 732.214 514.665 734.795 504.998C737.748 493.995 737.64 482.391 737.04 471.101C735.753 446.888 730.945 422.97 724.718 399.582C720.478 383.655 714.628 367.574 704.168 354.594C694.408 342.485 680.845 334.566 665.197 333.428C654.794 332.671 644.389 334.753 634.245 336.83C630.938 337.508 627.63 338.224 624.34 339.011ZM626.487 386.77C624.876 385.749 623.006 385.333 621.114 386.031C620.876 387.093 621.023 388.212 621.538 389.184C622.009 390.071 622.753 390.773 623.648 391.192L626.487 386.77ZM534.926 397.255C535.36 397.155 535.782 396.966 536.177 396.665C536.763 396.219 537.398 395.429 537.552 394.633C536.751 395.424 535.953 396.22 535.16 397.019C535.082 397.098 535.004 397.176 534.926 397.255ZM144.36 458.048C144.097 458.816 143.832 459.583 143.565 460.349C136.937 461.704 130.297 462.997 123.64 464.197C116.856 465.419 110.053 466.532 103.232 467.536C100.747 467.897 98.2543 468.202 95.7597 468.493C99.6262 463.544 103.478 458.583 107.315 453.61C115.72 442.698 124.015 431.7 132.074 420.53C136.121 414.921 140.102 409.266 144.019 403.565C145.65 401.186 147.251 398.786 148.852 396.386L148.854 396.384C150.877 393.352 152.9 390.32 154.983 387.329C156.173 385.553 157.425 383.822 158.738 382.139C158.904 394.477 157.734 406.8 155.246 418.893C152.499 432.174 148.863 445.255 144.36 458.048ZM110.686 468.824C105.005 469.727 99.3119 470.535 93.6053 471.247C91.7918 473.564 89.9768 475.879 88.1604 478.193C88.0247 478.366 87.8886 478.539 87.7524 478.712L87.7465 478.719C85.9732 480.972 84.1803 483.25 82.9533 485.855C80.0427 492.034 82.6138 498.972 85.0005 504.878C86.2524 507.962 87.6896 510.969 89.3044 513.88C89.9248 515.23 90.7209 516.493 91.672 517.635C92.7584 518.74 93.8581 517.989 94.9141 517.267C94.9592 517.237 95.0043 517.206 95.0492 517.175C95.0979 517.142 95.1464 517.109 95.1949 517.077L113.025 505.142C113.473 504.842 113.921 504.543 114.369 504.244C114.799 503.957 115.23 503.669 115.66 503.382L115.662 503.381C117.647 502.057 119.632 500.733 121.607 499.393C124.218 497.717 126.646 495.771 128.851 493.588C132.839 489.435 134.894 483.938 136.884 478.614L136.884 478.612C137.083 478.082 137.281 477.552 137.48 477.026C139.244 472.365 140.973 467.689 142.637 462.991C132.026 465.144 121.381 467.133 110.686 468.824ZM163.274 373.224C161.906 374.671 160.579 376.155 159.296 377.676C159.174 377.728 159.062 377.8 158.967 377.892C158.915 377.73 158.823 377.57 158.683 377.42C156.596 375.199 154.744 372.769 153.154 370.168C152.349 368.848 151.612 367.487 150.947 366.091C150.865 365.921 150.772 365.737 150.673 365.543C150.115 364.443 149.389 363.013 149.79 361.912C150.15 360.921 151.419 360.596 152.343 360.443C153.805 360.267 155.282 360.249 156.748 360.39C160.135 360.568 163.488 361.162 166.73 362.159C167.897 362.419 168.965 363.005 169.81 363.85C170.658 364.89 170.288 366.123 169.588 367.126C168.738 368.202 167.761 369.171 166.678 370.011C165.5 371.035 164.366 372.106 163.274 373.224ZM420.761 424.685L424.785 416.437C425.962 414.023 427.125 411.599 428.289 409.174L428.29 409.171L428.301 409.148C431.77 401.917 435.243 394.676 439.122 387.668C443.69 379.414 449.111 371.368 456.435 365.302C464.737 358.427 474.879 355.272 485.188 352.767C494.862 350.416 504.626 348.312 514.544 347.312C523.938 346.441 533.394 346.475 542.782 347.416C542.934 347.43 543.087 347.445 543.239 347.459C543 344.723 542.861 341.979 542.73 339.236C542.504 334.485 542.331 329.731 542.159 324.978V324.971C542.09 323.06 542.021 321.149 541.948 319.239C541.92 318.506 541.893 317.773 541.866 317.04V317.038C541.724 313.19 541.582 309.338 541.317 305.496C541.213 305.529 541.106 305.555 540.997 305.577C539.158 306.008 537.116 305.527 535.336 305.05C533.251 304.468 531.207 303.75 529.217 302.901C524.847 301.088 520.757 298.872 517.358 295.511C516.689 294.85 516.056 294.163 515.457 293.453C514.884 294.049 514.242 294.577 513.542 295.025C510.512 297.048 506.801 298.081 503.287 298.88C498.579 299.893 493.812 300.606 489.014 301.016C480.888 301.805 472.729 302.102 464.573 302.399C462.719 302.466 460.865 302.534 459.012 302.607C457.114 302.682 455.201 302.736 453.28 302.791L453.277 302.791C441.631 303.121 429.674 303.461 419.006 308.468C413.631 310.991 408.626 314.678 405.372 319.719C402.31 324.463 400.631 330.373 401.507 336.02C402.142 340.5 404.557 344.504 408.157 347.156C410.075 346.072 412.051 345.091 414.077 344.217C417.099 343.007 420.617 342.239 423.803 343.282C425.335 343.687 426.684 344.603 427.625 345.879C428.457 347.323 428.057 349.162 426.699 350.129C422.484 353.517 416.133 353.501 411.313 351.599C410.174 351.165 409.088 350.628 408.067 349.999C407.004 350.625 405.954 351.273 404.919 351.945C402.282 353.572 399.735 355.339 397.288 357.239C392.494 361.011 388.093 365.478 385.111 370.843C382.305 375.832 380.955 381.508 381.217 387.226C381.528 392.845 383.829 398.33 388.175 402.007C390.398 403.939 393.145 405.165 396.068 405.531C397.161 405.643 398.263 405.604 399.342 405.416C400.354 404.13 401.534 402.978 402.854 401.991C403.976 401.15 405.502 400.875 406.385 402.24C407.303 403.66 406.344 404.846 405.157 405.646C403.755 406.591 402.258 407.227 400.721 407.588C400.414 408.024 400.128 408.475 399.864 408.939C398.5 411.295 397.752 413.957 397.689 416.679C397.63 420.701 399.399 424.306 402.035 427.258C404.333 429.83 407.531 432.278 411.122 432.4C415.799 432.559 418.844 428.489 420.746 424.715L420.761 424.685ZM404.455 403.272C404.503 403.26 404.497 403.285 404.293 403.381C404.306 403.331 404.407 403.283 404.455 403.272ZM410.516 348.612C414.382 350.589 419.133 351.218 423.176 349.416C423.214 349.398 423.256 349.38 423.301 349.36C424.171 348.977 426.252 348.06 425.491 347.006C424.727 345.948 422.977 345.438 421.757 345.275C418.785 344.878 415.717 346.001 413.083 347.269C412.219 347.702 411.363 348.15 410.516 348.612ZM534.84 176.783C527.6 187.199 518.635 196.284 508.345 203.654C508.653 200.97 508.868 198.275 508.99 195.575C509.026 194.82 509.057 194.063 509.088 193.306L509.089 193.297V193.294C509.218 190.17 509.347 187.04 509.776 183.942C510.688 177.354 513.244 171.404 518.034 166.723C522.428 162.589 527.747 159.568 533.546 157.911C545.469 154.293 558.439 155.654 569.887 160.293C581.513 165.004 591.459 173.093 598.442 183.515C606.766 196.101 608.863 211.159 610.065 225.889C611.444 242.81 612.294 259.774 612.892 276.74C612.917 277.464 612.942 278.188 612.967 278.912C608.727 274.679 604.987 269.971 601.823 264.879C600.102 262.105 598.554 259.227 597.19 256.261C596.493 254.746 595.897 253.193 595.301 251.641C594.803 250.345 594.305 249.049 593.749 247.774C593.514 247.237 593.258 246.705 592.974 246.19C594.25 245.312 595.248 243.894 595.968 242.622C598.969 237.322 601.093 231.163 600.8 225.007C600.621 219.766 598.379 214.807 594.56 211.212C590.871 207.864 585.747 206.253 580.918 207.905C576.992 209.248 573.525 212.434 572.441 216.42C569.531 212.755 565.737 209.943 561.953 207.138C560.123 205.782 558.295 204.428 556.571 202.979C550.162 197.595 544.738 191.136 540.542 183.893C540.417 183.677 540.29 183.46 540.162 183.241L540.154 183.226C539.067 181.366 537.916 179.394 537.379 177.328C538.549 175.617 539.674 173.871 540.753 172.093C540.963 171.719 540.961 171.263 540.748 170.891C540.535 170.519 540.142 170.287 539.713 170.281C537.761 170.316 536.019 171.514 535.287 173.324C534.782 174.445 534.688 175.621 534.84 176.783ZM128.181 253.234L147.769 243.3C148.126 243.119 148.492 242.915 148.865 242.706L148.867 242.705L148.872 242.702C148.98 242.642 149.088 242.582 149.196 242.522C149.015 242.144 148.859 241.754 148.717 241.369C148.024 239.481 147.437 237.555 146.959 235.601C145.158 228.306 145.024 220.374 148.663 213.606C151.642 208.069 157.121 203.643 163.604 203.504C168.238 203.404 172.892 205.388 175.694 208.994C176.542 207.34 178.069 205.938 179.473 204.739C183.972 200.899 188.139 196.481 190.865 191.184C192.197 188.659 193.068 185.917 193.437 183.086L193.438 183.079C192.417 182.348 191.497 181.485 190.703 180.511L190.677 180.479C189.797 179.379 188.81 178.144 189.767 176.78C190.615 175.725 192.03 175.311 193.313 175.744C194.699 176.295 195.669 177.564 195.838 179.046C196.002 179.97 196.049 180.931 196.007 181.903C196.748 182.345 197.536 182.714 198.36 183.004C204.211 185.278 210.937 185.4 217.129 185.29C221.553 185.207 225.961 184.797 230.317 184.063C229.998 181.837 229.533 179.639 228.827 177.491C226.737 171.138 222.181 165.987 216.576 162.454C204.927 155.114 190.173 154.353 177.137 157.929C163.645 161.651 151.774 169.754 143.392 180.964C138.976 187.017 135.721 193.837 133.792 201.078C131.477 209.52 130.592 218.26 129.901 226.961C129.205 235.71 128.643 244.469 128.181 253.234ZM193.582 180.039C193.537 179.63 193.451 179.236 193.305 178.873C193.111 178.392 192.809 177.985 192.26 177.994C192.114 177.996 192 178.009 191.913 178.047C192.404 178.768 192.963 179.435 193.582 180.039ZM547.082 353.805C546.577 352.625 546.202 351.396 545.963 350.14C546.877 350.237 547.79 350.338 548.702 350.444C549.058 350.486 549.417 350.521 549.778 350.557C550.685 350.646 551.601 350.736 552.48 350.924C553.114 351.041 553.696 351.351 554.146 351.811C555.823 353.597 554.992 356.766 552.501 357.188C550.021 357.609 548.12 355.99 547.082 353.805ZM194.083 350.14C193.291 350.224 192.5 350.312 191.708 350.403L191.575 350.418C191.41 350.436 191.243 350.454 191.076 350.47C190.9 350.488 190.723 350.505 190.546 350.523L190.537 350.523C189.542 350.62 188.535 350.718 187.571 350.924C186.968 351.037 186.41 351.323 185.966 351.748C185.212 352.537 184.881 353.64 185.077 354.714C185.499 357.191 188.341 357.756 190.281 356.821C192.675 355.667 193.639 352.791 194.083 350.14ZM80.9956 473.261C81.2136 473.08 81.4596 472.938 81.7228 472.825C81.3705 473.557 81.0008 474.282 80.6138 474.998C80.2869 474.568 80.5855 473.602 80.9956 473.261ZM658.346 472.864C658.696 473.59 659.063 474.308 659.446 475.018C659.815 474.562 659.345 473.433 658.858 473.106C658.69 473.018 658.519 472.938 658.346 472.864Z" fill="#A3A9B6"/>
<path d="M208.438 219.909C205.998 218.466 204.243 216.171 202.613 213.909C202.282 213.334 202.475 212.601 203.045 212.262C203.622 211.946 204.345 212.135 204.692 212.694C205.918 214.608 207.487 216.279 209.321 217.623C210.979 218.698 213.248 219.362 215.155 218.539C215.732 218.221 216.457 218.411 216.803 218.971C217.134 219.546 216.942 220.281 216.371 220.619C213.766 221.673 210.814 221.409 208.438 219.909Z" fill="#A3A9B6"/>
<path fill-rule="evenodd" clip-rule="evenodd" d="M221.137 251.604C216.823 249.007 212.327 246.724 207.684 244.774C205.728 243.951 203.576 243.05 201.411 243.514C199.283 243.97 197.974 245.807 197.51 247.837C196.443 252.503 198.658 257.129 201.253 260.879C203.505 264.134 207.205 268.629 211.721 266.527C213.873 265.525 214.964 263.121 215.893 261.072L215.918 261.017C217.081 258.46 217.97 255.786 218.569 253.041C218.575 253.013 218.58 252.986 218.584 252.959C218.588 252.938 218.591 252.916 218.593 252.895C219.037 253.155 219.48 253.418 219.921 253.684C221.252 254.485 222.464 252.403 221.137 251.604ZM207.42 247.257C210.557 248.607 213.624 250.113 216.611 251.768C216.44 251.909 216.308 252.117 216.246 252.401C215.814 254.412 215.22 256.386 214.472 258.303C213.865 260.085 213.008 261.772 211.926 263.313C210.849 264.681 208.907 265.004 207.445 264.058C205.865 263.211 204.742 261.645 203.722 260.218C201.525 257.142 199.394 253.516 199.67 249.595C199.785 247.954 200.397 245.992 202.295 245.806C203.806 245.659 205.384 246.358 206.789 246.981L206.79 246.981L206.791 246.982L206.797 246.984L206.798 246.985C207.01 247.078 207.217 247.17 207.42 247.257Z" fill="#A3A9B6"/>
<path fill-rule="evenodd" clip-rule="evenodd" d="M275.066 92.3102C272.003 91.975 269.242 90.3126 267.513 87.7627L267.514 87.7628C266.663 86.4598 268.749 85.2542 269.593 86.5472C271.179 88.7634 273.752 90.0589 276.476 90.0123C279.627 90.0507 282.612 88.6911 285.185 86.9738C285.378 86.8503 285.568 86.7232 285.756 86.5926C285.674 86.3349 285.6 86.0731 285.534 85.8072C284.799 82.8435 285.173 79.7134 286.584 77.0057C287.768 74.8632 291.127 72.5671 293.348 74.7131C295.718 77.0027 293.707 81.2439 292.209 83.4579C291.183 84.9138 289.984 86.2325 288.643 87.3873C288.761 87.6315 288.889 87.8718 289.027 88.1075C291.466 92.2356 296.927 93.8741 301.336 92.1284C302.864 91.4635 304.162 90.4608 305.168 89.2368C304.995 88.6499 304.895 88.0372 304.876 87.4114C304.734 84.7568 305.956 82.2022 307.488 80.1125C308.034 79.3669 309.484 79.2719 309.689 80.4001C310.283 83.6701 309.531 86.9631 307.821 89.611C308.161 90.2264 308.679 90.772 309.42 91.2083C311.133 92.2169 313.292 91.4401 314.689 90.2347C316.131 88.8158 317.308 87.1516 318.166 85.3201C318.167 85.3167 318.168 85.3134 318.17 85.31C318.934 83.9173 320.854 85.1425 320.25 86.5254C319.816 87.8198 320.163 89.2481 321.143 90.199C322.271 91.3243 323.902 91.7851 325.452 91.4171C326.943 91.0497 328.32 90.3204 329.462 89.2939C330.562 88.4295 331.882 87.6355 333.32 88.1259C333.974 88.3492 334.414 88.8126 334.851 89.274C335.334 89.783 335.814 90.2895 336.578 90.4685C337.735 90.7399 339.012 90.663 340.239 90.5891C340.65 90.5643 341.055 90.5399 341.448 90.529L364.515 89.8912C366.068 89.8479 366.062 92.2568 364.515 92.2996L350.171 92.6963C348.857 92.7326 347.536 92.7916 346.213 92.8508C343.404 92.9763 340.586 93.1023 337.796 93.0127C336.223 93.0814 334.687 92.5201 333.529 91.4532C333.419 91.3359 333.318 91.2062 333.221 91.0795C332.876 90.6339 332.56 90.2245 331.921 90.5186C331.228 90.9239 330.579 91.4011 329.987 91.9425C327.413 93.8781 323.54 94.7695 320.671 92.9175C319.497 92.2035 318.638 91.1507 318.155 89.9517C317.361 91.0378 316.441 92.0191 315.296 92.7738C313.218 94.1439 310.423 94.5955 308.203 93.2882C307.461 92.811 306.823 92.2101 306.31 91.5216C304.484 93.4231 302.056 94.751 299.252 95.1128C294.083 95.8216 289.159 93.2269 286.731 88.8552C286.175 89.2354 285.599 89.5902 285.007 89.918C282.018 91.637 278.541 92.7674 275.066 92.3102ZM287.803 84.9263C288.806 83.9766 289.696 82.9094 290.453 81.7451C290.93 80.9736 293.347 75.9561 290.987 76.3052C288.788 76.6306 287.876 79.6546 287.655 81.4822C287.515 82.6383 287.568 83.8013 287.803 84.9263Z" fill="#9AC3D4"/>
<path fill-rule="evenodd" clip-rule="evenodd" d="M292.025 2.3355C317.141 -0.832992 342.528 2.00381 367.531 4.84155C367.534 4.84192 367.537 4.84205 367.54 4.84245C369.771 5.0603 371.988 5.39713 374.182 5.85149C384.49 8.02958 394.333 12.0101 403.258 17.6098C407.456 20.1599 411.324 23.219 414.773 26.7174C418.536 30.7975 421.73 35.3681 424.267 40.3049C435.238 60.798 437.363 86.0068 431.371 108.341C428.497 119.291 423.428 129.543 416.472 138.475C409.65 146.962 401.179 153.977 391.57 159.097C372.128 169.656 349.565 173.36 327.684 174.119C327.12 174.139 326.554 174.156 325.987 174.174C320.572 174.341 315.017 174.512 309.938 176.537C304.833 178.571 301.454 182.733 298.097 186.867C297.741 187.306 297.385 187.745 297.027 188.181C289.612 197.224 279.783 203.978 268.683 207.657C267.414 208.076 266.847 206.496 267.511 205.644C269.798 202.706 271.975 199.691 274.042 196.598C279.441 188.518 284.063 179.952 287.85 171.018C284.901 171.665 281.499 171.276 278.701 170.957C278.526 170.937 278.352 170.917 278.182 170.898C273.282 170.348 268.453 169.292 263.771 167.745C254.184 164.557 245.334 159.475 237.747 152.802C230.081 146.089 223.951 137.804 219.774 128.509C215.237 118.012 212.813 106.724 212.641 95.2891C212.426 83.6189 213.858 71.9766 216.896 60.7066C219.773 49.7469 224.198 39.0038 231.477 30.2055C246.12 12.506 270.024 5.11108 292.025 2.3355ZM290.969 169.763C291.654 169.315 292.273 168.753 292.801 168.052C294.239 166.292 294.516 163.853 293.509 161.814C293.256 161.408 292.79 161.187 292.315 161.249C291.841 161.311 291.447 161.645 291.308 162.102C290.6 164.107 289.852 166.096 289.064 168.069C288.93 168.136 288.795 168.196 288.661 168.249C286.412 169.128 283.832 168.946 281.452 168.779C281.322 168.769 281.193 168.76 281.064 168.751C276.253 168.408 271.493 167.548 266.865 166.187C257.672 163.492 249.104 158.998 241.661 152.966C234.094 146.876 227.888 139.267 223.444 130.63C218.458 120.834 215.896 109.935 215.212 98.9996C214.6 87.7972 215.595 76.5648 218.166 65.6444C220.588 55.0145 224.22 44.4771 230.487 35.4632C243.095 17.3299 265.424 9.07259 286.395 5.57079C310.294 1.58003 334.742 3.64446 358.67 6.2582C361.604 6.57877 364.538 6.90701 367.47 7.24294C367.49 7.24571 367.511 7.2481 367.531 7.25007C367.536 7.2506 367.542 7.25112 367.547 7.25165C367.552 7.25214 367.557 7.25262 367.562 7.25311C377.396 8.20614 387.128 11.6899 395.869 16.1881C400.382 18.4561 404.649 21.185 408.601 24.331C412.408 27.4598 415.721 31.1443 418.43 35.2603C431.242 54.3673 434.861 79.2985 430.452 101.658C428.387 112.486 424.222 122.805 418.19 132.031C412.119 141.061 404.178 148.68 394.905 154.373C376.491 165.819 354.439 170.203 333.055 171.461C331.215 171.569 329.369 171.629 327.523 171.689C323.73 171.812 319.934 171.935 316.179 172.478C310.436 173.307 305.286 175.496 301.155 179.64C299.29 181.511 297.617 183.544 295.942 185.578C293.99 187.95 292.037 190.322 289.781 192.437C285.641 196.308 280.966 199.563 275.899 202.1C274.553 202.773 273.182 203.394 271.789 203.96C278.849 194.406 284.805 184.078 289.54 173.173C290.029 172.042 290.505 170.905 290.969 169.763Z" fill="#9AC3D4"/>
<path d="M361.295 220.605C360.433 219.239 359.571 217.874 358.697 216.521C357.852 215.214 359.938 214.007 360.776 215.305L367.017 224.966C367.236 225.305 367.476 225.644 367.717 225.986C368.136 226.578 368.56 227.177 368.887 227.793C368.89 227.785 368.894 227.776 368.899 227.767C369.065 227.491 369.246 227.224 369.442 226.968L398.653 183.973C399.52 182.697 401.606 183.904 400.733 185.189L374.888 223.229C374.447 223.879 374.012 224.536 373.577 225.194C372.687 226.539 371.796 227.887 370.841 229.179C370.364 229.995 369.44 230.44 368.504 230.307C367.691 230.061 367.008 229.504 366.602 228.758C364.762 226.096 363.027 223.349 361.295 220.605Z" fill="#7BA84F"/>
<path fill-rule="evenodd" clip-rule="evenodd" d="M457.656 199.862C462.285 183.67 455.77 166.8 444.237 155.167C432.078 142.903 414.693 138.107 397.977 136.272C389.616 135.359 381.203 135.022 372.796 135.261C364.917 135.421 357.071 136.334 349.365 137.988C334.447 141.317 320.25 148.58 311.367 161.387C301.656 175.391 299.377 193.339 299.529 209.986C299.683 226.822 303.068 244.585 314.549 257.553C326.011 270.5 343.151 276.663 359.925 278.682C369.993 279.894 380.168 279.736 390.279 279.246C399.755 278.787 409.328 278.317 418.642 276.396C427.121 274.647 435.347 271.537 442.205 266.16C448.249 261.422 453.212 254.956 455.272 247.48C455.646 246.114 455.92 244.723 456.089 243.319C461.582 245.917 467.843 246.574 473.824 245.101C477.32 244.254 480.591 242.659 483.412 240.426C483.838 239.998 483.879 239.32 483.506 238.845C483.132 238.377 482.477 238.246 481.952 238.534C475.83 241.153 468.8 238.609 464.108 234.342C458.406 229.155 456.314 221.512 456.191 214.008C456.184 209.255 456.675 204.514 457.656 199.864L457.656 199.862ZM455.313 199.331C453.611 208.081 452.709 217.537 455.844 226.082C458.427 233.122 464 238.965 471.268 241.18C472.778 241.656 474.334 241.918 475.893 241.969C469.589 244.315 462.222 243.87 456.269 240.746C456.263 239.186 455.95 237.554 454.636 236.589C453.283 235.637 451.425 235.895 450.384 237.179C449.83 237.846 449.793 238.801 450.294 239.508C450.947 240.17 451.676 240.752 452.466 241.242C452.908 241.544 453.358 241.831 453.814 242.104C453.736 243.192 453.571 244.273 453.319 245.336C452.596 248.589 451.323 251.695 449.555 254.52C445.919 260.218 440.893 264.897 434.95 268.116C427.957 272.006 420.02 273.958 412.151 275.087C403.806 276.283 395.314 276.653 386.898 276.988C370.345 277.644 353.321 277.068 337.792 270.704C331.071 268.018 324.892 264.135 319.557 259.244C314.212 254.2 310.039 248.046 307.331 241.214C301.77 227.362 301.141 211.687 302.424 196.972C303.689 182.472 307.858 167.59 318.168 156.847C327.423 147.206 340.194 142.119 353.117 139.67C367.038 137.031 381.556 137.118 395.619 138.44C410.39 139.829 426.285 143.355 438.1 152.867C448.762 161.45 456.671 174.562 456.81 188.499C456.838 192.048 456.362 195.583 455.398 198.999C455.371 199.067 455.35 199.141 455.334 199.221L455.333 199.224C455.325 199.26 455.318 199.295 455.313 199.331ZM453.672 239.144C453.57 238.858 453.414 238.612 453.173 238.484C453.031 238.423 452.876 238.403 452.725 238.422C453.034 238.672 453.35 238.912 453.672 239.144Z" fill="#7BA84F"/>
</svg>
