<svg width="428" height="428" viewBox="0 0 428 428" fill="none" xmlns="http://www.w3.org/2000/svg">
<path d="M326.258 111.321C325.443 119.111 322.635 126.559 318.105 132.948C315.906 136.139 313.208 138.954 310.112 141.285C306.807 143.635 303.033 145.242 299.048 145.995C291.152 147.601 282.848 146.947 274.911 146.002C271.83 145.636 268.757 145.196 265.684 144.757C260.777 144.055 255.87 143.353 250.928 142.948C243.136 142.309 235.173 142.455 227.619 144.664C217.44 147.655 208.718 154.289 203.119 163.302C202.166 164.837 201.39 166.462 200.615 168.087C199.905 169.575 199.194 171.063 198.348 172.482C197.5 173.982 196.34 175.284 194.946 176.298L194.937 176.304C193.729 177.148 192.37 178.097 192.318 179.724C192.268 181.299 193.443 182.57 194.475 183.685C194.623 183.845 194.768 184.002 194.906 184.156C196.375 185.795 197.848 187.432 199.324 189.065C211.175 202.177 223.248 215.084 235.543 227.786C237.074 229.367 238.609 230.946 240.146 232.521C240.335 232.706 240.597 232.794 240.859 232.761C241.12 232.727 241.352 232.575 241.487 232.348C244.844 224.729 249.284 217.06 256.294 212.254C263.9 207.04 273.452 206.247 282.406 206.869C286.149 207.129 289.871 207.607 293.592 208.084C299.532 208.846 305.47 209.607 311.482 209.484C319.232 209.307 326.917 208.027 334.306 205.681C349.127 200.993 362.435 192.448 372.867 180.924C378.037 175.213 382.356 168.787 385.692 161.844C385.79 161.64 385.891 161.432 385.993 161.222L385.996 161.216C386.853 159.456 387.796 157.52 387.51 155.557C387.246 153.751 385.879 152.455 384.598 151.239L384.596 151.237C384.408 151.058 384.221 150.881 384.039 150.704L372.841 139.77C371.63 138.588 370.423 137.403 369.215 136.217L369.211 136.214C363.502 130.61 357.787 125.001 351.765 119.736C348.256 116.669 344.632 113.726 340.845 111.008C338.984 109.671 337.082 108.395 335.138 107.178C334.868 107.01 334.589 106.827 334.301 106.639L334.3 106.638C332.733 105.612 330.927 104.43 329.087 104.599C327.392 104.755 325.948 106.372 326.459 108.089C326.771 109.14 328.419 108.692 328.105 107.635C327.705 106.288 329.594 106.203 330.398 106.474C331.454 106.91 332.459 107.459 333.397 108.111C335.356 109.302 337.271 110.559 339.144 111.884C342.835 114.485 346.361 117.312 349.777 120.265C355.799 125.471 361.491 131.047 367.177 136.618L367.191 136.633L367.197 136.638L367.2 136.641C368.131 137.554 369.062 138.466 369.995 139.376L383.378 152.444C384.205 153.13 384.921 153.939 385.503 154.842C386.433 156.609 385.346 158.757 384.467 160.493C384.336 160.752 384.209 161.002 384.095 161.239C380.827 168 376.608 174.258 371.565 179.822C361.421 191.014 348.506 199.336 334.123 203.949C326.98 206.249 319.55 207.532 312.05 207.762C305.822 207.935 299.676 207.152 293.524 206.368C290.453 205.976 287.381 205.585 284.297 205.312C275.677 204.549 266.573 204.884 258.699 208.85C251.481 212.486 246.346 219.064 242.62 226.072C241.862 227.5 241.156 228.954 240.487 230.426C228.529 218.154 216.774 205.688 205.224 193.027C202.299 189.82 199.388 186.601 196.491 183.37C196.332 183.193 196.148 183.003 195.954 182.803C194.76 181.569 193.187 179.944 194.769 178.536C195.208 178.146 195.662 177.8 196.114 177.457C196.916 176.847 197.708 176.246 198.379 175.418C199.862 173.586 200.858 171.467 201.853 169.349C202.306 168.384 202.759 167.419 203.258 166.481C204.905 163.394 206.941 160.531 209.317 157.963C214.086 152.786 220.098 148.912 226.783 146.708C234.241 144.279 242.144 144.006 249.911 144.576C255.124 144.959 260.355 145.726 265.595 146.495C276.254 148.059 286.952 149.629 297.624 147.976C301.507 147.438 305.255 146.179 308.676 144.263C311.893 142.328 314.755 139.858 317.141 136.959C322.054 131.126 325.476 124.186 327.112 116.737C327.498 114.949 327.783 113.141 327.965 111.321C328.077 110.23 326.369 110.237 326.258 111.321Z" fill="#7BA84F"/>
<path fill-rule="evenodd" clip-rule="evenodd" d="M130.986 217.43C120.572 223.294 109.588 228.131 98.6195 232.847C95.3593 234.248 92.0847 235.621 88.8096 236.994C80.9153 240.304 73.0177 243.615 65.3102 247.332C59.5785 250.047 54.0316 253.135 48.7052 256.578C47.3621 257.459 46.0397 258.371 44.7379 259.313C43.54 260.09 42.4633 261.039 41.5427 262.129C39.5454 264.764 40.6284 267.878 41.8798 270.575C47.2237 281.97 53.6815 292.808 61.159 302.932C64.8164 307.924 68.6368 312.865 72.7747 317.471C74.7185 319.635 76.924 321.633 79.6893 322.662C82.5333 323.72 85.6619 323.548 88.5715 322.869C91.5094 322.183 94.2955 320.985 97.0601 319.796L97.6457 319.545C100.683 318.241 103.709 316.911 106.724 315.555C112.793 312.823 118.813 309.983 124.783 307.037C136.639 301.185 148.279 294.921 159.703 288.243C159.869 288.146 160.035 288.049 160.201 287.952C160.354 287.862 160.507 287.773 160.661 287.683L161.334 287.29C166.378 284.347 171.451 281.387 176.273 278.102C180.845 274.988 186.418 270.513 186.682 264.491C186.814 261.469 185.475 258.602 183.936 256.083C182.675 254.017 181.299 252.015 179.926 250.015C179.369 249.204 178.812 248.393 178.263 247.579L160.719 221.549C160.408 221.087 160.099 220.616 159.789 220.142C158.425 218.058 157.03 215.925 155.18 214.277C150.699 210.285 144.3 210.655 139.08 212.858C136.255 214.143 133.548 215.672 130.989 217.428L130.987 217.429L130.986 217.43ZM131.949 218.838C131.937 218.847 131.924 218.856 131.911 218.865C131.892 218.878 131.872 218.89 131.851 218.902L131.849 218.903C131.811 218.928 131.773 218.949 131.735 218.967C129.473 220.231 127.188 221.451 124.879 222.628C114.485 227.923 103.749 232.53 93.0122 237.079C91.1928 237.85 89.3697 238.615 87.546 239.38C78.3605 243.234 69.1597 247.095 60.3459 251.739C54.8753 254.538 49.6449 257.784 44.7081 261.443C43.6622 262.239 42.576 263.187 42.2278 264.506C41.8397 265.976 42.4007 267.551 42.9819 268.893C44.1849 271.669 45.5774 274.38 46.9809 277.06C53.9039 271.452 61.6384 267.171 69.5688 263.162C81.307 257.228 93.2318 251.679 105.155 246.129L105.156 246.129L105.168 246.124C108.04 244.787 110.913 243.45 113.782 242.108C128.631 235.163 143.422 228.063 157.757 220.098C156.966 218.935 156.138 217.802 155.222 216.756C153.437 214.636 150.905 213.284 148.15 212.98C142.125 212.325 136.791 215.71 131.949 218.838ZM158.702 221.522C158.692 221.528 158.681 221.535 158.671 221.542C158.659 221.549 158.646 221.556 158.634 221.563C150.612 226.021 142.446 230.212 134.207 234.252C124.872 238.829 115.447 243.215 106.022 247.601L106.02 247.602L106.018 247.603C100.722 250.068 95.4268 252.532 90.1472 255.031C82.7804 258.517 75.4381 262.06 68.1852 265.779C61.0259 269.449 54.0613 273.448 47.8238 278.565L47.8145 278.572C47.8097 278.576 47.8049 278.58 47.8001 278.583L47.7936 278.588C50.0463 282.777 52.4472 286.882 54.9912 290.895C61.9101 285.207 69.6492 280.822 77.5816 276.698C89.3459 270.583 101.304 264.854 113.26 259.126C116.237 257.7 119.214 256.274 122.189 254.841C136.964 247.726 151.676 240.452 165.925 232.322L160.607 224.432C160.155 223.761 159.711 223.076 159.265 222.389L159.261 222.382C159.075 222.095 158.889 221.808 158.702 221.522ZM66.9396 307.747C63.0203 302.786 59.3413 297.643 55.9141 292.338C62.134 287.177 69.0693 283.1 76.2068 279.342C83.4884 275.507 90.8599 271.844 98.2583 268.242C103.535 265.672 108.828 263.137 114.12 260.601C123.683 256.02 133.245 251.44 142.709 246.66C150.865 242.541 158.947 238.272 166.882 233.742L177.59 249.629C178.071 250.343 178.562 251.053 179.053 251.765C180.421 253.745 181.793 255.732 182.978 257.817C184.386 260.296 185.473 263.153 184.747 266.027C184.047 268.795 182.084 271.084 180.043 272.993C177.831 274.973 175.437 276.741 172.893 278.272C170.218 279.962 167.512 281.605 164.8 283.235C153.819 289.838 142.62 296.061 131.204 301.903C119.756 307.76 108.116 313.221 96.2848 318.284L95.9823 318.414C90.7364 320.661 84.3073 323.414 78.8338 320.406C76.3914 319.064 74.5155 316.92 72.7312 314.826C70.7539 312.505 68.8234 310.146 66.9396 307.747Z" fill="#7BA84F"/>
<path fill-rule="evenodd" clip-rule="evenodd" d="M119.067 162.381C109.057 172.977 105.673 188.01 103.771 202.01C103.644 202.462 103.176 202.728 102.721 202.606C102.278 202.467 102.017 202.008 102.125 201.556C102.254 200.601 102.39 199.647 102.534 198.695C103.689 191.045 105.361 183.409 108.362 176.253C111.202 169.479 115.223 163.198 120.8 158.355C126.011 153.828 132.386 150.53 139.278 149.627C145.191 148.853 152.133 149.86 156.733 153.947C158.974 150.102 162.062 146.644 165.311 143.668C169.027 140.269 173.2 137.404 177.707 135.157C186.745 130.588 196.899 128.694 206.977 129.695C208.06 129.812 208.068 131.52 206.977 131.402C201.618 130.829 196.202 131.124 190.937 132.278C181.567 134.318 172.925 138.861 165.93 145.422C162.907 148.28 160.046 151.547 157.981 155.202C158 155.223 158.02 155.245 158.039 155.267C160.106 157.601 161.155 160.665 160.952 163.777C160.826 166.742 159.326 169.479 156.895 171.181C156.56 171.376 156.135 171.321 155.861 171.047C152.157 166.501 153.436 160.33 155.885 155.502C155.282 154.937 154.62 154.429 153.918 153.983C148.481 150.532 141.369 150.459 135.336 152.174C129.093 153.949 123.502 157.688 119.067 162.381ZM157.12 156.847C158.245 158.28 159.011 159.97 159.213 161.846C159.504 164.544 158.737 167.475 156.634 169.255C154.155 165.574 155.312 160.609 157.12 156.847Z" fill="#7BA84F"/>
<path fill-rule="evenodd" clip-rule="evenodd" d="M374.696 153.5C372.22 153.584 370.351 156.12 370.828 158.515C371.083 159.787 372.213 160.693 373.51 160.663C374.86 160.649 375.923 159.789 376.668 158.733C377.503 157.549 378.087 155.937 377.326 154.574C377.174 154.307 376.89 154.141 376.582 154.141C376.275 154.142 375.991 154.307 375.84 154.575C375.688 154.843 375.693 155.172 375.852 155.436C375.871 155.468 375.889 155.501 375.906 155.535C375.908 155.541 375.912 155.553 375.916 155.565C375.923 155.583 375.93 155.603 375.932 155.611C375.934 155.623 375.94 155.654 375.946 155.69C375.961 155.782 375.981 155.901 375.975 155.784C375.98 155.881 375.978 155.976 375.977 156.073L375.976 156.115C375.976 156.125 375.973 156.154 375.97 156.175L375.97 156.176L375.968 156.195C375.959 156.246 375.947 156.297 375.936 156.347C375.91 156.46 375.877 156.57 375.841 156.68C375.822 156.735 375.802 156.789 375.781 156.844L375.772 156.87L375.766 156.882C375.666 157.102 375.551 157.316 375.423 157.522C375.365 157.617 375.304 157.71 375.241 157.802C375.221 157.832 375.2 157.862 375.179 157.891L375.178 157.892L375.145 157.939C375.143 157.942 375.137 157.95 375.13 157.959L375.111 157.983L375.11 157.985C375.1 157.998 375.092 158.008 375.093 158.007C374.956 158.175 374.807 158.332 374.645 158.478C374.605 158.513 374.565 158.549 374.523 158.582C374.517 158.586 374.508 158.591 374.496 158.6C374.404 158.66 374.313 158.72 374.216 158.773C374.191 158.787 374.165 158.799 374.138 158.812C374.129 158.817 374.12 158.821 374.111 158.826C374.103 158.829 374.095 158.833 374.088 158.837C373.971 158.874 373.855 158.908 373.736 158.938C373.719 158.942 373.681 158.947 373.664 158.949C373.638 158.951 373.612 158.953 373.586 158.954C373.489 158.958 373.394 158.953 373.298 158.948L373.288 158.946L373.251 158.937C373.215 158.929 373.18 158.921 373.144 158.911C373.113 158.903 373.083 158.893 373.053 158.883C373.038 158.877 373.003 158.863 372.972 158.846C372.953 158.836 372.92 158.813 372.891 158.792C372.839 158.756 372.798 158.728 372.869 158.792C372.804 158.737 372.743 158.677 372.688 158.612C372.699 158.621 372.658 158.553 372.623 158.497L372.622 158.495C372.606 158.469 372.591 158.445 372.585 158.433L372.572 158.41C372.549 158.344 372.527 158.279 372.509 158.212C372.504 158.192 372.495 158.144 372.487 158.099C372.473 158.02 372.46 157.949 372.47 158.059C372.46 157.955 372.454 157.852 372.453 157.748C372.453 157.704 372.456 157.66 372.459 157.616C372.463 157.569 372.466 157.522 372.465 157.475L372.465 157.46L372.471 157.425C372.479 157.379 372.487 157.333 372.497 157.287C372.537 157.106 372.591 156.927 372.659 156.755C372.642 156.801 372.672 156.738 372.702 156.674C372.72 156.637 372.738 156.6 372.746 156.584C372.805 156.474 372.869 156.367 372.938 156.263C372.946 156.251 372.955 156.239 372.963 156.227L372.964 156.226C372.977 156.208 372.99 156.19 373.002 156.171C373.006 156.164 373.008 156.159 373.01 156.156L373.027 156.136C373.107 156.042 373.189 155.95 373.278 155.862C373.344 155.797 373.415 155.736 373.485 155.675L373.486 155.675L373.519 155.646L373.529 155.64C373.557 155.623 373.584 155.604 373.612 155.585C373.635 155.569 373.657 155.553 373.681 155.538C373.784 155.474 373.891 155.417 374.001 155.363C374.003 155.361 374.011 155.358 374.02 155.354C374.037 155.348 374.062 155.339 374.085 155.331C374.108 155.323 374.128 155.315 374.134 155.313C374.249 155.277 374.367 155.247 374.486 155.222C374.491 155.221 374.497 155.22 374.503 155.219C374.531 155.218 374.547 155.217 374.556 155.216L374.504 155.219C374.527 155.216 374.554 155.215 374.562 155.215C374.567 155.214 374.566 155.215 374.556 155.216C374.603 155.212 374.65 155.209 374.697 155.207C375.168 155.207 375.551 154.825 375.551 154.354C375.551 153.882 375.168 153.5 374.696 153.5ZM373.365 158.963C373.372 158.964 373.36 158.962 373.311 158.951C373.333 158.955 373.359 158.961 373.365 158.963ZM372.545 158.361C372.546 158.363 372.552 158.373 372.559 158.387C372.548 158.367 372.545 158.36 372.545 158.361Z" fill="#A3A9B6"/>
<path fill-rule="evenodd" clip-rule="evenodd" d="M204.457 177.211C203.98 174.816 205.849 172.28 208.325 172.196C208.797 172.196 209.179 172.579 209.179 173.05C209.179 173.521 208.797 173.904 208.326 173.904C208.279 173.905 208.232 173.909 208.185 173.912C208.194 173.911 208.195 173.911 208.191 173.911C208.183 173.911 208.155 173.913 208.132 173.916L208.132 173.916C208.125 173.917 208.119 173.918 208.114 173.919C207.996 173.943 207.878 173.973 207.762 174.01C207.756 174.012 207.736 174.019 207.714 174.027C207.703 174.031 207.693 174.035 207.682 174.038C207.67 174.043 207.658 174.047 207.648 174.05C207.642 174.053 207.637 174.055 207.633 174.057C207.632 174.058 207.63 174.058 207.629 174.059C207.52 174.113 207.413 174.17 207.31 174.235C207.286 174.249 207.264 174.265 207.241 174.281C207.213 174.3 207.186 174.319 207.157 174.337L207.148 174.342L207.115 174.371C207.044 174.432 206.973 174.492 206.907 174.558C206.818 174.646 206.736 174.738 206.656 174.833L206.639 174.852C206.637 174.856 206.634 174.861 206.63 174.867C206.619 174.886 206.606 174.904 206.593 174.922C206.584 174.934 206.575 174.947 206.566 174.959C206.497 175.063 206.433 175.17 206.375 175.28C206.372 175.285 206.369 175.292 206.364 175.301C206.36 175.31 206.354 175.322 206.348 175.334C206.343 175.345 206.337 175.358 206.331 175.37C206.3 175.434 206.27 175.497 206.288 175.45C206.22 175.623 206.165 175.802 206.126 175.983C206.116 176.03 206.108 176.076 206.1 176.123L206.094 176.156L206.094 176.171C206.095 176.218 206.091 176.265 206.088 176.312C206.085 176.356 206.082 176.4 206.082 176.444C206.082 176.548 206.089 176.651 206.099 176.755C206.088 176.645 206.101 176.716 206.116 176.795C206.124 176.84 206.133 176.888 206.138 176.908C206.156 176.975 206.177 177.041 206.201 177.106L206.213 177.129C206.217 177.136 206.223 177.146 206.231 177.158C206.237 177.168 206.244 177.18 206.251 177.192C206.286 177.249 206.328 177.317 206.316 177.309C206.372 177.373 206.433 177.433 206.497 177.488C206.427 177.424 206.467 177.452 206.519 177.488C206.549 177.509 206.582 177.532 206.6 177.542C206.632 177.559 206.666 177.573 206.681 177.579C206.694 177.583 206.707 177.587 206.721 177.592C206.738 177.597 206.755 177.602 206.773 177.607C206.808 177.617 206.844 177.625 206.88 177.633L206.917 177.642L206.927 177.644C207.023 177.649 207.118 177.654 207.214 177.65C207.23 177.65 207.246 177.649 207.262 177.647L207.292 177.645C207.309 177.643 207.348 177.638 207.365 177.634C207.484 177.605 207.599 177.57 207.716 177.534C207.722 177.531 207.728 177.528 207.733 177.525C207.745 177.519 207.756 177.514 207.768 177.508C207.793 177.495 207.82 177.483 207.845 177.469C207.942 177.416 208.033 177.357 208.125 177.296L208.139 177.287L208.152 177.279C208.193 177.245 208.234 177.21 208.274 177.174C208.435 177.028 208.585 176.871 208.722 176.702C208.721 176.704 208.722 176.702 208.726 176.698L208.754 176.661C208.76 176.653 208.765 176.646 208.769 176.641C208.771 176.638 208.773 176.636 208.774 176.635L208.807 176.588C208.828 176.559 208.849 176.529 208.87 176.498C208.933 176.406 208.993 176.313 209.052 176.218C209.18 176.013 209.295 175.799 209.395 175.578L209.401 175.565L209.41 175.54C209.431 175.486 209.451 175.431 209.469 175.376C209.506 175.267 209.538 175.156 209.564 175.044C209.576 174.993 209.587 174.942 209.597 174.89L209.601 174.854C209.602 174.845 209.603 174.835 209.604 174.827C209.604 174.82 209.605 174.814 209.605 174.811L209.605 174.772C209.607 174.674 209.609 174.578 209.604 174.481C209.61 174.597 209.59 174.478 209.574 174.386L209.574 174.385C209.568 174.349 209.563 174.319 209.56 174.307C209.558 174.299 209.551 174.279 209.545 174.261C209.543 174.255 209.541 174.249 209.539 174.244C209.537 174.239 209.536 174.235 209.535 174.231C209.518 174.198 209.5 174.164 209.481 174.132C209.243 173.725 209.38 173.202 209.787 172.964C210.194 172.726 210.717 172.863 210.955 173.27C211.716 174.633 211.131 176.245 210.297 177.428C209.552 178.485 208.488 179.345 207.138 179.359C205.842 179.388 204.711 178.483 204.457 177.211ZM206.995 177.659C206.999 177.66 206.986 177.658 206.94 177.647C206.963 177.651 206.99 177.658 206.995 177.659ZM206.174 177.058C206.176 177.06 206.181 177.07 206.188 177.083C206.176 177.062 206.173 177.056 206.174 177.058Z" fill="#A3A9B6"/>
<path d="M208.132 173.916L208.151 173.914C208.167 173.913 208.178 173.913 208.185 173.912L208.132 173.916Z" fill="#A3A9B6"/>
<path fill-rule="evenodd" clip-rule="evenodd" d="M159.395 251.007C155.263 250.768 151.856 253.598 150.197 257.189C150.133 257.171 150.065 257.159 149.991 257.155C144.635 256.845 140.498 261.692 139.806 266.667C139.184 271.139 141.313 275.572 145.527 277.426C148.656 278.802 151.978 277.982 154.317 275.542C155.332 274.437 156.148 273.182 156.742 271.831C159.296 272.281 161.83 271.366 163.72 269.394C165.985 266.931 167.256 263.717 167.288 260.371C167.341 256.441 165.378 252.918 161.617 251.501C160.588 251.113 160.143 252.762 161.164 253.147C166.926 255.319 166.33 263.007 163.334 267.203C161.945 269.149 159.736 270.581 157.328 270.232C157.682 269.036 157.872 267.787 157.885 266.519C157.938 262.589 155.974 259.066 152.214 257.649C152.1 257.606 151.994 257.588 151.895 257.59C153.318 254.718 156.017 252.518 159.395 252.714C160.492 252.777 160.489 251.07 159.395 251.007ZM141.395 268.553C141.277 263.954 144.653 258.852 149.571 258.85C149.409 259.4 149.287 259.959 149.209 260.519C148.588 264.991 150.717 269.424 154.931 271.278C154.977 271.298 155.023 271.318 155.069 271.337C154.748 272.063 154.364 272.743 153.931 273.351C152.478 275.385 150.132 276.857 147.597 276.322C143.959 275.553 141.488 272.185 141.395 268.553ZM151.76 259.295C156.103 260.932 156.834 265.702 155.648 269.749C152.762 268.528 150.879 265.567 150.798 262.405C150.769 261.259 150.956 260.082 151.331 258.961C151.425 259.103 151.566 259.222 151.76 259.295Z" fill="#A3A9B6"/>
<path d="M278.687 162.026C286.22 156.672 295.976 156.629 304.655 158.665C305.726 158.917 305.27 160.562 304.201 160.312C303.109 160.055 302.01 159.828 300.902 159.644C292.956 158.319 284.18 159.266 277.932 164.784C275.269 167.048 273.372 170.079 272.499 173.463C271.716 176.758 272.091 180.223 273.561 183.274C277.169 190.521 286.211 191.198 293.363 190.533C300.909 189.832 308.511 186.511 312.004 179.413C313.612 176.301 313.994 172.7 313.076 169.321C312.001 165.722 309.326 162.809 306.218 160.809C305.296 160.215 306.153 158.738 307.08 159.334C307.93 159.88 308.742 160.482 309.511 161.138C312.575 163.759 314.776 167.348 315.216 171.397C315.63 175.199 314.421 179.1 312.339 182.263C307.596 189.472 298.853 192.203 290.597 192.4C286.414 192.5 282.013 192.133 278.214 190.244C274.79 188.511 272.23 185.446 271.135 181.768C270.04 178.22 270.168 174.406 271.5 170.94C272.98 167.335 275.477 164.238 278.687 162.026Z" fill="#A3A9B6"/>
</svg>
