<svg width="288" height="360" viewBox="0 0 288 360" fill="none" xmlns="http://www.w3.org/2000/svg">
<path d="M147.379 91.9303C147.483 90.1349 147.674 88.168 149.047 86.8073C150.39 85.4765 152.372 85.2567 154.007 84.4095C155.637 83.5584 156.822 82.0951 157.278 80.3715C157.731 78.6372 157.561 76.7142 158.793 75.2443C159.064 74.9215 159.517 74.6418 159.618 74.2214C159.741 73.7092 159.506 73.0674 159.407 72.5662L158.738 69.1468C158.445 67.4459 158.036 65.7652 157.513 64.1155C156.535 61.0804 154.857 58.2949 152.603 55.9652C150.337 53.6483 147.27 52.1985 143.972 51.8853C141.446 51.6645 138.743 52.0016 136.739 53.6133C134.837 55.1428 133.833 57.3949 133.278 59.6638C132.584 62.4953 132.528 65.4539 132.685 68.3459C132.771 69.9276 132.933 71.5056 133.148 73.0757C133.38 74.7624 133.723 76.4361 133.856 78.1346C133.963 79.416 133.897 80.7053 133.659 81.9704C133.396 83.3292 132.955 84.6536 132.555 85.979C132.264 86.9433 131.983 87.9103 131.711 88.8799C131.604 89.2095 131.243 89.3981 130.895 89.3063C130.548 89.2145 130.339 88.8754 130.422 88.5395C130.916 86.7612 131.489 85.0041 131.984 83.2264C132.332 82.0622 132.53 80.8613 132.572 79.6507C132.544 78.0126 132.373 76.3796 132.062 74.7687C131.798 73.1126 131.584 71.4483 131.447 69.7781C131.138 66.6918 131.235 63.5805 131.735 60.5173C132.19 58.0196 133.093 55.5005 134.869 53.5732C139 49.0922 146.797 49.9928 151.4 53.2587C154.124 55.2746 156.272 57.9173 157.644 60.9413C159.301 64.4169 159.892 68.1189 160.622 71.846C160.811 72.8145 161.228 73.9781 160.768 74.9267C160.509 75.3345 160.195 75.708 159.834 76.0374C159.551 76.3826 159.343 76.7787 159.223 77.2023C158.996 78.1193 158.828 79.0489 158.721 79.9858C158.566 80.9181 158.237 81.8159 157.749 82.6364C156.756 84.2262 155.219 85.4375 153.399 86.0648C152.48 86.3483 151.589 86.7101 150.737 87.1459C149.951 87.6136 149.375 88.3452 149.121 89.198C148.87 90.0895 148.734 91.0072 148.716 91.9305C148.669 92.75 147.332 92.7554 147.379 91.9305L147.379 91.9303Z" fill="#A3A9B6"/>
<path d="M157.398 69.0977C157.353 69.2042 157.321 69.3158 157.305 69.4299L157.329 69.2597C157.314 69.3739 157.314 69.4896 157.329 69.6038L157.305 69.4335C157.307 69.4462 157.309 69.4588 157.311 69.4715C157.339 69.554 157.343 69.6422 157.323 69.7268C157.319 69.8115 157.292 69.8937 157.244 69.9649C157.15 70.1043 157.009 70.2083 156.844 70.2591L156.667 70.282C156.548 70.2821 156.432 70.252 156.33 70.1946L156.194 70.0945C156.112 70.0161 156.053 69.9188 156.022 69.8119C155.949 69.4594 155.98 69.0944 156.11 68.7573C156.163 68.5995 156.271 68.4643 156.417 68.3746C156.491 68.3286 156.577 68.3023 156.665 68.2986C156.754 68.2795 156.846 68.2835 156.932 68.3101C157.1 68.3552 157.243 68.4606 157.331 68.6043L157.399 68.7573C157.43 68.8687 157.43 68.9863 157.399 69.0977L157.398 69.0977Z" fill="#A3A9B6"/>
<path d="M155.202 77.987C155.162 77.9405 155.116 77.8984 155.066 77.8614L155.202 77.9615C155.142 77.9183 155.076 77.8823 155.007 77.8544L155.167 77.9189C155.097 77.8918 155.025 77.8729 154.95 77.8627L155.128 77.8855C155.054 77.8762 154.978 77.8762 154.904 77.8855L155.082 77.8626L155.07 77.8643C154.984 77.8908 154.892 77.8948 154.803 77.8757C154.715 77.872 154.629 77.8458 154.555 77.7997C154.409 77.7101 154.301 77.5748 154.248 77.4171C154.201 77.2506 154.225 77.073 154.315 76.9237L154.42 76.7941C154.501 76.7156 154.603 76.6589 154.715 76.6294C154.845 76.6041 154.978 76.5952 155.11 76.603C155.243 76.6115 155.374 76.636 155.5 76.6758C155.622 76.7156 155.739 76.7693 155.848 76.8358C155.959 76.9047 156.059 76.9874 156.148 77.0816C156.399 77.3356 156.399 77.7332 156.148 77.9872C156.022 78.1069 155.852 78.1742 155.675 78.1747L155.497 78.1518C155.386 78.1223 155.284 78.0656 155.202 77.9872L155.202 77.987Z" fill="#A3A9B6"/>
<path d="M158.831 59.8302C157.335 61.4225 155.676 62.9519 153.324 63.075C152.838 63.1005 152.294 63.0622 152.004 63.5049C151.734 64.0265 151.53 64.5773 151.397 65.1454L150.093 69.0358C150.015 69.2786 149.796 69.4555 149.533 69.4885C149.27 69.5214 149.011 69.4042 148.871 69.1887C148.142 68.0495 146.72 66.2505 145.104 67.09C143.453 67.9483 143.592 69.9867 144.373 71.3534C144.598 71.7476 144.862 72.1202 145.161 72.4662C145.499 72.7914 145.764 73.1784 145.942 73.6041C146.211 74.4635 145.79 75.3571 145.202 75.9985C144.034 77.2715 142.101 77.6017 140.425 77.7018C138.092 77.8349 135.758 77.461 133.597 76.6081C133.249 76.5046 133.044 76.1599 133.13 75.8205C133.23 75.4808 133.596 75.2814 133.952 75.3733C135.942 76.1667 138.091 76.528 140.244 76.431C141.714 76.3607 144.116 76.0726 144.637 74.4525C144.798 73.9506 144.472 73.6741 144.163 73.311C143.843 72.9428 143.555 72.5506 143.3 72.1382C142.786 71.3214 142.494 70.3946 142.449 69.442C142.407 67.8249 143.51 66.0518 145.236 65.6827C147.393 65.2214 149.012 66.96 150.025 68.5424L148.804 68.6953L150.139 64.7146C150.5 63.6361 150.768 62.3352 152.044 61.9441C152.615 61.8382 153.194 61.7759 153.775 61.758C154.326 61.6659 154.852 61.4693 155.322 61.1797C156.285 60.5493 157.148 59.79 157.886 58.9249C158.463 58.3111 159.405 59.219 158.831 59.8304V59.8302Z" fill="#A3A9B6"/>
<path d="M148.943 92.8915C149.46 93.7946 149.473 95.6348 147.971 95.5353C146.998 95.4709 146.38 94.4407 146.412 93.5804C146.454 92.459 147.575 91.8124 148.621 91.6496C149.953 91.4425 151.368 91.5994 152.71 91.6439C158.411 91.8329 164.224 92.2771 169.536 94.4254C171.913 95.3613 174.11 96.6729 176.033 98.3057C177.883 99.9287 179.395 101.874 180.487 104.037C182.703 108.365 183.443 113.215 183.913 117.965C184.188 120.741 184.394 123.523 184.625 126.302L184.992 130.71L185.184 133.01C185.266 133.638 185.316 134.27 185.331 134.903C185.293 135.579 185.137 136.245 184.869 136.872C184.618 137.5 184.284 138.248 183.664 138.622C182.974 139.037 182.259 138.71 181.856 138.103C181.199 137.162 181.259 135.92 182.003 135.041C182.877 133.992 184.277 133.77 185.551 133.44C186.725 133.135 187.887 132.788 189.027 132.381C191.262 131.592 193.381 130.528 195.33 129.216C199.775 126.205 203.187 121.881 206.208 117.604C207.797 115.353 209.264 113.032 210.795 110.746C212.259 108.558 213.915 106.424 216.204 104.971C218.227 103.687 220.852 102.896 223.266 103.51C224.316 103.778 225.324 104.388 225.714 105.401C226.089 106.54 225.728 107.784 224.793 108.574C223.908 109.381 222.725 109.747 221.558 109.998L221.38 108.741C223.236 108.64 225.028 108.057 226.565 107.055C228.107 106.053 229.128 104.506 230.655 103.489C231.34 103.033 232.139 102.754 232.96 103.04C233.721 103.309 234.265 103.959 234.372 104.73C234.591 106.212 234.343 107.722 233.661 109.069C232.943 110.574 231.552 111.686 229.878 112.093L229.701 110.836C231.098 110.936 232.476 110.062 233.366 109.098C233.797 108.658 234.089 108.11 234.208 107.517C234.274 106.762 234.674 106.07 235.306 105.615C236.643 104.72 238.416 105.387 239.047 106.741C239.719 108.184 239.402 109.852 238.636 111.198C237.705 112.833 236.185 114.111 234.684 115.256L233.874 114.25L237.504 111.987C238.47 111.384 239.529 110.531 240.683 111.28C242.548 112.491 241.611 115.192 240.477 116.543C239.1 118.184 237.044 119.031 235.015 119.679C232.795 120.388 230.514 121.014 228.94 122.783C228.193 123.696 227.539 124.675 226.988 125.708C226.369 126.762 225.746 127.813 225.118 128.861C223.828 131.008 222.507 133.139 221.121 135.231C218.452 139.351 215.404 143.234 212.015 146.835C205.673 153.433 197.387 158.832 188.011 160.331C183.97 161.004 179.829 160.884 175.839 159.978C172.152 159.106 168.621 157.357 166.326 154.384C164.999 152.666 164.225 150.561 163.512 148.556C162.707 146.258 162.066 143.911 161.596 141.53C160.615 136.688 160.192 131.762 159.866 126.847C159.786 125.649 159.713 124.451 159.638 123.253C159.586 122.43 160.923 122.433 160.974 123.253C161.555 132.531 162.04 142.106 165.816 150.798C166.496 152.482 167.554 154.001 168.915 155.249C170.221 156.378 171.731 157.27 173.37 157.881C176.781 159.115 180.425 159.649 184.065 159.449C193.04 159.099 201.387 154.75 207.876 149.005C214.985 142.712 220.116 134.713 224.859 126.715C226.01 124.773 227.041 122.548 228.836 121.06C230.518 119.667 232.672 119.082 234.738 118.42C236.616 117.817 238.637 116.993 239.756 115.331C240.219 114.645 240.562 113.705 240.32 112.884C240.215 112.532 239.916 112.161 239.5 112.293C239.27 112.394 239.053 112.521 238.854 112.672L237.926 113.251L234.549 115.356C233.924 115.746 233.14 114.808 233.739 114.35C235.743 112.822 238.862 110.34 237.933 107.518C237.816 107.004 237.396 106.605 236.859 106.497C236.261 106.421 235.702 106.8 235.579 107.366C235.48 107.948 235.298 108.514 235.037 109.048C234.691 109.622 234.245 110.135 233.718 110.565C232.637 111.463 231.175 112.222 229.701 112.116C228.99 112.065 228.745 111.029 229.523 110.859C232.134 110.286 233.31 107.513 233.089 105.158C233.04 104.635 232.724 104.082 232.077 104.213C231.379 104.354 230.726 105.047 230.246 105.51C229.094 106.621 228.046 107.739 226.616 108.537C225.018 109.422 223.224 109.931 221.381 110.021C221.052 110.012 220.779 109.777 220.735 109.465C220.691 109.153 220.889 108.856 221.203 108.764C222.23 108.542 223.359 108.257 224.067 107.451C224.716 106.713 224.712 105.679 223.836 105.125C222.119 104.038 219.55 104.671 217.878 105.509C215.747 106.577 214.136 108.314 212.785 110.185C211.372 112.142 210.126 114.209 208.774 116.205C206.042 120.24 203.096 124.223 199.467 127.572C196.345 130.434 192.601 132.601 188.504 133.917C187.492 134.248 186.465 134.537 185.43 134.796C184.444 135.042 182.931 135.3 182.729 136.478C182.7 136.856 182.818 137.229 183.06 137.528C183.096 137.584 183.137 137.541 183.071 137.547C183.066 137.548 182.863 137.518 182.946 137.544C182.936 137.541 182.96 137.537 182.928 137.563C183.297 137.184 183.561 136.723 183.696 136.221C183.886 135.747 183.986 135.244 183.991 134.736C183.947 133.396 183.767 132.047 183.656 130.71L183.001 122.854C182.308 114.522 181.867 104.772 174.721 98.9018C171.169 95.9834 166.591 94.456 162.038 93.7034C159.402 93.2985 156.743 93.0552 154.075 92.9748C152.729 92.9189 151.38 92.8701 150.032 92.8475C149.434 92.8374 147.893 92.7802 147.748 93.5804C147.734 93.715 147.758 93.8509 147.819 93.9729C147.845 94.0284 148.039 94.2202 148.038 94.248C148.038 94.2508 148.06 94.255 148.062 94.262L148.071 94.2605C147.923 94.3886 147.874 94.393 147.923 94.2737C147.921 94.1563 147.926 94.0389 147.938 93.922C147.913 93.7863 147.863 93.656 147.789 93.5378C147.375 92.8149 148.529 92.1681 148.943 92.8915H148.943Z" fill="#A3A9B6"/>
<path d="M131.711 88.8801C131.511 89.415 131.388 89.9735 131.346 90.5402C131.335 90.6856 131.348 90.8317 131.385 90.9732C131.408 91.0523 131.489 91.1324 131.406 91.0732C131.468 91.1176 131.551 91.1056 131.435 91.0966C131.474 91.0996 131.626 91.1061 131.468 91.1112C131.525 91.1148 131.581 91.1144 131.638 91.1101C131.476 91.1384 131.674 91.1025 131.694 91.0977C131.96 91.0354 132.066 90.9511 131.943 90.6181C131.57 89.6052 130.389 89.1296 129.453 88.7421L124.82 86.8224L106.656 79.2971L101.466 77.147L98.8711 76.0719C98.4797 75.8836 98.0744 75.7229 97.6585 75.5912C97.5712 75.569 97.3536 75.5846 97.2848 75.5562C97.3513 75.4531 97.3763 75.4288 97.3599 75.4833C97.3812 75.6004 97.2933 75.5387 97.0961 75.298L96.5191 75.6151L104.665 65.3099C107.179 62.13 109.601 58.8483 112.325 55.8279C114.813 53.0681 117.703 50.5997 121.258 49.1957C122.972 48.5051 124.805 48.1245 126.664 48.0733C128.532 48.0658 130.38 48.4457 132.08 49.187C133.663 49.8347 135.453 50.676 137.204 50.1109C137.968 49.9022 138.544 49.2981 138.692 48.55C138.762 48.2027 138.683 47.8433 138.473 47.5523C138.263 47.2613 137.941 47.063 137.577 47.002C136.86 46.8847 136.192 46.8979 135.529 46.5644C134.97 46.2691 134.503 45.8375 134.174 45.3133C133.48 44.2116 133.314 42.8775 133.717 41.6502C134.745 38.6687 138.753 38.243 141.258 39.7138C142.685 40.61 143.708 41.9868 144.126 43.5717C144.593 45.1812 144.451 46.7478 144.176 48.3696C144.08 48.9338 143.939 49.7486 144.362 50.2244C144.89 50.8184 145.87 50.8149 146.529 50.4503C147.759 49.77 148.352 48.2217 148.807 47.0105C149.301 45.7437 149.555 44.4027 149.557 43.0505C149.546 41.8909 149.324 40.6016 148.53 39.6807C148.155 39.2477 147.662 38.9242 147.105 38.7468L147.46 37.5121C147.685 37.5909 147.821 37.6517 147.993 37.4885C148.158 37.2642 148.255 37.0009 148.274 36.7272C148.377 36.0263 148.291 35.3118 148.025 34.6516C147.451 33.2014 145.966 32.468 144.486 32.0947C143.637 31.8807 144.01 30.7312 144.841 30.86C145.172 30.9119 145.509 30.8037 145.741 30.5709C145.972 30.3381 146.069 30.0108 145.999 29.6961C145.888 29.2482 145.414 28.879 145.077 28.5793C144.602 28.1623 144.078 27.7997 143.515 27.499C141.043 26.1599 138.072 26.1531 135.331 26.507C132.616 26.8911 129.931 27.4415 127.29 28.1549C124.733 28.8138 122.213 29.5887 119.729 30.4796C109.692 34.0502 100.553 39.6087 92.9102 46.7924C89.0554 50.4983 85.609 54.5745 82.6254 58.9565C79.6742 63.2197 76.7522 67.8299 75.8362 72.9478C74.3949 80.9992 78.7365 88.9169 84.4934 94.4842C90.262 100.063 97.713 104.155 105.493 106.552C106.391 106.828 107.296 107.08 108.209 107.307C109.041 107.515 108.688 108.75 107.854 108.542C99.4108 106.444 91.6181 102.432 85.1323 96.8448C78.7277 91.2523 73.9341 83.5606 74.2735 75.0289C74.4883 69.6271 77.2906 64.5945 80.2421 60.1245C83.2614 55.4592 86.7667 51.0992 90.7042 47.1115C98.5488 39.384 108.057 33.3874 118.568 29.5392C123.849 27.521 129.354 26.0894 134.975 25.2723C137.874 24.8852 140.919 24.8727 143.613 26.1059C145.343 26.8983 148.417 28.9154 147.012 31.0813C146.475 31.8934 145.466 32.2981 144.485 32.0945L144.841 30.8598C146.971 31.3968 148.913 32.6364 149.466 34.7906C149.739 35.7279 149.715 36.7218 149.397 37.646C149.021 38.5869 148.14 39.1104 147.105 38.7466C146.307 38.4665 146.638 37.2446 147.46 37.5119C151.84 38.9351 151.232 44.5348 149.918 47.8116C149.123 49.7922 147.677 52.3616 145.03 51.937C143.768 51.7608 142.816 50.7482 142.765 49.5273C142.683 48.4528 143.073 47.3967 143.115 46.3267C143.206 44.0252 142.281 41.3906 139.874 40.4749C138.041 39.7777 135.42 40.2008 134.915 42.3025C134.724 43.13 134.883 43.9962 135.357 44.7118C135.918 45.5473 136.722 45.6107 137.666 45.731C138.913 45.8571 139.894 46.8063 140.014 48.0015C140.135 49.226 139.49 50.4036 138.369 51.0028C135.771 52.4601 133.002 50.8211 130.543 49.9642C127.97 49.067 125.199 49.2331 122.63 50.0644C117.13 51.8449 113.376 56.4034 109.994 60.6748C105.964 65.7641 101.939 70.8564 97.9178 75.9516C97.6868 76.2438 97.5157 76.5522 97.0957 76.5786C96.8315 76.5928 96.5727 76.5028 96.3795 76.3296C95.9915 75.9411 95.9099 75.3571 96.1774 74.8845C96.9159 73.591 98.7644 74.6428 99.7305 75.043L108.998 78.8825L127.347 86.4846L129.571 87.406C130.26 87.6438 130.921 87.9472 131.546 88.3117C132.364 88.8596 133.266 89.7247 133.323 90.7398C133.417 92.4241 130.757 93.0706 130.141 91.4435C129.795 90.5285 130.136 89.4236 130.422 88.5398C130.675 87.755 131.966 88.0899 131.711 88.8802L131.711 88.8801Z" fill="#A3A9B6"/>
<path d="M159.638 123.253C159.456 121.462 159.399 119.205 160.621 117.698C161.347 116.721 162.747 116.462 163.801 117.109C165.336 117.996 166.073 119.926 166.478 121.499C167.327 124.795 167.173 128.371 167.358 131.743C168.218 147.386 169.135 163.026 169.899 178.673C170.659 194.224 171.268 209.783 171.521 225.349C171.774 240.909 171.67 256.477 171.005 272.026C170.672 279.818 170.29 287.631 169.53 295.397C168.787 303.004 167.572 310.567 167.065 318.196C166.94 320.072 166.864 321.95 166.836 323.83C166.836 324.057 166.71 324.268 166.505 324.383C165.886 324.703 165.13 324.654 164.562 324.257C163.994 323.86 163.714 323.185 163.843 322.523C163.909 322.083 164.485 321.979 164.825 322.14C167.19 323.254 169.169 324.999 170.521 327.166C171.487 328.728 172.646 331.005 170.803 332.396C169.998 332.923 169.062 333.236 168.09 333.304C166.309 333.54 164.507 333.684 162.713 333.799C159.237 334.021 155.751 334.059 152.271 333.912C147.17 333.696 140.04 333.831 137.683 328.496C136.66 326.179 136.659 323.57 136.762 321.099C136.896 317.846 137.066 314.596 137.153 311.34C137.748 289.054 136.065 266.874 134.708 244.645C133.943 232.121 133.094 219.584 131.625 207.115C130.993 201.749 130.422 196.209 128.846 191.004C128.65 190.281 128.381 189.577 128.043 188.903C127.952 188.735 127.719 188.373 127.692 188.342C127.633 188.272 127.559 188.215 127.499 188.147C127.54 188.194 127.345 188.049 127.479 188.12C127.31 188.03 127.501 188.085 127.377 188.1C127.597 188.074 127.018 188.226 126.931 188.264C126.243 188.601 125.658 189.103 125.234 189.722C124.205 191.106 123.65 192.801 123.218 194.431C122.28 197.968 121.968 201.646 121.798 205.283C121.522 211.205 121.39 217.136 121.267 223.062C120.995 236.206 120.966 249.352 120.955 262.497C120.945 275.232 120.948 287.969 120.717 300.703C120.602 307.037 120.418 313.369 120.167 319.7C120.106 321.18 119.683 323.052 120.441 324.423C120.807 325.085 121.428 325.504 121.963 326.027C122.486 326.539 122.955 327.099 123.365 327.698C124.249 328.99 126.147 332.298 123.898 333.229C122.772 333.695 121.202 333.581 119.998 333.663C118.107 333.792 116.214 333.884 114.319 333.939C110.845 334.039 107.371 334.016 103.895 333.867C102.159 333.794 100.425 333.688 98.6929 333.552C97.3855 333.448 96.0041 333.364 94.8153 332.777C92.2527 331.513 92.1268 328.756 91.8709 326.344C90.4208 312.676 89.0525 298.999 87.9854 285.298C85.7984 257.896 85.3205 230.394 86.5542 202.938C87.8083 176.114 90.6418 149.393 94.3405 122.783C95.1236 117.149 96.0164 111.345 98.2438 106.044C99.1407 103.909 100.404 101.238 102.757 100.261C105.228 99.2337 107.68 100.92 108.907 102.915C109.64 104.105 110.413 105.7 110.242 107.121C110.078 108.489 108.874 108.839 107.628 108.444C106.815 108.187 107.163 106.95 107.983 107.209C108.718 107.442 108.947 107.399 108.92 106.64C108.837 105.843 108.592 105.069 108.197 104.363C107.57 103.098 106.714 101.915 105.293 101.41C103.029 100.605 101.424 102.767 100.487 104.425C98.979 107.095 98.1455 110.124 97.4401 113.066C96.7846 115.8 96.2905 118.569 95.8815 121.346C92.322 145.52 89.7873 169.881 88.3505 194.255C86.7757 220.623 86.8186 247.056 88.4789 273.419C89.3136 286.523 90.4829 299.606 91.7932 312.673C92.1284 316.016 92.4717 319.358 92.8233 322.699C92.9905 324.294 93.159 325.888 93.3288 327.482C93.5017 329.107 93.7851 330.859 95.4902 331.671C96.7376 332.266 98.2786 332.244 99.6382 332.342C101.371 332.467 103.106 332.561 104.843 332.624C108.316 332.75 111.79 332.751 115.267 332.628C116.845 332.572 118.423 332.49 119.999 332.383C120.932 332.319 121.909 332.31 122.833 332.161C122.997 332.135 123.319 332.139 123.442 332.033C123.849 331.682 123.333 330.515 123.171 330.113C122.662 328.868 121.883 327.74 120.886 326.803C119.962 325.931 119.138 325.174 118.827 323.912C118.5 322.582 118.775 321.049 118.83 319.7C118.894 318.15 118.953 316.6 119.007 315.05C119.114 311.956 119.204 308.86 119.275 305.765C119.56 293.627 119.6 281.486 119.613 269.346C119.627 256.746 119.614 244.146 119.786 231.546C119.874 225.095 120.016 218.644 120.213 212.194C120.337 208.266 120.401 204.319 120.828 200.407C121.211 196.895 121.74 193.103 123.52 189.954C124.227 188.702 126.33 185.998 128.152 187.027C129.183 187.609 129.623 189.097 129.958 190.105C130.593 192.145 131.081 194.224 131.419 196.328C133.693 208.94 134.514 221.836 135.395 234.592C136.45 249.869 137.571 265.158 138.187 280.457C138.72 293.667 138.811 306.89 138.147 320.098C138.022 322.567 137.852 325.192 138.73 327.562C139.784 330.407 142.405 331.613 145.351 332.069C151.938 333.088 158.934 332.912 165.552 332.296C166.797 332.18 168.191 332.174 169.363 331.717C171.049 331.059 170.363 329.607 169.714 328.412C168.483 326.165 166.533 324.354 164.15 323.246L165.131 322.864C165.128 323.202 165.361 323.34 165.83 323.277L165.499 323.83C165.605 316.472 166.592 309.175 167.473 301.875C168.347 294.628 168.869 287.36 169.274 280.076C170.099 265.221 170.382 250.341 170.297 235.465C170.127 205.696 168.491 175.96 166.829 146.24C166.597 142.098 166.366 137.956 166.136 133.814C166.017 131.666 165.899 129.518 165.783 127.37C165.688 125.619 165.664 123.853 165.262 122.135C165.01 121.057 164.138 117.806 162.401 118.013C160.493 118.24 160.861 122.134 160.974 123.253C161.057 124.073 159.72 124.067 159.638 123.253V123.253Z" fill="#A3A9B6"/>
<path d="M170.855 231.165C163.868 232.485 156.492 233.84 149.453 232.065C147.974 231.692 146.484 231.207 145.356 230.173C144.436 229.33 143.768 227.843 144.589 226.718C145.064 226.138 145.93 226.018 146.557 226.444C147.136 226.809 147.527 227.391 147.633 228.046C147.829 229.372 147.198 230.685 146.019 231.404C144.52 232.4 142.448 232.604 140.682 232.753C138.58 232.921 136.463 232.818 134.389 232.446C133.544 232.298 133.902 231.064 134.744 231.211C137.715 231.77 140.777 231.694 143.713 230.987C144.8 230.701 145.98 230.17 146.284 229.034C146.404 228.644 146.364 228.225 146.171 227.863C146.103 227.75 145.829 227.387 145.652 227.466C145.577 227.499 145.559 227.983 145.575 228.105C145.706 229.104 146.891 229.793 147.744 230.179C148.98 230.68 150.279 231.027 151.607 231.213C154.536 231.676 157.517 231.76 160.469 231.461C163.839 231.122 167.187 230.611 170.5 229.93C171.34 229.771 171.7 231.005 170.855 231.165L170.855 231.165Z" fill="#A3A9B6"/>
<path d="M119.665 232.7C116.113 233.176 112.538 233.476 108.954 233.598C107.158 233.657 105.362 233.67 103.566 233.637C101.916 233.653 100.269 233.505 98.6509 233.194C95.9661 232.6 93.2001 230.831 92.6838 228.054C92.5711 227.448 92.4873 226.696 92.8279 226.141C93.1359 225.639 93.7665 225.41 94.3445 225.59C95.6645 225.962 96.0165 227.421 95.7166 228.551C95.2814 229.929 94.2224 231.047 92.8323 231.595C91.1037 232.317 89.1797 232.236 87.3394 232.129C86.4847 232.079 86.4788 230.798 87.3394 230.849C89.6419 230.983 92.6747 231.154 94.0744 228.989C94.3336 228.607 94.4799 228.166 94.4974 227.711C94.5024 227.441 94.3035 226.762 93.8886 226.798C94.0489 226.784 93.9455 226.874 93.9324 227.045C93.9191 227.269 93.9326 227.493 93.9727 227.714C94.0716 228.257 94.2827 228.776 94.5938 229.241C95.9183 231.273 98.4387 232.016 100.799 232.232C103.646 232.437 106.503 232.461 109.353 232.303C112.683 232.181 116.008 231.904 119.31 231.465C119.664 231.384 120.023 231.579 120.132 231.912C120.227 232.253 120.019 232.604 119.665 232.7L119.665 232.7Z" fill="#A3A9B6"/>
</svg>
