<svg width="323" height="572" viewBox="0 0 323 572" fill="none" xmlns="http://www.w3.org/2000/svg">
<path fill-rule="evenodd" clip-rule="evenodd" d="M226.744 191.289C226.55 191.313 226.355 191.337 226.161 191.36C224.036 191.6 221.901 191.736 219.762 191.766C209.825 191.916 199.96 189.923 190.61 186.643C190.607 186.641 190.603 186.64 190.599 186.638C185.726 184.908 180.989 182.816 176.426 180.382C175.576 179.928 174.732 179.462 173.894 178.985C173.803 178.933 173.713 178.881 173.622 178.829C172.182 178.003 170.765 177.141 169.367 176.249C168.989 176 168.613 175.744 168.237 175.487C166.856 174.545 165.466 173.597 163.915 172.999C162.605 172.501 161.223 172.239 159.833 172.218C159.77 172.216 159.708 172.214 159.646 172.213C159.625 172.213 159.605 172.214 159.585 172.216C159.014 172.22 158.442 172.264 157.874 172.349C155.509 172.699 153.64 173.808 151.686 175.108C147.493 177.899 143.108 180.388 138.562 182.555C129.164 187.034 119.009 190.196 108.64 191.326C103.952 191.853 99.2223 191.913 94.522 191.503C93.6167 191.42 92.7102 191.272 91.8034 191.124C90.5812 190.924 89.3583 190.724 88.1367 190.685C86.3468 190.633 84.5798 191.098 83.0471 192.024C80.2653 193.731 78.5614 196.752 78.5402 200.016C78.5372 200.239 78.5382 200.462 78.5392 200.685C78.5397 200.797 78.5402 200.909 78.5402 201.02V294.985C78.5402 296.501 78.5393 298.017 78.5383 299.533C78.5364 302.565 78.5344 305.596 78.5402 308.628C78.5782 324.013 85.4875 338.577 97.3796 348.338C100.22 350.645 103.311 352.519 106.467 354.341L152.309 380.807C153.327 381.432 154.404 381.956 155.523 382.371C156.823 382.801 158.167 383.02 159.508 383.033C159.553 383.043 159.599 383.048 159.646 383.049C159.982 383.044 160.311 383.025 160.634 382.994C162.551 382.846 164.434 382.275 166.139 381.295C170.159 379.025 174.151 376.703 178.142 374.382C180.008 373.297 181.873 372.212 183.741 371.133C183.872 371.057 184.003 370.981 184.134 370.905L210.404 355.739C210.53 355.666 210.656 355.593 210.783 355.52C211.206 355.276 211.629 355.033 212.053 354.79C213.191 354.135 214.33 353.481 215.464 352.816C227.576 345.724 236.133 334.035 239.347 320.605C239.37 320.511 239.392 320.418 239.414 320.324C239.454 320.155 239.492 319.985 239.529 319.816C240.046 317.495 240.403 315.124 240.593 312.718C240.753 310.707 240.753 308.699 240.752 306.686L240.752 202.405C240.752 202.167 240.754 201.928 240.756 201.69C240.768 200.092 240.78 198.489 240.241 196.956C239.975 196.204 239.619 195.5 239.187 194.854C238.843 194.321 238.433 193.815 237.947 193.342C237.406 192.822 236.812 192.374 236.179 192.003C235.12 191.372 233.932 190.945 232.669 190.768C232.262 190.714 231.856 190.692 231.45 190.695C230.991 190.691 230.529 190.721 230.068 190.784C229.438 190.855 228.809 190.96 228.181 191.065C227.702 191.144 227.223 191.224 226.744 191.289ZM219.733 193.07C219.743 193.07 219.753 193.07 219.762 193.069C221.979 193.039 224.193 192.894 226.395 192.637C226.603 192.612 226.813 192.584 227.023 192.552C228.036 192.424 229.048 192.273 230.056 192.098C230.056 192.098 230.056 192.098 230.056 192.098C235.105 191.281 239.428 195.226 239.448 200.24C239.451 201.091 239.45 201.942 239.449 202.792C239.449 203.217 239.448 203.643 239.448 204.068V299.921C239.448 300.934 239.452 301.947 239.457 302.961C239.466 305.138 239.476 307.316 239.442 309.493C239.313 316.201 237.844 322.732 235.204 328.736C230.957 338.312 223.736 346.506 214.529 351.851C212.092 353.266 209.654 354.678 207.214 356.088C206.602 356.433 205.994 356.78 205.389 357.129L197.659 361.591C197.615 361.617 197.571 361.642 197.527 361.667L165.72 380.031C164.288 380.876 162.705 381.421 161.067 381.639C160.811 381.67 160.555 381.693 160.298 381.708V176.019C160.298 175.715 160.307 175.405 160.317 175.094C160.333 174.578 160.349 174.057 160.322 173.548C162.7 173.734 164.653 174.696 166.658 176.04C168.662 177.383 170.71 178.657 172.802 179.862C173.227 180.106 173.653 180.348 174.08 180.586C175.071 181.138 176.071 181.675 177.079 182.196C177.601 182.464 178.124 182.729 178.649 182.988C181.05 184.177 183.496 185.275 185.981 186.279C192.653 188.975 199.634 191.005 206.754 192.118C209.933 192.619 213.139 192.935 216.356 193.04C217.482 193.078 218.608 193.088 219.733 193.07ZM158.989 381.708C158.963 380.011 158.973 378.312 158.983 376.614C158.989 375.71 158.994 374.806 158.994 373.902V173.533C158.785 173.546 158.575 173.564 158.366 173.589C155.918 173.881 154.045 175.111 152.04 176.435C147.94 179.145 143.656 181.566 139.22 183.681C130.031 188.06 120.195 191.171 110.085 192.459C105.472 193.062 100.812 193.221 96.1693 192.935C94.0558 192.798 91.9506 192.555 89.8616 192.206C87.8829 191.876 85.979 191.935 84.1656 192.889C81.512 194.296 79.8502 197.051 79.8441 200.054C79.8408 200.321 79.8419 200.587 79.843 200.853C79.8436 200.986 79.8441 201.12 79.8441 201.253V304.122C79.8427 305.593 79.8427 307.065 79.8441 308.537C79.7894 323.41 86.3867 337.529 97.8303 347.029C100.691 349.41 103.836 351.316 107.044 353.168L152.689 379.521C152.837 379.607 152.986 379.694 153.135 379.782C153.571 380.038 154.008 380.295 154.459 380.521C155.895 381.227 157.436 381.622 158.989 381.708Z" fill="#7BA84F"/>
<path d="M206.431 177.146C194.4 178.171 182.316 178.362 170.248 178.229C169.408 178.22 169.409 176.916 170.248 176.925C173.668 176.967 177.087 176.975 180.507 176.949C192.29 176.86 204.082 176.316 215.781 174.867C213.8 168.251 211.812 161.636 209.623 155.085C207.724 149.404 205.792 143.648 203.259 138.21C202.188 135.802 200.838 133.528 199.239 131.432C197.598 129.382 195.594 127.652 193.327 126.328C192.863 126.051 192.39 125.781 191.916 125.51L191.915 125.509C189.964 124.392 187.987 123.26 186.459 121.597C184.753 119.74 183.537 117.25 183.952 114.68C184.313 112.723 185.769 111.149 187.692 110.638C188.048 110.533 188.413 110.466 188.777 110.439C188.534 108.975 188.868 107.352 189.251 105.984C189.917 103.622 191.129 101.45 192.788 99.6413C196.398 95.7095 201.841 94.2617 207.041 94.6591C212.812 95.1003 218.113 97.6697 223.05 100.528C223.333 100.692 223.621 100.855 223.912 101.019C225.98 102.186 228.19 103.434 229.332 105.56C230.352 107.46 230.529 109.628 230.703 111.752C230.739 112.183 230.774 112.613 230.816 113.038C231.635 121.323 235.448 128.7 239.228 136.017C240.485 138.448 241.738 140.874 242.877 143.323C247.874 154.071 251.691 165.602 252.799 177.451C253.344 183.284 253.18 189.32 251.135 194.875C249.308 199.841 245.247 203.467 241.307 206.799C240.67 207.338 239.744 206.42 240.385 205.877C241.292 205.11 242.194 204.335 243.073 203.534C244.962 201.888 246.649 200.023 248.098 197.978C249.585 195.775 250.431 193.261 250.991 190.677C252.175 185.213 251.872 179.51 251.092 174.01C249.513 162.886 245.71 152.032 240.788 141.963C239.931 140.211 239.033 138.465 238.134 136.716L238.133 136.715C234.289 129.241 230.411 121.699 229.531 113.227C229.482 112.756 229.445 112.276 229.408 111.791L229.408 111.79L229.408 111.789L229.408 111.788L229.408 111.787L229.407 111.782L229.407 111.781C229.257 109.817 229.102 107.788 228.124 106.069C227.448 104.988 226.515 104.09 225.409 103.456C224.253 102.719 223.059 102.034 221.869 101.353C217.194 98.6797 212.136 96.2673 206.675 95.938C201.725 95.6393 196.68 97.081 193.375 100.941C191.839 102.748 190.777 104.909 190.286 107.229C190.068 108.258 189.831 109.494 190.114 110.529C191.073 110.741 191.934 111.28 192.491 112.193C192.667 112.505 192.563 112.9 192.258 113.085C191.373 113.655 190.38 113.335 189.731 112.573C189.504 112.307 189.322 112.022 189.176 111.722C188.284 111.727 187.344 112.075 186.661 112.576C184.605 114.081 184.963 116.918 186.083 118.898C187.392 121.211 189.606 122.659 191.848 123.963L192.128 124.126C194.27 125.37 196.39 126.602 198.19 128.333C201.787 131.792 204.002 136.395 205.857 140.956C210.181 151.59 213.48 162.623 216.767 173.615L216.768 173.616L217.253 175.239C217.303 175.435 217.261 175.643 217.138 175.804C217.016 175.964 216.827 176.06 216.625 176.064C213.234 176.495 209.836 176.856 206.431 177.146Z" fill="#A3A9B6"/>
<path fill-rule="evenodd" clip-rule="evenodd" d="M247.325 280.571L247.33 280.568C247.513 280.455 247.705 280.328 247.905 280.198C249.135 279.392 250.641 278.404 252.026 279.125C253.35 279.815 253.909 281.549 253.546 282.943C253.111 284.611 251.591 285.754 250.079 286.399C247.075 287.651 243.689 287.478 240.85 285.974C237.356 288.211 233.961 290.602 230.676 293.141C225.73 296.99 221.03 301.146 216.604 305.584C212.818 309.354 209.163 313.253 205.509 317.151L205.502 317.16C204.665 318.052 203.828 318.945 202.99 319.835L192.535 330.95C192.365 331.13 192.198 331.316 192.031 331.503C191.469 332.129 190.899 332.765 190.194 333.219C189.785 333.482 189.34 333.699 188.895 333.916C188.198 334.256 187.503 334.595 186.956 335.106C185.627 336.346 185.877 338.263 186.325 339.882C186.406 340.223 186.202 340.568 185.863 340.662C185.795 340.681 185.727 340.688 185.66 340.685C185.633 340.846 185.545 341.001 185.378 341.117L181.43 343.847C176.143 347.499 170.858 351.154 165.575 354.812C163.458 356.279 161.189 357.911 160.429 360.505C160.081 361.905 159.95 363.35 160.039 364.79C160.072 366.296 160.142 367.8 160.251 369.301C160.693 375.392 161.758 381.421 163.428 387.295C164.21 390.11 165.148 392.88 166.237 395.591C167.224 398.008 168.483 400.405 170.397 402.221C171.318 403.094 172.472 403.95 173.774 404.088C175.087 404.228 176.133 403.403 177.011 402.53C178.384 401.111 179.439 399.416 180.105 397.557C181.137 394.83 181.632 391.952 182.126 389.081C182.335 387.865 182.544 386.65 182.793 385.448C183.606 381.533 184.907 377.484 187.978 374.737C189.406 373.46 191.094 372.565 192.776 371.674C193.128 371.487 193.481 371.3 193.83 371.11C195.717 370.085 197.641 368.903 198.719 366.975C200.035 364.619 199.708 361.772 199.048 359.269C198.341 356.697 197.412 354.191 196.272 351.779C194.127 347.127 191.182 342.708 186.919 339.749C186.234 339.273 186.887 338.144 187.577 338.623C188.644 339.361 189.649 340.185 190.583 341.085C194.471 344.845 197.022 349.764 198.924 354.769C199.914 357.373 200.86 360.1 200.923 362.914C200.975 364.081 200.796 365.232 200.41 366.307C200.449 366.367 200.481 366.438 200.502 366.521C200.725 367.421 201.211 367.816 202.145 367.694C203.197 367.557 204.216 367.068 205.177 366.608L205.184 366.604C205.297 366.55 205.41 366.496 205.522 366.443C206.773 365.85 208.023 365.289 209.311 364.784C212.488 363.538 215.63 362.213 218.738 360.808C224.864 358.036 230.835 354.976 236.651 351.625C242.477 348.268 248.12 344.638 253.581 340.734C258.992 336.865 264.353 332.799 269.164 328.193C273.687 323.864 277.659 318.884 280.022 313.037C282.143 307.655 283.11 301.887 282.861 296.107C282.444 284.18 277.595 272.614 270.045 263.454C262.266 254.03 252.005 246.97 240.423 243.072C239.629 242.807 239.971 241.548 240.769 241.815C242.216 242.296 243.643 242.828 245.051 243.41C256.664 248.212 266.683 256.197 273.956 266.444C280.924 276.33 284.926 288.737 284.087 300.876C283.72 306.829 282.031 312.625 279.141 317.843C275.845 323.682 271.051 328.509 265.965 332.805C255.323 341.716 243.772 349.48 231.504 355.971C225.401 359.228 219.137 362.176 212.738 364.805C212.132 365.054 211.521 365.291 210.908 365.528C209.956 365.898 209.003 366.267 208.072 366.681C207.575 366.903 207.083 367.137 206.591 367.372L206.59 367.372L206.587 367.374C205.887 367.707 205.187 368.041 204.47 368.336C203.462 368.752 202.301 369.177 201.193 368.966C200.501 368.833 199.999 368.426 199.661 367.883C199.248 368.568 198.74 369.201 198.146 369.761C196.753 371.049 195.073 371.935 193.403 372.816C192.991 373.033 192.579 373.25 192.173 373.473C190.226 374.54 188.432 375.789 187.141 377.629C184.852 380.894 184.147 384.97 183.478 388.839C183.435 389.091 183.391 389.342 183.347 389.592L183.289 389.927C182.583 393.973 181.834 398.264 179.415 401.682C178.073 403.578 176.064 405.7 173.527 405.363C170.816 405.001 168.662 402.59 167.246 400.424C165.709 398.075 164.715 395.401 163.793 392.765C160.66 383.791 158.954 374.382 158.737 364.88C158.654 363.382 158.776 361.88 159.101 360.416C159.467 359.057 160.159 357.809 161.119 356.779C162.047 355.809 163.078 354.942 164.193 354.193C165.112 353.541 166.041 352.902 166.97 352.264L166.973 352.262C167.379 351.982 167.785 351.703 168.191 351.423L184.72 339.991C184.807 339.931 184.892 339.896 184.975 339.882C184.848 339.374 184.754 338.857 184.695 338.336C184.51 336.635 184.99 334.991 186.36 333.908C186.895 333.485 187.522 333.175 188.141 332.868C188.722 332.581 189.295 332.297 189.78 331.927C190.166 331.586 190.527 331.219 190.861 330.827L203.23 317.679C203.905 316.961 204.579 316.243 205.253 315.525L205.257 315.52C209.172 311.348 213.089 307.174 217.186 303.18C221.722 298.747 226.541 294.613 231.611 290.802C234.228 288.842 236.91 286.972 239.654 285.197C239.255 284.672 239.849 283.79 240.473 284.223C240.586 284.302 240.701 284.379 240.817 284.453C242.951 283.102 245.121 281.807 247.325 280.571ZM248.148 281.595L248.27 281.519C248.836 281.168 249.403 280.816 249.994 280.511C250.32 280.313 250.685 280.191 251.064 280.152C252.194 280.335 252.55 281.865 252.23 282.787C251.79 284.056 250.479 284.871 249.284 285.324C247.933 285.831 246.486 286.026 245.049 285.896C244.043 285.805 243.062 285.554 242.143 285.156C243.422 284.356 244.714 283.577 246.019 282.818C246.656 282.448 247.296 282.082 247.938 281.722C247.946 281.718 247.954 281.713 247.962 281.709C247.968 281.705 247.974 281.702 247.98 281.698L247.988 281.694C247.997 281.689 248.005 281.684 248.014 281.679C248.016 281.677 248.019 281.676 248.022 281.674C248.031 281.668 248.041 281.661 248.05 281.655L248.148 281.595Z" fill="#A3A9B6"/>
<path fill-rule="evenodd" clip-rule="evenodd" d="M134.019 370.031C138.266 380.591 142.38 391.207 146.101 401.966C146.628 403.314 147.069 404.694 147.421 406.098C147.642 407.162 147.691 408.381 146.834 409.177C146.777 409.23 146.733 409.285 146.701 409.343C146.623 409.265 146.545 409.188 146.465 409.111C144.957 407.806 143.047 407.056 141.053 406.988C139.733 406.944 138.414 407.071 137.127 407.368C136.946 407.406 136.822 407.497 136.747 407.614C136.616 407.55 136.463 407.53 136.311 407.566C131.18 409.004 126.507 411.745 122.748 415.523C120.873 417.4 119.253 419.515 117.928 421.813C116.616 424.099 115.566 426.597 115.99 429.197C113.861 430.431 111.608 428.732 110.061 427.24C108.484 425.719 107.102 423.973 105.734 422.243L105.733 422.241C105.335 421.738 104.938 421.236 104.538 420.741C100.727 416.034 97.0064 411.255 93.3754 406.406C86.1977 396.82 79.3794 386.978 72.9205 376.881C66.7972 367.309 60.7042 357.432 57.4838 346.445C55.83 340.778 55.0643 334.89 55.2139 328.988C55.424 322.947 56.2822 316.945 57.7736 311.087C58.606 307.657 59.567 304.26 60.61 300.884C68.7176 305.689 77.7212 308.999 86.5492 312.193C91.4436 313.964 96.3766 315.623 101.348 317.17C106.347 318.726 111.378 320.245 116.48 321.427C118.948 322.008 121.444 322.462 123.958 322.788L124.081 322.803C125.915 323.036 128.435 323.355 129.489 321.437C129.903 320.739 129.947 319.882 129.608 319.145C129.263 318.494 128.526 318.145 127.859 317.828C127.735 317.769 127.614 317.712 127.499 317.654C126.31 317.058 125.094 316.523 123.877 315.988C123.42 315.787 122.963 315.586 122.507 315.382C124.703 316.189 126.902 316.985 129.211 317.377C131.24 317.722 134.289 317.509 134.411 314.831C134.449 313.864 133.985 312.947 133.184 312.406C132.338 311.839 131.39 311.376 130.452 310.919L130.451 310.919C130.014 310.705 129.579 310.493 129.158 310.272L127.909 309.616C129.398 309.74 130.895 309.756 132.389 309.665C134.186 309.56 136.486 309.039 137.04 307.049C137.635 304.915 135.692 303.365 133.983 302.567C133.172 302.188 132.32 301.906 131.47 301.623L131.463 301.621C131.137 301.513 130.812 301.405 130.49 301.291C129.06 300.789 127.639 300.259 126.229 299.703C125.94 299.589 125.648 299.475 125.356 299.361C123.123 298.492 120.819 297.595 118.901 296.16C117.234 294.913 115.466 292.818 116.601 290.648C117.384 289.15 119.061 288.447 120.622 287.792C121.084 287.598 121.536 287.408 121.952 287.203C123.821 286.282 125.97 284.458 125.808 282.155C125.668 280.159 123.996 279.023 122.143 278.809C119.91 278.552 117.837 279.365 115.812 280.188C115.607 280.272 115.401 280.356 115.195 280.44C112.791 281.424 110.322 282.434 107.715 282.633C104.727 282.861 101.876 281.852 99.1153 280.839C96.4117 279.827 93.7773 278.639 91.2293 277.283C86.8327 274.977 82.6251 272.34 78.4207 269.705C77.6905 269.247 76.9604 268.789 76.2294 268.333C75.9518 268.16 75.6686 267.968 75.3799 267.772C74.7408 267.337 74.0746 266.884 73.3828 266.583L73.8713 265.182C75.5164 260.463 77.1618 255.744 78.6269 250.965C79.0415 249.613 79.4393 248.256 79.8205 246.895C79.9019 246.553 79.6979 246.208 79.3591 246.114C79.0203 246.021 78.6684 246.213 78.5632 246.548C77.1931 251.459 75.5748 256.297 73.9091 261.114C73.5513 262.149 73.1904 263.183 72.8294 264.217L72.8282 264.22C72.5883 264.908 72.3483 265.595 72.1092 266.283C71.3452 266.313 70.6282 266.76 70.6691 267.638C70.7052 268.413 71.4701 269.277 72.2869 268.886C72.6624 268.706 72.7787 268.351 72.8975 267.989C72.9143 267.938 72.9313 267.886 72.9489 267.835L72.9598 267.803C73.1693 267.921 73.3758 268.066 73.5587 268.194C73.6777 268.277 73.7869 268.353 73.8803 268.411C74.9467 269.068 76.0099 269.73 77.07 270.397L77.7702 270.836C82.0801 273.537 86.3966 276.243 90.914 278.588C93.163 279.768 95.4754 280.823 97.8407 281.748C100.324 282.707 102.882 283.653 105.548 283.912C108.066 284.156 110.547 283.575 112.903 282.727C113.683 282.446 114.455 282.117 115.229 281.787C116.633 281.189 118.043 280.589 119.517 280.268C120.97 279.951 123.263 279.77 124.186 281.24C125.431 283.223 123.032 285.174 121.478 285.984C120.959 286.255 120.42 286.491 119.88 286.728C118.612 287.283 117.344 287.839 116.344 288.839C114.97 290.175 114.573 292.225 115.348 293.978C116.168 295.843 117.929 297.211 119.648 298.206C121.512 299.285 123.579 300.079 125.6 300.855C125.903 300.972 126.205 301.088 126.505 301.204C127.793 301.704 129.09 302.182 130.395 302.637C131.515 302.97 132.61 303.379 133.672 303.864C134.452 304.265 135.375 304.822 135.728 305.673C136.023 306.451 135.694 307.326 134.96 307.718C133.549 308.577 131.562 308.475 129.872 308.388C129.598 308.373 129.332 308.36 129.077 308.351C127.531 308.295 125.947 308.165 124.432 307.79L119.711 305.311C119.078 304.979 118.36 305.809 118.921 306.335C120.375 307.63 122.113 308.551 123.988 309.029L131.813 313.138C132.274 313.305 132.671 313.616 132.942 314.025C133.131 314.375 133.163 314.788 133.031 315.162C132.899 315.537 132.615 315.839 132.25 315.994C131.123 316.489 129.758 316.188 128.599 315.933L128.501 315.911C126.661 315.455 124.85 314.885 123.079 314.205C121.021 313.404 118.915 312.733 116.773 312.196C116.192 312.07 115.6 312.839 116.138 313.286C118.212 315.006 120.746 316.087 123.243 317.152L123.244 317.152L123.246 317.153C124.147 317.538 125.044 317.92 125.912 318.329C126.1 318.418 126.307 318.506 126.521 318.597C127.146 318.864 127.832 319.156 128.288 319.567C128.894 320.112 128.325 321.085 127.736 321.394C126.912 321.827 125.878 321.708 124.971 321.604C124.901 321.596 124.831 321.588 124.763 321.58C123.523 321.442 122.289 321.258 121.061 321.041C116.263 320.194 111.563 318.86 106.893 317.487C102.204 316.108 97.5449 314.63 92.9167 313.052C84.0524 310.03 75.119 306.831 66.708 302.686C64.7764 301.734 62.8679 300.71 61.0113 299.599C62.7742 294.011 64.7462 288.479 66.714 282.96C67.5671 280.567 68.4195 278.176 69.2536 275.784L70.7952 271.363C71.0721 270.569 69.8129 270.227 69.538 271.016L63.1728 289.27C62.0556 292.477 60.9477 295.69 59.9052 298.923C54.8612 295.774 50.2528 291.948 46.6774 287.15C44.2489 283.956 42.4176 280.349 41.272 276.503C39.959 271.926 39.893 267.122 40.4203 262.417C40.9533 257.662 42.0513 252.968 43.2014 248.33C44.3241 243.802 45.597 239.315 47.0199 234.868C49.8588 225.99 53.2866 217.312 57.2807 208.89C59.1899 204.867 61.1834 200.859 63.4227 197.007C65.4215 193.569 67.7197 190.235 70.7552 187.626C74.1157 184.737 78.2027 183.364 82.5246 182.673C87.3765 181.934 92.2792 181.579 97.187 181.611C102.157 181.606 107.121 181.962 112.039 182.677C112.187 182.699 112.338 182.72 112.491 182.742C112.981 182.811 113.491 182.882 113.996 182.98C113.676 184.468 113.543 186.288 114.36 187.554C115.305 189.02 117.48 188.61 118.479 187.427C119.592 186.109 119.123 184.298 117.88 183.268C117.172 182.681 116.362 182.303 115.508 182.039C115.969 178.353 114.605 174.619 113.153 171.292C112.27 169.269 111.252 167.313 110.234 165.357C109.377 163.71 108.52 162.063 107.744 160.376C105.952 156.483 104.82 151.981 104.708 147.502C106.046 146.317 107.02 144.774 107.512 143.052C107.905 141.681 108.092 140.003 107.474 138.671C112.661 138.317 117.727 136.799 122.284 134.199L122.31 134.185C122.402 134.695 122.609 135.192 122.947 135.64C123.716 136.647 124.907 137.242 126.174 137.253C127.452 137.253 128.524 136.544 129.359 135.63C129.63 135.334 129.881 135.015 130.134 134.696C130.55 134.168 130.968 133.639 131.471 133.209C132.583 136.42 135.552 138.671 138.999 138.827C139.061 139.066 139.12 139.303 139.177 139.54C140.346 144.629 140.727 149.868 140.306 155.073C140.202 156.502 140.04 157.924 139.82 159.342C139.792 159.52 139.763 159.698 139.734 159.876C139.636 160.476 139.539 161.074 139.48 161.681C139.322 163.287 139.291 164.907 139.294 166.519C139.24 170.108 139.499 173.695 140.07 177.239C140.151 177.72 140.257 178.197 140.387 178.667C139.827 178.769 139.316 178.994 138.945 179.492C138.244 180.436 138.629 181.939 139.866 182.175C140.46 182.27 141.059 182.032 141.425 181.554C141.774 181.069 141.951 180.483 141.93 179.889C142.689 179.869 143.447 179.832 144.205 179.765C144.708 179.721 145.211 179.666 145.713 179.6C145.798 179.589 145.896 179.581 146.001 179.573C146.41 179.541 146.919 179.502 147.144 179.211C147.347 178.999 147.389 178.679 147.246 178.421C147.116 178.2 146.877 178.066 146.621 178.068C146.458 178.071 146.307 178.132 146.191 178.234C145.607 178.352 145.015 178.421 144.42 178.442C143.749 178.505 143.076 178.549 142.402 178.574C142.208 178.581 142.007 178.582 141.803 178.582L141.72 178.583C141.344 177.231 141.1 175.847 140.992 174.449C140.793 172.555 140.685 170.652 140.632 168.749C140.581 166.929 140.577 165.105 140.669 163.286C140.731 162.04 140.906 160.856 141.084 159.649C141.165 159.098 141.247 158.543 141.319 157.975C142.027 152.406 141.874 146.762 140.865 141.24C140.095 137.044 138.694 132.686 135.798 129.452C132.62 125.903 127.75 124.668 123.126 125.027C118.312 125.401 113.199 126.991 109.637 130.368C107.521 132.375 106.015 134.803 105.017 137.453C103.957 137.45 102.897 137.397 101.841 137.293C101.006 137.213 101.012 138.517 101.841 138.597C102.752 138.684 103.664 138.734 104.575 138.748C103.769 141.364 103.421 144.156 103.44 146.943C103.367 147.095 103.379 147.256 103.446 147.398C103.51 150.417 103.999 153.419 104.799 156.175C105.787 159.577 107.404 162.692 109.024 165.815C109.404 166.546 109.783 167.277 110.155 168.012C111.993 171.649 113.975 175.618 114.267 179.751C114.321 180.408 114.311 181.068 114.238 181.723C113.667 181.609 113.089 181.523 112.521 181.439C107.354 180.673 102.137 180.295 96.9129 180.307C91.7234 180.276 86.5408 180.689 81.4218 181.542C76.8641 182.347 72.702 184.056 69.2655 187.207C66.1536 190.061 63.8019 193.659 61.7438 197.315C56.9808 205.891 52.8671 214.811 49.4371 224.001C45.8969 233.334 43.025 242.908 40.8432 252.649C39.7217 257.66 38.775 262.772 38.8031 267.926C38.7984 272.592 39.8001 277.205 41.7401 281.45C45.4337 289.436 52.0976 295.648 59.4943 300.21C58.7449 302.58 58.0344 304.961 57.3848 307.361C54.1822 319.192 52.5533 331.621 55.4063 343.696C58.0732 354.984 63.9852 365.175 70.116 374.896C76.6899 385.32 83.6519 395.485 91.0022 405.391C94.6775 410.344 98.4455 415.226 102.306 420.038C102.689 420.516 103.071 420.995 103.453 421.475L103.48 421.509L103.482 421.512C104.957 423.366 106.437 425.226 108.013 426.987C109.526 428.679 111.482 430.573 113.832 430.909C114.692 431.032 115.564 430.888 116.333 430.503C116.838 431.833 117.528 433.085 118.382 434.223C119.312 435.536 120.296 436.812 121.289 438.077C122.326 439.4 123.417 440.678 124.508 441.955L124.509 441.956C125.492 443.107 126.476 444.259 127.42 445.444C128.385 446.62 129.21 447.905 129.877 449.272C130.497 450.651 130.949 452.1 131.223 453.587C131.52 455.056 131.708 456.542 131.896 458.028C132.092 459.573 132.287 461.118 132.605 462.644C133.529 467.052 135.479 471.181 138.299 474.693C139.17 475.782 140.192 476.803 141.562 477.213C144.163 477.992 146.614 476.247 148.252 474.388C150.01 472.394 151.278 469.961 152.509 467.6C152.648 467.334 152.787 467.068 152.925 466.805C155.902 461.137 158.414 455.237 160.439 449.164C160.545 448.845 160.655 448.523 160.765 448.198C161.703 445.443 162.708 442.493 162.3 439.595C162.032 438.063 161.521 436.583 160.788 435.211C160.263 434.143 159.712 433.087 159.161 432.031L159.156 432.02L159.154 432.018C158.926 431.581 158.698 431.144 158.472 430.706C157.485 428.794 156.503 426.878 155.522 424.962L155.52 424.957L155.519 424.956C153.505 421.023 151.491 417.09 149.42 413.187C148.912 412.129 148.274 411.141 147.523 410.243C147.603 410.215 147.682 410.168 147.756 410.099C149.52 408.461 148.793 405.818 148.121 403.843C147.169 401.044 146.19 398.253 145.187 395.471C143.199 389.956 141.131 384.471 138.983 379.015C137.763 375.899 136.527 372.788 135.276 369.684C134.967 368.915 133.705 369.251 134.019 370.031ZM137.008 408.559C136.928 408.681 136.807 408.777 136.658 408.824C135.48 409.147 134.325 409.545 133.197 410.014C128.495 411.998 124.38 415.158 121.249 419.188C120.504 420.15 119.823 421.159 119.207 422.207C118.443 423.421 117.844 424.73 117.424 426.101C117.039 427.496 117.118 428.979 117.649 430.326C118.205 431.633 118.93 432.862 119.807 433.98C121.633 436.492 123.573 438.922 125.592 441.281C125.862 441.596 126.135 441.91 126.408 442.225L126.413 442.231C128.059 444.127 129.723 446.043 130.85 448.298C132.358 451.314 132.792 454.622 133.226 457.935C133.545 460.37 133.864 462.808 134.611 465.134C135.496 467.877 136.805 470.465 138.49 472.803L138.527 472.855C139.296 473.924 140.159 475.124 141.356 475.735C142.35 476.216 143.51 476.212 144.501 475.725C146.916 474.626 148.443 472.161 149.71 469.951C151.243 467.278 152.668 464.549 153.985 461.767C156.639 456.248 158.814 450.511 160.487 444.621C160.913 443.078 161.243 441.465 161.032 439.859C160.787 438.434 160.311 437.059 159.623 435.788C158.625 433.771 157.582 431.774 156.539 429.778L156.536 429.773C156.053 428.848 155.569 427.923 155.091 426.997L150.488 418.085C150.221 417.567 149.959 417.044 149.697 416.519C148.972 415.068 148.243 413.61 147.378 412.246C146.566 410.859 145.379 409.729 143.954 408.986C141.949 408.02 139.59 408.177 137.474 408.625C137.293 408.664 137.136 408.632 137.008 408.559ZM115.098 185.413C115.068 184.704 115.123 183.995 115.262 183.301C115.96 183.532 116.611 183.859 117.148 184.354C117.703 184.785 117.935 185.514 117.73 186.187C117.468 186.872 116.482 187.449 115.766 187.12C115.198 186.859 115.128 185.954 115.098 185.413ZM72.0516 267.738C72.05 267.739 72.0484 267.739 72.0468 267.739L72.0516 267.738ZM105.994 138.741L105.958 138.742C105.213 140.941 104.818 143.264 104.722 145.617C105.363 144.837 105.857 143.941 106.174 142.973C106.569 141.742 106.954 139.816 105.996 138.743L105.994 138.741ZM107.493 137.371C107.147 137.395 106.799 137.414 106.452 137.428C106.94 136.251 107.536 135.118 108.25 134.042C109.418 132.266 110.941 130.751 112.724 129.593C114.868 128.281 117.227 127.36 119.693 126.873C124.175 125.888 129.175 125.931 133.047 128.708C135.93 130.775 137.591 134.122 138.622 137.493C135.62 137.174 133.128 134.967 132.476 131.98C132.42 131.786 132.279 131.629 132.092 131.553C131.905 131.477 131.694 131.491 131.519 131.59C130.552 132.122 129.877 132.959 129.2 133.799C129.063 133.969 128.925 134.139 128.785 134.307C128.025 135.219 127.094 136.111 125.809 135.927C124.665 135.763 123.585 134.839 123.546 133.634C123.544 133.558 123.545 133.483 123.549 133.408C124.604 132.67 125.519 131.765 125.958 130.504C126.017 130.278 125.951 130.038 125.786 129.873C125.621 129.709 125.381 129.643 125.156 129.702C123.736 130.075 122.695 131.279 122.365 132.636C122.143 132.773 121.92 132.904 121.702 133.03C120.268 133.86 118.772 134.578 117.227 135.179C114.11 136.389 110.829 137.128 107.493 137.371ZM140.154 180.102C140.307 180.026 140.469 179.97 140.635 179.934C140.641 180.225 140.558 180.513 140.395 180.758C140.237 180.928 140.025 180.955 139.913 180.724C139.836 180.485 139.937 180.226 140.154 180.102Z" fill="#A3A9B6"/>
<path d="M111.768 149.062L111.803 149.032C111.855 148.989 111.939 148.92 111.885 148.961C111.947 148.913 112.012 148.868 112.078 148.824C112.215 148.731 112.357 148.646 112.503 148.569C112.752 148.429 113.019 148.324 113.297 148.258C113.446 148.216 113.597 148.182 113.75 148.155L113.794 148.147L113.846 148.139L113.884 148.135L113.934 148.13C114 148.124 114.065 148.118 114.131 148.115C114.296 148.105 114.462 148.105 114.627 148.114C114.695 148.117 114.762 148.123 114.829 148.129L114.874 148.133L114.91 148.138C114.942 148.143 114.975 148.148 115.008 148.154C115.354 148.241 115.707 148.04 115.81 147.699C115.901 147.352 115.699 146.996 115.354 146.897C113.741 146.611 112.085 147.068 110.846 148.14C110.593 148.396 110.593 148.807 110.846 149.062C111.104 149.308 111.509 149.308 111.768 149.062Z" fill="#A3A9B6"/>
<path d="M119.634 149.745C119.361 148.241 119.167 146.724 119.053 145.199C119.056 144.84 119.346 144.551 119.705 144.548C120.062 144.556 120.349 144.843 120.357 145.2C120.461 146.608 120.639 148.009 120.891 149.398C120.979 149.744 120.778 150.098 120.436 150.2C120.089 150.292 119.732 150.09 119.634 149.745Z" fill="#A3A9B6"/>
<path d="M125.62 145.688C125.75 145.543 125.889 145.406 126.037 145.278C126.074 145.246 126.111 145.214 126.149 145.183C126.151 145.182 126.189 145.152 126.2 145.144C126.274 145.09 126.35 145.038 126.426 144.988C126.59 144.881 126.76 144.785 126.935 144.699C126.986 144.673 127.038 144.649 127.091 144.625C127.101 144.62 127.126 144.61 127.14 144.604C127.153 144.599 127.156 144.597 127.125 144.61C127.221 144.571 127.318 144.536 127.416 144.503C127.601 144.442 127.79 144.391 127.981 144.351C128.137 144.314 128.295 144.291 128.455 144.284C128.65 144.27 128.845 144.268 129.039 144.277C129.131 144.282 129.222 144.29 129.314 144.299L129.348 144.303C129.352 144.304 129.361 144.306 129.379 144.309C129.436 144.318 129.492 144.328 129.549 144.339C129.895 144.426 130.247 144.225 130.351 143.884C130.443 143.537 130.24 143.181 129.895 143.082C127.988 142.706 126.022 143.343 124.697 144.766C124.451 145.024 124.451 145.43 124.697 145.688C124.954 145.939 125.364 145.939 125.62 145.688Z" fill="#A3A9B6"/>
<path d="M126.559 152.209C124.745 153.779 122.625 154.954 120.332 155.66C119.527 155.908 119.186 154.649 119.986 154.403C122.065 153.766 123.989 152.706 125.637 151.288C125.895 151.04 126.302 151.04 126.559 151.288C126.811 151.543 126.811 151.954 126.559 152.209Z" fill="#A3A9B6"/>
<path d="M101.918 133.322C102.708 133.619 103.518 133.862 104.342 134.049C104.566 134.111 104.808 134.049 104.974 133.885C105.14 133.722 105.206 133.481 105.147 133.256C105.088 133.03 104.913 132.853 104.688 132.791C103.865 132.605 103.055 132.362 102.265 132.064C101.918 131.97 101.56 132.173 101.463 132.52C101.377 132.865 101.577 133.218 101.918 133.322Z" fill="#A3A9B6"/>
<path d="M107.491 129.335C106.494 129.153 105.519 128.869 104.58 128.486C104.24 128.381 104.041 128.03 104.125 127.684C104.222 127.337 104.58 127.134 104.927 127.229C105.866 127.611 106.841 127.896 107.838 128.078C108.063 128.139 108.238 128.316 108.297 128.542C108.356 128.768 108.29 129.008 108.124 129.171C107.957 129.335 107.716 129.397 107.491 129.335Z" fill="#A3A9B6"/>
<path d="M199.076 116.86C198.941 115.195 197.509 113.865 195.929 113.549C195.105 113.384 195.456 112.128 196.275 112.292C196.615 112.359 196.949 112.466 197.271 112.608C196.667 111.238 196.58 109.689 197.039 108.252C197.549 106.655 198.689 105.335 200.195 104.597C200.949 104.236 201.61 105.361 200.854 105.723C199.436 106.387 198.414 107.681 198.097 109.214C197.568 111.848 199.955 115.682 202.908 114.041C204.08 113.389 205.063 112.362 206.005 111.378C206.13 111.247 206.254 111.117 206.378 110.989C207.351 109.425 208.778 108.125 210.159 106.95C210.416 106.71 210.817 106.717 211.066 106.966C211.314 107.214 211.321 107.615 211.081 107.872C209.882 109.226 208.647 110.545 207.377 111.831C207.134 112.247 206.932 112.683 206.783 113.142C205.423 117.336 210.186 120.343 213.552 121.466C215.363 122.07 217.768 122.099 218.988 120.351C219.479 119.688 219.558 118.807 219.194 118.067C219.073 117.768 218.881 117.515 218.643 117.322C218.079 117.294 217.525 117.14 217.015 116.825C216.77 116.672 216.654 116.376 216.73 116.096C216.805 115.817 217.055 115.619 217.344 115.611C217.955 115.578 218.546 115.728 219.054 116.022C219.914 115.957 220.775 115.481 221.395 114.907C222.059 114.295 222.596 113.571 223.133 112.847C223.584 112.24 224.034 111.633 224.56 111.09C225.145 110.486 226.066 111.409 225.482 112.012C224.956 112.555 224.502 113.163 224.048 113.772C223.359 114.696 222.67 115.62 221.731 116.309C221.26 116.655 220.723 116.935 220.159 117.113C220.194 117.172 220.227 117.232 220.259 117.294C220.887 118.395 220.874 119.748 220.225 120.837C218.934 123.004 216.169 123.491 213.891 122.924C212.556 122.554 211.278 122.001 210.096 121.28C209.037 120.69 208.065 119.955 207.208 119.097C205.831 117.667 205.052 115.802 205.286 113.878C204.253 114.821 203.088 115.662 201.667 115.765C201.119 115.804 200.59 115.704 200.097 115.504C200.301 116.03 200.407 116.592 200.386 117.168C200.336 118.502 199.537 119.33 198.475 119.77C199.489 120.26 200.439 120.886 201.298 121.635C201.932 122.187 201.006 123.106 200.376 122.557C199.051 121.401 197.476 120.579 195.784 120.15C195.281 120.113 194.798 120.022 194.373 119.886C193.705 119.674 193.791 118.507 194.546 118.606C194.989 118.662 195.427 118.741 195.859 118.843C197.362 118.968 199.214 118.574 199.076 116.86Z" fill="#A3A9B6"/>
</svg>
