<svg width="323" height="572" viewBox="0 0 323 572" fill="none" xmlns="http://www.w3.org/2000/svg">
<path d="M49.1328 286.265C47.6833 278.194 43.6245 270.941 40.44 263.481C38.796 259.63 37.2388 255.242 37.981 250.996C38.6224 247.326 41.0032 244.468 44.1257 242.561C47.0515 240.744 50.3964 239.711 53.8377 239.562C56.5565 239.473 59.1836 240.551 61.0569 242.523C62.9999 244.532 64.2849 247.103 65.5128 249.585C66.1728 250.918 66.8136 252.261 67.5038 253.579C67.6851 253.926 67.885 254.266 68.0547 254.618C68.3162 255.088 68.3334 255.655 68.1008 256.139C67.7525 256.924 67.6055 257.783 67.6732 258.639C67.8422 260.3 68.6306 261.781 69.0914 263.364C69.3521 264.098 69.4193 264.887 69.2864 265.655C69.0696 266.383 68.6645 267.042 68.1118 267.563C67.0082 268.742 65.683 269.873 65.5744 271.604C65.5008 272.777 65.9952 273.914 66.3716 274.998L68.6918 281.686C68.9946 282.559 70.3905 282.183 70.0846 281.302L67.6148 274.183C67.2704 273.19 66.758 272.061 67.1608 271.012C67.4942 270.319 67.9641 269.701 68.5423 269.194C69.7571 267.951 70.8584 266.662 70.8026 264.818C70.7499 263.077 69.8987 261.51 69.401 259.876C69.1198 259.117 69.0339 258.299 69.1512 257.498C69.2771 257.071 69.4271 256.652 69.6007 256.242C69.7762 255.714 69.779 255.144 69.6085 254.615C69.2795 253.787 68.8843 252.987 68.4267 252.223C68.0827 251.549 67.7487 250.869 67.4156 250.19C66.1022 247.511 64.8066 244.779 62.9145 242.448C61.1995 240.217 58.7031 238.718 55.9275 238.253C52.4773 237.749 48.8335 238.707 45.6952 240.11C42.431 241.569 39.3617 243.914 37.7313 247.165C35.7374 251.142 36.2152 255.686 37.5166 259.796C38.8047 263.865 40.784 267.687 42.5292 271.571C44.3733 275.479 45.8954 279.532 47.0803 283.688C47.3394 284.666 47.5593 285.653 47.74 286.649C47.904 287.562 49.2963 287.175 49.1328 286.265Z" fill="#A3A9B6"/>
<path d="M65.6314 284.308C72.1853 280.991 80.6891 279.379 86.7224 284.608C88.1582 285.914 89.4882 287.332 90.7 288.848C92.1483 290.573 93.5954 292.3 95.0414 294.028L103.863 304.556C104.475 305.285 105.244 306.024 105.629 306.91C105.729 307.125 105.787 307.357 105.801 307.594C105.803 307.678 105.681 308.084 105.696 308.106C105.752 308.189 105.829 308.053 105.9 308.115C106.079 308.271 105.786 308.554 106.072 308.22C106.218 308.011 106.346 307.789 106.455 307.558C107.144 306.366 107.903 305.216 108.728 304.114C110.18 302.333 111.535 300.475 112.789 298.549C114.932 295.057 116.793 291.399 118.351 287.61C119.128 285.728 119.709 283.771 120.086 281.77C120.374 279.972 120.513 278.153 120.501 276.332C120.539 273.098 120.458 269.387 122.801 266.846C123.342 266.26 124.054 265.763 124.888 266.056C125.404 266.223 125.765 266.687 125.8 267.228C125.936 268.573 125.312 269.935 125.237 271.275C125.191 271.983 125.322 272.691 125.619 273.335C125.785 273.617 126.119 273.753 126.435 273.667C129.903 272.463 131.803 269.155 133.51 266.132C133.945 265.361 134.377 264.587 134.838 263.831C135.238 263.049 135.746 262.328 136.347 261.687C136.808 261.307 137.434 261.196 137.998 261.394C138.562 261.592 138.982 262.07 139.105 262.655C139.136 263.119 139.057 263.585 138.873 264.013C138.668 264.669 138.436 265.317 138.17 265.951C137.63 267.224 136.974 268.443 136.209 269.594L137.456 270.323C138.199 268.74 139.23 267.308 140.496 266.102C141.127 265.497 141.815 264.955 142.551 264.484C143.06 264.092 143.745 264.015 144.329 264.285C145.863 265.024 145.12 266.777 144.629 267.952C143.919 269.646 142.886 271.186 141.59 272.487L142.724 273.362C143.257 272.28 143.97 271.297 144.834 270.454C145.243 270.056 145.687 269.694 146.159 269.372C146.561 269.101 147.202 268.578 147.714 268.863C148.31 269.197 148.012 270.356 147.87 270.857C147.532 272.048 146.851 273.169 146.326 274.285C143.945 279.35 141.693 284.474 139.456 289.604C135.036 299.741 130.602 309.897 125.213 319.568C123.925 321.95 122.412 324.203 120.694 326.296C119.929 327.221 119.101 328.092 118.215 328.903C117.97 329.133 117.705 329.342 117.423 329.527C115.91 330.546 114.201 331.24 112.406 331.564C107.338 332.62 101.833 331.441 97.1627 329.18C89.4925 325.465 83.4507 318.986 78.7181 312.027C77.939 310.881 77.1898 309.716 76.4704 308.532C75.987 307.74 74.7371 308.465 75.2232 309.261C80.1026 317.255 86.3863 324.884 94.6742 329.51C99.8176 332.381 105.805 334.021 111.703 333.149C113.763 332.873 115.749 332.197 117.55 331.16C118.506 330.566 119.381 329.852 120.155 329.035C122.093 327.021 123.796 324.794 125.233 322.397C126.773 319.889 128.126 317.261 129.472 314.646C130.834 311.999 132.148 309.327 133.414 306.631C135.835 301.495 138.106 296.291 140.375 291.086C142.721 285.705 145.076 280.327 147.573 275.014C148.19 273.86 148.734 272.668 149.201 271.445C149.565 270.514 149.584 269.484 149.254 268.54C148.794 267.563 147.667 267.096 146.651 267.461C145.495 267.834 144.386 268.832 143.557 269.689C142.717 270.559 142.016 271.552 141.477 272.634C141.307 272.947 141.389 273.337 141.671 273.554C141.953 273.772 142.351 273.752 142.611 273.509C143.835 272.282 144.845 270.858 145.599 269.298C146.225 267.991 147.079 266.266 146.569 264.797C146.119 263.531 144.928 262.681 143.585 262.669C142.059 262.678 140.664 263.975 139.61 264.952C138.191 266.269 137.037 267.844 136.209 269.594C136.024 269.937 136.144 270.364 136.48 270.561C136.816 270.757 137.248 270.652 137.456 270.323C138.196 269.204 138.835 268.023 139.369 266.793C139.919 265.687 140.313 264.511 140.538 263.297C140.621 262.45 140.359 261.606 139.811 260.956C139.263 260.306 138.476 259.905 137.628 259.845C135.635 259.674 134.576 261.499 133.67 262.971C132.617 264.683 131.718 266.485 130.618 268.168C129.484 269.9 128.064 271.575 126.05 272.274L126.866 272.606C126.254 271.285 127.034 269.538 127.202 268.189C127.392 266.658 126.864 265.165 125.272 264.663C123.279 264.036 121.696 265.644 120.742 267.191C119.845 268.774 119.32 270.54 119.207 272.355C119.023 274.226 119.086 276.108 119.024 277.984C118.955 280.123 118.608 282.245 117.992 284.295C116.683 288.66 114.442 292.771 112.191 296.713C111.419 298.091 110.559 299.418 109.618 300.687C108.959 301.56 108.243 302.389 107.578 303.258C106.66 304.474 105.821 305.748 105.066 307.072C104.785 307.437 104.609 307.873 104.558 308.331C104.575 308.756 104.805 309.144 105.17 309.362C106.011 309.868 106.798 309.271 107.093 308.468C107.867 306.355 105.564 304.347 104.365 302.916L99.5463 297.165C96.4334 293.451 93.4024 289.643 90.1754 286.027C88.7999 284.402 87.1847 282.995 85.3856 281.856C83.6311 280.829 81.6861 280.169 79.6688 279.916C75.6016 279.374 71.4303 280.271 67.6653 281.802C66.7271 282.183 65.8061 282.603 64.9025 283.06C64.0729 283.48 64.8031 284.727 65.6314 284.308Z" fill="#A3A9B6"/>
<path d="M76.4704 308.532C76.1707 308.104 75.5433 307.369 76.1797 307.027C76.7864 306.702 77.8056 306.866 78.4473 306.966C79.1717 307.048 79.8755 307.259 80.5249 307.591C81.7891 308.326 82.5395 309.862 83.1512 311.128C86.3017 317.762 89.0457 324.582 91.368 331.55C96.0101 345.381 99.4112 359.598 101.531 374.032C103.77 388.833 104.556 403.726 105.34 418.658C106.151 434.081 106.897 449.514 107.044 464.961C107.117 472.696 107.04 480.433 106.736 488.162C106.586 491.997 106.377 495.829 106.109 499.658C105.98 501.478 105.891 503.312 105.603 505.115C105.333 506.37 105.183 507.648 105.157 508.931C105.221 510.944 106.208 512.814 107.834 514.002C108.636 514.61 109.453 515.198 110.256 515.806C110.703 516.145 111.752 516.79 111.956 517.186C113.217 519.631 103.264 520.026 101.941 520.041C96.3018 520.106 90.6752 519.526 85.0368 519.54C83.8144 519.543 82.4784 519.773 81.3065 519.352C79.9515 518.854 78.9525 517.688 78.6685 516.273C78.3478 514.648 78.5823 512.768 78.5477 511.112C78.356 501.936 77.8412 492.764 77.3193 483.601C76.8552 475.456 76.3489 467.312 75.8005 459.172C75.0569 447.982 74.3829 436.786 73.465 425.608C72.8261 417.83 72.061 410.063 71.0275 402.326C70.0136 394.735 68.7625 387.181 67.8771 379.574C67.5772 376.999 67.0249 374.166 63.9881 373.754C62.7696 373.589 61.3831 373.699 60.8208 372.381C60.5038 371.492 60.508 370.519 60.8327 369.632C61.0696 368.729 61.65 367.953 62.4501 367.472C63.8748 366.77 64.8449 368.188 65.262 369.395C66.2407 372.225 65.4095 375.447 65.0136 378.311C63.9828 385.768 63.9904 393.387 63.6927 400.897C63.3801 408.782 63.0481 416.665 62.6965 424.548C62.004 440.442 61.2804 456.334 60.6407 472.23C60.3249 480.077 60.0264 487.926 59.8206 495.777C59.723 499.499 59.4414 503.326 59.7472 507.041C59.8341 508.581 60.3102 510.074 61.1309 511.38C61.9756 512.668 63.2234 513.564 64.1329 514.774C65.6559 516.801 64.1346 519.701 61.6789 519.822C59.9457 519.835 58.213 519.76 56.4873 519.6C54.7017 519.505 52.9171 519.393 51.1335 519.264C47.8935 519.027 44.6443 518.752 41.432 518.257C38.2127 517.761 35.0817 516.811 33.3863 513.801C31.9452 511.243 31.6932 508.154 31.5964 505.278C31.4839 501.932 31.5081 498.579 31.5278 495.232C31.5702 488.073 31.7487 480.916 31.8783 473.758C32.1459 458.981 31.7415 444.218 31.6155 429.443C31.4849 414.132 31.5818 398.813 32.3127 383.516C32.973 368.135 34.4954 352.803 36.8725 337.592C38.0485 330.3 39.4821 323.056 41.1731 315.86C41.3869 314.956 39.9944 314.571 39.7802 315.476C36.1856 330.995 33.6877 346.748 32.3049 362.618C30.8464 378.527 30.2865 394.506 30.1544 410.478C30.0233 426.329 30.4572 442.168 30.5666 458.017C30.6692 472.886 29.918 487.749 30.1009 502.618C30.169 508.153 30.2723 515.398 36.0125 518.237C38.8207 519.625 42.1509 519.853 45.223 520.184C48.7757 520.567 52.3428 520.817 55.9102 521.013C57.7388 521.113 59.5814 521.255 61.4132 521.265C63.1089 521.323 64.7001 520.447 65.5573 518.982C66.4145 517.518 66.3997 515.702 65.5188 514.252C64.7067 512.95 63.3459 512.064 62.4727 510.789C61.3883 509.205 61.1582 507.445 61.1324 505.566C61.0762 501.463 61.2177 497.354 61.3341 493.252C61.8016 476.799 62.5687 460.353 63.2909 443.91C64.0202 427.298 64.7849 410.688 65.3993 394.072C65.5488 390.028 65.7611 386.003 66.1011 381.97C66.3661 378.826 67.0847 375.671 67.1237 372.516C67.1523 370.196 66.5109 366.183 63.5958 365.854C61.6344 365.633 60.1677 367.267 59.5425 368.956C58.904 370.68 58.9392 372.992 60.4577 374.259C61.604 375.215 62.9891 374.874 64.3097 375.286C65.9844 375.81 66.1981 377.698 66.3865 379.186C66.8739 383.034 67.3434 386.869 67.9177 390.709C68.5273 394.784 69.1258 398.861 69.6661 402.947C71.8036 419.111 72.7987 435.403 73.86 451.666C74.3114 458.584 74.7799 465.502 75.2088 472.422C75.8285 482.42 76.4126 492.423 76.8216 502.433C76.9861 506.456 77.1352 510.483 77.1478 514.51C77.1554 516.926 77.8027 519.198 80.1127 520.399C81.2908 521.011 82.4729 521.037 83.7659 521.002C85.0854 520.966 86.4065 520.987 87.7258 521.023C93.2961 521.173 98.8911 521.724 104.463 521.388C106.575 521.261 108.811 521.101 110.807 520.346C112.233 519.807 114.027 518.508 113.32 516.72C113.065 516.075 112.34 515.612 111.818 515.201C110.982 514.543 110.123 513.916 109.268 513.282C108.564 512.842 107.951 512.272 107.46 511.602C106.727 510.408 106.445 508.99 106.666 507.606C106.843 506.039 107.176 504.5 107.306 502.925C107.468 500.951 107.61 498.975 107.732 496.998C107.982 493.025 108.168 489.048 108.29 485.068C108.802 468.866 108.376 452.649 107.661 436.46C107.308 428.466 106.882 420.476 106.458 412.486C106.047 404.731 105.641 396.983 104.873 389.253C103.434 374.06 100.725 359.013 96.7726 344.272C94.7849 336.964 92.4158 329.766 89.675 322.706C88.3007 319.179 86.8278 315.692 85.2562 312.246C84.2118 309.958 83.093 306.997 80.545 306.023C79.1568 305.492 77.3126 305.158 75.8615 305.614C74.0201 306.191 74.3131 307.963 75.2232 309.261C75.753 310.016 77.0059 309.295 76.4704 308.532Z" fill="#A3A9B6"/>
<path d="M47.9189 288.017C47.3426 289.053 48.1764 290.155 49.2541 290.321C50.5387 290.517 51.3071 289.258 51.1258 288.106C50.922 286.81 49.8227 286.059 48.6271 285.748C47.307 285.449 45.9678 285.242 44.6191 285.129C41.9751 284.827 39.1646 284.755 36.6263 285.677C34.184 286.594 32.1747 288.395 30.9957 290.722C29.6789 293.192 29.0321 295.962 28.362 298.659C27.5673 301.858 26.8518 305.08 26.3263 308.336C25.3363 314.466 25.0134 320.734 26.1133 326.873C27.2233 333.069 29.7978 339.056 34.1057 343.704C34.7389 344.387 35.7585 343.364 35.127 342.683C28.0992 335.1 26.2492 324.298 27.0389 314.309C27.4943 308.549 28.7565 302.885 30.1956 297.301C30.7608 295.108 31.3792 292.882 32.542 290.919C33.6634 288.947 35.5079 287.488 37.6856 286.851C40.2249 286.12 42.9612 286.335 45.5448 286.689C46.2127 286.781 46.8811 286.879 47.5451 286.995C48.1851 287.046 48.7995 287.269 49.3231 287.64C49.5584 287.851 49.9586 288.548 49.6201 288.838C49.5266 288.919 49.4809 288.907 49.3678 288.871C49.1856 288.814 49.1865 288.71 49.1662 288.746C49.6183 287.933 48.3714 287.204 47.9189 288.017Z" fill="#A3A9B6"/>
<path d="M279.411 286.649C280.922 278.234 285.297 270.794 288.477 262.968C290.122 258.918 291.43 254.407 290.446 250.026C289.606 246.288 287.028 243.335 283.825 241.358C280.747 239.448 277.241 238.338 273.624 238.128C270.677 237.96 267.786 238.988 265.607 240.98C263.461 242.949 262.03 245.592 260.736 248.163C260.047 249.533 259.391 250.92 258.692 252.286C258.244 253.029 257.86 253.808 257.542 254.615C257.382 255.113 257.374 255.647 257.519 256.15C257.709 256.614 257.874 257.089 258.014 257.571C258.309 259.2 257.369 260.882 256.859 262.376C256.303 264.009 256.059 265.771 257.008 267.313C257.829 268.645 259.422 269.535 259.99 271.012C260.405 272.093 259.853 273.27 259.499 274.291L257.066 281.302C256.761 282.182 258.156 282.56 258.459 281.686L260.817 274.891C261.181 273.841 261.651 272.739 261.576 271.604C261.504 270.771 261.184 269.979 260.659 269.329C259.737 268.121 258.171 267.153 257.849 265.582C257.528 264.018 258.411 262.374 258.917 260.941C259.496 259.3 259.709 257.785 259.05 256.139C258.816 255.655 258.833 255.087 259.096 254.618C259.276 254.244 259.488 253.885 259.68 253.517C260.019 252.868 260.346 252.213 260.67 251.556C261.942 248.975 263.147 246.314 264.86 243.985C266.405 241.884 268.466 240.249 271.066 239.737C274.25 239.11 277.822 240.059 280.727 241.357C283.863 242.759 286.776 244.949 288.28 248.115C290.149 252.048 289.258 256.581 287.874 260.51C286.53 264.327 284.659 267.944 283.019 271.637C281.25 275.434 279.79 279.367 278.653 283.398C278.405 284.345 278.193 285.301 278.018 286.265C277.855 287.174 279.246 287.564 279.411 286.649Z" fill="#A3A9B6"/>
<path d="M251.927 309.261C252.859 307.932 253.112 306.142 251.223 305.593C249.7 305.15 247.747 305.516 246.322 306.14C243.749 307.266 242.634 310.604 241.57 312.96C240.012 316.41 238.553 319.902 237.193 323.437C231.786 337.681 227.781 352.419 225.237 367.441C222.601 382.565 221.473 397.79 220.66 413.102C219.802 429.27 218.945 445.443 218.704 461.634C218.583 469.72 218.616 477.811 218.888 485.894C219.021 489.871 219.216 493.845 219.472 497.817C219.6 499.771 219.715 501.732 219.911 503.681C220.057 505.131 220.413 506.557 220.524 508.009C220.685 509.441 220.285 510.879 219.407 512.02C218.848 512.603 218.219 513.113 217.534 513.54C216.689 514.166 215.839 514.787 215.022 515.449C214.515 515.859 213.929 516.275 213.771 516.94C212.783 521.076 220.678 521.278 223.06 521.41C228.705 521.722 234.373 521.134 240.017 521.008C242.449 520.954 245.377 521.549 247.512 520.117C249.631 518.695 249.992 516.545 250.005 514.181C250.055 505.047 250.594 495.907 251.097 486.789C251.585 477.946 252.127 469.107 252.722 460.27C253.464 449.063 254.142 437.85 255.045 426.654C255.705 418.489 256.495 410.336 257.583 402.215C258.135 398.096 258.743 393.984 259.359 389.873C259.655 387.903 259.974 385.935 260.244 383.961C260.504 382.052 260.585 380.118 260.905 378.217C261.166 376.662 261.778 375.377 263.487 375.165C264.754 375.008 266.022 374.999 266.964 374.011C268.325 372.585 268.196 370.272 267.457 368.584C266.729 366.92 265.063 365.403 263.119 365.932C260.309 366.696 259.933 370.8 260.048 373.155C260.154 374.659 260.335 376.158 260.591 377.644C260.849 379.355 260.975 381.073 261.12 382.796C261.459 386.837 261.632 390.873 261.784 394.925C262.094 403.24 262.435 411.555 262.807 419.867C263.521 436.401 264.279 452.933 264.954 469.469C265.289 477.676 265.614 485.883 265.841 494.094C265.951 498.094 266.132 502.119 266.007 506.12C266.035 507.996 265.43 509.827 264.291 511.317C263.38 512.463 262.039 513.337 261.402 514.679C260.487 516.688 261.096 519.063 262.864 520.385C263.892 521.146 265.051 521.292 266.295 521.244C268.137 521.172 269.978 521.085 271.818 520.981C275.414 520.776 279.01 520.517 282.59 520.111C285.656 519.763 289.036 519.518 291.745 517.908C297.158 514.691 297.003 507.396 297.058 501.895C297.133 494.465 296.977 487.034 296.83 479.605C296.684 472.228 296.526 464.849 296.589 457.47C296.656 449.57 296.85 441.671 296.937 433.771C297.116 417.704 297.086 401.626 296.377 385.571C295.753 369.714 294.236 353.906 291.833 338.22C290.626 330.587 289.139 323.006 287.371 315.477C287.157 314.572 285.764 314.955 285.978 315.861C289.458 330.852 291.9 346.065 293.288 361.393C294.728 376.612 295.334 391.898 295.519 407.181C295.705 422.564 295.464 437.948 295.203 453.329C294.961 467.551 295.564 481.764 295.627 495.985C295.642 499.285 295.681 502.6 295.53 505.898C295.399 508.757 295.061 511.842 293.464 514.298C291.581 517.195 288.226 517.903 285.027 518.359C281.79 518.82 278.523 519.09 275.262 519.318C273.475 519.444 271.686 519.55 269.896 519.639C268.351 519.717 266.592 520.024 265.061 519.782C262.532 519.381 261.606 516.229 263.324 514.429C264.385 513.318 265.504 512.301 266.281 510.954C267.02 509.58 267.416 508.049 267.437 506.489C267.622 502.653 267.412 498.771 267.308 494.935C266.883 479.199 266.161 463.47 265.473 447.743C264.777 431.844 264.05 415.946 263.425 400.044C263.133 392.62 263.135 385.081 262.052 377.717C261.637 374.892 260.812 371.457 262.153 368.758C263.546 365.953 265.909 367.835 266.429 370.03C266.678 370.893 266.598 371.817 266.205 372.624C265.485 373.874 263.941 373.558 262.729 373.824C259.77 374.476 259.475 377.663 259.21 380.159C258.394 387.852 257.024 395.483 256.014 403.154C253.984 418.566 252.993 434.094 251.982 449.599C251.536 456.428 251.074 463.255 250.644 470.085C250.044 479.627 249.481 489.172 249.046 498.723C248.854 502.947 248.681 507.173 248.598 511.401C248.581 512.244 248.569 513.087 248.562 513.93C248.555 514.89 248.652 515.898 248.336 516.819C247.861 518.181 246.713 519.198 245.304 519.505C244.127 519.755 242.777 519.534 241.575 519.541C235.951 519.572 230.332 520.156 224.707 520.033C222.713 520.023 220.724 519.846 218.76 519.503C217.772 519.367 216.817 519.051 215.943 518.57C215.637 518.409 215.387 518.16 215.224 517.855C215.174 517.729 215.151 517.593 215.154 517.457C215.154 517.361 215.267 517.093 215.189 517.227C215.568 516.584 216.588 516.037 217.167 515.602C217.949 515.014 218.744 514.442 219.52 513.847C221.178 512.542 222.099 510.514 221.992 508.407C221.881 507.091 221.7 505.783 221.452 504.486C221.191 502.621 221.114 500.718 220.985 498.84C220.723 495.009 220.522 491.175 220.383 487.337C219.811 471.906 220.118 456.456 220.741 441.032C221.053 433.296 221.446 425.564 221.854 417.833C222.25 410.328 222.572 402.815 223.177 395.323C224.3 380.687 226.555 366.159 229.921 351.871C231.627 344.76 233.653 337.723 236.037 330.809C238.399 323.957 240.958 316.976 244.297 310.53C244.868 309.428 245.595 308.141 246.73 307.534C247.381 307.226 248.078 307.029 248.794 306.952C249.417 306.862 250.386 306.713 250.971 307.027C251.608 307.369 250.982 308.101 250.68 308.531C250.145 309.294 251.397 310.017 251.927 309.261Z" fill="#A3A9B6"/>
<path d="M257.066 281.302C256.573 282.569 256.204 283.882 255.964 285.221C255.876 285.835 255.79 286.628 256.301 287.091C257.354 288.047 258.677 286.308 259.223 285.575C259.828 284.764 260.809 283.44 260.415 282.37C259.864 280.871 258.21 280.278 256.823 279.824C254.887 279.191 252.939 278.577 250.948 278.139C247.223 277.32 243.325 277.165 239.751 278.674C236.785 279.927 234.337 282.114 232.3 284.569C230.14 287.173 228.38 290.066 226.616 292.944L209.827 320.327C208.919 321.808 207.793 323.37 207.71 325.171C207.677 325.957 207.94 326.727 208.446 327.328C208.63 327.511 208.898 327.582 209.149 327.514C210.242 327.32 211.188 326.639 211.72 325.664C211.831 325.47 211.846 325.236 211.762 325.029C211.678 324.822 211.503 324.665 211.288 324.603L196.455 321.963C191.989 321.168 187.409 320.574 183.065 319.234C180.999 318.627 179.03 317.726 177.22 316.559C175.642 315.513 174.242 314.231 172.771 313.046C171.342 311.814 169.73 310.811 167.993 310.074C166.213 309.387 164.018 309.11 162.29 310.092C160.534 311.091 159.747 313.489 161.08 315.143C161.654 315.763 162.311 316.303 163.032 316.746C163.448 317.043 164.19 317.508 164.088 318.117L164.42 317.685C162.669 318.881 160.562 318.528 158.77 317.598C157.799 317.089 156.902 316.452 156.103 315.702C155.298 314.952 154.65 314.052 153.838 313.312C153.118 312.584 152.166 312.132 151.147 312.033C150.204 311.96 149.284 312.342 148.668 313.059C147.941 313.987 148.166 315.195 148.43 316.254C148.689 317.279 149.071 318.269 149.566 319.203C150.726 321.391 152.469 323.216 154.602 324.474C155.181 324.815 156.048 324.085 155.591 323.486C154.291 321.785 152.991 320.084 151.691 318.383C150.722 317.117 149.417 315.756 147.668 316.441C146.026 317.085 145.366 318.858 145.611 320.508C145.871 322.263 146.905 323.909 148.011 325.26C149.269 326.789 150.853 328.019 152.646 328.86V327.613C152.344 327.791 151.911 327.374 151.677 327.205C151.296 326.891 150.876 326.628 150.428 326.42C149.565 326.113 148.608 326.22 147.835 326.711C145.977 327.831 145.737 330.122 146.721 331.921C147.826 333.944 150.039 334.842 152.114 335.527C154.691 336.378 157.275 337.208 159.855 338.049L190.958 348.178C200.161 351.175 210.452 355.104 220.16 352.058C228.377 349.48 233.884 342.265 237.807 334.974C241.915 327.34 244.41 318.71 249.759 311.781C250.4 310.952 251.086 310.16 251.815 309.407C252.46 308.738 251.44 307.715 250.793 308.386C244.891 314.501 242.096 322.782 238.536 330.318C235.167 337.452 230.77 344.954 223.697 348.956C215.183 353.774 205.185 351.224 196.453 348.444C186.523 345.283 176.632 341.995 166.723 338.767C161.795 337.162 156.828 335.645 151.933 333.944C150.088 333.303 147.719 332.159 147.57 329.912C147.494 329.042 147.97 328.218 148.761 327.849C149.642 327.439 150.252 327.947 150.948 328.452C151.681 328.984 152.52 329.364 153.374 328.86C153.593 328.728 153.727 328.491 153.727 328.236C153.727 327.981 153.593 327.744 153.374 327.612C151.72 326.841 150.256 325.713 149.089 324.309C148.029 323.031 146.746 321.085 147.018 319.339C147.111 318.546 147.687 317.895 148.463 317.706C149.247 317.599 149.846 318.355 150.279 318.899C151.667 320.642 152.989 322.443 154.343 324.215L155.331 323.226C152.847 321.762 150.976 319.448 150.065 316.712C149.724 315.671 149.045 313.81 150.609 313.507C151.976 313.243 153.01 314.471 153.813 315.384C155.642 317.463 158.028 319.378 160.847 319.815C162.171 320.055 163.538 319.838 164.724 319.201C165.276 318.993 165.611 318.43 165.53 317.846C165.473 317.29 165.226 316.77 164.83 316.375C164.109 315.598 163.095 315.168 162.356 314.412C161.459 313.493 161.85 312.103 162.861 311.434C164.084 310.625 165.726 310.849 167.045 311.268C168.394 311.742 169.656 312.434 170.781 313.317C173.104 315.031 175.143 317.106 177.676 318.531C180.455 320.093 183.554 320.98 186.656 321.634C190.531 322.451 194.454 323.067 198.352 323.761L210.904 325.996L210.472 324.935C210.125 325.58 209.49 326.021 208.764 326.121L209.467 326.307C208.58 325.193 209.627 323.429 210.228 322.436C211.226 320.788 212.241 319.152 213.248 317.511L225.387 297.712C227.188 294.774 228.931 291.788 230.856 288.927C234.179 283.991 238.566 279.277 244.9 278.97C248.529 278.794 252.089 279.82 255.51 280.917C256.803 281.331 258.368 281.632 259.077 282.9C259.136 283.007 258.97 282.755 259.067 282.911C259.036 282.861 259.11 282.732 259.069 282.867C259.054 282.915 259.045 282.965 259.03 283.013C259.01 283.072 258.928 283.292 258.954 283.231C258.972 283.188 258.857 283.437 258.819 283.511C258.561 284.01 258.258 284.485 257.914 284.929C257.965 284.862 257.777 285.096 257.731 285.151C257.642 285.255 257.55 285.358 257.455 285.457C257.374 285.541 257.29 285.62 257.206 285.701C257.168 285.737 257.126 285.771 257.085 285.805C257.075 285.814 257.178 285.749 257.058 285.824C256.99 285.866 256.905 285.901 256.843 285.948C256.91 285.897 256.989 285.915 256.885 285.92C256.956 285.911 257.028 285.913 257.098 285.926C257.185 285.979 257.266 286.04 257.34 286.109C257.265 286.051 257.445 286.198 257.359 286.148C257.301 286.115 257.342 286.064 257.349 286.135C257.345 285.348 257.485 284.566 257.762 283.829C257.969 283.107 258.209 282.395 258.458 281.687C258.767 280.809 257.372 280.431 257.065 281.303L257.066 281.302Z" fill="#A3A9B6"/>
<path d="M98.1318 352.636C101.821 352.407 105.489 351.925 109.112 351.193C112.367 350.487 115.54 349.446 118.581 348.088C122.099 346.525 125.614 344.722 128.649 342.334C130.16 341.157 131.501 339.776 132.634 338.231C133.169 337.497 133.641 336.719 134.044 335.906C134.413 335.156 134.921 334.242 134.897 333.385C134.866 332.487 134.304 331.692 133.467 331.363C132.51 330.989 131.647 331.44 130.784 331.844C128.767 332.799 126.871 333.991 125.135 335.394C124.488 335.911 125.32 336.943 126.01 336.528C129.15 334.641 131.802 332.043 133.754 328.943C134.197 328.235 134.492 327.389 134.059 326.598C133.723 326.05 133.149 325.69 132.509 325.628C130.847 325.377 129.16 326.266 127.687 326.912C125.582 327.839 123.57 328.963 121.678 330.27C121.349 330.478 121.243 330.909 121.44 331.246C121.636 331.582 122.064 331.702 122.407 331.517C125.657 329.777 128.341 327.142 130.141 323.925C130.593 323.111 131.128 322.214 131.046 321.25C131.003 320.524 130.595 319.87 129.963 319.51C129.339 319.197 128.627 319.105 127.943 319.249C127.107 319.39 126.423 320 125.593 320.102C124.682 320.214 124.671 321.66 125.593 321.547C126.392 321.448 126.969 321.08 127.704 320.804C128.154 320.607 128.66 320.574 129.132 320.713C130.431 321.208 128.759 323.469 128.337 324.131C126.68 326.714 124.387 328.828 121.678 330.27L122.407 331.517C124.185 330.29 126.068 329.223 128.034 328.33C128.999 327.865 129.997 327.473 131.02 327.158C131.44 327.04 132.417 326.824 132.755 327.233C133.148 327.708 132.042 328.933 131.772 329.312C131.203 330.106 130.58 330.86 129.906 331.568C128.539 333.009 126.983 334.257 125.281 335.28L126.156 336.414C127.539 335.311 129.028 334.348 130.602 333.539C130.993 333.338 131.389 333.146 131.79 332.963C132.092 332.766 132.445 332.662 132.805 332.663C133.582 332.8 133.469 333.567 133.264 334.109C132.043 337.335 129.557 339.958 126.79 341.936C123.934 343.901 120.884 345.569 117.688 346.912C114.966 348.107 112.135 349.036 109.234 349.689C105.576 350.462 101.865 350.965 98.1319 351.192C97.2106 351.26 97.2031 352.706 98.1318 352.636Z" fill="#A3A9B6"/>
<path d="M277.935 287.623C277.601 287.536 277.507 287.187 277.526 286.868C277.602 286.397 277.915 285.997 278.355 285.811C279.408 285.219 280.782 285.025 281.959 284.838C284.593 284.418 287.46 284.54 289.867 285.79C294.226 288.053 296.199 293.061 297.109 297.616C298.274 303.451 297.891 309.453 297.764 315.361C297.7 318.327 297.719 321.286 297.933 324.247C298.152 327.28 298.485 330.309 298.482 333.353C298.477 338.724 297.173 344.827 292.56 348.169C291.814 348.709 292.535 349.963 293.289 349.416C297.669 346.243 299.513 340.844 299.855 335.627C300.074 332.285 299.749 328.942 299.482 325.614C299.221 322.276 299.128 318.928 299.204 315.582C299.337 309.142 299.752 302.604 298.295 296.27C297.131 291.211 294.478 285.951 289.355 283.991C286.226 282.793 282.686 283.058 279.5 283.878C278.209 284.21 276.66 284.759 276.202 286.159C275.832 287.293 276.328 288.696 277.551 289.016C278.451 289.251 278.835 287.858 277.935 287.623Z" fill="#A3A9B6"/>
<path d="M220.901 303.01C219.727 301.731 218.944 300.142 218.645 298.431C218.513 297.64 218.502 296.678 218.993 295.998C219.358 295.423 220.065 295.168 220.712 295.377L220.208 294.873L220.232 294.997L220.305 294.44C220.77 294.456 220.888 294.382 220.66 294.218C220.57 294.131 220.478 294.047 220.382 293.967C220.194 293.807 219.995 293.656 219.792 293.514C219.43 293.268 219.056 293.04 218.67 292.833C217.902 292.448 217.174 291.989 216.496 291.462C215.15 290.362 214.212 288.843 213.83 287.147C213.745 286.841 213.755 286.517 213.858 286.217C214.04 285.873 214.411 285.976 214.732 286.068C215.768 286.363 216.781 286.784 217.796 287.144L220.943 288.257C221.424 288.427 221.916 288.581 222.39 288.771C222.714 288.901 223.099 289.047 223.189 289.414L224.396 288.712C223.978 288.214 224.387 287.404 224.877 287.133C225.669 286.696 226.635 287.135 227.283 287.624C227.477 287.736 227.711 287.753 227.919 287.668C228.126 287.584 228.283 287.408 228.344 287.193C228.462 286.349 229.016 285.631 229.802 285.302C230.587 284.973 231.488 285.083 232.172 285.59C232.938 286.12 233.661 284.868 232.901 284.343C231.828 283.612 230.459 283.471 229.26 283.968C228.06 284.465 227.192 285.533 226.951 286.809L228.012 286.377C226.822 285.478 224.992 285.122 223.764 286.156C222.67 287.037 222.496 288.637 223.375 289.733C223.863 290.314 224.742 289.683 224.582 289.03C224.221 287.556 222.325 287.218 221.11 286.788L216.118 285.021C214.889 284.586 213.242 284.085 212.557 285.611C212.032 286.778 212.541 288.161 213.035 289.248C213.603 290.492 214.435 291.596 215.474 292.484C216.572 293.416 217.898 293.937 219.063 294.761C219.546 295.104 219.966 295.738 220.614 295.751C221.36 295.767 221.963 294.882 221.471 294.243C221.096 293.757 220.188 293.782 219.651 293.907C219.011 294.064 218.436 294.419 218.008 294.92C216.889 296.236 217.014 298.113 217.445 299.675C217.904 301.298 218.737 302.79 219.879 304.032C220.505 304.722 221.525 303.698 220.901 303.01Z" fill="#A3A9B6"/>
<path d="M58.8201 238.459C59.0549 239.758 59.0519 241.09 58.8114 242.388C58.5326 243.652 58.0864 244.873 57.4845 246.019C56.8927 247.104 56.5988 248.327 56.6327 249.562C56.7852 250.922 57.1534 252.248 57.7233 253.492L58.7842 252.677C57.4257 251.734 55.7832 250.766 54.061 251.053C52.6368 251.32 51.545 252.471 51.3535 253.908C51.1365 255.31 51.4961 256.74 52.3505 257.873C53.3679 259.239 54.7866 260.16 56.093 261.219C58.707 263.387 60.5765 266.32 61.4392 269.605C62.4003 273.098 62.0867 276.72 62.3633 280.293C62.4581 282.083 62.8251 283.848 63.4514 285.528C64.0638 286.972 64.7885 288.365 65.6189 289.696C67.1471 292.251 68.8807 294.704 70.1077 297.428C71.4111 300.2 71.811 303.311 71.2511 306.322C70.7073 309.164 68.9547 311.63 66.4491 313.077C63.3095 314.861 59.4263 314.703 55.9326 314.75C51.7914 314.805 47.6548 315.014 43.512 315.042C42.4747 315.049 41.4374 315.051 40.4001 315.048L41.0966 315.962C41.728 313.736 42.0513 311.441 42.5627 309.187C42.7677 308.284 41.4014 307.899 41.1699 308.803C40.6525 310.825 38.7342 312.54 36.8877 313.373C34.5305 314.437 31.6206 313.658 29.3908 312.629C28.1854 312.136 27.0953 311.399 26.1891 310.463C25.4467 309.584 24.9402 308.531 24.7173 307.402C24.1762 304.945 24.7725 302.435 25.7152 300.156C26.7381 297.683 28.1291 295.375 29.2539 292.947C30.3484 290.586 31.3163 288.164 32.1712 285.706C33.8917 280.7 35.2057 275.563 36.1006 270.346C37.111 264.578 37.683 258.741 37.8116 252.886C37.832 251.956 36.3875 251.956 36.3672 252.886C36.1255 263.933 34.3717 275.063 30.7131 285.509C29.8155 288.091 28.7752 290.621 27.5969 293.087C26.3585 295.664 24.8621 298.132 23.9145 300.84C23.0821 303.219 22.7561 305.836 23.4519 308.294C24.2057 310.956 26.1175 312.686 28.5663 313.832C31.2725 315.099 34.6113 315.949 37.4729 314.685C39.7062 313.699 41.9419 311.613 42.5627 309.187L41.1699 308.803C40.6586 311.057 40.3351 313.352 39.7037 315.578C39.6469 315.795 39.6932 316.026 39.8292 316.205C39.9652 316.383 40.1757 316.489 40.4001 316.492C44.5493 316.504 48.6976 316.434 52.8448 316.281C56.6829 316.137 60.7033 316.446 64.4493 315.442C67.2581 314.692 69.673 312.895 71.1975 310.42C72.806 307.781 73.2276 304.514 72.8053 301.488C71.9717 295.515 67.579 290.966 65.0843 285.679C63.518 282.359 63.7545 278.583 63.6173 275.01C63.4841 271.538 62.8504 268.162 61.1633 265.089C60.3649 263.624 59.3526 262.286 58.1596 261.119C56.9709 259.967 55.5417 259.104 54.3485 257.959C53.3285 256.98 52.5603 255.735 52.7514 254.267C52.9573 252.685 54.3476 252.171 55.7595 252.648C56.5805 252.964 57.3534 253.393 58.0555 253.923C58.5468 254.264 59.3508 253.688 59.1165 253.108C58.6225 251.884 58.0806 250.592 58.0639 249.252C58.0474 247.932 58.7157 246.841 59.2515 245.681C60.3486 243.306 60.6843 240.649 60.2128 238.075C60.0497 237.161 58.6575 237.548 58.8201 238.459Z" fill="#A3A9B6"/>
<path d="M269.004 236.023C266.638 238.741 266.707 242.808 269.165 245.444C270.473 246.792 272.291 247.702 272.83 249.632C273.359 251.523 272.805 253.565 272.274 255.392L273.667 255.776C273.974 254.697 274.877 253.893 275.984 253.713C277.17 253.488 278.359 254.095 278.871 255.188C279.476 256.484 279.459 257.985 278.824 259.267C278.519 259.958 277.001 262.899 275.966 262.147C275.742 262.02 275.468 262.021 275.245 262.149C275.022 262.277 274.883 262.514 274.88 262.771C274.819 267.266 278.568 271.253 283.028 271.562C283.956 271.627 283.952 270.182 283.028 270.118C279.341 269.862 276.274 266.443 276.324 262.771L275.237 263.395C276.69 264.449 278.229 262.85 279.028 261.754C280.081 260.42 280.688 258.789 280.765 257.092C280.798 255.572 280.159 254.114 279.019 253.109C277.961 252.261 276.549 251.997 275.256 252.407C273.809 252.812 272.678 253.944 272.274 255.392C272.184 255.771 272.41 256.153 272.786 256.256C273.161 256.36 273.551 256.147 273.667 255.776C274.185 253.991 274.646 252.1 274.412 250.231C274.162 248.244 273.06 246.886 271.565 245.643C270.197 244.506 269.066 243.389 268.771 241.56C268.502 239.944 268.961 238.29 270.025 237.044C270.641 236.351 269.623 235.326 269.004 236.023Z" fill="#A3A9B6"/>
<path d="M31.2089 506.622C34.8732 506.5 38.5086 505.929 42.0339 504.922C43.7483 504.451 45.4252 503.853 47.0507 503.133C48.3227 502.551 49.5305 501.488 49.4211 499.962C49.3069 498.366 47.8283 497.568 46.3751 498.115C45.0133 498.627 43.4229 499.736 42.959 501.174C42.4577 502.728 43.172 504.415 44.3022 505.495C45.5327 506.562 46.979 507.352 48.5424 507.811C52.2451 509.062 56.2632 508.999 60.0983 508.539C61.0098 508.429 61.0208 506.983 60.0983 507.094C57.266 507.508 54.3884 507.504 51.5572 507.083C50.1599 506.852 48.799 506.44 47.5089 505.856C46.3749 505.326 45.1404 504.635 44.5541 503.472C44.2699 502.939 44.181 502.323 44.3029 501.73C44.5043 501.118 44.9246 500.601 45.4834 500.278C46.0582 499.875 47.954 498.586 47.9833 500.108C48.0065 501.326 46.4495 501.852 45.5319 502.212C40.9612 504.009 36.1172 505.012 31.2089 505.177C30.282 505.21 30.2777 506.654 31.2089 506.622Z" fill="#A3A9B6"/>
<path d="M78.1187 509.709C81.9856 510.378 85.9587 511.058 89.8703 510.339C92.9803 509.768 96.0037 508.234 97.9048 505.651C98.6259 504.671 99.3813 502.978 98.2851 501.963C97.1033 500.869 95.1685 501.978 94.2685 502.917C93.1714 504.079 92.4465 505.544 92.1867 507.121C91.9618 508.807 93.1614 510.009 94.5579 510.727C98.2114 512.555 102.443 512.852 106.316 511.551C107.192 511.256 106.816 509.86 105.932 510.158C103.138 511.103 100.119 511.147 97.2989 510.284C96.1492 509.93 94.6164 509.434 93.8781 508.408C93.1408 507.385 94.0301 505.785 94.5963 504.857C94.873 504.383 95.2276 503.959 95.6453 503.603C95.9114 503.385 96.9436 502.692 97.3097 503.023C97.5179 503.212 97.3199 503.79 97.2274 504.011C96.9445 504.594 96.5644 505.124 96.1035 505.579C94.3523 507.46 91.8965 508.518 89.399 508.962C85.7885 509.604 82.0667 508.933 78.5025 508.316C77.5933 508.159 77.203 509.551 78.1187 509.709Z" fill="#A3A9B6"/>
<path d="M220.874 511.84C223.576 509.235 227.142 507.717 230.892 507.575C231.825 507.536 232.76 507.589 233.682 507.732C234.449 507.801 235.186 508.066 235.822 508.501C236.539 509.08 236.322 509.883 235.742 510.477C235.001 511.192 234.016 511.599 232.986 511.617L233.61 512.703C234.992 510.827 237.648 510.458 239.802 510.275C242.767 510.022 245.752 510.161 248.68 510.689C249.589 510.853 249.979 509.461 249.064 509.296C245.789 508.692 242.444 508.556 239.131 508.894C236.588 509.163 233.955 509.812 232.362 511.974C232.235 512.198 232.235 512.473 232.363 512.696C232.491 512.92 232.728 513.058 232.986 513.061C234.792 512.997 236.888 512.068 237.572 510.272C238.229 508.55 236.9 507.222 235.395 506.667C233.707 506.137 231.926 505.969 230.168 506.174C228.382 506.319 226.63 506.745 224.977 507.438C223.072 508.234 221.334 509.381 219.853 510.819C219.185 511.468 220.207 512.489 220.874 511.84Z" fill="#A3A9B6"/>
<path d="M266.696 509.892C269.767 508.492 272.619 506.48 275.914 505.617C277.338 505.219 278.83 505.124 280.293 505.338C281.621 505.561 283.122 506.119 283.995 507.203C284.598 507.953 283.827 508.633 283.22 509.082C282.495 509.607 281.656 509.951 280.772 510.087L281.588 511.148C282.114 510.321 283.147 510.043 284.039 509.804C285.286 509.469 286.55 509.199 287.824 508.99C290.385 508.578 292.981 508.425 295.573 508.531C296.503 508.566 296.501 507.122 295.573 507.086C292.704 506.978 289.832 507.174 287.004 507.671C285.673 507.89 284.357 508.193 283.065 508.579C281.964 508.843 280.997 509.497 280.34 510.419C279.971 510.999 280.579 511.576 281.156 511.48C282.801 511.203 284.874 510.191 285.534 508.547C286.267 506.721 284.238 505.247 282.796 504.598C279.34 503.043 275.499 503.95 272.212 505.474C270.093 506.457 268.093 507.676 265.967 508.645C265.122 509.03 265.855 510.275 266.696 509.892Z" fill="#A3A9B6"/>
<path d="M62.2653 251.092C62.2046 251.196 62.1543 251.305 62.1149 251.418C62.093 251.476 62.077 251.535 62.0674 251.595C62.044 251.713 62.0318 251.833 62.0308 251.954C62.0343 252.015 62.0411 252.077 62.051 252.138C62.0577 252.2 62.0675 252.261 62.0804 252.322C62.1378 252.499 62.2551 252.652 62.4123 252.753C62.4926 252.805 62.5853 252.835 62.6808 252.839C62.7763 252.86 62.8758 252.856 62.969 252.826L63.1415 252.753C63.2486 252.69 63.3378 252.601 63.4006 252.494L63.4734 252.322C63.5078 252.196 63.5078 252.063 63.4734 251.938C63.4665 251.909 63.461 251.88 63.4569 251.85L63.4827 252.042C63.4728 251.965 63.4728 251.887 63.4827 251.809L63.4569 252.001C63.4677 251.924 63.4883 251.849 63.5181 251.777L63.4452 251.949C63.4642 251.905 63.4867 251.862 63.5125 251.821C63.5644 251.741 63.594 251.648 63.5982 251.553C63.633 251.266 63.4985 250.986 63.2533 250.833L63.0809 250.761C62.9552 250.726 62.8226 250.726 62.6969 250.761L62.5244 250.833C62.4173 250.896 62.328 250.985 62.2653 251.092Z" fill="#A3A9B6"/>
<path d="M63.3771 259.523C63.5416 259.853 63.7644 260.151 64.035 260.403C64.1878 260.544 64.3526 260.672 64.5276 260.785C64.7115 260.898 64.9054 260.994 65.1069 261.071C65.2001 261.101 65.2996 261.105 65.395 261.084C65.4906 261.079 65.5833 261.05 65.6636 260.998C65.829 260.901 65.9493 260.743 65.9979 260.557C66.0464 260.372 66.0194 260.175 65.9227 260.01L65.8097 259.864C65.7214 259.775 65.6116 259.711 65.4911 259.678C65.4787 259.673 65.4664 259.667 65.4542 259.662L65.6267 259.735C65.437 259.653 65.258 259.548 65.0936 259.423L65.2398 259.536C65.0657 259.401 64.9092 259.245 64.7743 259.071L64.8873 259.217C64.7861 259.085 64.6981 258.943 64.6247 258.794C64.529 258.631 64.3744 258.512 64.1931 258.462C64.0052 258.412 63.8053 258.438 63.6366 258.534C63.4744 258.63 63.3554 258.785 63.3047 258.966L63.2789 259.158C63.2787 259.286 63.3123 259.412 63.3771 259.523Z" fill="#A3A9B6"/>
<path d="M267.166 249.841C267.168 249.887 267.166 249.933 267.16 249.978L267.185 249.786C267.175 249.857 267.156 249.927 267.128 249.994L267.201 249.821C267.193 249.841 267.183 249.861 267.173 249.88C267.121 249.96 267.092 250.053 267.088 250.148C267.053 250.435 267.187 250.715 267.432 250.868L267.605 250.941C267.731 250.975 267.863 250.975 267.989 250.941L268.161 250.868C268.269 250.805 268.358 250.716 268.421 250.609C268.464 250.523 268.502 250.435 268.534 250.344C268.547 250.31 268.557 250.276 268.565 250.241C268.585 250.145 268.599 250.047 268.607 249.949C268.611 249.913 268.612 249.877 268.611 249.841C268.6 249.447 268.283 249.13 267.888 249.119L267.696 249.145C267.576 249.178 267.466 249.242 267.378 249.331L267.265 249.477C267.2 249.588 267.166 249.713 267.166 249.841Z" fill="#A3A9B6"/>
<path d="M262.53 259.833C263.338 259.433 264.175 259.097 265.035 258.829C265.461 258.695 265.892 258.578 266.328 258.476C266.562 258.421 266.798 258.371 267.034 258.325C267.135 258.306 267.237 258.287 267.339 258.27C267.406 258.258 267.474 258.246 267.542 258.235C267.522 258.235 267.502 258.237 267.482 258.241L267.163 258.055C266.987 257.866 267.093 257.937 267.092 258.008C267.091 258.098 267.107 258.191 267.108 258.281C267.11 258.413 267.102 258.546 267.084 258.677C267.035 258.98 266.943 259.276 266.811 259.554C266.529 260.16 266.136 260.708 265.653 261.17C265.561 261.261 265.455 261.338 265.34 261.397C265.308 261.417 265.274 261.432 265.238 261.441C265.23 261.444 265.031 261.479 265.102 261.474C265.09 261.475 264.889 261.456 264.966 261.472C264.88 261.455 264.919 261.468 264.876 261.44C264.807 261.386 264.754 261.315 264.721 261.233C264.425 260.649 264.32 259.987 264.42 259.34C264.514 258.957 264.293 258.567 263.916 258.451C263.532 258.348 263.136 258.573 263.028 258.956C262.917 259.599 262.933 260.258 263.075 260.896C263.18 261.503 263.468 262.065 263.899 262.506C264.403 262.919 265.089 263.034 265.701 262.807C266.256 262.581 266.739 262.209 267.099 261.73C267.911 260.837 268.418 259.708 268.546 258.508C268.588 257.847 268.493 256.942 267.701 256.807C267.381 256.789 267.06 256.824 266.752 256.913C266.43 256.973 266.111 257.041 265.793 257.118C264.413 257.458 263.074 257.95 261.801 258.585C261.46 258.789 261.345 259.228 261.542 259.573C261.749 259.911 262.185 260.026 262.53 259.833Z" fill="#A3A9B6"/>
<path fill-rule="evenodd" clip-rule="evenodd" d="M89.3932 62.2947C87.9594 59.8698 87.9419 56.8608 89.3474 54.4193C90.7529 51.9779 93.3638 50.482 96.1808 50.5041C96.8867 50.4979 97.5928 50.5 98.2989 50.5021C98.6519 50.5031 99.0049 50.5041 99.3578 50.5041H239.638C239.728 50.5041 239.818 50.504 239.907 50.5039C241.514 50.5018 243.052 50.4998 244.587 51.1765C247.687 52.5865 249.534 55.8249 249.169 59.2111C249.009 60.3975 248.602 61.5371 247.973 62.5559L175.72 184.606C175.383 185.202 174.99 185.764 174.544 186.284C173.531 187.382 172.258 188.141 170.887 188.528C181.893 188.818 192.912 191.372 203.23 196.276C231.208 209.573 249.043 237.775 249.065 268.751L249.066 268.756C249.06 272.883 248.744 277.003 248.121 281.082C242.983 314.265 217.734 340.744 184.832 347.451C182.396 347.945 179.942 348.325 177.478 348.592C186.266 349.55 194.973 351.97 203.23 355.894C231.208 369.191 249.043 397.393 249.065 428.37V428.375C249.06 432.501 248.744 436.621 248.121 440.7C242.983 473.883 217.734 500.362 184.832 507.07C176.48 508.761 167.913 509.122 159.448 508.141C126.087 504.267 98.665 480.031 90.722 447.398C83.404 417.297 94.0518 385.67 118.085 366.124C130.34 356.156 144.962 350.236 160.06 348.591C159.856 348.569 159.652 348.546 159.448 348.523C126.087 344.649 98.665 320.413 90.722 287.78C83.404 257.679 94.0518 226.052 118.085 206.506C132.103 195.104 149.217 188.999 166.599 188.529C166.217 188.421 165.839 188.284 165.47 188.116C163.448 187.194 162.341 185.519 161.273 183.714L89.3932 62.2947ZM90.6404 61.5657L162.17 182.395C162.677 183.375 163.267 184.309 163.934 185.188C166.194 187.758 170.068 188.114 172.759 185.998C173.435 185.419 174.003 184.723 174.434 183.943L246.533 62.1524C246.571 62.088 246.61 62.0238 246.648 61.9596C246.726 61.8291 246.804 61.6986 246.88 61.567C248.56 58.678 247.751 54.9838 245.018 53.0611C243.393 51.9482 241.667 51.9482 239.829 51.9482L100.307 51.9482C99.0051 51.9463 97.7031 51.9463 96.4012 51.9482C95.1461 51.9141 93.9062 52.229 92.8195 52.8579C89.858 54.6937 88.8926 58.5514 90.6404 61.5657ZM247.621 268.756C247.629 302.029 226.752 331.727 195.44 342.983C164.129 354.239 129.122 344.631 107.944 318.969C97.5899 306.47 91.3668 291.069 90.1319 274.887C89.4884 266.541 90.1661 258.146 92.1401 250.012C99.9627 217.974 126.905 194.193 159.666 190.41C167.967 189.46 176.365 189.819 184.554 191.476C216.839 198.069 241.621 224.041 246.694 256.6C247.313 260.622 247.623 264.686 247.621 268.756ZM246.694 416.218C247.313 420.24 247.623 424.305 247.621 428.375C247.629 461.647 226.752 491.345 195.44 502.601C164.129 513.857 129.122 504.249 107.944 478.587C97.5899 466.089 91.3668 450.687 90.1319 434.505C89.4884 426.159 90.1661 417.764 92.1401 409.63C99.9627 377.592 126.905 353.812 159.666 350.028C167.967 349.078 176.365 349.438 184.554 351.094C216.839 357.687 241.621 383.659 246.694 416.218Z" fill="#7BA84F"/>
</svg>
