<svg width="323" height="572" viewBox="0 0 323 572" fill="none" xmlns="http://www.w3.org/2000/svg">
<path d="M106.336 117.322L105.355 117.601C105.159 117.652 104.95 117.625 104.774 117.525C104.605 117.426 104.481 117.264 104.428 117.075C104.396 116.978 104.392 116.874 104.414 116.775C104.418 116.675 104.449 116.578 104.504 116.494C104.605 116.327 104.766 116.203 104.954 116.148L105.936 115.869C106.132 115.818 106.34 115.845 106.516 115.945C106.685 116.045 106.809 116.206 106.862 116.395C106.894 116.492 106.898 116.596 106.876 116.695C106.872 116.795 106.841 116.892 106.787 116.976C106.685 117.143 106.525 117.267 106.336 117.322Z" fill="#7BA84F"/>
<path fill-rule="evenodd" clip-rule="evenodd" d="M139.804 96.4356C140.095 103.21 137.958 109.838 133.822 115.145C134.174 115.283 134.503 115.501 134.772 115.797C135.319 116.489 135.709 117.292 135.916 118.15C136.25 119.153 136.504 120.18 136.675 121.223C136.95 123.081 136.803 125.054 135.697 126.635C134.978 127.663 133.96 128.474 132.769 128.778C133.548 130.622 133.391 132.758 132.292 134.487C131.263 135.986 129.65 136.937 127.897 137.149C128.786 138.93 128.555 141.136 127.176 142.707C125.833 144.145 123.697 144.495 121.913 143.853C121.802 144.766 121.287 145.643 120.553 146.243C119.282 147.279 117.612 147.274 116.19 146.593C115.745 150.011 114.77 153.376 112.991 156.342C110.923 159.736 107.855 162.409 104.208 163.993C102.497 164.751 100.747 165.289 98.9734 165.639C99.2061 168.326 98.8889 171.035 98.0399 173.598C97.7356 174.515 96.2809 174.12 96.5866 173.197C97.3671 170.842 97.6725 168.358 97.4873 165.888C95.7319 166.132 93.9585 166.203 92.183 166.134C92.2576 170.005 91.6265 173.857 90.3191 177.504C89.9929 178.411 88.5373 178.018 88.8658 177.103C90.1429 173.558 90.7554 169.808 90.6739 166.043C86.7224 165.718 82.7816 164.743 79.0232 163.469C75.2044 162.175 71.4596 160.644 67.759 159.036C66.9715 159.888 66.1999 160.77 65.4257 161.656C62.0641 165.501 58.6524 169.403 53.6763 171.093C51.1265 171.96 47.7776 172.293 45.4506 170.651C44.0534 169.664 43.3052 167.856 43.6478 166.279C41.9403 166.442 40.2033 165.673 39.2036 164.137C38.1154 162.33 38.5937 159.869 40.0707 158.434C39.6926 158.207 39.3411 157.935 39.0242 157.623C37.6328 156.311 37.0965 154.328 37.6365 152.493C38.2253 150.928 39.4573 149.691 41.0198 149.095C44.9752 147.404 49.3161 148.846 53.0242 150.508C54.4263 151.137 55.8057 151.816 57.185 152.496L57.1862 152.496C58.0003 152.897 58.8144 153.298 59.6329 153.689C61.9089 154.777 64.2003 155.831 66.5071 156.852C66.7987 156.985 67.0907 157.117 67.3832 157.248C67.8399 156.768 68.3057 156.296 68.7844 155.835C70.5576 154.135 72.4492 152.564 74.4448 151.133C73.5029 150.821 72.6873 150.239 72.1701 149.293C71.7515 148.528 71.6138 147.563 71.7618 146.664C70.8568 147.01 69.9369 147.317 69.0047 147.585C66.6175 148.263 62.8344 149.304 61.0278 146.899C60.0582 145.608 60.3281 143.915 61.0263 142.566C61.3185 142.002 61.6953 141.496 62.0853 140.998C61.0364 141.429 59.9456 141.758 58.8281 141.977C55.929 142.537 51.665 142.771 49.6221 140.15C48.5347 138.754 48.5181 136.878 49.1714 135.289C49.5501 134.367 50.1255 133.575 50.7887 132.854C48.8402 133.18 46.8613 133.33 44.9213 132.896C42.9622 132.494 41.2136 131.399 39.9953 129.813C38.8713 128.252 38.5816 126.24 39.2194 124.425C39.385 123.951 39.6128 123.478 39.8951 123.033C37.9749 121.972 36.4002 120.199 35.1491 118.406C33.0633 115.416 31.1642 111.898 31.4888 108.131C31.5879 106.394 32.2417 104.735 33.354 103.398C33.9177 102.713 34.7527 102.308 35.6395 102.291C36.4293 102.309 37.2156 102.618 37.9645 102.913C38.144 102.984 38.3215 103.054 38.4963 103.119C42.3346 104.541 46.0683 106.232 49.6699 108.177C52.584 109.751 55.4289 111.454 58.2721 113.155C59.0424 113.616 59.8132 114.077 60.5846 114.535C64.2469 116.708 67.9084 118.883 71.569 121.06C78.9062 125.422 86.2157 129.832 93.353 134.517C93.6937 134.741 94.0395 134.962 94.3865 135.183C94.9705 135.556 95.5582 135.931 96.13 136.325L96.7401 127.05C96.7703 126.592 96.7984 126.133 96.8265 125.675L96.8267 125.672C96.8926 124.597 96.9586 123.522 97.0504 122.45C97.1222 121.022 97.447 119.618 98.0099 118.304C98.9995 116.189 100.936 114.693 102.949 113.615C104.009 113.063 105.097 112.568 106.209 112.132C107.466 111.538 108.809 111.144 110.188 110.965C111.434 110.842 112.672 111.277 113.567 112.153C114.4 112.939 114.731 114.12 114.426 115.224C114.327 115.542 114.032 115.759 113.699 115.759C113.37 115.759 113.079 115.547 112.976 115.236C112.989 115.295 112.897 115.316 112.8 115.338C112.733 115.354 112.664 115.37 112.624 115.399C112.325 115.612 112.392 116.04 112.467 116.357C112.619 117.004 112.89 117.63 113.159 118.255C113.34 118.675 113.521 119.093 113.665 119.517C114.028 120.594 114.334 121.69 114.58 122.8C114.953 124.542 115.249 126.299 115.468 128.066C116.441 123.368 117.851 118.767 119.682 114.324C121.849 108.966 124.303 103.73 127.035 98.6373C128.221 96.2561 129.705 94.0356 131.452 92.0291C132.913 90.436 135.704 87.8134 137.95 89.5993C138.889 90.3463 139.165 91.5835 139.372 92.7047C139.601 93.937 139.745 95.1836 139.804 96.4356ZM116.08 133.285C117.44 122.443 121.819 112.262 126.698 102.585C127.79 100.303 129.007 98.084 130.344 95.9368C130.989 94.9313 131.716 93.9806 132.517 93.0944C133.324 92.215 134.254 91.2402 135.366 90.7546C135.791 90.5261 136.289 90.4749 136.751 90.6121C137.195 90.8607 137.51 91.2891 137.615 91.7872C137.934 92.8985 138.133 94.0406 138.21 95.1942C138.427 97.4908 138.344 99.806 137.962 102.081C137.148 106.998 134.983 111.587 131.715 115.337C131.414 115.547 131.164 115.848 131.003 116.247C130.714 116.961 131.775 117.501 132.262 116.981C132.419 116.811 132.574 116.64 132.727 116.466C132.952 116.429 133.247 116.502 133.374 116.573C133.82 116.914 134.134 117.399 134.264 117.945C134.798 119.328 135.14 120.778 135.282 122.254C135.416 123.527 135.103 124.807 134.396 125.874C133.778 126.829 132.716 127.404 131.578 127.398C131.309 127.401 131.062 127.546 130.929 127.779C130.795 128.012 130.794 128.299 130.927 128.532C131.979 130.002 132.059 131.956 131.13 133.506C130.201 135.057 128.441 135.909 126.648 135.674C125.961 135.582 125.321 136.352 125.915 136.934C127.262 138.183 127.348 140.285 126.108 141.639C124.867 142.994 122.766 143.093 121.403 141.861C120.787 141.317 119.751 142.011 120.22 142.774C120.721 143.59 120.255 144.566 119.561 145.115C118.668 145.822 117.491 145.627 116.565 145.087C116.497 145.046 116.429 145.004 116.363 144.96C116.387 144.669 116.408 144.377 116.425 144.086C116.635 140.557 116.398 137.007 116.051 133.479C116.068 133.417 116.078 133.352 116.08 133.285ZM113.63 151.258C114.219 149.427 114.581 147.552 114.782 145.657C113.66 144.689 112.874 143.374 112.56 141.903C112.301 140.319 113.235 138.402 114.894 138.191C114.872 137.798 114.847 137.405 114.82 137.014C114.644 134.494 114.394 131.976 114.117 129.466C113.883 127.085 113.488 124.723 112.936 122.395C112.648 121.224 112.289 120.072 111.86 118.945C111.768 118.703 111.661 118.459 111.553 118.213C111.199 117.405 110.833 116.572 110.914 115.691C110.97 114.798 111.606 114.047 112.478 113.846C112.618 113.805 112.759 113.784 112.898 113.781C112.645 113.222 112.081 112.777 111.499 112.587C110.206 112.166 108.752 112.738 107.541 113.214L107.42 113.262C105.457 113.952 103.591 114.892 101.868 116.059C100.12 117.305 98.9662 119.219 98.6808 121.346C98.5362 122.298 98.4815 123.265 98.4271 124.229C98.4101 124.531 98.393 124.833 98.3732 125.134L97.5662 137.402C97.7359 137.542 97.9024 137.686 98.065 137.835C99.2393 138.904 100.289 140.38 100.097 142.048C99.9249 143.541 98.4879 145.129 96.901 144.253C95.6877 143.583 95.4532 141.888 95.7453 140.663C95.9706 139.718 97.4234 140.121 97.1987 141.064C97.0747 141.55 97.1126 142.063 97.3065 142.525C97.5059 142.963 97.8847 143.151 98.2553 142.749C98.6316 142.249 98.73 141.593 98.5167 141.005C98.207 139.955 97.3424 139.109 96.4524 138.425C96.3321 138.38 96.2261 138.305 96.1509 138.2C95.9981 138.089 95.8462 137.982 95.698 137.88C92.6169 135.758 89.4459 133.754 86.2801 131.761C80.2917 127.991 74.2067 124.378 68.1226 120.765L57.0273 114.175C56.7032 113.983 56.3793 113.79 56.0553 113.597C53.1925 111.894 50.3274 110.189 47.3654 108.663C44.105 106.983 40.7383 105.518 37.2867 104.277C37.1791 104.238 37.0672 104.194 36.9524 104.149C36.3247 103.903 35.6081 103.622 35.0034 103.963C34.4006 104.385 33.9336 104.973 33.6595 105.656C33.0268 107.054 32.8084 108.604 33.0301 110.123C33.2832 111.79 33.8488 113.395 34.6973 114.853C35.4924 116.326 36.4257 117.721 37.4847 119.018C38.3794 120.095 39.5585 121.159 40.8769 121.832C41.4604 121.281 42.1536 120.861 42.9293 120.675C44.5647 120.282 46.5197 120.893 46.7502 122.752C46.7564 123.022 46.6126 123.272 46.377 123.403C45.5949 123.772 44.7467 123.982 43.8824 124.019C42.9643 124.055 42.1006 123.918 41.29 123.648C40.7128 124.45 40.3917 125.419 40.3888 126.428C40.4359 127.893 41.1632 129.252 42.3559 130.104C45.422 132.452 49.5157 131.625 52.9887 130.891C53.671 130.747 54.3264 131.621 53.7219 132.151L53.6102 132.249C52.1921 133.49 50.6096 134.876 50.2798 136.826C49.9702 138.658 51.1097 139.951 52.7868 140.456C54.6028 140.917 56.5013 140.946 58.3307 140.543C60.3385 140.166 62.257 139.414 63.9851 138.324C64.6833 137.886 65.2993 138.722 65.0161 139.355C64.6711 140.127 64.1445 140.787 63.6188 141.446C63.0478 142.161 62.4779 142.875 62.143 143.73C61.8646 144.44 61.7328 145.305 62.2047 145.967C62.5865 146.437 63.1383 146.739 63.7407 146.806C65.2468 147.077 66.8599 146.623 68.3109 146.214L68.5039 146.16C69.9992 145.74 71.4611 145.211 72.8779 144.577C73.2184 144.294 73.6335 144.09 74.1239 144C74.9123 143.855 75.5181 144.977 74.7045 145.377C74.4005 145.528 74.0943 145.673 73.7861 145.815C73.3537 146.213 73.1771 146.86 73.199 147.491C73.2395 148.658 74.0858 149.448 75.1676 149.76C77.507 150.435 79.6822 149.218 81.7548 148.058C82.5059 147.638 83.2436 147.226 83.9707 146.913C84.2666 146.753 84.6326 146.806 84.8706 147.044C85.1085 147.282 85.1619 147.648 85.0017 147.944C84.3692 149.208 86.2474 150.35 87.3123 150.18C88.9949 149.911 90.0935 148.235 90.8489 146.865C91.3178 146.014 92.6188 146.775 92.1502 147.625C91.0895 149.55 89.2595 151.905 86.7797 151.697C85.2006 151.565 83.6902 150.331 83.4403 148.833C83.0545 149.034 82.673 149.243 82.2915 149.452C81.4138 149.933 80.5363 150.414 79.6069 150.792C78.7409 151.144 77.6987 151.385 76.6564 151.42C76.626 151.448 76.5926 151.474 76.5558 151.499C73.7759 153.366 71.1932 155.508 68.8469 157.894C72.6773 159.56 76.5789 161.058 80.5407 162.385C88.8338 165.052 98.3996 166.152 106.129 161.264C109.731 158.918 112.388 155.374 113.63 151.258ZM114.962 139.747C115.003 141.034 115.002 142.324 114.939 143.608C114.636 143.198 114.389 142.746 114.206 142.263C113.933 141.66 113.941 140.968 114.227 140.372C114.382 140.067 114.65 139.846 114.962 139.747ZM42.5711 122.44C43.3599 122.601 44.1737 122.59 44.9869 122.342C44.7096 122.138 44.2728 122.072 43.9897 122.065C43.4891 122.063 43.0001 122.194 42.5711 122.44ZM65.7465 158.153C65.9351 158.237 66.1238 158.32 66.3126 158.403C65.6265 159.16 64.9545 159.931 64.2823 160.701C63.7674 161.291 63.252 161.882 62.7303 162.467C59.2299 166.391 54.4477 170.841 48.7308 170.242C47.4955 170.112 46.0722 169.619 45.4171 168.482C44.9115 167.606 44.8553 166.194 45.7634 165.545C46.5426 164.988 45.8071 163.688 45.0027 164.244C43.6015 165.212 41.4143 164.887 40.505 163.377C39.5637 161.814 40.3854 159.683 41.9784 158.94C42.5928 158.653 42.3762 157.733 41.7984 157.562C40.1993 157.09 38.8718 155.565 38.9131 153.847C38.9509 152.277 40.1511 151.144 41.4926 150.524C45.1184 148.847 49.3682 150.474 52.7336 152.024C54.5736 152.871 56.3979 153.75 58.2222 154.629C60.7168 155.83 63.212 157.032 65.7465 158.153Z" fill="#7BA84F"/>
<path d="M182.222 154.882C184.019 155.196 185.868 154.859 187.439 153.933C187.672 153.797 187.814 153.547 187.813 153.278C187.811 153.009 187.666 152.761 187.432 152.627C187.198 152.494 186.911 152.495 186.679 152.631C186.059 153.012 185.373 153.272 184.658 153.4C184.567 153.417 184.476 153.433 184.385 153.447L184.357 153.451C184.315 153.456 184.274 153.46 184.233 153.465C184.049 153.483 183.865 153.494 183.681 153.497C183.496 153.501 183.312 153.497 183.128 153.485C183.023 153.478 182.918 153.468 182.814 153.458L182.761 153.451C182.715 153.444 182.669 153.437 182.623 153.429C182.223 153.329 181.815 153.56 181.696 153.955C181.59 154.356 181.824 154.767 182.222 154.882Z" fill="#A3A9B6"/>
<path d="M185.699 162.662C184.866 164.537 182.852 165.359 181.059 166.028C180.658 166.134 180.246 165.9 180.132 165.502C180.03 165.102 180.263 164.693 180.658 164.575C180.884 164.491 181.109 164.406 181.333 164.319C181.44 164.277 181.546 164.235 181.651 164.191L181.686 164.177L181.707 164.168C181.756 164.147 181.806 164.125 181.855 164.103C182.255 163.929 182.641 163.722 183.008 163.486C183.091 163.431 183.174 163.374 183.254 163.315C183.285 163.293 183.326 163.26 183.326 163.26L183.322 163.263C183.345 163.244 183.368 163.225 183.391 163.206C183.544 163.078 183.689 162.939 183.824 162.793C183.862 162.752 183.899 162.711 183.934 162.669L183.969 162.628C183.979 162.614 184.001 162.585 184.018 162.563C184.031 162.546 184.041 162.533 184.04 162.534C184.066 162.498 184.09 162.462 184.115 162.425C184.223 162.259 184.317 162.084 184.397 161.902C184.61 161.547 185.068 161.426 185.428 161.632C185.779 161.848 185.898 162.302 185.699 162.662Z" fill="#A3A9B6"/>
<path d="M134.705 173.228C135.622 172.029 136.803 171.057 138.156 170.387C139.032 169.983 139.797 171.282 138.917 171.688C137.786 172.239 136.791 173.034 136.002 174.014C135.091 174.993 134.385 176.144 133.926 177.4C133.631 178.381 133.665 179.619 134.492 180.344C135.252 181.01 136.358 181.043 137.291 180.791C138.059 179.442 139.094 178.256 140.339 177.308C140.87 176.899 141.543 176.444 142.227 176.807C143.692 177.585 142.142 179.564 141.361 180.207C140.474 180.994 139.451 181.605 138.345 182.013C137.916 182.878 137.614 183.807 137.453 184.772C137.117 186.936 137.531 189.71 139.115 191.34C139.792 192.036 138.726 193.103 138.049 192.406C135.649 189.936 135.338 185.682 136.468 182.572C136.483 182.53 136.498 182.489 136.513 182.448C135.37 182.511 134.237 182.124 133.365 181.354C132.268 180.29 132.05 178.613 132.42 177.187C132.805 175.704 133.757 174.402 134.705 173.228Z" fill="#A3A9B6"/>
<path fill-rule="evenodd" clip-rule="evenodd" d="M184.529 192.283C184.545 190.465 184.62 188.648 184.755 186.834C184.809 186.117 184.868 185.4 184.927 184.684L184.927 184.679C185.062 183.051 185.196 181.424 185.265 179.792C183.505 179.686 181.804 179.097 180.351 178.082C177.421 176.057 175.356 172.529 175.671 168.897C175.758 167.888 176.044 166.909 176.33 165.932C176.667 164.779 177.003 163.627 177.013 162.429C177.024 160.937 176.323 159.155 174.694 158.88C174.47 158.816 174.289 158.652 174.201 158.436C174.113 158.22 174.129 157.976 174.244 157.773C174.656 156.981 175.079 156.193 175.512 155.412C178.927 149.254 183.245 143.143 189.459 139.548C195.027 136.327 202.343 135.344 208.227 138.303C211.567 139.982 213.885 142.796 215.306 146.069C215.352 146.128 215.392 146.196 215.423 146.274C216.16 148.194 217.178 149.996 218.442 151.619C220.562 154.266 223.366 156.038 226.397 157.476C226.958 157.742 227.524 157.999 228.089 158.256C228.883 158.617 229.677 158.977 230.458 159.363C231.619 159.936 232.748 160.574 233.876 161.212C234.469 161.548 235.063 161.883 235.661 162.209L235.929 162.355C239.982 164.564 244.06 166.786 247.635 169.736C250.725 172.286 255.231 176.53 253.227 180.981C252.653 182.256 251.607 183.026 250.395 183.334C250.698 184.001 250.963 184.685 251.207 185.366C252.792 189.787 253.552 195.082 250.405 199.025C247.466 202.708 242.129 202.74 238.29 200.546C238.175 200.478 238.061 200.409 237.949 200.338C237.371 202.756 236.303 205.075 234.893 207.019C232.361 210.51 228.49 212.997 224.187 213.486C223.862 216.91 223.161 220.29 222.095 223.565C219.511 231.483 214.872 238.595 209.096 244.555C203.092 250.657 196.09 255.69 188.392 259.437C180.707 263.268 172.459 265.85 163.961 267.084C162.216 267.337 160.465 267.529 158.711 267.66C155.392 283.835 152.677 300.104 150.567 316.467C145.895 352.865 144.054 389.57 145.059 426.252C145.544 444.514 146.736 462.721 148.635 480.872C149.101 485.331 149.611 489.784 150.164 494.233C150.271 495.098 150.394 495.964 150.517 496.83C150.722 498.276 150.928 499.723 151.063 501.172C151.241 502.764 150.885 504.371 150.052 505.739C150.013 505.801 149.974 505.862 149.933 505.922C152.392 504.653 154.849 503.383 157.292 502.087C158.277 501.598 159.229 501.048 160.143 500.441C160.104 500.113 160.091 499.781 160.104 499.447C160.14 497.86 160.711 496.332 161.725 495.111C162.754 493.887 164.966 492.527 166.314 494.062C167.059 494.91 166.616 495.905 166.083 496.72C165.499 497.613 164.829 498.446 164.082 499.207C163.367 499.895 162.61 500.533 161.813 501.119C162.632 503.825 165.739 504.962 168.337 505.52C170.141 505.951 172.018 505.973 173.832 505.584C174.976 505.301 176.535 504.604 176.679 503.258C176.711 502.96 176.88 502.753 177.095 502.641C177.249 501.318 177.392 499.995 177.526 498.67C178.998 484.05 179.247 469.362 179.496 454.681L179.496 454.679C179.551 451.44 179.606 448.201 179.674 444.963C180.067 426.243 180.979 407.477 183.411 388.899C184.536 379.977 186.119 371.119 188.155 362.36C189.619 356.195 191.962 348.968 198.365 346.356C204.998 343.65 211.103 348.692 214.27 354.185C216.14 357.428 217.498 361.088 218.81 364.624C218.982 365.087 219.153 365.548 219.324 366.005C220.877 370.152 222.272 374.356 223.547 378.595C228.603 395.409 231.967 412.752 235.308 429.977L235.516 431.048C239.103 449.537 241.977 468.157 244.43 486.828C244.749 489.254 245.06 491.682 245.365 494.11C245.433 494.651 245.511 495.196 245.589 495.743C245.812 497.311 246.038 498.896 246.046 500.463C246.054 501.992 245.707 503.327 245.072 504.513L246.358 503.714C246.86 503.402 247.365 503.094 247.87 502.786C249.103 502.034 250.338 501.281 251.53 500.471C250.947 498.722 251.445 496.813 252.362 495.26C253.093 494.023 254.935 491.34 256.614 492.745C257.972 493.881 257.321 496.172 256.619 497.487C255.877 498.879 254.705 499.986 253.456 500.937C253.695 501.315 253.991 501.675 254.331 502.02C259.367 507.125 267.521 507.384 272.87 502.608C272.882 502.598 272.894 502.588 272.906 502.579C272.861 501.471 272.818 500.367 272.788 499.272C272.273 480.395 270.833 461.549 268.723 442.785C264.477 405.019 257.525 367.617 249.855 330.414C245.642 309.981 241.119 289.619 236.597 269.256L236.596 269.252C232.873 252.491 229.151 235.731 225.601 218.931C225.401 217.983 226.854 217.582 227.054 218.53C229.014 227.724 231.005 236.912 233.026 246.093C234.621 253.342 236.245 260.584 237.869 267.826L237.871 267.832L237.873 267.841C240.557 279.811 243.241 291.781 245.797 303.782C249.821 322.672 253.769 341.58 257.391 360.552C264.65 398.569 270.624 436.906 273.179 475.553C273.833 485.277 274.246 495.01 274.419 504.752C274.424 505.055 274.43 505.36 274.436 505.664C274.443 505.976 274.45 506.288 274.456 506.601V506.602C274.5 508.624 274.544 510.651 274.503 512.67C274.524 513.976 274.253 515.27 273.709 516.458C272.532 518.814 270.087 519.903 267.59 520.238C266.04 520.446 264.467 520.382 262.903 520.318C262.742 520.312 262.581 520.305 262.42 520.299C262.197 520.29 261.975 520.282 261.753 520.275L254.328 520.051C252.732 520.003 251.134 519.964 249.537 519.925L249.525 519.925C246.289 519.846 243.053 519.768 239.823 519.611C237.759 519.511 234.864 519.265 233.622 517.341C232.24 515.2 234.083 512.489 235.596 510.97C236.624 509.938 237.823 509.113 239.022 508.288C240.326 507.39 241.63 506.493 242.71 505.331C245.261 502.588 244.604 498.559 244.021 494.985C243.904 494.265 243.79 493.565 243.705 492.896C242.473 483.045 241.101 473.213 239.591 463.401C236.712 444.697 233.137 426.121 229.202 407.612C227.278 398.562 225.187 389.539 222.587 380.657C221.289 376.224 219.864 371.826 218.273 367.489C218.108 367.041 217.944 366.591 217.779 366.138C216.397 362.344 214.969 358.422 212.969 354.946C211.098 351.693 208.232 348.469 204.502 347.413C200.46 346.268 196.461 348.41 194.058 351.635C191.902 354.528 190.785 358.073 189.909 361.529C188.85 365.709 188.007 369.953 187.226 374.193C183.691 393.385 182.264 412.924 181.536 432.404C181.263 439.713 181.141 447.027 181.019 454.342C180.834 465.453 180.649 476.565 179.934 487.657C179.368 496.983 178.316 506.272 176.784 515.489C176.474 517.313 176.143 519.247 174.511 520.375C173.294 521.215 171.749 521.386 170.309 521.414C168.758 521.444 167.209 521.459 165.66 521.474H165.656C162.959 521.5 160.263 521.526 157.562 521.631C157.064 521.651 156.567 521.671 156.069 521.69L156.065 521.691L156.063 521.691C152.03 521.851 147.995 522.012 143.958 521.992C143.683 521.99 143.398 521.993 143.108 521.995C140.385 522.02 137.15 522.048 136.229 518.915C135.331 515.86 138.202 513.539 140.414 511.75L140.416 511.748C140.652 511.558 140.881 511.373 141.097 511.194C142.676 509.883 144.323 508.654 145.993 507.461C147.851 506.131 149.453 504.794 149.6 502.338C149.693 500.773 149.408 499.112 149.131 497.494C149.009 496.78 148.888 496.075 148.802 495.391C148.534 493.266 148.276 491.141 148.028 489.014C147.486 484.361 146.991 479.704 146.543 475.041C145.643 465.672 144.931 456.291 144.406 446.896C143.358 428.082 143.05 409.266 143.483 390.448C144.304 352.904 148.167 315.488 155.033 278.569C155.572 275.689 156.125 272.81 156.698 269.934C151.241 277.394 142.588 283.038 133.283 283.967C128.829 284.429 124.344 283.441 120.498 281.148C117.056 279.018 114.149 276.127 111.999 272.698C109.729 269.162 108.166 265.22 107.397 261.089C106.754 257.634 106.637 254.111 106.862 250.608C100.75 244.643 96.1599 237.27 92.9349 229.354C91.0484 224.684 89.5927 219.851 88.5862 214.916C88.0889 212.513 87.6779 210.094 87.267 207.675C86.6707 204.164 86.0744 200.654 85.2143 197.194C84.7938 195.502 84.3297 193.822 83.8657 192.141C83.538 190.954 83.2102 189.767 82.8977 188.576L82.8881 188.54C82.5282 187.168 82.1665 185.789 81.8951 184.397C81.6493 183.136 81.5224 181.759 82.1661 180.59C82.6706 179.621 83.6504 178.991 84.7417 178.934C85.0577 178.954 85.3633 179.025 85.6486 179.14C85.7036 178.028 86.0658 177.001 87.1153 176.455C88.7951 175.583 90.334 176.905 91.2837 178.312C91.516 176.876 92.0371 175.5 92.8826 174.348C93.8168 173.074 95.3166 172.179 96.9248 172.668C97.618 172.864 98.204 173.329 98.552 173.96C98.9852 174.792 98.8064 175.725 98.6108 176.593C97.9503 179.526 98.3632 183.075 100.821 185.104C102.896 186.708 105.852 186.463 107.635 184.539C108.415 183.647 108.415 182.687 108.414 181.641C108.414 181.387 108.414 181.129 108.425 180.866C108.485 179.42 109.402 177.864 111.084 178.284C112.807 178.713 113.62 180.644 114.057 182.179C114.537 184.027 114.686 185.944 114.495 187.843C114.364 189.524 114.094 191.184 113.824 192.844C113.473 195.002 113.122 197.16 113.077 199.359C113.015 201.99 113.182 204.621 113.576 207.224C114 209.965 114.7 212.647 115.665 215.217C115.921 214.385 116.177 213.554 116.433 212.722C116.939 211.076 117.454 209.431 117.969 207.786L117.969 207.785C119.134 204.065 120.299 200.343 121.362 196.595C122.51 192.548 123.423 188.236 122.7 184.079C122.386 184.313 122.018 184.477 121.618 184.536C119.641 184.829 117.967 183.171 117.226 181.497C116.464 179.784 116.404 177.839 117.061 176.082C118.327 172.995 121.565 171.285 124.751 171.86C124.738 169.691 126.106 167.686 128.243 166.96C129.102 166.697 129.99 166.706 130.82 166.928C129.481 165.161 127.805 163.658 125.874 162.514C124.714 161.823 123.385 160.946 123.508 159.408C123.623 157.966 125.025 157.074 126.286 156.695C128.871 155.917 131.872 156.547 134.277 157.613C138.349 159.417 141.728 163.167 142.445 167.541C143.979 166.888 145.419 168.199 146.34 169.498C147.644 171.343 148.75 173.319 149.643 175.394C151.497 179.613 152.243 184.235 151.811 188.822C151.297 193.984 149.738 198.951 148.11 203.851C146.435 208.888 144.84 213.936 143.573 219.095C142.934 221.696 142.363 224.311 141.858 226.94C141.78 227.344 141.695 227.755 141.608 228.17C141.219 230.031 140.81 231.987 141.038 233.844C141.101 234.809 141.568 235.703 142.323 236.307C143.078 236.911 144.053 237.17 145.009 237.021C147.206 236.792 148.83 235.078 150.039 233.371C152.015 230.582 153.706 227.592 155.394 224.607C156.229 223.129 157.064 221.652 157.933 220.201C159.983 216.74 162.275 213.427 164.79 210.287C168.715 205.433 174.135 200.031 180.627 199.233C180.237 198.7 179.967 198.079 179.848 197.415C179.602 196.15 180.109 194.857 181.15 194.095C182.172 193.344 183.295 192.74 184.485 192.301L184.529 192.283ZM186.043 191.732C186.068 190.098 186.141 188.464 186.263 186.834C186.316 186.117 186.375 185.4 186.434 184.684L186.435 184.679C186.589 182.806 186.743 180.934 186.798 179.054C186.794 178.64 186.459 178.305 186.045 178.301C182.501 178.406 179.298 176.028 177.866 172.864C177.139 171.243 176.969 169.426 177.383 167.698C177.505 167.16 177.658 166.624 177.812 166.086C178.241 164.581 178.673 163.067 178.448 161.491C178.229 159.962 177.394 158.375 175.982 157.706C179.054 151.928 182.71 146.174 188.06 142.267C189.131 141.485 190.282 140.79 191.488 140.2C190.621 141.611 190.159 143.32 190.101 144.998C190.092 147.271 190.633 149.512 191.679 151.531C192.223 152.643 192.854 153.711 193.567 154.724C194.036 155.468 194.622 156.128 195.302 156.681C195.138 157.727 195.094 158.79 195.171 159.847C195.406 162.28 196.04 164.657 197.047 166.884C197.916 168.933 198.938 170.908 199.96 172.882C201.285 175.442 202.609 178.001 203.6 180.723C204.493 183.083 205.09 185.545 205.38 188.052C205.447 188.708 205.491 189.364 205.52 190.022C203.727 190.119 201.925 190.138 200.124 190.158C196.146 190.201 192.167 190.243 188.267 191.124C187.516 191.29 186.774 191.493 186.043 191.732ZM272.981 504.467C267.965 508.291 261.025 508.577 255.684 505.058C254.41 504.221 253.073 503.15 252.206 501.832C251.118 502.573 249.989 503.26 248.862 503.945C248.374 504.241 247.887 504.538 247.403 504.838L241.143 508.728C241.024 508.802 240.906 508.839 240.794 508.845C240.562 509.006 240.327 509.166 240.092 509.327L240.091 509.327C238.256 510.581 236.38 511.862 235.292 513.794C234.379 515.413 234.476 516.798 236.311 517.505C237.443 517.89 238.628 518.092 239.823 518.104C242.915 518.255 246.014 518.33 249.111 518.405C250.645 518.442 252.178 518.479 253.71 518.525L261.134 518.75C263.032 518.883 264.935 518.905 266.835 518.815C270.113 518.526 272.743 516.849 272.975 513.33C273.168 510.413 273.094 507.432 272.981 504.467ZM252.869 499.517C253.672 498.866 254.387 498.11 254.995 497.269C255.401 496.669 255.682 495.994 255.823 495.283C255.874 495.009 256.029 493.958 255.586 493.868C255.353 493.821 255.013 494.23 254.817 494.466C254.779 494.511 254.747 494.55 254.722 494.578C254.463 494.865 254.223 495.168 254.004 495.486C253.524 496.163 253.163 496.916 252.938 497.714C252.768 498.357 252.755 498.956 252.869 499.517ZM140.925 513.319C142.38 512.03 143.914 510.834 145.48 509.684C145.651 509.737 145.847 509.728 146.048 509.624C147.379 508.933 148.714 508.249 150.05 507.565C152.967 506.073 155.884 504.58 158.757 503.01C159.363 502.699 159.954 502.361 160.528 501.997C160.777 502.647 161.133 503.256 161.585 503.8C162.897 505.34 164.912 506.151 166.809 506.691C169.176 507.364 171.819 507.636 174.233 507.038C175.123 506.817 175.997 506.431 176.698 505.87C176.404 508.143 176.08 510.411 175.725 512.677C175.666 513.048 175.619 513.463 175.57 513.901C175.357 515.78 175.096 518.08 173.661 519.111C172.306 520.085 170.365 519.997 168.637 519.919C168.195 519.899 167.767 519.88 167.365 519.879C163.538 519.872 159.714 520.027 155.889 520.183H155.888C151.176 520.375 146.465 520.566 141.748 520.454C139.992 520.412 137.979 520.293 137.598 518.182C137.277 516.405 138.983 514.966 140.327 513.831C140.539 513.653 140.741 513.483 140.925 513.319ZM161.913 499.157C161.812 499.236 161.711 499.316 161.609 499.394C161.648 498.47 161.913 497.564 162.386 496.759C162.685 496.249 163.08 495.801 163.55 495.441C163.819 495.238 165.088 494.447 165.216 495.156C165.252 495.355 164.976 495.718 164.792 495.961C164.767 495.994 164.743 496.025 164.723 496.053C164.702 496.08 164.685 496.105 164.67 496.126C164.408 496.516 164.126 496.892 163.824 497.253C163.245 497.942 162.605 498.579 161.913 499.157ZM157.32 266.245C157.366 266.184 157.419 266.131 157.478 266.087C158.384 261.697 159.345 257.318 160.386 252.96C161.43 248.59 162.594 244.238 164.004 239.97C162.956 240.168 161.901 240.326 160.843 240.443C149.302 241.718 136.988 240.015 127.371 233.107C122.437 229.564 118.571 224.876 115.905 219.549L115.833 219.781C114.67 223.54 113.506 227.299 112.387 231.071C110.839 236.288 109.414 241.583 108.718 246.991C108.592 247.972 108.487 248.961 108.41 249.954C111.265 252.662 114.412 255.068 117.804 257.124C125.59 261.725 134.245 264.664 143.223 265.754C147.906 266.353 152.625 266.516 157.32 266.245ZM112.174 207.95C112.712 211.257 113.647 214.473 114.957 217.512L114.885 217.746C113.725 221.507 112.564 225.268 111.424 229.035C109.814 234.357 108.302 239.732 107.458 245.236C107.287 246.35 107.142 247.472 107.029 248.597C103.706 245.217 100.819 241.41 98.4488 237.261C93.4958 228.679 90.7755 219.207 89.1045 209.496C88.9811 208.779 88.86 208.061 88.7389 207.343C88.3856 205.248 88.0324 203.154 87.6197 201.07C87.0728 198.308 86.3757 195.586 85.6305 192.872C85.5228 192.48 85.4146 192.088 85.3063 191.696L85.3059 191.694C84.6707 189.394 84.0352 187.092 83.513 184.763C83.4981 184.696 83.4826 184.628 83.4668 184.559C83.215 183.453 82.8984 182.063 83.6237 181.097C83.9037 180.66 84.403 180.415 84.9199 180.46C85.3168 180.542 85.5972 180.863 85.8086 181.202C85.8604 181.509 85.9183 181.803 85.9731 182.073C86.4926 184.596 87.4686 187.002 88.8532 189.174C89.2888 189.861 90.5368 189.431 90.2305 188.594L88.6376 184.238C88.5219 183.922 88.4124 183.598 88.3021 183.271C88.0018 182.381 87.6957 181.475 87.2435 180.668C87.2028 180.357 87.1722 180.044 87.152 179.73C87.1266 179.068 87.1514 178.069 87.8714 177.763C88.6065 177.452 89.3369 178.229 89.7491 178.748C90.3098 179.543 90.7716 180.404 91.1242 181.311L91.2291 181.541C91.325 182.321 91.4984 183.084 91.7435 183.803C92.2459 185.288 93.0595 186.648 94.1299 187.793C94.7525 188.459 95.6484 187.615 95.3134 186.88C94.9316 186.043 94.5574 185.201 94.1831 184.359C93.6929 183.256 93.2023 182.152 92.6941 181.058C92.5886 179.895 92.6922 178.707 93.0186 177.549C93.4033 176.211 94.2857 174.102 95.9284 174.041C96.6761 174.013 97.3013 174.416 97.3209 175.2C97.3333 175.695 97.2095 176.212 97.0865 176.725C97.0017 177.079 96.9172 177.432 96.8782 177.775C96.5379 180.762 97.3794 184.171 99.7547 186.17C101.865 187.909 104.833 188.155 107.201 186.788C108.338 186.177 109.219 185.18 109.686 183.976C109.883 183.4 109.973 182.793 109.952 182.184C109.95 182.026 109.938 181.854 109.926 181.676C109.887 181.132 109.845 180.529 110.076 180.079C110.518 179.218 111.463 180.163 111.787 180.631C112.281 181.441 112.617 182.337 112.778 183.272C113.129 185.186 113.159 187.145 112.866 189.069C112.72 190.302 112.528 191.525 112.336 192.745C111.956 195.163 111.576 197.573 111.561 200.048C111.544 202.694 111.75 205.338 112.174 207.95ZM117.261 215.157C117.03 215.909 116.798 216.66 116.566 217.411C119.222 223.353 123.362 228.566 128.857 232.313C132.949 235.05 137.505 237.009 142.297 238.099C140.784 237.397 139.829 235.921 139.581 234.235C139.3 232.319 139.678 230.354 140.043 228.454C140.097 228.173 140.151 227.894 140.202 227.616C140.681 225.022 141.225 222.442 141.834 219.877C143.036 214.815 144.525 209.841 146.17 204.908L146.327 204.439C147.889 199.758 149.464 195.038 150.148 190.134C150.812 185.574 150.259 180.92 148.545 176.643C147.673 174.528 146.583 172.511 145.291 170.624L145.243 170.553L145.19 170.473C144.793 169.877 144.283 169.113 143.599 168.9C143.223 168.809 142.831 168.94 142.586 169.232C142.587 169.658 142.562 170.089 142.51 170.523L142.51 170.529C142.501 170.596 142.492 170.663 142.483 170.73C142.361 171.589 140.99 171.353 141.002 170.53C141.005 170.335 140.971 170.16 140.937 169.988C140.883 169.712 140.83 169.443 140.936 169.116C140.981 168.991 141.035 168.871 141.097 168.755C140.987 166.633 140.084 164.579 138.759 162.922C137.225 161.004 135.202 159.534 132.903 158.667C131.75 158.228 130.535 157.971 129.302 157.906C128.183 157.857 126.937 157.903 125.936 158.46C125.507 158.699 124.985 159.08 125.006 159.631C125.029 160.194 125.607 160.579 126.033 160.851C127.228 161.562 128.367 162.362 129.441 163.244C131.437 165.004 133.036 167.166 134.134 169.584C134.238 169.783 134.328 169.99 134.403 170.204L134.404 170.207C134.733 171.144 133.313 171.476 132.951 170.608C132.863 170.401 132.771 170.196 132.676 169.993C131.887 168.61 130.219 167.918 128.644 168.411C126.849 168.972 125.833 170.865 126.356 172.671C126.424 172.932 126.349 173.209 126.158 173.4C125.968 173.591 125.69 173.666 125.429 173.598C122.291 172.454 118.704 174.354 118.175 177.719C117.879 179.414 118.426 181.147 119.642 182.365C120.163 182.838 121.065 183.349 121.755 182.916C121.975 182.779 122.186 182.508 122.262 182.228C122.166 181.912 122.059 181.598 121.941 181.285C121.669 180.565 122.705 180.032 123.2 180.552C123.615 180.986 123.79 181.512 123.78 182.038C124.009 182.819 124.18 183.617 124.29 184.424C124.987 189.464 123.592 194.516 122.134 199.297C120.51 204.584 118.885 209.871 117.261 215.157ZM163.076 238.625C156.908 239.666 150.607 239.634 144.452 238.531C146.021 238.541 147.559 237.995 148.78 236.964C150.491 235.616 151.678 233.709 152.818 231.877L152.943 231.676C154.216 229.633 155.414 227.547 156.613 225.461L156.755 225.214C158.958 221.249 161.385 217.413 164.026 213.725C166.097 210.839 168.464 208.177 171.09 205.784C173.785 203.396 177.006 201.287 180.634 200.752C181.324 200.655 182.02 200.62 182.714 200.645C182.83 200.66 182.946 200.665 183.06 200.663C183.115 200.666 183.171 200.67 183.226 200.675C183.405 200.688 183.55 200.647 183.663 200.572C184.301 200.392 184.881 199.96 185.304 199.372C186.072 198.223 186.347 196.816 186.07 195.466C186.049 194.748 186.037 194.029 186.034 193.311C189.643 192.045 193.571 191.781 197.366 191.702C198.266 191.683 199.167 191.674 200.068 191.664C201.868 191.646 203.668 191.628 205.466 191.532C205.445 191.99 205.44 192.448 205.454 192.906C205.481 193.794 205.553 194.68 205.64 195.563C205.649 195.658 205.672 195.743 205.706 195.818C205.712 195.919 205.719 196.019 205.726 196.119C205.844 198.181 206.276 200.21 207.005 202.138C207.017 202.182 207.03 202.225 207.044 202.269C207.065 202.339 207.094 202.401 207.128 202.457C207.202 202.641 207.278 202.825 207.356 203.007C208.224 204.929 209.415 206.689 210.878 208.208C213.906 211.369 218.233 213.576 222.666 213.574C222.454 215.687 222.095 217.784 221.589 219.851C219.703 227.523 215.802 234.58 210.688 240.57C205.415 246.644 199.14 251.771 192.138 255.729C185.175 259.74 177.653 262.689 169.82 264.481C166.259 265.288 162.653 265.837 159.027 266.128C159.287 264.876 159.55 263.626 159.817 262.375C161.441 254.802 163.164 247.05 165.675 239.618C176.108 237.198 185.612 230.731 190 220.66C190.614 219.252 191.127 217.803 191.537 216.323C191.553 216.281 191.565 216.237 191.574 216.188L191.575 216.186C191.582 216.157 191.587 216.128 191.591 216.099C192.044 213.617 192.24 209.918 189.582 208.573C186.468 206.997 182.762 209.678 180.587 211.7C174.917 216.971 170.686 223.728 167.545 230.756C166.434 233.242 165.446 235.778 164.554 238.347C164.063 238.449 163.57 238.542 163.076 238.625ZM110.108 253.52C109.489 253.01 108.883 252.486 108.291 251.95C108.155 255.36 108.373 258.79 109.146 262.104C110.059 266.039 111.728 269.76 114.061 273.059C116.31 276.305 119.336 278.937 122.862 280.715C126.981 282.716 131.633 282.989 136.068 282.002C144.332 280.162 151.682 274.828 156.343 267.801C149.378 268.108 142.392 267.466 135.578 265.884C126.311 263.691 117.478 259.587 110.108 253.52ZM166.251 237.957C171.165 236.716 175.868 234.538 179.832 231.373C184.834 227.406 188.438 221.946 190.121 215.788L190.121 215.785C190.423 214.175 190.76 211.639 189.462 210.332C187.988 208.849 185.341 210.045 183.897 210.972C180.731 213.004 178.123 216.268 175.902 219.26C171.67 224.961 168.62 231.314 166.251 237.957ZM228.79 210.471C227.376 211.228 225.857 211.708 224.31 211.912C224.33 211.596 224.346 211.28 224.359 210.963C224.509 207.312 224.317 203.528 223.318 199.995C222.408 196.778 220.64 193.558 217.419 192.202C215.798 191.52 213.713 191.206 212.021 191.8C210.125 192.536 208.572 193.955 207.667 195.777C207.534 196.026 207.415 196.281 207.309 196.54C207.178 195.147 207.141 193.736 207.103 192.324C207.086 191.68 207.069 191.036 207.044 190.392C207.117 189.723 207.232 189.058 207.347 188.394C207.397 188.101 207.448 187.809 207.495 187.515C207.773 185.619 208.157 183.739 208.646 181.886C209.175 180.013 209.811 178.172 210.553 176.373C211.106 175.015 211.702 173.678 212.296 172.341C213.337 170.001 214.377 167.662 215.192 165.223C216.417 161.781 217.049 158.156 217.061 154.503C217.047 153.684 216.992 152.86 216.893 152.04C217.783 153.249 218.809 154.358 219.989 155.328C222.175 157.126 224.691 158.358 227.251 159.523C229.674 160.625 231.992 161.903 234.317 163.185C234.872 163.491 235.427 163.797 235.985 164.102C239.591 166.07 243.231 168.076 246.424 170.683C248.063 171.958 249.532 173.439 250.793 175.088C251.876 176.585 252.696 178.557 251.86 180.364C251.397 181.365 250.59 181.825 249.682 181.942C249.217 181.139 248.671 180.389 248.008 179.734C247.235 178.97 246.226 178.199 245.123 178.045C244.054 177.895 242.881 178.543 242.772 179.698C242.664 180.839 243.771 181.483 244.643 181.989C244.691 182.017 244.738 182.044 244.785 182.072C245.728 182.65 246.755 183.08 247.829 183.346C248.153 183.418 248.479 183.464 248.803 183.481C248.965 183.807 249.114 184.137 249.252 184.465C250.156 186.498 250.755 188.652 251.031 190.858C251.421 194.677 250.023 199.069 245.97 200.244C243.215 201.042 240.521 200.247 238.258 198.724C238.466 197.293 238.495 195.85 238.318 194.447C238.126 192.438 237.333 190.534 236.044 188.982C235.413 188.267 234.464 187.36 233.45 187.36C232.266 187.36 231.678 188.634 231.46 189.628C230.97 191.868 231.974 194.169 233.278 195.947C234.209 197.25 235.323 198.407 236.582 199.384C236.459 199.977 236.308 200.557 236.137 201.115C234.942 205.023 232.419 208.504 228.79 210.471ZM208.91 202.785C208.753 202.464 208.61 202.141 208.481 201.815C207.857 199.729 208.223 197.471 209.476 195.687C210.484 194.204 212.059 193.005 213.908 193.019C217.315 193.045 219.737 195.172 221.079 198.176C222.404 201.14 222.782 204.518 222.872 207.732C222.914 209.164 222.888 210.596 222.794 212.022C220.652 212.054 218.504 211.562 216.546 210.545C213.22 208.864 210.537 206.138 208.91 202.785ZM184.666 196.788C184.618 197.42 184.405 198.034 184.037 198.565C183.37 199.444 182.495 199.23 181.898 198.415C181.345 197.659 180.994 196.539 181.618 195.726C182.167 195.011 183.119 194.565 183.939 194.182L184.077 194.117L184.161 194.078C184.284 194.02 184.408 193.963 184.531 193.908C184.541 194.771 184.564 195.635 184.6 196.498C184.605 196.607 184.628 196.704 184.666 196.788ZM196.221 138.521C196.199 138.525 196.177 138.53 196.155 138.534C196.049 138.559 195.944 138.584 195.838 138.61C194.563 138.958 193.465 139.784 192.78 140.925C190.919 143.944 191.512 147.726 192.98 150.77C193.44 151.712 193.964 152.621 194.548 153.491C194.869 154.05 195.26 154.563 195.71 155.019C195.962 154.349 196.339 153.734 196.917 153.291C197.763 152.597 198.951 152.501 199.898 153.048C200.664 153.598 201.026 154.555 200.817 155.475C200.451 157.447 198.379 157.994 196.692 157.463C196.652 157.836 196.635 158.211 196.642 158.587C196.656 160.715 197.06 162.821 197.834 164.803C198.745 167.31 199.986 169.672 201.227 172.034C202.074 173.646 202.921 175.258 203.663 176.915C204.842 179.551 205.789 182.246 206.38 185.03C207.088 181.397 208.211 177.857 209.727 174.48C210.064 173.702 210.407 172.928 210.75 172.154L210.75 172.152C211.99 169.355 213.226 166.566 214.122 163.624C215.193 160.328 215.664 156.866 215.512 153.404C215.135 147.26 212.073 141.147 205.992 138.972C202.855 137.85 199.504 137.787 196.3 138.501C196.275 138.509 196.248 138.516 196.221 138.521ZM198.973 155.858C198.426 156.329 197.631 156.244 196.985 155.97C197.032 155.804 197.084 155.64 197.142 155.476C197.401 154.831 198.227 153.782 199.046 154.29C199.584 154.623 199.381 155.507 198.973 155.858ZM245.977 180.011C246.689 180.476 247.281 181.086 247.782 181.771C247.583 181.716 247.387 181.652 247.196 181.581C246.284 181.228 245.421 180.76 244.626 180.189C244.36 180.001 244.066 179.754 244.532 179.555C244.985 179.363 245.598 179.764 245.962 180.001L245.977 180.011ZM235.467 190.69C236.808 192.719 237.108 195.218 236.856 197.643C236.375 197.223 235.922 196.773 235.501 196.305C234.212 194.869 232.931 193.034 232.842 191.038C232.823 190.606 232.958 188.636 233.662 188.931C234.41 189.346 235.033 189.953 235.467 190.69Z" fill="#A3A9B6"/>
</svg>
