<svg width="288" height="120" viewBox="0 0 288 120" fill="none" xmlns="http://www.w3.org/2000/svg">
<path d="M62.9879 88.9506C69.5722 89.2651 76.0553 87.2388 81.2884 83.2306C81.7185 82.9573 81.8553 82.3929 81.5982 81.953C81.3411 81.5131 80.7822 81.3554 80.3331 81.596C78.5801 82.3637 78.4085 84.5541 79.12 86.1048C80.0596 88.1525 82.3773 88.7103 84.4191 88.0944C86.7503 87.3912 88.6912 85.5684 90.1665 83.6942C91.665 81.8045 92.7764 79.638 93.4373 77.3186C93.9515 75.4873 94.6987 71.7278 91.6947 71.712C88.9729 71.6981 88.2997 75.0126 87.827 77.0802C87.1984 79.8135 86.9432 82.6194 87.0682 85.4213C87.1824 87.8693 87.4503 90.5654 88.7662 92.6983C90.1867 95.012 92.8672 96.2346 95.5456 95.7906C98.0999 95.3011 100.128 93.3555 100.723 90.8236C100.823 90.4128 100.641 89.985 100.276 89.7723C99.9102 89.5595 99.4484 89.6126 99.1408 89.9028C96.8963 91.889 95.9491 94.9625 96.6863 97.8675C97.4235 100.773 99.7215 103.023 102.641 103.698C103.825 103.984 104.33 102.159 103.145 101.873C100.875 101.376 99.0819 99.6371 98.5168 97.3832C97.9518 95.1294 98.712 92.7499 100.479 91.2412L98.8974 90.3204C98.5605 91.9771 97.3435 93.3163 95.7265 93.8098C94.1095 94.3032 92.3521 93.8716 91.1476 92.6853C89.8416 91.3986 89.3869 89.4759 89.1571 87.7171C88.8891 85.6055 88.853 83.471 89.0496 81.3516C89.2289 79.2092 89.6661 77.0962 90.3517 75.0584C90.5326 74.534 90.9796 73.4437 91.7332 73.6085C92.3839 73.7508 92.0124 75.0513 91.9278 75.4865C91.2171 79.1446 89.2737 82.4484 86.4218 84.8469C85.2313 85.8387 82.7971 87.2761 81.3332 85.9957C80.5672 85.3259 80.1635 83.7232 81.2884 83.2306L80.3331 81.596C75.3849 85.4217 69.2352 87.358 62.9879 87.0576C61.7703 86.9971 61.7735 88.8902 62.9879 88.9506Z" fill="#7BA84F"/>
<path fill-rule="evenodd" clip-rule="evenodd" d="M210.458 18.3979L210.46 18.3966C212.152 17.1589 214.161 16.4253 216.253 16.2808C219.997 16.1056 223.343 18.4113 225.27 21.4975C227.336 24.6933 227.65 28.7156 226.106 32.1936C224.316 36.1722 220.519 38.9277 217.015 41.3026C213.855 43.4438 210.684 45.5678 207.512 47.6917L207.511 47.6928L207.51 47.6934C205.96 48.731 204.411 49.7686 202.863 50.8082C199.94 52.7712 197.019 54.7374 194.098 56.7036C187.432 61.1909 180.766 65.6787 174.075 70.1284C171.582 71.7864 169.074 73.4273 166.566 75.0687L166.565 75.0695L166.564 75.0701C159.571 79.6466 152.571 84.2274 145.858 89.1948C143.819 90.7045 141.8 92.2423 139.782 93.7802L139.313 94.1375C138.965 94.4021 138.619 94.6681 138.272 94.9341C136.494 96.2975 134.714 97.6634 132.823 98.865C130.821 100.173 128.664 101.227 126.402 102.001C126.32 102.044 126.231 102.075 126.138 102.091C126.041 102.123 125.944 102.154 125.847 102.185C123.299 102.901 120.679 103.33 118.036 103.465C115.318 103.644 112.592 103.671 109.871 103.545C109.744 103.54 109.599 103.539 109.441 103.539C108.573 103.538 107.342 103.536 107.007 102.744C106.81 102.276 107.069 101.744 107.296 101.276C107.354 101.157 107.411 101.042 107.457 100.933L109.932 95.0675C110.28 94.242 110.626 93.415 110.971 92.5879C111.711 90.8173 112.452 89.0462 113.22 87.2884C113.72 86.0633 114.386 84.9194 115.196 83.8871C115.255 83.6013 115.458 83.3868 115.71 83.2691C116.272 82.6312 116.892 82.0428 117.564 81.5119C119.019 80.3823 120.574 79.3747 122.125 78.3701C122.698 77.9991 123.27 77.6285 123.836 77.2523C126.025 75.7976 128.212 74.34 130.398 72.8795C139.373 66.8708 148.328 60.8315 157.262 54.7618C166.232 48.659 175.195 42.5434 184.148 36.4149C192.913 30.4069 201.68 24.4029 210.451 18.4028L210.458 18.3979ZM126.684 99.9004C126.489 99.9686 126.293 100.035 126.096 100.099C123.992 98.7436 122.566 96.4057 121.36 94.1926C125.064 91.4877 128.857 88.9016 132.647 86.3176L132.648 86.3169L132.666 86.3048L132.675 86.2986C133.196 85.9432 133.717 85.5879 134.238 85.2323C140.96 80.6432 147.699 76.0796 154.456 71.5415C162.111 66.3821 169.769 61.2272 177.43 56.0767C184.366 51.4069 191.295 46.7261 198.217 42.0346L199.436 41.2061C203.748 38.2763 208.063 35.3452 212.307 32.3172C212.541 32.1502 212.774 31.9827 213.008 31.8146C213.667 32.7516 214.36 33.6652 215.084 34.5537C216.183 35.8002 217.48 36.8555 218.923 37.6774C217.52 38.757 216.024 39.7363 214.571 40.6875L214.57 40.6882C214.013 41.0525 213.463 41.4128 212.926 41.7731L196.889 52.5437C195.383 53.5554 193.876 54.5674 192.37 55.5795C183.212 61.7331 174.053 67.8865 164.847 73.9681C163.95 74.5607 163.051 75.1524 162.153 75.7441L162.15 75.7463C157.736 78.6542 153.318 81.5643 148.994 84.6027C146.193 86.5714 143.473 88.6476 140.753 90.7237C138.579 92.3829 136.405 94.0423 134.19 95.6465C131.887 97.3897 129.363 98.8201 126.684 99.9004ZM220.424 36.4433C221.934 35.1087 223.256 33.607 224.185 31.8287C226.059 28.2397 225.211 23.9221 222.522 20.9791C221.259 19.5283 219.534 18.5575 217.639 18.2301C215.385 17.8996 213.233 18.7638 211.413 20.0322L211.392 20.0469C210.953 20.3468 210.515 20.6467 210.077 20.9467C210.427 24.0294 211.939 26.8255 213.635 29.3709C214.494 30.7014 215.425 31.9847 216.423 33.2152C217.483 34.4257 218.751 35.4376 220.167 36.2034C220.27 36.2685 220.356 36.3504 220.424 36.4433ZM208.361 22.1214C201.354 26.9213 194.347 31.72 187.34 36.5175C180.005 41.5434 172.664 46.5592 165.317 51.5652C157.98 56.5682 150.631 61.5514 143.267 66.5147C136.113 71.3445 128.937 76.1429 121.74 80.9099C121.565 81.026 121.389 81.1417 121.213 81.2575L121.211 81.2585C119.795 82.1895 118.365 83.1292 117.198 84.3666C118.027 87.1798 119.121 89.9078 120.465 92.5141C120.756 92.3022 121.048 92.0912 121.34 91.8813C125.591 88.8305 129.919 85.885 134.244 82.9409L135.416 82.1435C142.333 77.4467 149.26 72.7627 156.195 68.0914C163.855 62.9393 171.513 57.7846 179.17 52.6273C185.927 48.0903 192.669 43.5304 199.396 38.9476C199.93 38.5838 200.465 38.2202 200.999 37.8566C204.673 35.3566 208.35 32.8549 211.952 30.2532C210.293 27.7511 208.92 25.0648 208.361 22.1214ZM114.405 89.2902C114.829 88.2697 115.261 87.2318 115.809 86.2701C116.712 89.0221 117.859 91.6893 119.238 94.2396C120.465 96.5055 121.853 98.9876 123.828 100.743C121.97 101.194 120.07 101.469 118.155 101.562C117.047 101.644 115.938 101.697 114.828 101.723C114.8 101.685 114.77 101.647 114.736 101.612C114.543 101.406 114.357 101.193 114.177 100.974C114.135 100.922 114.094 100.871 114.053 100.818L114.045 100.809L114.019 100.773C113.94 100.666 113.861 100.559 113.785 100.451C113.459 99.9883 113.16 99.5067 112.881 99.0146C112.368 98.1103 111.92 97.1714 111.478 96.2308L114.142 89.9178C114.23 89.7103 114.317 89.5013 114.404 89.2915L114.405 89.2902ZM110.501 98.5469L109.204 101.62C110.266 101.684 111.329 101.723 112.393 101.737C111.66 100.74 111.056 99.6568 110.501 98.5469ZM108.223 101.52C108.247 101.502 108.285 101.519 108.33 101.556C108.319 101.551 108.309 101.546 108.301 101.539C108.304 101.542 108.287 101.537 108.269 101.531C108.248 101.525 108.225 101.518 108.223 101.52Z" fill="#A3A9B6"/>
</svg>
