<svg width="16" height="16" viewBox="0 0 16 16" fill="none" xmlns="http://www.w3.org/2000/svg">
<g opacity="0.3">
<path d="M2.29537 2.29537C1.90155 2.68919 1.90155 3.3277 2.29537 3.72153L6.57384 8L2.29537 12.2785C1.90155 12.6723 1.90154 13.3108 2.29537 13.7046C2.68919 14.0985 3.3277 14.0985 3.72153 13.7046L8 9.42615L12.2785 13.7046C12.6723 14.0985 13.3108 14.0985 13.7046 13.7046C14.0985 13.3108 14.0985 12.6723 13.7046 12.2785L9.42616 8L13.7046 3.72152C14.0985 3.3277 14.0985 2.68919 13.7046 2.29537C13.3108 1.90154 12.6723 1.90154 12.2785 2.29537L8 6.57384L3.72153 2.29537C3.32771 1.90155 2.68919 1.90155 2.29537 2.29537Z" fill="#14234A" fill-opacity="0.6"/>
</g>
</svg>
