<svg width="500" height="500" viewBox="0 0 500 500" fill="none" xmlns="http://www.w3.org/2000/svg">
<path fill-rule="evenodd" clip-rule="evenodd" d="M205.528 181.607C207.676 186.744 207.773 192.224 206.901 197.661C206.735 198.696 205.164 198.254 205.329 197.228C205.85 194.271 205.956 191.257 205.645 188.27C205.081 183.589 202.862 179.565 200.448 175.606C199.149 173.477 197.856 171.344 196.749 169.107C195.544 166.641 194.54 164.081 193.747 161.453C192.028 155.578 190.789 149.574 190.041 143.5C189.176 137.18 188.61 130.823 188.194 124.459C187.815 118.651 187.541 112.834 187.336 107.017C187.114 100.753 187.06 94.4586 187.736 88.2182C188.14 84.4903 188.804 80.7806 189.862 77.189C188.767 76.5638 187.784 75.7715 187.019 74.7386C185.406 72.5622 185.155 69.3831 186.989 67.269C187.678 66.4748 188.826 67.6321 188.142 68.4212C186.16 70.7056 187.95 73.9885 190.07 75.4024C190.166 75.4667 190.264 75.5295 190.362 75.5907C190.946 73.83 191.632 72.102 192.436 70.4188C195.114 64.8888 199.042 60.0569 203.909 56.3049C213.534 48.8055 225.867 45.4189 237.935 45.0385C248.106 44.7176 258.949 46.337 267.362 52.45C274.958 57.9691 279.523 66.3586 282.36 75.1348C284.394 81.4254 285.661 87.9746 286.752 94.4847C288.047 102.22 288.92 110.021 289.367 117.852C289.809 125.589 290.043 133.476 289.377 141.207C288.725 148.787 287.109 156.253 284.569 163.426C283.629 166.066 282.443 168.614 281.258 171.161C279.43 175.089 277.603 179.015 276.68 183.274C275.355 189.386 275.471 195.807 276.232 202.025C277.245 201.534 278.288 201.092 279.312 200.658C279.516 200.571 279.719 200.485 279.922 200.398C280.055 200.341 280.189 200.284 280.321 200.227C282.733 199.184 285.179 198.227 287.657 197.356C297.524 193.918 307.802 191.796 318.225 191.046C328.717 190.282 339.263 190.832 349.618 192.684C359.919 194.512 369.949 197.629 379.471 201.96C389.03 206.298 397.953 211.918 405.993 218.664C414.651 225.954 422.203 234.517 429.689 243.006L429.707 243.026L429.742 243.066C430.66 244.107 431.577 245.146 432.495 246.183C440.598 255.328 448.518 264.677 455.486 274.728C462.328 284.598 468.295 295.213 472.211 306.598C475.909 317.347 477.83 328.823 477.3 340.199C476.778 351.409 473.768 362.491 467.81 372.055C467.256 372.945 465.846 372.126 466.402 371.233C467.802 368.99 469.051 366.656 470.14 364.246C474.581 354.394 476.166 343.435 475.666 332.691C475.088 321.667 472.564 310.831 468.209 300.686C463.663 289.963 457.477 280.002 450.569 270.652C443.585 261.2 435.838 252.343 428.007 243.591C427.478 243 426.95 242.408 426.421 241.816C418.956 233.459 411.447 225.051 402.672 218.038C394.834 211.813 386.215 206.638 377.034 202.646C358.528 194.61 338.347 191.189 318.225 192.676C308.195 193.408 298.3 195.428 288.786 198.686C286.446 199.488 284.138 200.369 281.861 201.328C280.021 202.051 278.219 202.868 276.464 203.776C276.519 204.166 276.577 204.555 276.636 204.943C276.642 204.981 276.646 205.018 276.647 205.054C276.655 205.088 276.661 205.123 276.665 205.16C276.892 207.098 276.708 209.996 274.672 210.973C273.05 211.676 271.163 210.954 270.425 209.348C270.047 208.47 270.148 207.593 270.511 206.783C268.916 207.601 267.313 208.406 265.711 209.211L265.706 209.214L265.704 209.215L265.702 209.216C264.268 209.936 262.834 210.657 261.406 211.387C259.296 212.465 257.196 213.563 255.126 214.717C253.237 215.77 251.316 216.881 249.907 218.559C248.627 220.084 247.91 222.049 247.223 223.932L247.223 223.933C247.088 224.304 246.953 224.672 246.816 225.033C245.914 227.407 245.043 229.792 244.205 232.189C243.353 234.626 242.533 237.074 241.748 239.533C241.462 240.428 241.181 241.324 240.904 242.221L240.916 242.241C241.188 242.666 241.488 243.134 241.526 243.606C241.56 244.106 241.319 244.585 240.897 244.856C240.475 245.127 239.939 245.147 239.498 244.909C238.55 244.372 238.804 243.323 239.113 242.412C238.94 242.12 238.765 241.829 238.588 241.539C236.135 237.509 233.384 233.662 230.553 229.891C229.923 229.051 231.339 228.239 231.961 229.068C233.734 231.43 235.467 233.823 237.124 236.267C237.945 237.472 238.741 238.693 239.512 239.93C239.6 240.072 239.689 240.214 239.777 240.357C240.505 238.041 241.263 235.733 242.051 233.435C242.984 230.713 243.959 228.005 244.974 225.312C245.143 224.863 245.308 224.405 245.475 223.944C246.208 221.91 246.966 219.805 248.227 218.08C249.673 216.103 251.73 214.761 253.835 213.572C256.089 212.299 258.385 211.102 260.69 209.925C262.082 209.214 263.48 208.512 264.877 207.809L264.88 207.808L264.881 207.808L264.883 207.807L264.894 207.801C268.18 206.15 271.466 204.499 274.69 202.731C274.378 200.227 274.181 197.709 274.102 195.186C273.981 191.644 274.204 188.098 274.769 184.599C275.41 181.143 276.47 177.777 277.925 174.577C278.509 173.23 279.129 171.899 279.75 170.569L279.75 170.568C280.619 168.705 281.488 166.842 282.257 164.935C283.592 161.502 284.683 157.979 285.52 154.392C286.454 150.648 287.139 146.846 287.57 143.012C287.94 139.213 288.113 135.397 288.089 131.581C288.133 123.81 287.763 116.043 286.979 108.313C286.856 107.101 286.722 105.892 286.578 104.683C286.51 104.639 286.444 104.58 286.382 104.504C284.931 102.707 282.695 102.141 280.539 101.645C280.415 101.616 280.291 101.588 280.166 101.56C278.265 101.125 276.35 100.686 274.645 99.6987C272.755 98.5595 271.159 96.9912 269.987 95.1208C267.497 91.2769 266.822 86.6661 266.519 82.169C264.067 83.7304 261.313 85.2119 258.362 84.9584C256 84.7555 253.584 83.5151 252.57 81.3465C246.976 85.0201 240.598 87.3413 233.94 88.1191C231.219 88.4433 228.293 88.655 225.659 87.7217C223.243 86.8656 221.249 84.8564 221.443 82.1252C221.577 80.2452 222.578 78.6173 223.848 77.22C221.08 77.9811 218.281 78.6303 215.459 79.166C208.629 80.408 201.535 80.7367 194.755 79.0174C193.619 78.7294 192.452 78.3829 191.344 77.9155C189.488 84.3482 188.907 91.222 188.828 97.8862C189.317 97.2092 189.865 96.5682 190.414 95.9278C191.639 94.5151 192.723 92.9859 193.65 91.3622C195.516 88.0584 196.673 84.4022 197.048 80.6266C197.149 79.5906 198.78 79.5836 198.678 80.6266C198.311 84.468 197.188 88.1991 195.375 91.6061C194.457 93.3166 193.368 94.93 192.125 96.422C191.912 96.6792 191.692 96.9341 191.472 97.1897C190.472 98.3483 189.46 99.5227 188.984 100.998C188.946 101.114 188.892 101.211 188.825 101.29C188.872 106.356 189.123 111.423 189.374 116.482L189.394 116.888C189.696 122.992 190.089 129.094 190.693 135.176C191.265 141.431 192.189 147.65 193.462 153.801C194.627 159.213 196.172 164.566 198.768 169.48C199.608 171.07 200.546 172.61 201.484 174.149C202.959 176.568 204.433 178.988 205.528 181.607ZM274.944 204.592L274.91 204.611C273.74 205.303 270.116 208.239 272.673 209.456C275.049 210.588 275.187 206.689 275.045 205.253C275.01 205.033 274.977 204.812 274.944 204.592ZM198.394 78.1053C196.216 77.757 193.882 77.2961 191.819 76.364C193.213 72.0774 195.215 68.0153 198.061 64.3773C205.599 54.7433 217.356 49.4395 229.208 47.5011C235.059 46.5499 241.009 46.3681 246.907 46.9605C251.867 47.3835 256.717 48.6553 261.246 50.7202C265.197 52.5962 268.732 55.2456 271.639 58.5114C274.604 61.9459 276.997 65.8338 278.728 70.0266C280.759 74.9806 282.307 80.1192 283.35 85.3706C284.546 90.9151 285.516 96.5052 286.257 102.127C284.591 100.888 282.49 100.412 280.407 99.9398C279.209 99.6683 278.017 99.3982 276.918 98.9852C272.801 97.4392 270.316 93.3361 269.209 89.2769C268.525 86.475 268.141 83.6085 268.062 80.7254C268.058 80.4356 267.901 80.1696 267.649 80.0253C267.397 79.881 267.088 79.8797 266.836 80.0219L266.585 80.1869C264.293 81.6935 261.721 83.3843 258.888 83.3538C256.7 83.3302 254.299 82.1378 253.782 79.8619C253.713 79.6191 253.536 79.4217 253.302 79.3266C253.068 79.2314 252.804 79.2493 252.585 79.3749C247.665 82.7792 242.072 85.0898 236.184 86.151C233.592 86.6165 230.798 86.9959 228.168 86.6435C226.138 86.3716 223.755 85.5279 223.177 83.3299C222.396 80.3571 225.498 77.6925 227.521 76.0417C228.166 75.5156 227.47 74.456 226.728 74.6798C220.575 76.5359 214.269 78.0954 207.833 78.488C204.682 78.7059 201.517 78.5775 198.394 78.1053Z" fill="#A3A9B6"/>
<path d="M155.54 250.115C148.251 248.34 140.468 249.76 133.714 252.797C132.764 253.225 131.936 251.82 132.891 251.39C133.798 250.982 134.716 250.597 135.647 250.246C142.993 247.475 151.396 246.662 158.871 249.428C165.386 251.839 170.786 256.662 174.464 262.499C178.664 269.164 180.478 277.098 180.652 284.911C180.695 286.942 180.634 288.974 180.469 290.999C180.369 292.933 180.044 294.85 179.5 296.709C179.007 298.225 178.163 299.311 176.463 299.819C174.85 300.301 173.03 300.455 171.926 299.347C170.828 298.151 169.96 296.762 169.368 295.251C168.663 293.641 168.006 292.006 167.365 290.369C167.233 293.065 166.723 295.787 165.04 297.917C163.158 300.298 159.439 301.66 156.733 299.819C155.379 298.898 154.562 297.47 153.938 295.994C153.322 294.536 152.786 293.04 152.251 291.547C152.158 292.355 152.033 293.159 151.877 293.959C151.679 294.99 150.108 294.551 150.305 293.526C150.678 291.576 150.858 289.595 150.842 287.613C149.753 284.53 148.701 281.435 147.687 278.327C147.574 277.894 147.826 277.449 148.257 277.324C151.255 276.423 151.885 281.34 152.156 283.451L152.156 283.453C152.17 283.561 152.183 283.662 152.195 283.754C152.349 284.934 152.437 286.12 152.458 287.306C152.716 288.035 152.976 288.762 153.239 289.489C153.849 291.181 154.464 292.873 155.106 294.553C155.585 295.808 156.138 297.134 157.138 298.069C159.147 299.95 162.23 298.824 163.772 296.908C165.726 294.481 165.782 290.976 165.772 288.016C165.769 287.346 165.754 286.677 165.727 286.009C164.797 283.227 164.084 280.374 163.595 277.478C163.503 277.122 163.655 276.748 163.97 276.557C166.154 275.571 166.587 278.666 166.799 280.186C166.81 280.262 166.82 280.334 166.83 280.401C167.082 282.132 167.252 283.875 167.338 285.622C167.83 287.065 168.368 288.493 168.929 289.91C169.056 290.232 169.182 290.555 169.308 290.878C169.912 292.421 170.52 293.974 171.251 295.457C171.957 296.887 172.861 298.368 174.326 299.121C175.001 299.468 175.868 299.731 176.463 299.12C177.016 298.466 177.439 297.712 177.708 296.899C178.304 295.219 178.664 293.464 178.779 291.685C179.137 287.955 179.124 284.197 178.74 280.469C177.986 273.38 175.615 266.377 171.228 260.697C167.296 255.605 161.837 251.649 155.54 250.115Z" fill="#A3A9B6"/>
<path d="M108.326 272.146C101.897 278.463 95.848 285.155 90.2107 292.186C89.5543 293.005 88.408 291.845 89.058 291.034C94.6952 284.002 100.744 277.311 107.174 270.994C107.923 270.258 109.076 271.41 108.326 272.146Z" fill="#A3A9B6"/>
<path d="M355.773 257.11C348.75 255.735 341.526 255.747 334.507 257.145C327.509 258.503 320.871 261.303 315.015 265.365C308.96 269.623 303.686 275.403 300.671 282.212C299.836 284.065 299.199 286.001 298.771 287.987C298.379 289.865 298.015 292.079 299.159 293.779C300.99 296.501 305.014 296.346 307.497 294.694C309.12 293.615 310.334 292.091 311.5 290.555C312.682 288.959 313.956 287.432 315.314 285.983C315.472 285.818 315.631 285.654 315.792 285.492C315.297 286.652 314.877 287.843 314.535 289.058C313.848 291.332 313.152 293.739 313.325 296.139C313.41 298.125 316.15 297.643 317.584 299.02C321.321 299.698 320.508 299.288 323.738 300.131C327.035 299.096 326.315 298.557 328.048 295.724C328.593 294.834 329.132 293.952 329.712 293.141C331.343 290.868 333.218 288.787 335.297 286.934C332.53 290.85 330.557 295.311 331.699 300.131C331.941 301.151 333.513 300.719 333.271 299.698C331.745 293.256 336.68 287.378 340.66 282.917C341.251 282.255 340.493 281.125 339.672 281.638C334.586 284.798 330.284 289.07 327.087 294.131C326.978 294.302 326.871 294.475 326.765 294.649L326.692 294.769L326.629 294.872C326.542 295.016 326.454 295.161 326.367 295.306C325.581 296.608 324.791 297.917 323.738 299.02C322.483 300.335 321.327 298.837 319.438 298.523C317.706 298.236 315.783 299.347 315.269 297.749C314.618 295.727 315.005 293.553 315.526 291.549C316.035 289.456 316.724 287.411 317.584 285.436C318.086 284.331 318.705 283.23 319.438 282.211C321.105 280.879 322.873 279.673 324.728 278.605C325.579 278.116 326.446 277.657 327.329 277.228C328.031 276.884 327.72 275.621 326.917 275.709C323.301 276.108 320.298 278.273 318.191 281.126C317.817 281.429 317.448 281.738 317.084 282.053C315.654 283.289 314.307 284.618 313.053 286.032C312.206 286.988 311.432 287.997 310.657 289.008C310.297 289.477 309.936 289.947 309.568 290.411C307.763 292.691 304.89 295.362 301.737 293.897C300.088 293.131 299.88 291.381 300.105 289.744C300.39 287.836 300.895 285.967 301.608 284.174C304.17 277.551 309.099 271.787 314.748 267.563C320.124 263.588 326.249 260.743 332.755 259.198C339.329 257.598 346.149 257.276 352.844 258.249C353.68 258.372 354.511 258.517 355.34 258.681C356.365 258.883 356.803 257.313 355.773 257.11Z" fill="#A3A9B6"/>
<path d="M427.457 294.458C434.815 299.934 441.667 306.058 447.93 312.757C448.642 313.526 447.491 314.681 446.777 313.909C443.297 310.159 439.618 306.598 435.757 303.241C428.854 297.291 421.516 291.865 413.803 287.009C406.07 282.084 398.049 277.627 389.901 273.43C388.967 272.949 389.792 271.544 390.724 272.023C395.342 274.402 399.919 276.863 404.426 279.447C412.406 283.971 420.098 288.984 427.457 294.458Z" fill="#A3A9B6"/>
<path d="M79.0667 270.373C81.8102 262.941 85.2871 255.8 89.4461 249.056C89.9967 248.164 91.4066 248.983 90.854 249.878C86.7626 256.498 83.3407 263.509 80.639 270.807C80.2778 271.784 78.7025 271.358 79.0667 270.373Z" fill="#A3A9B6"/>
<path d="M71.3249 291.934C65.1868 306.576 60.8538 321.911 58.4211 337.599C57.7348 342.033 57.1991 346.486 56.8139 350.959C56.7238 352.004 58.3549 351.998 58.4444 350.959C59.8063 335.215 63.0794 319.696 68.1915 304.742C69.619 300.565 71.1876 296.44 72.8971 292.367C73.0137 291.934 72.7599 291.487 72.3277 291.365C71.895 291.257 71.4535 291.507 71.3249 291.934Z" fill="#A3A9B6"/>
<path fill-rule="evenodd" clip-rule="evenodd" d="M207.518 125.618C207.596 125.454 207.705 125.308 207.837 125.187C207.651 125.128 207.486 125.003 207.38 124.822C207.154 124.435 207.283 123.938 207.669 123.709C208.355 123.33 209.194 123.353 209.858 123.77C210.491 124.174 210.939 124.81 211.107 125.541C211.26 126.121 211.312 126.723 211.26 127.32C211.242 127.943 210.992 128.537 210.558 128.984C209.974 129.495 209.132 129.586 208.452 129.213C207.842 128.877 207.419 128.281 207.303 127.594C207.153 126.93 207.229 126.234 207.518 125.618ZM209.149 125.257C209.128 125.256 209.099 125.227 209.091 125.213C209.104 125.223 209.12 125.234 209.132 125.242C209.137 125.247 209.143 125.252 209.149 125.257ZM209.002 126.304C209.002 126.304 208.993 126.321 208.981 126.341C208.995 126.315 209.002 126.304 209.002 126.304ZM209.616 127.341C209.62 127.322 209.626 127.304 209.631 127.285L209.632 127.279C209.622 127.301 209.617 127.324 209.616 127.341ZM209.381 127.821C209.386 127.807 209.411 127.783 209.445 127.79C209.439 127.795 209.431 127.801 209.422 127.809L209.416 127.815C209.409 127.817 209.402 127.818 209.395 127.82L209.381 127.821Z" fill="#A3A9B6"/>
<path fill-rule="evenodd" clip-rule="evenodd" d="M246.303 122.996C246.173 123.116 246.065 123.261 245.987 123.424C245.698 124.041 245.623 124.736 245.772 125.4C245.888 126.087 246.312 126.683 246.922 127.019C247.602 127.393 248.443 127.302 249.028 126.791C249.462 126.343 249.712 125.749 249.729 125.127C249.782 124.529 249.73 123.927 249.577 123.347C249.409 122.616 248.96 121.98 248.328 121.576C247.663 121.16 246.825 121.136 246.138 121.516C245.75 121.743 245.619 122.242 245.846 122.631C245.952 122.812 246.118 122.937 246.303 122.996ZM247.56 123.02C247.569 123.033 247.598 123.063 247.619 123.063C247.613 123.058 247.607 123.053 247.602 123.049C247.59 123.041 247.574 123.03 247.56 123.02ZM248.101 125.092C248.096 125.11 248.09 125.129 248.086 125.147C248.087 125.131 248.092 125.107 248.102 125.086L248.101 125.092ZM247.915 125.596C247.881 125.59 247.856 125.613 247.851 125.627L247.865 125.627C247.872 125.625 247.879 125.623 247.886 125.621L247.892 125.616C247.901 125.608 247.909 125.601 247.915 125.596Z" fill="#A3A9B6"/>
<path fill-rule="evenodd" clip-rule="evenodd" d="M224.377 121.995L224.281 123.769C223.228 124.086 222.202 124.508 221.219 125.033C221.21 124.675 221.196 124.32 221.18 123.968C221.084 121.969 220.815 119.983 220.375 118.03C220.338 117.866 220.301 117.694 220.263 117.517C219.963 116.113 219.591 114.379 218.492 113.477C217.59 112.737 216.26 112.565 215.131 112.419L215.015 112.404C213.872 112.255 212.724 112.192 211.574 112.135L211.55 112.134L211.54 112.134C211.527 112.133 211.514 112.133 211.501 112.133C208.422 112.074 205.343 112.308 202.308 112.831C199.488 113.34 196.398 114.307 194.682 116.766C192.919 119.293 193.257 122.905 193.726 125.784C194.143 128.658 195.225 131.394 196.886 133.776C198.635 136.2 201.138 137.976 204.004 138.827C207.101 139.688 210.363 139.762 213.496 139.042C215.06 138.75 216.522 138.059 217.74 137.035C218.772 136.065 219.561 134.866 220.042 133.534C220.851 131.469 221.158 129.168 221.219 126.9C222.164 126.324 223.16 125.857 224.188 125.503L223.745 133.761C223.719 134.25 223.677 134.749 223.634 135.253C223.521 136.595 223.405 137.968 223.582 139.267C223.79 140.799 224.783 142.138 226.406 142.264C227.452 142.346 227.447 140.716 226.406 140.635C225.004 140.526 225.12 138.468 225.179 137.432L225.179 137.424L225.184 137.345L225.187 137.291C225.277 135.591 225.368 133.892 225.46 132.192L225.844 125.036C228.671 124.409 231.658 124.594 234.442 125.631C234.685 127.955 235.21 130.246 236.011 132.45C237.114 135.242 239.018 137.557 242.032 138.316C245.119 138.99 248.328 138.857 251.349 137.929C254.252 137.12 256.813 135.39 258.647 133.001C260.326 130.645 261.371 127.897 261.684 125.022C262.059 122.167 262.09 118.836 260.976 116.134C259.614 112.832 256.248 111.688 252.949 111.325C249.43 111.019 245.887 111.143 242.398 111.695C242.387 111.696 242.375 111.698 242.363 111.7C242.091 111.748 241.813 111.794 241.53 111.84C239.755 112.133 237.818 112.452 236.328 113.407C235.12 114.182 234.86 115.618 234.665 116.944C234.395 118.752 234.269 120.58 234.289 122.408C234.284 122.896 234.293 123.384 234.313 123.871C231.582 122.985 228.697 122.825 225.934 123.361L226.007 121.995C226.063 120.947 224.433 120.95 224.377 121.995ZM219.062 131.134C219.282 130.044 219.436 128.945 219.526 127.84C218.936 127.745 218.578 126.77 219.228 126.283C219.356 126.189 219.485 126.098 219.615 126.008C219.637 124.673 219.564 123.336 219.397 122.006C219.217 120.366 218.91 118.743 218.479 117.15C218.449 117.041 218.42 116.925 218.39 116.805C218.173 115.943 217.908 114.89 217.11 114.529C216.179 114.182 215.199 113.983 214.207 113.94C213.324 113.852 212.439 113.808 211.553 113.764L211.55 113.764C208.436 113.684 205.322 113.929 202.258 114.494C199.428 115.057 196.174 116.159 195.321 119.246C194.632 121.74 195.054 124.711 195.675 127.182C196.24 129.663 197.405 131.969 199.067 133.897C200.929 135.902 203.412 137.225 206.116 137.652C208.935 138.167 211.839 137.96 214.556 137.051C217.187 136.097 218.478 133.734 219.062 131.134ZM238.253 133.409C236.967 131.143 236.42 128.404 236.135 125.809C236.533 125.466 236.64 124.809 236.038 124.536L236.014 124.526C235.887 122.862 235.884 121.191 236.006 119.527C236.074 118.604 236.177 117.684 236.332 116.772L236.334 116.76C236.438 116.15 236.587 115.276 237.014 114.913C237.651 114.371 238.63 114.141 239.464 113.945C239.575 113.919 239.683 113.894 239.787 113.868C240.742 113.635 241.71 113.462 242.678 113.293C242.717 113.289 242.757 113.282 242.796 113.272L242.802 113.271C245.608 112.871 248.444 112.724 251.276 112.831C253.743 112.938 256.721 113.273 258.501 115.186C260.294 117.113 260.321 120.365 260.237 122.839C260.195 125.431 259.574 127.982 258.42 130.304C257.209 132.648 255.254 134.523 252.861 135.634C250.352 136.731 247.619 137.217 244.885 137.053C243.442 137.067 242.018 136.727 240.737 136.062C239.689 135.413 238.832 134.498 238.253 133.409Z" fill="#A3A9B6"/>
<path d="M234.753 153.527C232.607 154.111 230.082 154.386 228.206 152.943C227.826 152.709 227.698 152.218 227.914 151.828C228.143 151.442 228.64 151.312 229.029 151.536C231.251 153.245 234.451 152.056 236.935 151.134C237.234 151.022 237.523 150.915 237.799 150.817C239.301 150.285 240.788 149.71 242.258 149.094C242.468 149.006 242.683 148.908 242.902 148.809C243.975 148.322 245.148 147.789 246.302 148.12C248.931 148.874 248.15 152.573 247.409 154.406C246.464 156.715 244.819 158.672 242.706 160.001C240.486 161.405 237.593 162.206 235.135 160.945C234.2 160.465 235.026 159.059 235.958 159.538C238.275 160.726 241.235 159.292 243.031 157.751C244.697 156.357 245.86 154.456 246.341 152.338C246.493 151.628 246.798 150.025 245.869 149.692C245.397 149.523 244.795 149.774 244.343 149.962L244.25 150.001C243.94 150.129 243.631 150.261 243.323 150.394L243.322 150.395C243.035 150.519 242.747 150.642 242.458 150.762C239.951 151.846 237.378 152.77 234.753 153.527Z" fill="#A3A9B6"/>
<path d="M185.978 207.006C176.198 202.832 165.61 200.895 154.985 201.335C144.327 201.645 133.865 204.271 124.326 209.031C119.121 211.657 114.336 215.042 110.129 219.077C109.373 219.807 110.527 220.958 111.282 220.229C118.649 213.109 127.978 208.278 137.816 205.572C147.858 202.813 158.368 202.186 168.667 203.732C174.343 204.57 179.886 206.144 185.155 208.413C186.107 208.828 186.938 207.425 185.978 207.006Z" fill="#A3A9B6"/>
<path d="M254.777 238.225C253.878 233.811 252.437 229.525 250.486 225.465C250.033 224.524 251.439 223.699 251.894 224.643C253.95 228.898 255.463 233.394 256.396 238.026C256.805 240.076 257.06 242.139 257.278 244.216C257.37 245.089 257.645 245.769 258.624 245.786C259.482 245.801 260.261 245.232 260.941 244.737C261.005 244.69 261.069 244.643 261.131 244.598C264.184 242.41 267.072 240 269.772 237.39C275.087 232.226 279.596 226.138 282.265 219.186C282.637 218.215 284.213 218.639 283.837 219.619C282.227 223.778 280.047 227.693 277.36 231.253C274.956 234.439 272.257 237.391 269.3 240.071C267.829 241.407 266.312 242.685 264.748 243.906C263.969 244.515 263.181 245.111 262.382 245.694C261.58 246.365 260.669 246.893 259.689 247.258C258.799 247.544 257.83 247.445 257.015 246.987C256.253 246.473 255.77 245.636 255.707 244.719C255.615 244.057 255.534 243.397 255.453 242.737C255.267 241.229 255.082 239.725 254.777 238.225Z" fill="#A3A9B6"/>
<path d="M382.754 318.023C395.893 323.351 408.581 329.73 420.694 337.096C431.904 343.895 442.45 351.729 452.196 360.496C461.212 368.589 469.291 377.667 476.281 387.561C482.831 396.838 488.108 406.951 491.971 417.629C495.703 428.051 497.832 438.978 498.288 450.037C498.342 451.426 498.369 452.815 498.369 454.205C498.384 454.644 498.745 454.992 499.185 454.992C499.624 454.992 499.985 454.644 500 454.205C499.978 442.979 498.244 431.821 494.86 421.117C491.371 410.232 486.411 399.875 480.118 390.332C473.425 380.201 465.59 370.871 456.768 362.526C447.242 353.507 436.874 345.42 425.805 338.377C413.84 330.746 401.266 324.116 388.209 318.554C386.542 317.838 384.868 317.137 383.188 316.451C382.217 316.055 381.794 317.631 382.754 318.023Z" fill="#7BA84F"/>
<path d="M300.852 296.571C309.885 297.834 318.861 299.438 327.782 301.384C330.209 301.909 332.629 302.459 335.044 303.034C336.064 303.277 336.5 301.706 335.478 301.462C326.679 299.368 317.811 297.596 308.873 296.147C306.348 295.736 303.819 295.354 301.285 294.999C300.853 294.896 300.415 295.144 300.282 295.568C300.165 296.002 300.419 296.449 300.852 296.571Z" fill="#7BA84F"/>
<path d="M151.886 306.389C164.239 302.985 176.759 300.216 189.396 298.093C193.089 297.48 196.793 296.931 200.506 296.449C200.95 296.434 201.307 296.078 201.321 295.634C201.319 295.185 200.955 294.821 200.506 294.819C187.482 296.532 174.564 298.972 161.814 302.129C158.348 302.978 154.894 303.875 151.452 304.818C151.033 304.95 150.793 305.39 150.91 305.813C151.027 306.237 151.458 306.491 151.886 306.389Z" fill="#7BA84F"/>
<path d="M1.63051 454.205C1.63532 445.261 2.74322 436.353 4.92914 427.68C7.12922 419.042 10.3164 410.686 14.4277 402.776C18.738 394.502 23.8843 386.689 29.7864 379.462C36.0147 371.844 42.8941 364.782 50.347 358.356C58.3462 351.455 66.8559 345.169 75.8034 339.55C76.9515 338.825 78.1059 338.109 79.2665 337.403C80.1614 336.859 79.343 335.449 78.4435 335.996C69.2378 341.568 60.4558 347.811 52.1693 354.674C44.4243 361.082 37.2488 368.148 30.723 375.793C24.5753 382.989 19.1632 390.782 14.5675 399.055C10.1673 407.001 6.68439 415.42 4.18567 424.152C1.72833 432.823 0.340761 441.762 0.0538241 450.769C0.0178716 451.914 -6.97429e-05 453.059 2.03728e-07 454.205C0.0149588 454.644 0.375554 454.992 0.81528 454.992C1.25501 454.992 1.61555 454.644 1.63051 454.205Z" fill="#7BA84F"/>
<path d="M96.3193 382.007C93.0849 372.247 89.6584 362.554 86.0398 352.927C82.4354 343.342 78.6418 333.831 74.6589 324.395C72.4196 319.088 70.1225 313.807 67.7674 308.551L67.6399 309.538C76.0625 302.673 86.4054 298.871 96.3866 294.906C98.983 293.875 101.551 292.771 104.153 291.754C106.835 290.706 109.632 289.774 112.527 289.596C115.593 289.409 118.61 290.06 121.592 290.687L151.6 296.989L151.001 296.204C150.445 310.402 151.435 324.62 153.954 338.605C154.658 342.517 155.482 346.405 156.426 350.268C156.502 350.545 156.718 350.762 156.996 350.837C162.346 352.167 167.667 353.606 172.96 355.153C174.906 355.722 177.656 356.154 178.908 357.943C179.572 358.89 179.66 360.087 179.663 361.208C179.667 362.526 179.602 363.847 179.566 365.165L179.107 381.895C179.07 383.241 179.044 384.587 178.994 385.932C178.994 387.115 178.821 388.291 178.482 389.423C177.711 391.688 175.516 392.878 173.583 394.029L152.07 406.837C151.058 407.439 149.908 408.358 148.693 408.448C147.513 408.535 146.375 407.776 145.371 407.257C136.925 402.895 128.496 398.503 120.081 394.081C111.633 389.662 103.18 385.253 94.7213 380.855C93.7555 380.355 92.7895 379.855 91.8232 379.356C90.8923 378.876 90.0666 380.282 91.0003 380.764C99.7199 385.264 108.423 389.797 117.109 394.363C125.887 398.955 134.672 403.535 143.463 408.104C145.605 409.211 147.826 410.722 150.289 409.689C151.5 409.111 152.67 408.45 153.789 407.71L172.501 396.57C174.61 395.315 177.084 394.162 178.698 392.256C180.321 390.34 180.567 387.904 180.639 385.488C180.812 379.708 180.957 373.928 181.115 368.147L181.236 363.738C181.322 362.463 181.319 361.184 181.229 359.91C181.145 358.751 180.724 357.642 180.018 356.72C179.283 355.882 178.352 355.238 177.309 354.844C174.921 353.839 172.309 353.257 169.821 352.554C167.065 351.775 164.302 351.026 161.53 350.307C160.165 349.953 158.798 349.606 157.43 349.266L157.999 349.835C154.667 336.171 152.831 322.186 152.523 308.126C152.437 304.151 152.473 300.177 152.632 296.204C152.63 295.838 152.386 295.517 152.034 295.418L123.693 289.466C120.673 288.831 117.633 288.089 114.538 287.953C108.535 287.691 103.055 290.488 97.6302 292.666C92.5348 294.712 87.3928 296.65 82.3869 298.911C76.7425 301.461 71.3008 304.463 66.4873 308.386C66.2301 308.65 66.1782 309.052 66.3599 309.373C70.5359 318.693 74.5266 328.092 78.332 337.57C82.1297 347.035 85.7393 356.572 89.1609 366.181C91.0832 371.58 92.9454 377 94.7474 382.441C95.0758 383.432 96.6506 383.007 96.3193 382.007Z" fill="#7BA84F"/>
<path d="M67.4698 311.029C78.6311 312.79 89.8255 314.556 100.732 317.565C102.083 317.938 103.435 318.316 104.769 318.744C105.273 318.872 105.746 319.104 106.156 319.425C106.564 319.852 106.843 320.386 106.958 320.965C107.705 323.621 108.268 326.341 108.922 329.022C110.23 334.385 111.575 339.74 113.106 345.045C114.632 350.335 116.344 355.577 118.381 360.694C118.894 361.981 119.421 363.265 119.98 364.533C120.343 365.492 121.097 366.252 122.053 366.623C123.062 366.918 124.138 366.256 123.968 365.138C123.832 364.247 122.904 362.982 121.87 363.403C121.415 363.595 121.138 364.06 121.186 364.55C121.246 365.163 121.804 365.464 122.256 365.792C123.32 366.562 124.419 367.282 125.551 367.951C127.81 369.282 130.185 370.407 132.646 371.313C135.016 372.189 137.526 372.713 139.839 373.741C141.865 374.612 143.608 376.03 144.873 377.837C147.247 381.281 147.994 385.632 148.088 389.737C148.212 395.122 147.324 400.506 148.05 405.877C148.223 407.194 148.506 408.494 148.896 409.764C149.206 410.763 150.781 410.337 150.468 409.331C148.904 404.294 149.426 398.985 149.647 393.802C149.829 389.544 149.728 385.201 148.312 381.134C146.952 377.229 144.402 373.973 140.558 372.288C138.316 371.306 135.926 370.752 133.624 369.939C131.286 369.109 129.027 368.07 126.875 366.835C125.836 366.24 124.823 365.602 123.836 364.92C123.582 364.744 123.33 364.566 123.079 364.385C122.965 364.279 122.84 364.187 122.705 364.111L122.145 364.985L122.244 365.1C122.249 365.116 122.41 365.401 122.369 365.395C122.392 365.398 122.567 364.972 122.619 365.088C122.6 365.046 122.247 364.912 122.178 364.857C121.322 364.18 121.002 362.825 120.603 361.86C120.1 360.645 119.616 359.422 119.15 358.192C117.285 353.272 115.7 348.25 114.271 343.187C112.84 338.111 111.565 332.992 110.318 327.868C109.716 325.396 109.215 322.873 108.5 320.43C108.251 319.351 107.597 318.408 106.673 317.795C105.62 317.26 104.502 316.864 103.347 316.614C93.0546 313.601 82.4661 311.775 71.8895 310.089C70.561 309.877 69.2321 309.667 67.9031 309.458C66.8766 309.296 66.4347 310.866 67.4698 311.029Z" fill="#7BA84F"/>
<path d="M106.607 318.226L106.531 318.274C106.22 318.466 106.068 318.838 106.157 319.194C106.324 319.725 106.85 320.059 107.402 319.985C107.722 319.922 108.027 319.799 108.302 319.623L151.272 297.939C152.209 297.466 151.384 296.06 150.449 296.532L107.479 318.216C107.067 318.334 107.15 318.516 107.729 318.761L107.354 319.681L107.43 319.634C108.318 319.08 107.5 317.669 106.607 318.226Z" fill="#7BA84F"/>
<path d="M125.39 366.856C133.586 362.59 141.852 358.463 150.189 354.475C152.581 353.332 154.98 352.199 157.384 351.079C158.334 350.636 157.507 349.231 156.561 349.672C148.187 353.577 139.88 357.622 131.642 361.809C129.278 363.011 126.92 364.224 124.568 365.449C123.637 365.934 124.46 367.34 125.39 366.856Z" fill="#7BA84F"/>
<path d="M147.586 380.314C156.32 375.353 164.859 370.068 173.203 364.461C175.565 362.873 177.909 361.26 180.236 359.622C181.088 359.022 180.274 357.609 179.413 358.214C171.199 363.994 162.775 369.46 154.142 374.613C151.698 376.07 149.238 377.502 146.763 378.907C146.391 379.141 146.272 379.628 146.494 380.008C146.716 380.388 147.199 380.523 147.586 380.314Z" fill="#7BA84F"/>
<path d="M197.999 324.769C210.533 328.456 222.872 332.732 235.016 337.6C238.059 338.821 241.088 340.079 244.101 341.373C245.5 341.975 246.922 342.762 248.407 343.128C249.993 343.519 251.364 343.047 252.803 342.401C258.954 339.642 265.098 336.868 271.235 334.079L292.046 324.683C292.296 324.537 292.449 324.269 292.45 323.98L293.634 310.628C293.726 309.583 292.095 309.589 292.003 310.628L290.82 323.98L291.224 323.276L252.456 340.78C251.759 341.144 251.021 341.424 250.258 341.613C248.736 341.896 247.193 340.947 245.847 340.365C242.939 339.106 240.017 337.88 237.081 336.687C231.107 334.26 225.077 331.975 218.993 329.833C212.2 327.441 205.347 325.229 198.434 323.198C197.425 322.901 196.993 324.473 197.999 324.769Z" fill="#7BA84F"/>
<path d="M205.576 325.296C204.12 315.863 202.899 306.397 201.518 296.953C201.353 295.824 201.185 294.694 201.015 293.565C200.934 293.029 200.85 292.493 200.769 291.957C200.678 291.354 200.593 290.836 201.035 290.356C201.839 289.586 202.688 288.864 203.577 288.194C204.504 287.407 205.422 286.609 206.332 285.802C209.911 282.627 213.355 279.308 216.664 275.846C218.317 274.116 219.933 272.353 221.513 270.557C222.194 269.706 222.957 268.925 223.792 268.225C224.697 267.581 225.746 267.169 226.847 267.025C229.349 266.593 231.897 266.353 234.415 266.027L257.561 263.027C260.09 262.699 262.618 262.341 265.152 262.048C266.296 261.867 267.46 261.855 268.607 262.013C269.701 262.235 270.718 262.736 271.56 263.468C273.426 265.004 275.104 266.81 276.844 268.484L288.005 279.223C289.75 280.903 291.577 282.53 293.232 284.299C293.959 285.027 294.545 285.882 294.962 286.822C295.35 287.782 296.928 287.363 296.534 286.389C295.668 284.243 293.981 282.712 292.347 281.139L275.089 264.534C273.445 262.951 271.788 261.138 269.498 260.543C267.098 259.919 264.516 260.496 262.112 260.808L230.124 264.953C227.792 265.255 225.137 265.295 223.142 266.692C221.236 268.027 219.806 270.055 218.251 271.76C214.89 275.444 211.375 278.979 207.705 282.365C205.888 284.042 204.035 285.68 202.146 287.278C201.29 288.003 200.241 288.672 199.569 289.581C198.833 290.576 199.094 291.714 199.268 292.848C200.768 302.64 202.024 312.467 203.48 322.266C203.651 323.421 203.826 324.575 204.004 325.729C204.163 326.762 205.734 326.323 205.576 325.296Z" fill="#7BA84F"/>
<path d="M224.952 267.67C226.193 267.36 227.342 267.966 228.297 268.722C229.342 269.6 230.32 270.556 231.221 271.582C233.118 273.615 234.878 275.772 236.492 278.036C239.666 282.504 242.332 287.304 245.432 291.821C246.213 292.96 247.026 294.076 247.869 295.17C248.608 296.229 249.468 297.197 250.433 298.056C252.798 299.95 255.797 298.868 258.451 298.275C264.328 296.961 270.17 295.501 275.977 293.894C282.517 292.085 289.002 290.091 295.433 287.915C296.422 287.581 295.997 286.006 294.999 286.344C283.589 290.201 272.006 293.486 260.251 296.197C258.763 296.539 257.273 296.872 255.781 297.196C254.435 297.487 252.993 297.83 251.759 297.02C250.71 296.331 249.924 295.178 249.164 294.201C248.308 293.098 247.496 291.961 246.709 290.808C243.623 286.282 240.954 281.482 237.765 277.025C235.924 274.447 233.899 272.006 231.705 269.721C229.833 267.775 227.493 265.356 224.519 266.099C223.501 266.353 223.932 267.925 224.952 267.67Z" fill="#7BA84F"/>
<path d="M251.094 298.455C250.273 309.832 249.552 321.217 248.932 332.608C248.757 335.825 248.59 339.042 248.431 342.26C248.379 343.308 250.01 343.306 250.061 342.26C250.625 330.867 251.288 319.479 252.052 308.097C252.268 304.882 252.492 301.668 252.724 298.455C252.8 297.409 251.169 297.413 251.094 298.455Z" fill="#7BA84F"/>
<path d="M252.159 298.979C255.334 307.064 260.912 313.984 268.142 318.804C269.151 319.473 270.028 319.925 271.27 319.719C272.465 319.497 273.647 319.214 274.813 318.872C277.142 318.239 279.435 317.479 281.689 316.619C286.163 314.88 290.517 312.847 294.723 310.533C299.558 307.914 304.249 305.041 308.933 302.164C309.179 302.015 309.329 301.748 309.329 301.461C309.329 301.173 309.179 300.906 308.933 300.757C306.233 299.239 303.759 297.351 301.583 295.147C299.345 292.783 297.405 290.153 295.808 287.316C295.573 286.944 295.086 286.825 294.706 287.047C294.326 287.269 294.191 287.752 294.4 288.138C296.07 291.094 298.095 293.835 300.431 296.3C302.705 298.603 305.289 300.577 308.11 302.164V300.757C300.233 305.595 292.3 310.472 283.751 314.051C281.597 314.952 279.406 315.767 277.181 316.475C276.105 316.817 275.021 317.133 273.929 317.422C273.4 317.561 272.87 317.694 272.339 317.82C271.767 318.004 271.176 318.12 270.578 318.166C270.012 318.079 269.483 317.832 269.052 317.455C268.617 317.168 268.187 316.872 267.763 316.569C266.914 315.961 266.092 315.319 265.297 314.643C263.732 313.315 262.268 311.873 260.916 310.329C257.863 306.842 255.432 302.856 253.731 298.546C253.352 297.581 251.774 298.001 252.159 298.979Z" fill="#7BA84F"/>
<path d="M270.073 318.811L266.012 348.912C265.909 349.343 266.158 349.781 266.582 349.914C267.016 350.031 267.463 349.777 267.585 349.345L271.646 319.245C271.749 318.813 271.5 318.375 271.076 318.242C270.642 318.126 270.195 318.379 270.073 318.811Z" fill="#7BA84F"/>
<path d="M307.834 301.826C306.248 311.288 304.263 320.67 301.88 329.973C301.619 330.99 303.191 331.423 303.452 330.407C305.833 321.113 307.818 311.73 309.406 302.259C309.578 301.233 308.007 300.792 307.834 301.826Z" fill="#7BA84F"/>
<path d="M270.709 326.017C272.839 323.482 274.899 320.89 276.89 318.242C277.114 317.853 276.983 317.356 276.597 317.127C276.207 316.911 275.716 317.04 275.482 317.419C273.574 319.954 271.599 322.436 269.556 324.865C269.25 325.188 269.25 325.694 269.556 326.017C269.876 326.332 270.389 326.332 270.709 326.017Z" fill="#7BA84F"/>
<path d="M303.242 305.192C304.417 306.776 305.488 308.434 306.45 310.157C306.677 310.545 307.176 310.676 307.565 310.449C307.954 310.222 308.085 309.723 307.858 309.334C306.896 307.612 305.825 305.954 304.65 304.369C304.416 303.99 303.925 303.861 303.534 304.077C303.15 304.307 303.02 304.802 303.242 305.192Z" fill="#7BA84F"/>
<path d="M260.149 298.059C263.155 305.979 270.073 311.53 276.105 317.125C276.874 317.838 278.029 316.688 277.258 315.973C274.189 313.126 271.029 310.344 268.162 307.29C265.5 304.453 263.112 301.29 261.721 297.626C261.353 296.655 259.776 297.076 260.149 298.059Z" fill="#7BA84F"/>
<path d="M267.053 295.686C270.059 303.605 276.976 309.156 283.009 314.751C283.777 315.464 284.933 314.314 284.162 313.599C281.092 310.752 277.933 307.97 275.065 304.916C272.403 302.08 270.016 298.916 268.625 295.252C268.256 294.281 266.679 294.702 267.053 295.686Z" fill="#7BA84F"/>
<path d="M274.232 294.01C275.69 297.628 277.874 300.91 280.648 303.655C283.589 306.703 286.808 309.498 289.912 312.378C290.681 313.09 291.836 311.94 291.065 311.225C288.062 308.44 284.962 305.728 282.093 302.803C279.46 300.118 277.149 297.12 275.804 293.577C275.435 292.606 273.858 293.027 274.232 294.01Z" fill="#7BA84F"/>
<path d="M281.201 291.82C283.973 299.121 290.383 304.038 295.938 309.19C296.706 309.902 297.862 308.753 297.091 308.037C294.392 305.534 291.611 303.1 289.017 300.487C286.394 297.846 284.105 294.894 282.773 291.386C282.404 290.415 280.828 290.837 281.201 291.82Z" fill="#7BA84F"/>
<path d="M288.148 289.525C290.749 296.374 296.537 300.969 301.753 305.806C302.521 306.519 303.677 305.369 302.906 304.654C297.939 300.047 292.2 295.622 289.72 289.092C289.352 288.121 287.775 288.542 288.148 289.525Z" fill="#7BA84F"/>
<path d="M213.478 312.438C220.878 314.141 228.174 316.265 235.331 318.799C235.577 318.863 235.838 318.811 236.039 318.657C236.241 318.504 236.36 318.266 236.363 318.013C236.684 311.704 236.551 305.38 235.964 299.091C235.957 298.726 235.715 298.409 235.366 298.305C227.885 296.842 220.379 295.518 212.848 294.335C212.393 294.263 211.742 294.539 211.816 295.12L213.91 311.489C213.924 311.933 214.281 312.289 214.725 312.304C215.174 312.301 215.538 311.938 215.54 311.489L213.446 295.12L212.414 295.906C219.944 297.089 227.45 298.413 234.932 299.876L234.334 299.09C234.92 305.38 235.054 311.704 234.733 318.013L235.765 317.227C228.607 314.693 221.311 312.569 213.911 310.866C212.89 310.631 212.454 312.202 213.478 312.438Z" fill="#7BA84F"/>
<path d="M258.837 339.448C259.351 334.677 259.653 329.889 259.74 325.085C259.778 322.875 259.688 320.658 259.768 318.449C259.835 316.609 260.095 314.634 261.283 313.149C261.932 312.338 260.786 311.178 260.13 311.997C257.409 315.399 258.172 320.26 258.121 324.314C258.058 329.37 257.753 334.415 257.206 339.448C257.094 340.49 258.725 340.482 258.837 339.448Z" fill="#7BA84F"/>
<path d="M222.181 297.406C223.302 302.786 223.847 308.269 223.808 313.764C223.823 314.202 224.184 314.55 224.623 314.55C225.063 314.55 225.423 314.202 225.439 313.764C225.473 308.123 224.908 302.495 223.754 296.973C223.539 295.947 221.967 296.381 222.181 297.406Z" fill="#7BA84F"/>
<path d="M74.7839 280.961C78.1464 289.461 80.7907 298.228 82.6889 307.169C82.9066 308.195 84.4787 307.761 84.2612 306.736C82.3629 297.795 79.7187 289.028 76.3562 280.527C75.9748 279.563 74.3973 279.983 74.7839 280.961Z" fill="#7BA84F"/>
<path d="M79.2826 291.666C76.2111 292.045 73.0975 291.466 70.3678 290.008C68.9793 289.34 67.7512 288.381 66.7673 287.195C66.3458 286.716 66.1917 286.058 66.3566 285.442C66.6421 284.822 67.015 284.246 67.464 283.732C68.3398 282.652 68.5956 281.197 68.1404 279.884C67.6166 278.449 66.5201 277.345 65.5703 276.185C63.5998 273.779 62.2746 270.646 62.6374 267.495C62.9551 264.734 64.6148 262.042 67.3343 261.122C69.8042 260.227 72.5681 261.088 74.0919 263.227C75.4725 265.085 76.197 267.339 77.266 269.372C77.7835 270.409 78.4496 271.364 79.2432 272.208C80.2547 273.237 81.4539 273.675 82.716 274.309C85.6638 275.787 86.9184 279.328 85.5583 282.331C85.225 283.048 84.7581 283.696 84.1824 284.239C83.6368 284.752 83.0021 285.213 82.8017 285.977C82.5817 286.815 83.1354 287.45 83.1556 288.252C83.1639 289.004 82.7475 289.697 82.0792 290.043C81.1573 290.544 81.9795 291.952 82.9021 291.45C84.2496 290.707 84.9815 289.195 84.7277 287.678C84.5889 287.311 84.4736 286.934 84.3824 286.552C84.3688 286.199 84.6651 285.988 84.9088 285.768C85.506 285.254 86.0343 284.665 86.4806 284.016C88.2615 281.291 88.1441 277.742 86.1868 275.141C85.7153 274.517 85.1545 273.966 84.5226 273.505C83.8035 273.037 83.0387 272.643 82.24 272.329C81.1074 271.799 80.1478 270.96 79.472 269.908C78.0363 267.761 77.3173 265.23 75.9386 263.05C74.3997 260.617 71.9858 258.962 69.0087 259.148C65.7987 259.383 63.0016 261.421 61.7971 264.404C60.4898 267.476 60.8154 270.872 62.1928 273.859C62.9599 275.407 63.9338 276.843 65.0876 278.129C66.014 279.227 67.2867 280.72 66.501 282.22C66.1053 282.975 65.4686 283.575 65.0741 284.332C64.664 285.066 64.5471 285.929 64.747 286.746C65.2078 288.518 67.0093 289.83 68.4635 290.774C71.6685 292.842 75.4929 293.734 79.2826 293.295C80.3115 293.172 80.3239 291.541 79.2826 291.666Z" fill="#7BA84F"/>
<path d="M76.1561 275.642C75.9383 277.247 75.5593 278.827 75.0247 280.357C74.908 280.79 75.1618 281.237 75.5942 281.359C76.0269 281.467 76.4683 281.217 76.597 280.79C77.1316 279.26 77.5106 277.681 77.7284 276.075C77.8347 275.643 77.5848 275.203 77.159 275.073C76.7255 274.958 76.2798 275.211 76.1561 275.642Z" fill="#7BA84F"/>
<path d="M72.9686 285.472L76.585 287.043C76.7773 287.146 77.0009 287.175 77.2132 287.125C77.5293 287.038 77.7623 286.77 77.8048 286.445C77.8473 286.12 77.691 285.801 77.408 285.636L73.7915 284.065C73.5992 283.962 73.3757 283.933 73.1633 283.983C72.8473 284.07 72.6143 284.338 72.5718 284.663C72.5294 284.988 72.6856 285.307 72.9686 285.472Z" fill="#7BA84F"/>
<path d="M161.331 401.984C161.067 399.083 160.929 396.174 160.916 393.257C160.912 391.812 160.934 390.366 160.999 388.922C161.015 387.553 161.224 386.193 161.62 384.883C162.293 382.896 164.089 380.885 166.396 381.388C168.904 381.934 168.805 385.163 168.96 387.165C169.206 390.363 169.366 393.608 168.763 396.779C168.568 397.803 170.139 398.243 170.335 397.212C170.854 394.014 170.949 390.762 170.618 387.539C170.432 385.038 170.493 381.647 167.958 380.25C165.609 378.956 162.833 380.034 161.302 382.041C159.429 384.495 159.379 387.734 159.311 390.687C159.226 394.457 159.356 398.229 159.701 401.985C159.795 403.02 161.427 403.03 161.331 401.984Z" fill="#7BA84F"/>
<path d="M119.096 323.286L144.889 309.721L143.691 309.235C143.937 310.663 144.074 312.109 144.1 313.558C144.096 313.926 144.079 314.294 144.041 314.66C143.969 314.952 143.918 315.25 143.891 315.55C143.832 315.473 144.262 315.325 144.101 315.305C143.934 315.284 143.611 315.506 143.452 315.585C142.349 316.135 141.316 316.873 140.257 317.504C139.125 318.179 137.986 318.843 136.841 319.497C132.158 322.18 127.406 324.741 122.637 327.267C122.006 327.601 121.375 327.935 120.744 328.268C120.407 328.399 120.086 328.568 119.788 328.772L119.702 328.817C119.52 328.891 119.596 328.922 119.93 328.912C119.888 328.716 119.834 328.524 119.768 328.334C119.343 326.675 119.15 324.965 119.196 323.252C119.218 322.203 117.588 322.204 117.565 323.252C117.526 324.948 117.699 326.642 118.08 328.295C118.223 328.911 118.345 329.696 118.833 330.15C119.444 330.72 120.144 330.425 120.782 330.088C123.404 328.708 126.02 327.315 128.63 325.911C131.337 324.45 134.029 322.963 136.707 321.451C138.022 320.704 139.331 319.946 140.633 319.177C141.838 318.463 143.016 317.602 144.276 316.992C144.657 316.807 145.065 316.728 145.309 316.344C145.581 315.739 145.713 315.079 145.694 314.415C145.759 312.534 145.615 310.651 145.264 308.801C145.186 308.251 144.478 308.098 144.067 308.314L118.273 321.879C117.344 322.367 118.167 323.774 119.096 323.286Z" fill="#7BA84F"/>
<path d="M121.276 335.955L147.069 322.39L145.871 321.903C146.117 323.332 146.253 324.777 146.28 326.227C146.276 326.595 146.259 326.963 146.221 327.329C146.148 327.621 146.098 327.919 146.07 328.218C146.012 328.141 146.442 327.994 146.281 327.974C146.113 327.953 145.791 328.174 145.632 328.254C144.529 328.804 143.496 329.542 142.437 330.173C141.304 330.848 140.166 331.512 139.021 332.166C134.338 334.849 129.586 337.409 124.817 339.936C124.186 340.27 123.555 340.604 122.924 340.937C122.587 341.068 122.266 341.237 121.968 341.44L121.882 341.485C121.7 341.559 121.776 341.591 122.11 341.581C122.067 341.385 122.013 341.192 121.948 341.003C121.523 339.344 121.33 337.633 121.375 335.921C121.398 334.872 119.768 334.873 119.745 335.921C119.706 337.617 119.879 339.311 120.259 340.964C120.402 341.58 120.525 342.364 121.013 342.819C121.624 343.389 122.324 343.093 122.962 342.757C125.584 341.376 128.2 339.984 130.81 338.58C133.517 337.119 136.209 335.632 138.887 334.12C140.202 333.373 141.51 332.615 142.813 331.846C144.018 331.132 145.195 330.271 146.456 329.661C146.837 329.476 147.245 329.397 147.489 329.013C147.761 328.407 147.893 327.748 147.874 327.084C147.939 325.202 147.795 323.32 147.444 321.47C147.366 320.92 146.658 320.767 146.247 320.983L120.454 334.547C119.525 335.036 120.347 336.443 121.276 335.955Z" fill="#7BA84F"/>
<path d="M123.184 348.623L148.977 335.059L147.779 334.572C148.024 336.001 148.161 337.446 148.188 338.896C148.184 339.264 148.166 339.632 148.128 339.998C148.056 340.29 148.006 340.587 147.978 340.887C147.92 340.81 148.349 340.662 148.189 340.643C148.021 340.622 147.699 340.843 147.54 340.923C146.437 341.472 145.404 342.211 144.345 342.842C143.212 343.516 142.073 344.181 140.929 344.835C136.246 347.518 131.494 350.078 126.725 352.605C126.094 352.939 125.463 353.273 124.831 353.606C124.494 353.737 124.174 353.906 123.875 354.109L123.79 354.154C123.608 354.228 123.683 354.26 124.017 354.25C123.975 354.054 123.921 353.861 123.856 353.672C123.431 352.013 123.238 350.302 123.283 348.59C123.306 347.541 121.675 347.541 121.652 348.59C121.613 350.286 121.786 351.98 122.167 353.633C122.31 354.249 122.433 355.033 122.92 355.488C123.532 356.057 124.231 355.762 124.87 355.426C127.492 354.045 130.108 352.653 132.718 351.249C135.424 349.788 138.116 348.301 140.794 346.789C142.109 346.042 143.418 345.284 144.72 344.515C145.926 343.801 147.103 342.94 148.363 342.33C148.744 342.145 149.153 342.066 149.396 341.682C149.669 341.076 149.801 340.417 149.781 339.753C149.847 337.871 149.702 335.989 149.352 334.139C149.274 333.589 148.566 333.436 148.154 333.652L122.361 347.216C121.432 347.705 122.255 349.112 123.184 348.623Z" fill="#7BA84F"/>
<path d="M190.137 320.908C189.093 319.664 190.589 317.681 191.645 317.015C192.998 316.161 194.876 316.364 195.615 317.909C195.806 318.218 196.178 318.364 196.528 318.269C196.879 318.174 197.126 317.861 197.135 317.498C197.083 316.57 196.962 315.427 197.619 314.668C197.826 314.383 198.177 314.239 198.525 314.296C198.873 314.353 199.159 314.601 199.265 314.938C199.383 315.32 199.761 315.56 200.157 315.507C200.554 315.453 200.854 315.121 200.866 314.721C200.952 313.769 201.707 313.014 202.66 312.929C203.092 312.807 203.346 312.361 203.229 311.927C203.1 311.5 202.659 311.25 202.227 311.358C200.561 311.633 199.314 313.035 199.236 314.721L200.837 314.504C200.62 313.771 200.087 313.172 199.383 312.87C198.68 312.568 197.878 312.595 197.196 312.943C195.538 313.829 195.412 315.843 195.504 317.498L197.023 317.086C195.879 314.696 192.719 314.296 190.665 315.711C188.712 317.056 187.239 319.98 188.984 322.06C189.659 322.865 190.807 321.707 190.137 320.908Z" fill="#7BA84F"/>
<path d="M342.5 373.638C342.61 373.526 342.407 373.7 342.533 373.613C342.372 373.724 342.545 373.571 342.577 373.615C342.59 373.632 342.414 373.609 342.52 373.629C342.552 373.633 342.584 373.634 342.617 373.632C342.597 373.632 342.482 373.596 342.56 373.629C342.574 373.636 342.71 373.677 342.618 373.641C342.528 373.606 342.635 373.652 342.648 373.66C342.677 373.679 342.708 373.701 342.739 373.717C342.816 373.757 342.732 373.711 342.718 373.698C342.745 373.722 342.772 373.746 342.798 373.771C342.851 373.821 342.896 373.88 342.948 373.93C343.012 373.991 342.946 373.921 342.935 373.907C342.965 373.945 342.993 373.986 343.02 374.025C343.109 374.153 343.191 374.286 343.266 374.422C343.303 374.491 343.339 374.56 343.373 374.63C343.39 374.665 343.405 374.701 343.422 374.735C343.481 374.85 343.387 374.634 343.432 374.756C343.545 375.059 343.633 375.372 343.694 375.69C343.696 375.698 343.716 375.825 343.703 375.736C343.69 375.647 343.707 375.774 343.708 375.782C343.715 375.86 343.722 375.937 343.726 376.015C343.734 376.179 343.733 376.343 343.722 376.507C343.715 376.632 343.752 376.384 343.716 376.503C343.687 376.601 343.729 376.477 343.737 376.477C343.726 376.477 343.679 376.597 343.732 376.503C343.774 376.426 343.733 376.499 343.714 376.519C343.612 376.621 343.802 376.479 343.672 376.546C343.658 376.553 343.56 376.602 343.651 376.561C343.743 376.52 343.612 376.571 343.593 376.576C343.556 376.587 343.378 376.608 343.472 376.605C343.572 376.602 343.37 376.602 343.339 376.601C343.304 376.6 343.269 376.596 343.234 376.595C343.248 376.595 343.369 376.625 343.279 376.6C343.201 376.578 343.121 376.561 343.043 376.54C342.897 376.499 343.113 376.586 342.978 376.517C342.915 376.486 342.853 376.453 342.793 376.416C342.749 376.389 342.62 376.296 342.728 376.382C342.663 376.33 342.602 376.275 342.545 376.216C342.51 376.182 342.379 376.022 342.465 376.139C342.415 376.071 342.369 376 342.326 375.927C342.283 375.854 342.247 375.779 342.209 375.703C342.216 375.716 342.25 375.819 342.222 375.731C342.208 375.685 342.189 375.64 342.174 375.594C342.148 375.513 342.126 375.431 342.107 375.348C342.099 375.313 342.092 375.277 342.085 375.241C342.082 375.225 342.06 375.074 342.071 375.17C342.083 375.266 342.07 375.145 342.069 375.133C342.066 375.084 342.062 375.036 342.06 374.987C342.056 374.89 342.057 374.793 342.061 374.696C342.057 374.248 341.694 373.885 341.245 373.881C340.799 373.89 340.439 374.25 340.43 374.696C340.378 375.656 340.706 376.597 341.343 377.318C342.013 378.05 343.024 378.37 343.994 378.156C344.492 378.04 344.916 377.716 345.16 377.266C345.355 376.798 345.417 376.284 345.338 375.782C345.257 374.835 344.928 373.925 344.386 373.144C344.069 372.639 343.588 372.259 343.025 372.066C342.431 371.893 341.79 372.054 341.347 372.486C341.14 372.691 341.058 372.992 341.133 373.275C341.208 373.557 341.429 373.777 341.711 373.853C341.994 373.928 342.295 373.846 342.5 373.638Z" fill="#7BA84F"/>
<path d="M324.916 355.756C325.026 355.644 324.822 355.818 324.949 355.73C324.788 355.842 324.961 355.688 324.993 355.732C325.005 355.75 324.829 355.726 324.935 355.747C324.968 355.751 325 355.752 325.032 355.75C325.013 355.75 324.898 355.713 324.975 355.747C324.99 355.754 325.126 355.795 325.034 355.759C324.944 355.724 325.05 355.77 325.063 355.778C325.093 355.796 325.124 355.819 325.155 355.835C325.232 355.875 325.148 355.829 325.134 355.816C325.16 355.84 325.188 355.864 325.214 355.889C325.266 355.939 325.311 355.998 325.364 356.048C325.428 356.108 325.362 356.039 325.351 356.025C325.381 356.063 325.408 356.104 325.436 356.143C325.525 356.271 325.606 356.404 325.681 356.54C325.719 356.608 325.755 356.678 325.789 356.748C325.806 356.783 325.82 356.819 325.838 356.853C325.897 356.968 325.803 356.752 325.847 356.873C325.961 357.177 326.048 357.49 326.11 357.808C326.111 357.816 326.131 357.943 326.119 357.854C326.106 357.765 326.123 357.892 326.123 357.9C326.13 357.978 326.137 358.055 326.141 358.133C326.15 358.297 326.148 358.461 326.138 358.625C326.13 358.75 326.167 358.502 326.132 358.621C326.103 358.718 326.145 358.595 326.153 358.594C326.142 358.595 326.094 358.715 326.147 358.621C326.19 358.544 326.149 358.617 326.129 358.637C326.028 358.739 326.217 358.597 326.088 358.664C326.074 358.671 325.976 358.72 326.067 358.679C326.159 358.638 326.028 358.689 326.008 358.694C325.972 358.704 325.794 358.726 325.888 358.723C325.987 358.719 325.786 358.72 325.754 358.719C325.72 358.718 325.685 358.714 325.65 358.713C325.664 358.713 325.785 358.742 325.695 358.718C325.617 358.696 325.537 358.679 325.459 358.658C325.313 358.617 325.529 358.704 325.394 358.635C325.331 358.604 325.269 358.571 325.209 358.534C325.164 358.507 325.036 358.414 325.143 358.499C325.079 358.448 325.018 358.393 324.96 358.334C324.926 358.299 324.794 358.14 324.881 358.257C324.831 358.189 324.784 358.118 324.742 358.045C324.699 357.972 324.663 357.897 324.625 357.821C324.632 357.834 324.666 357.937 324.638 357.848C324.623 357.803 324.605 357.758 324.59 357.712C324.564 357.631 324.542 357.549 324.523 357.466C324.515 357.431 324.507 357.395 324.501 357.359C324.497 357.343 324.475 357.191 324.487 357.287C324.499 357.384 324.486 357.263 324.485 357.251C324.482 357.202 324.478 357.154 324.476 357.105C324.472 357.008 324.473 356.911 324.476 356.814C324.473 356.365 324.11 356.003 323.661 355.999C323.215 356.008 322.855 356.368 322.846 356.814C322.794 357.774 323.122 358.715 323.759 359.435C324.429 360.168 325.44 360.488 326.41 360.274C326.908 360.158 327.332 359.834 327.575 359.384C327.771 358.915 327.833 358.402 327.754 357.9C327.672 356.952 327.344 356.043 326.802 355.261C326.485 354.757 326.004 354.376 325.44 354.183C324.846 354.011 324.205 354.172 323.763 354.604C323.448 354.922 323.449 355.436 323.766 355.753C324.083 356.07 324.597 356.072 324.916 355.756Z" fill="#7BA84F"/>
<path d="M333.189 359.284C333.299 359.172 333.095 359.345 333.222 359.258C333.061 359.369 333.234 359.216 333.266 359.26C333.278 359.278 333.102 359.254 333.208 359.274C333.241 359.278 333.273 359.279 333.305 359.277C333.285 359.277 333.171 359.241 333.248 359.275C333.263 359.281 333.399 359.322 333.307 359.287C333.217 359.252 333.323 359.297 333.336 359.305C333.366 359.324 333.397 359.346 333.428 359.362C333.505 359.402 333.421 359.356 333.407 359.343C333.433 359.367 333.461 359.391 333.487 359.416C333.539 359.466 333.584 359.525 333.637 359.575C333.701 359.636 333.635 359.567 333.624 359.553C333.654 359.591 333.681 359.631 333.709 359.671C333.798 359.799 333.879 359.931 333.954 360.068C333.992 360.136 334.028 360.205 334.062 360.275C334.079 360.31 334.093 360.346 334.111 360.381C334.17 360.495 334.076 360.28 334.12 360.401C334.234 360.705 334.321 361.017 334.383 361.336C334.384 361.343 334.404 361.47 334.392 361.381C334.379 361.292 334.396 361.419 334.396 361.427C334.403 361.505 334.41 361.582 334.414 361.66C334.423 361.824 334.421 361.988 334.411 362.152C334.403 362.278 334.44 362.029 334.405 362.148C334.376 362.246 334.418 362.122 334.426 362.122C334.415 362.122 334.367 362.242 334.42 362.148C334.463 362.071 334.422 362.145 334.402 362.164C334.301 362.266 334.49 362.124 334.361 362.191C334.347 362.198 334.249 362.247 334.34 362.207C334.432 362.165 334.301 362.216 334.281 362.221C334.245 362.232 334.067 362.254 334.161 362.25C334.26 362.247 334.059 362.247 334.027 362.246C333.993 362.245 333.958 362.241 333.923 362.24C333.937 362.241 334.058 362.27 333.968 362.245C333.89 362.224 333.81 362.207 333.732 362.185C333.586 362.145 333.802 362.231 333.667 362.163C333.604 362.131 333.542 362.098 333.482 362.062C333.437 362.035 333.308 361.941 333.416 362.027C333.352 361.975 333.291 361.92 333.233 361.861C333.199 361.827 333.067 361.667 333.154 361.784C333.104 361.716 333.057 361.646 333.015 361.573C332.972 361.5 332.936 361.424 332.898 361.348C332.905 361.362 332.939 361.464 332.911 361.376C332.896 361.33 332.878 361.285 332.863 361.239C332.837 361.158 332.815 361.077 332.796 360.994C332.788 360.958 332.78 360.923 332.774 360.887C332.77 360.87 332.748 360.719 332.76 360.815C332.772 360.911 332.759 360.79 332.758 360.778C332.755 360.73 332.751 360.681 332.749 360.633C332.745 360.535 332.746 360.439 332.749 360.341C332.746 359.893 332.383 359.53 331.934 359.526C331.488 359.535 331.128 359.895 331.119 360.341C331.067 361.301 331.395 362.243 332.032 362.963C332.702 363.696 333.713 364.015 334.683 363.802C335.181 363.685 335.605 363.361 335.848 362.911C336.044 362.443 336.106 361.929 336.027 361.427C335.945 360.48 335.617 359.57 335.075 358.789C334.758 358.284 334.277 357.904 333.713 357.711C333.119 357.538 332.478 357.699 332.036 358.131C331.718 358.449 331.718 358.965 332.036 359.283C332.354 359.602 332.871 359.602 333.189 359.284Z" fill="#7BA84F"/>
<path d="M341.462 362.811C341.571 362.699 341.368 362.873 341.495 362.785C341.334 362.896 341.507 362.743 341.538 362.787C341.551 362.805 341.375 362.781 341.481 362.802C341.513 362.806 341.546 362.807 341.578 362.805C341.558 362.805 341.443 362.768 341.521 362.802C341.536 362.809 341.671 362.85 341.58 362.814C341.49 362.779 341.596 362.825 341.609 362.833C341.639 362.851 341.67 362.874 341.701 362.89C341.778 362.929 341.694 362.883 341.679 362.87C341.706 362.895 341.733 362.918 341.76 362.943C341.812 362.994 341.857 363.053 341.909 363.102C341.974 363.163 341.908 363.094 341.896 363.08C341.926 363.118 341.954 363.159 341.982 363.198C342.07 363.326 342.152 363.459 342.227 363.595C342.264 363.663 342.3 363.732 342.334 363.802C342.351 363.837 342.366 363.874 342.384 363.908C342.443 364.023 342.349 363.807 342.393 363.928C342.506 364.232 342.594 364.545 342.656 364.863C342.657 364.871 342.677 364.998 342.664 364.909C342.651 364.82 342.668 364.947 342.669 364.955C342.676 365.032 342.683 365.11 342.687 365.188C342.695 365.351 342.694 365.516 342.684 365.679C342.676 365.805 342.713 365.557 342.678 365.676C342.648 365.773 342.691 365.65 342.698 365.649C342.687 365.65 342.64 365.77 342.693 365.675C342.736 365.599 342.694 365.672 342.675 365.692C342.574 365.794 342.763 365.652 342.634 365.719C342.62 365.726 342.521 365.775 342.612 365.734C342.704 365.693 342.573 365.743 342.554 365.749C342.518 365.759 342.34 365.781 342.433 365.778C342.533 365.774 342.332 365.775 342.3 365.774C342.265 365.773 342.231 365.769 342.196 365.768C342.21 365.768 342.331 365.797 342.24 365.773C342.162 365.751 342.082 365.734 342.004 365.712C341.859 365.672 342.075 365.758 341.939 365.69C341.876 365.659 341.814 365.626 341.754 365.589C341.71 365.562 341.581 365.468 341.689 365.554C341.625 365.503 341.564 365.448 341.506 365.389C341.472 365.354 341.34 365.195 341.426 365.312C341.376 365.244 341.33 365.173 341.287 365.1C341.245 365.027 341.208 364.951 341.171 364.876C341.177 364.889 341.211 364.991 341.183 364.903C341.169 364.857 341.15 364.812 341.136 364.766C341.11 364.686 341.087 364.604 341.068 364.521C341.06 364.486 341.053 364.45 341.046 364.414C341.043 364.397 341.021 364.246 341.033 364.342C341.044 364.438 341.031 364.318 341.031 364.306C341.028 364.257 341.023 364.209 341.021 364.16C341.017 364.063 341.019 363.966 341.022 363.869C341.018 363.42 340.656 363.057 340.207 363.054C339.76 363.063 339.4 363.422 339.392 363.869C339.34 364.828 339.668 365.77 340.304 366.49C340.975 367.223 341.985 367.543 342.956 367.329C343.454 367.212 343.878 366.888 344.121 366.439C344.317 365.97 344.379 365.456 344.299 364.955C344.218 364.007 343.89 363.098 343.347 362.316C343.03 361.812 342.55 361.431 341.986 361.238C341.392 361.066 340.751 361.226 340.309 361.659C339.993 361.977 339.995 362.491 340.312 362.808C340.629 363.125 341.143 363.126 341.462 362.811Z" fill="#7BA84F"/>
<path d="M325.701 367.414C325.81 367.302 325.607 367.476 325.733 367.388C325.572 367.5 325.745 367.347 325.777 367.39C325.79 367.408 325.614 367.385 325.72 367.405C325.752 367.409 325.784 367.41 325.817 367.408C325.797 367.408 325.682 367.371 325.76 367.405C325.774 367.412 325.91 367.453 325.818 367.417C325.728 367.382 325.835 367.428 325.848 367.436C325.877 367.455 325.908 367.477 325.939 367.493C326.016 367.533 325.932 367.487 325.918 367.474C325.945 367.498 325.972 367.522 325.998 367.547C326.051 367.597 326.096 367.656 326.148 367.706C326.212 367.767 326.146 367.697 326.135 367.683C326.165 367.721 326.193 367.762 326.22 367.801C326.309 367.929 326.391 368.062 326.466 368.198C326.503 368.267 326.539 368.336 326.573 368.406C326.59 368.441 326.605 368.477 326.623 368.511C326.682 368.626 326.588 368.41 326.632 368.532C326.745 368.835 326.833 369.148 326.894 369.466C326.896 369.474 326.916 369.601 326.903 369.512C326.89 369.423 326.907 369.55 326.908 369.558C326.915 369.636 326.922 369.713 326.926 369.791C326.934 369.955 326.933 370.119 326.922 370.283C326.915 370.408 326.952 370.16 326.916 370.279C326.887 370.377 326.929 370.253 326.937 370.252C326.926 370.253 326.879 370.373 326.932 370.279C326.974 370.202 326.933 370.275 326.914 370.295C326.812 370.397 327.002 370.255 326.872 370.322C326.859 370.329 326.76 370.378 326.851 370.337C326.943 370.296 326.812 370.347 326.793 370.352C326.756 370.363 326.578 370.384 326.672 370.381C326.772 370.378 326.57 370.378 326.539 370.377C326.504 370.376 326.469 370.372 326.435 370.371C326.449 370.371 326.569 370.401 326.479 370.376C326.401 370.354 326.321 370.337 326.243 370.316C326.097 370.275 326.314 370.362 326.178 370.293C326.115 370.262 326.053 370.229 325.993 370.192C325.949 370.165 325.82 370.072 325.928 370.157C325.863 370.106 325.802 370.051 325.745 369.992C325.71 369.958 325.579 369.798 325.665 369.915C325.615 369.847 325.569 369.776 325.526 369.703C325.484 369.63 325.447 369.555 325.41 369.479C325.416 369.492 325.45 369.595 325.422 369.507C325.408 369.461 325.389 369.416 325.374 369.37C325.349 369.289 325.326 369.207 325.307 369.124C325.299 369.089 325.292 369.053 325.285 369.017C325.282 369.001 325.26 368.85 325.271 368.946C325.283 369.042 325.27 368.921 325.269 368.909C325.266 368.86 325.262 368.812 325.26 368.763C325.256 368.666 325.258 368.569 325.261 368.472C325.257 368.023 324.894 367.661 324.446 367.657C323.999 367.666 323.639 368.026 323.63 368.472C323.578 369.432 323.906 370.373 324.543 371.093C325.214 371.826 326.224 372.146 327.194 371.932C327.692 371.816 328.117 371.492 328.36 371.042C328.556 370.574 328.617 370.06 328.538 369.558C328.457 368.611 328.129 367.701 327.586 366.919C327.269 366.415 326.789 366.035 326.225 365.842C325.631 365.669 324.99 365.83 324.548 366.262C324.232 366.581 324.233 367.094 324.551 367.411C324.868 367.728 325.382 367.73 325.701 367.414Z" fill="#7BA84F"/>
<path d="M333.973 370.942C334.083 370.83 333.879 371.003 334.006 370.916C333.845 371.027 334.018 370.874 334.049 370.918C334.062 370.936 333.886 370.912 333.992 370.933C334.025 370.936 334.057 370.937 334.089 370.936C334.069 370.936 333.955 370.899 334.032 370.933C334.047 370.939 334.183 370.98 334.091 370.945C334.001 370.91 334.107 370.955 334.12 370.964C334.15 370.982 334.181 371.004 334.212 371.02C334.289 371.06 334.205 371.014 334.19 371.001C334.217 371.025 334.245 371.049 334.271 371.074C334.323 371.124 334.368 371.183 334.421 371.233C334.485 371.294 334.419 371.225 334.408 371.211C334.438 371.249 334.465 371.289 334.493 371.329C334.581 371.457 334.663 371.589 334.738 371.726C334.776 371.794 334.812 371.863 334.846 371.933C334.862 371.968 334.877 372.004 334.895 372.039C334.954 372.154 334.86 371.938 334.904 372.059C335.018 372.363 335.105 372.676 335.167 372.994C335.168 373.001 335.188 373.129 335.176 373.039C335.163 372.95 335.179 373.078 335.18 373.086C335.187 373.163 335.194 373.241 335.198 373.318C335.206 373.482 335.205 373.646 335.195 373.81C335.187 373.936 335.224 373.687 335.189 373.807C335.16 373.904 335.202 373.78 335.21 373.78C335.198 373.78 335.151 373.901 335.204 373.806C335.247 373.729 335.206 373.803 335.186 373.822C335.085 373.924 335.274 373.782 335.145 373.849C335.131 373.856 335.032 373.905 335.123 373.865C335.216 373.823 335.085 373.874 335.065 373.88C335.029 373.89 334.851 373.912 334.945 373.908C335.044 373.905 334.843 373.906 334.811 373.905C334.776 373.904 334.742 373.899 334.707 373.899C334.721 373.899 334.842 373.928 334.752 373.903C334.674 373.882 334.594 373.865 334.516 373.843C334.37 373.803 334.586 373.889 334.451 373.821C334.388 373.789 334.326 373.757 334.266 373.72C334.221 373.693 334.092 373.599 334.2 373.685C334.136 373.634 334.075 373.578 334.017 373.52C333.983 373.485 333.851 373.326 333.938 373.443C333.888 373.374 333.841 373.304 333.799 373.231C333.756 373.158 333.72 373.082 333.682 373.006C333.689 373.02 333.722 373.122 333.695 373.034C333.68 372.988 333.662 372.943 333.647 372.897C333.621 372.816 333.599 372.735 333.58 372.652C333.572 372.616 333.564 372.581 333.558 372.545C333.554 372.528 333.532 372.377 333.544 372.473C333.556 372.569 333.543 372.448 333.542 372.436C333.539 372.388 333.535 372.339 333.533 372.291C333.529 372.194 333.53 372.097 333.533 371.999C333.53 371.551 333.167 371.188 332.718 371.185C332.272 371.194 331.912 371.553 331.903 371.999C331.851 372.959 332.179 373.901 332.816 374.621C333.486 375.354 334.497 375.674 335.467 375.46C335.965 375.343 336.389 375.019 336.632 374.57C336.828 374.101 336.89 373.587 336.811 373.086C336.729 372.138 336.401 371.228 335.859 370.447C335.542 369.943 335.061 369.562 334.497 369.369C333.903 369.197 333.262 369.357 332.82 369.789C332.612 369.995 332.531 370.296 332.606 370.578C332.681 370.86 332.901 371.081 333.184 371.156C333.466 371.231 333.767 371.149 333.973 370.942Z" fill="#7BA84F"/>
<path fill-rule="evenodd" clip-rule="evenodd" d="M343.04 386.117L343.03 386.127C342.711 386.443 342.197 386.442 341.88 386.124C341.563 385.807 341.561 385.294 341.877 384.975C342.319 384.543 342.96 384.382 343.554 384.555C344.118 384.748 344.599 385.128 344.916 385.633C345.458 386.414 345.786 387.324 345.868 388.271C345.947 388.773 345.885 389.287 345.689 389.755C345.446 390.205 345.022 390.529 344.524 390.645C343.554 390.859 342.543 390.539 341.873 389.806C341.236 389.086 340.908 388.145 340.96 387.185C340.969 386.739 341.328 386.379 341.775 386.37C342.224 386.374 342.587 386.736 342.59 387.185C342.587 387.282 342.586 387.379 342.59 387.476C342.59 387.491 342.591 387.506 342.592 387.52C342.593 387.538 342.594 387.556 342.596 387.574L342.599 387.622L342.601 387.647L342.608 387.69C342.611 387.709 342.614 387.725 342.614 387.73C342.621 387.766 342.629 387.802 342.637 387.837C342.655 387.92 342.678 388.002 342.704 388.083C342.711 388.105 342.719 388.127 342.727 388.149C342.735 388.171 342.743 388.192 342.75 388.214L342.753 388.219C342.785 388.286 342.818 388.352 342.856 388.416C342.892 388.479 342.932 388.54 342.974 388.6C342.95 388.564 342.983 388.603 343.019 388.644C343.041 388.668 343.063 388.694 343.074 388.705C343.12 388.752 343.168 388.796 343.218 388.838C343.206 388.828 343.233 388.846 343.264 388.866C343.285 388.881 343.308 388.897 343.322 388.905C343.383 388.942 343.445 388.975 343.508 389.006C343.517 389.011 343.525 389.015 343.531 389.018C343.539 389.02 343.552 389.023 343.573 389.029C343.612 389.04 343.652 389.049 343.692 389.059L343.739 389.071C343.758 389.075 343.778 389.08 343.797 389.086L343.834 389.088C343.846 389.089 343.857 389.09 343.868 389.09L343.888 389.09L343.98 389.091C343.99 389.088 344.016 389.084 344.043 389.08C344.075 389.074 344.109 389.069 344.122 389.065C344.125 389.064 344.131 389.062 344.138 389.06L344.187 389.042L344.191 389.041L344.202 389.035C344.214 389.029 344.223 389.024 344.23 389.021L344.24 389.011L344.246 388.992C344.249 388.981 344.251 388.974 344.254 388.968C344.262 388.814 344.263 388.659 344.255 388.504C344.251 388.426 344.244 388.349 344.237 388.271L344.233 388.242L344.232 388.227L344.224 388.179C344.162 387.861 344.074 387.548 343.961 387.245L343.958 387.236C343.98 387.278 343.972 387.254 343.962 387.232C343.952 387.208 343.94 387.187 343.958 387.236L343.952 387.224C343.942 387.205 343.933 387.184 343.923 387.164C343.917 387.149 343.91 387.134 343.902 387.119C343.868 387.049 343.833 386.98 343.795 386.911C343.72 386.775 343.638 386.642 343.55 386.514L343.546 386.509C343.529 386.484 343.51 386.457 343.492 386.432L343.478 386.419C343.451 386.393 343.426 386.366 343.402 386.338C343.378 386.311 343.354 386.284 343.328 386.26C343.31 386.243 343.291 386.226 343.273 386.21L343.04 386.117ZM343.04 386.117C343.016 386.132 343.016 386.128 343.025 386.119C342.991 386.14 342.974 386.161 343.04 386.117L343.269 386.206C343.248 386.195 343.227 386.181 343.206 386.168C343.201 386.164 343.195 386.161 343.19 386.157C343.186 386.154 343.181 386.152 343.177 386.149C343.175 386.147 343.169 386.144 343.161 386.141C343.142 386.136 343.114 386.127 343.098 386.122C343.082 386.121 343.066 386.12 343.049 386.118L343.04 386.117L343.05 386.11C343.057 386.11 343.065 386.11 343.072 386.111C343.05 386.1 343.069 386.104 343.094 386.11C343.103 386.109 343.109 386.107 343.106 386.103C343.097 386.09 343.073 386.095 343.051 386.105L343.047 386.11L343.05 386.11L343.04 386.117Z" fill="#7BA84F"/>
<path fill-rule="evenodd" clip-rule="evenodd" d="M334.757 382.6L334.767 382.59L335 382.682C335.018 382.698 335.037 382.715 335.055 382.732C335.081 382.757 335.105 382.784 335.129 382.811C335.154 382.838 335.178 382.866 335.205 382.891L335.219 382.904C335.236 382.928 335.253 382.952 335.269 382.976L335.277 382.987C335.366 383.115 335.448 383.247 335.522 383.384C335.56 383.452 335.596 383.521 335.63 383.591C335.637 383.606 335.644 383.621 335.651 383.636C335.66 383.657 335.669 383.677 335.679 383.697L335.686 383.709L335.688 383.717C335.802 384.021 335.89 384.334 335.951 384.652L335.955 384.675L335.959 384.699C335.961 384.714 335.963 384.73 335.964 384.738C335.964 384.741 335.964 384.744 335.964 384.744C335.972 384.821 335.978 384.899 335.983 384.976C335.99 385.131 335.99 385.286 335.981 385.441C335.979 385.446 335.976 385.454 335.973 385.465L335.967 385.483L335.958 385.494C335.95 385.497 335.941 385.501 335.929 385.507L335.918 385.513L335.915 385.515L335.889 385.524C335.872 385.53 335.855 385.536 335.85 385.538C335.836 385.542 335.802 385.547 335.77 385.552C335.743 385.557 335.718 385.561 335.707 385.564L335.659 385.563C335.646 385.563 335.634 385.563 335.624 385.563C335.611 385.563 335.601 385.563 335.596 385.563C335.579 385.562 335.562 385.561 335.545 385.56L335.524 385.558C335.49 385.549 335.455 385.54 335.42 385.532C335.38 385.522 335.34 385.512 335.3 385.501C335.28 385.496 335.266 385.492 335.258 385.491C335.252 385.488 335.244 385.484 335.235 385.479C335.172 385.447 335.11 385.415 335.05 385.378C335.035 385.369 335.012 385.353 334.991 385.339C334.96 385.318 334.934 385.3 334.945 385.311C334.895 385.268 334.847 385.224 334.801 385.178C334.79 385.166 334.768 385.141 334.747 385.117C334.71 385.075 334.676 385.036 334.702 385.073C334.659 385.013 334.62 384.952 334.583 384.889C334.545 384.824 334.512 384.757 334.479 384.689L334.477 384.686C334.47 384.665 334.462 384.643 334.454 384.622C334.446 384.6 334.438 384.577 334.431 384.555C334.405 384.474 334.383 384.393 334.364 384.31C334.356 384.274 334.349 384.239 334.342 384.203C334.341 384.198 334.338 384.181 334.335 384.163L334.328 384.119L334.326 384.094L334.323 384.045C334.321 384.013 334.318 383.981 334.317 383.949C334.313 383.852 334.314 383.755 334.318 383.657C334.314 383.209 333.951 382.846 333.502 382.843C333.056 382.851 332.696 383.211 332.687 383.657C332.635 384.617 332.963 385.559 333.6 386.279C334.27 387.012 335.281 387.332 336.251 387.118C336.749 387.001 337.173 386.677 337.416 386.228C337.612 385.759 337.674 385.245 337.595 384.744C337.513 383.796 337.185 382.887 336.643 382.105C336.326 381.601 335.845 381.22 335.281 381.027C334.687 380.855 334.046 381.015 333.604 381.448C333.289 381.766 333.29 382.28 333.607 382.597C333.924 382.914 334.438 382.915 334.757 382.6ZM334.752 382.592C334.718 382.613 334.702 382.633 334.767 382.59C334.743 382.605 334.744 382.601 334.752 382.592ZM334.778 382.583L334.767 382.59L334.996 382.678C334.975 382.667 334.954 382.654 334.933 382.64C334.929 382.638 334.925 382.635 334.921 382.632C334.915 382.629 334.91 382.625 334.904 382.622C334.902 382.62 334.896 382.617 334.888 382.613C334.87 382.608 334.841 382.599 334.826 382.594C334.809 382.594 334.793 382.593 334.777 382.591L334.768 382.589L334.778 382.583ZM334.778 382.583L334.774 382.582L334.778 382.578C334.801 382.568 334.824 382.562 334.834 382.576C334.836 382.58 334.831 382.582 334.821 382.583C334.796 382.577 334.778 382.572 334.799 382.583C334.796 382.583 334.792 382.583 334.788 382.583C334.784 382.583 334.781 382.583 334.778 382.583Z" fill="#7BA84F"/>
<path d="M326.479 379.065C326.471 379.074 326.47 379.078 326.494 379.062L326.479 379.065Z" fill="#7BA84F"/>
<path fill-rule="evenodd" clip-rule="evenodd" d="M326.494 379.062C326.491 379.065 326.488 379.069 326.484 379.072C326.165 379.388 325.651 379.386 325.334 379.069C325.017 378.752 325.016 378.239 325.331 377.92C325.774 377.488 326.414 377.327 327.008 377.5C327.572 377.693 328.053 378.073 328.37 378.578C328.912 379.359 329.24 380.269 329.322 381.216C329.401 381.718 329.339 382.232 329.143 382.7C328.9 383.15 328.476 383.474 327.978 383.591C327.008 383.804 325.997 383.484 325.327 382.752C324.69 382.031 324.362 381.09 324.414 380.13C324.423 379.684 324.783 379.324 325.229 379.315C325.678 379.319 326.041 379.682 326.045 380.13C326.041 380.227 326.04 380.324 326.044 380.421C326.045 380.454 326.048 380.486 326.05 380.518C326.051 380.534 326.052 380.551 326.053 380.567C326.053 380.57 326.054 380.58 326.055 380.592C326.057 380.604 326.06 380.62 326.062 380.635C326.065 380.654 326.068 380.671 326.069 380.676C326.076 380.711 326.083 380.747 326.091 380.783C326.11 380.865 326.132 380.947 326.158 381.028C326.165 381.05 326.173 381.072 326.181 381.094C326.189 381.116 326.197 381.137 326.204 381.159L326.206 381.163C326.239 381.23 326.272 381.297 326.31 381.361C326.347 381.425 326.387 381.486 326.429 381.546C326.403 381.509 326.437 381.548 326.474 381.589C326.495 381.614 326.517 381.639 326.528 381.65C326.574 381.697 326.622 381.741 326.672 381.783C326.661 381.773 326.687 381.791 326.718 381.812C326.739 381.826 326.763 381.842 326.777 381.851C326.837 381.887 326.899 381.92 326.962 381.952C326.971 381.956 326.979 381.96 326.985 381.964C326.994 381.965 327.007 381.968 327.027 381.974C327.066 381.985 327.107 381.995 327.147 382.004C327.182 382.013 327.217 382.021 327.251 382.031C327.258 382.031 327.265 382.032 327.272 382.032C327.289 382.034 327.306 382.035 327.323 382.035C327.332 382.036 327.358 382.036 327.386 382.036C327.402 382.036 327.419 382.036 327.434 382.036C327.445 382.034 327.47 382.029 327.496 382.025C327.528 382.02 327.563 382.014 327.577 382.01C327.582 382.009 327.599 382.003 327.616 381.997C327.625 381.993 327.634 381.99 327.642 381.987L327.646 381.985C327.651 381.983 327.654 381.981 327.656 381.98C327.668 381.974 327.677 381.969 327.685 381.966C327.687 381.963 327.691 381.96 327.695 381.956C327.696 381.951 327.698 381.945 327.7 381.937C327.703 381.927 327.706 381.919 327.708 381.914C327.717 381.759 327.717 381.604 327.71 381.449C327.706 381.371 327.699 381.294 327.691 381.216C327.691 381.214 327.69 381.201 327.688 381.186C327.687 381.181 327.686 381.176 327.686 381.171C327.685 381.164 327.683 381.156 327.682 381.149C327.68 381.137 327.679 381.127 327.678 381.125C327.617 380.806 327.529 380.494 327.416 380.19C327.414 380.187 327.414 380.184 327.413 380.182C327.411 380.178 327.409 380.174 327.406 380.17C327.396 380.15 327.387 380.129 327.378 380.109C327.371 380.094 327.364 380.079 327.357 380.064C327.323 379.994 327.287 379.925 327.25 379.857C327.175 379.72 327.093 379.588 327.004 379.46L327.002 379.457C326.984 379.43 326.965 379.403 326.946 379.377C326.942 379.374 326.938 379.369 326.932 379.364C326.905 379.339 326.881 379.311 326.856 379.283C326.832 379.257 326.808 379.23 326.782 379.205C326.764 379.188 326.746 379.172 326.728 379.155M326.723 379.151C326.702 379.14 326.681 379.126 326.66 379.113C326.65 379.106 326.641 379.1 326.632 379.094C326.629 379.093 326.623 379.09 326.616 379.086C326.597 379.081 326.568 379.072 326.553 379.067C326.536 379.066 326.52 379.065 326.504 379.063C326.501 379.063 326.497 379.063 326.494 379.062C326.497 379.06 326.501 379.057 326.505 379.055C326.512 379.055 326.519 379.056 326.527 379.056C326.505 379.045 326.524 379.049 326.548 379.055C326.558 379.054 326.563 379.052 326.561 379.049C326.551 379.035 326.528 379.04 326.505 379.051C326.505 379.051 326.502 379.053 326.501 379.055L326.505 379.055C326.501 379.057 326.497 379.06 326.494 379.062C326.492 379.061 326.489 379.06 326.487 379.06C326.484 379.061 326.482 379.063 326.479 379.065C326.481 379.063 326.482 379.061 326.484 379.059C326.459 379.054 326.469 379.054 326.49 379.055M326.494 379.062C326.429 379.106 326.445 379.085 326.479 379.065L326.494 379.062Z" fill="#7BA84F"/>
<path fill-rule="evenodd" clip-rule="evenodd" d="M322.211 401.692C322.106 400.393 321.995 399.095 321.88 397.797C321.316 391.432 320.668 385.074 320.02 378.717C319.906 377.599 319.792 376.481 319.678 375.363L319.582 374.41C318.88 367.504 318.178 360.596 317.624 353.676C317.272 349.274 316.921 344.824 317.812 340.46C318.586 336.668 320.129 333.065 321.651 329.51C321.839 329.07 322.027 328.63 322.214 328.191C325.699 319.981 329.455 311.899 333.481 303.947C334.502 301.931 335.54 299.924 336.595 297.926C337.122 296.927 337.654 295.93 338.19 294.935C338.618 294.062 339.096 293.214 339.622 292.395C340.097 291.637 340.823 291.069 341.673 290.789C342.674 290.593 343.708 290.642 344.686 290.933C346.785 291.371 348.873 291.857 350.95 292.391C359.329 294.549 367.493 297.468 375.339 301.114C375.666 301.265 376.004 301.418 376.348 301.574C379.252 302.887 382.623 304.41 383.97 307.386C384.823 309.269 384.63 311.31 384.308 313.293C384.115 314.477 383.914 315.661 383.714 316.844L383.713 316.848C383.528 317.94 383.343 319.032 383.164 320.126C381.675 329.213 380.324 338.321 379.111 347.448C377.895 356.606 376.817 365.78 375.877 374.969C374.984 383.712 374.215 392.464 373.57 401.227L378.122 398.159C378.995 397.571 379.81 398.983 378.945 399.566L353.411 416.776C352.515 417.459 351.572 418.077 350.589 418.627C349.652 419.033 348.578 418.973 347.692 418.466C346.691 417.929 345.718 417.34 344.779 416.701C343.811 416.102 342.841 415.507 341.869 414.915C333.872 410.045 325.746 405.406 317.49 400.996C316.564 400.502 317.388 399.095 318.313 399.589C319.616 400.284 320.915 400.986 322.211 401.692ZM323.912 402.576C323.621 398.882 323.286 395.192 322.93 391.503L334.403 396.221C334.882 400.348 335.101 404.501 335.06 408.655C335.011 408.725 334.973 408.803 334.947 408.885C333.903 408.275 332.858 407.669 331.809 407.067C329.191 405.562 326.56 404.082 323.915 402.626C323.915 402.61 323.914 402.593 323.912 402.576ZM336.67 409.897C336.768 405.564 336.581 401.231 336.112 396.924L336.297 397C340.503 398.73 344.724 400.496 348.507 403.052L348.288 416.981C347.837 416.764 347.398 416.463 346.983 416.178C346.767 416.03 346.557 415.886 346.355 415.761C345.388 415.16 344.419 414.563 343.448 413.969C341.2 412.593 338.94 411.236 336.67 409.897ZM371.855 402.383C372.009 400.251 372.171 398.12 372.339 395.99C373.051 386.995 373.896 378.014 374.872 369.046C375.848 360.09 376.954 351.15 378.189 342.227C379.426 333.29 380.793 324.373 382.292 315.477C382.361 315.071 382.442 314.655 382.524 314.234C382.851 312.554 383.195 310.782 382.844 309.139C382.787 308.873 382.709 308.618 382.613 308.374C382.579 308.385 382.542 308.394 382.504 308.401C378.914 309.065 376.438 312.093 374.226 314.799L374.22 314.806C374.09 314.965 373.961 315.122 373.833 315.278C371.179 318.513 368.681 321.861 366.339 325.321C362.164 331.489 358.498 337.985 355.375 344.746C353.751 348.265 352.138 351.87 351.376 355.69C350.738 358.887 350.724 362.198 350.71 365.469V365.471C350.706 366.264 350.703 367.055 350.69 367.842L349.916 417.14C350.142 417.053 350.351 416.923 350.532 416.755L371.855 402.383ZM322.82 389.708C322.798 389.703 322.776 389.698 322.754 389.694C322.496 387.062 322.229 384.43 321.962 381.799L321.937 381.552C321.798 380.178 321.658 378.803 321.518 377.429C320.908 371.446 320.299 365.463 319.754 359.474C319.707 358.963 319.66 358.452 319.613 357.94C319.321 354.782 319.028 351.617 318.907 348.451C318.786 346.244 318.886 344.032 319.208 341.846C319.575 339.777 320.134 337.747 320.877 335.782C322.263 331.976 323.91 328.252 325.549 324.546L325.916 323.715C327.674 319.734 329.498 315.782 331.386 311.861C333.293 307.902 335.264 303.976 337.301 300.082C338.31 298.154 339.334 296.234 340.375 294.323C340.412 294.255 340.449 294.186 340.486 294.116C340.831 293.471 341.226 292.734 341.908 292.432C342.648 292.105 343.57 292.327 344.375 292.52C344.538 292.56 344.695 292.597 344.846 292.63C353.12 294.395 361.218 296.902 369.042 300.122C371.034 300.942 373.005 301.81 374.956 302.726C376.66 303.459 378.307 304.316 379.885 305.291C380.573 305.747 381.214 306.278 381.729 306.9C378.513 307.629 376.082 310.098 374.011 312.532C371.548 315.426 369.214 318.435 367.002 321.524C362.598 327.676 358.709 334.179 355.375 340.969C353.594 344.439 352.052 348.027 350.758 351.707C350.272 353.173 349.931 354.65 349.691 356.139C340.449 352.345 331.353 348.224 322.4 343.775C321.463 343.31 320.636 344.715 321.577 345.182C330.717 349.721 340.012 353.925 349.463 357.795C349.235 359.775 349.156 361.777 349.123 363.805C348.987 372.238 348.855 380.672 348.726 389.106L348.537 401.125C344.91 398.811 340.921 397.152 336.951 395.519C332.241 393.581 327.531 391.645 322.82 389.708Z" fill="#7BA84F"/>
<path d="M28.215 380.314C39.5647 385.221 50.6073 390.856 61.5785 396.546C74.6979 403.351 87.7077 410.363 100.608 417.581C111.359 423.568 122.073 429.639 132.618 435.984C133.974 436.8 135.342 437.775 136.963 437.929C139.134 438.136 140.928 436.573 142.614 435.437C146.743 432.657 150.86 429.859 154.966 427.045C163.232 421.379 171.451 415.646 179.623 409.844C195.966 398.243 212.116 386.374 228.071 374.24C230.079 372.713 232.083 371.182 234.084 369.647C234.905 369.018 234.094 367.601 233.261 368.24C217.462 380.356 201.47 392.214 185.284 403.813C177.191 409.611 169.052 415.343 160.866 421.008C156.827 423.802 152.778 426.581 148.717 429.343C146.631 430.761 144.543 432.175 142.452 433.585C140.728 434.747 138.601 436.846 136.359 436.147C135.034 435.733 133.81 434.797 132.623 434.085C131.526 433.428 130.427 432.774 129.326 432.123C126.903 430.69 124.473 429.269 122.035 427.86C116.422 424.61 110.785 421.402 105.124 418.237C92.3785 411.096 79.5384 404.127 66.6032 397.33C55.3329 391.426 43.9924 385.604 32.3856 380.384C31.2732 379.884 30.1573 379.392 29.038 378.907C28.0848 378.495 27.2535 379.898 28.215 380.314Z" fill="#7BA84F"/>
<path d="M153.929 335.688C165.421 339.506 176.781 343.694 188.009 348.251C199.18 352.786 210.201 357.669 221.071 362.902C231.95 368.127 242.673 373.662 253.239 379.507C255.899 380.974 258.548 382.459 261.188 383.962C262.503 384.71 263.8 385.497 265.129 386.219C266.231 386.929 267.647 386.93 268.75 386.222C274.035 383.119 279.12 379.597 284.206 376.182C294.565 369.226 304.737 361.993 314.797 354.613C316.021 353.714 317.244 352.814 318.465 351.911C319.3 351.294 318.487 349.879 317.642 350.504C307.729 357.831 297.715 365.024 287.529 371.969C282.445 375.435 277.314 378.83 272.135 382.154C270.898 382.945 269.657 383.732 268.413 384.512C267.734 384.938 267.168 385.354 266.355 385.013C265.678 384.687 265.022 384.32 264.39 383.915C261.753 382.4 259.106 380.903 256.45 379.424C246.031 373.62 235.46 368.102 224.736 362.87C214.041 357.665 203.196 352.782 192.203 348.222C181.171 343.652 170 339.436 158.691 335.574C157.25 335.082 155.807 334.597 154.362 334.117C153.364 333.785 152.936 335.358 153.929 335.688Z" fill="#7BA84F"/>
<path d="M266.18 385.99L252.101 452.424C251.885 453.447 253.456 453.885 253.674 452.858L267.752 386.423C267.969 385.4 266.397 384.963 266.18 385.99Z" fill="#7BA84F"/>
<path d="M96.4028 454.213C96.5802 442.326 100.593 430.815 107.844 421.391C108.069 421.002 107.938 420.505 107.552 420.276C107.162 420.06 106.67 420.189 106.436 420.568C99.0391 430.243 94.9498 442.038 94.7721 454.213C94.7571 455.262 96.3878 455.263 96.4028 454.213Z" fill="#7BA84F"/>
<path d="M209.284 388.037C222.991 394.849 236.387 402.243 249.471 410.219C253.164 412.472 256.829 414.769 260.465 417.112C261.35 417.681 262.169 416.271 261.288 415.705C248.419 407.419 235.209 399.699 221.658 392.544C217.832 390.525 213.982 388.554 210.107 386.63C209.171 386.164 208.344 387.569 209.284 388.037Z" fill="#7BA84F"/>
<path d="M233.094 354.618C233.308 365.158 233.087 375.694 232.43 386.226C232.365 387.273 233.996 387.269 234.061 386.226C234.717 375.704 234.938 365.168 234.725 354.618C234.703 353.571 233.073 353.567 233.094 354.618Z" fill="#7BA84F"/>
<path d="M231.785 367.554C232.264 367.2 232.365 366.957 232.087 366.825C231.95 366.763 231.813 366.7 231.676 366.637C231.47 366.542 231.265 366.445 231.061 366.347C230.584 366.117 230.113 365.878 229.648 365.624C228.719 365.127 227.829 364.559 226.988 363.924C225.398 362.747 224.132 361.188 223.307 359.391C222.543 357.734 222.436 355.849 223.007 354.116C223.541 352.495 224.797 351.213 226.407 350.645C226.648 350.573 226.843 350.396 226.938 350.163C227.033 349.931 227.017 349.667 226.895 349.448C225.129 345.882 224.982 340.851 228.802 338.539C232.63 336.222 236.753 339.685 238.548 342.959C239.686 345.054 240.217 347.424 240.082 349.803C240.089 350.129 240.288 350.42 240.59 350.545C240.891 350.67 241.238 350.605 241.474 350.38C242.723 348.799 244.961 348.407 246.674 349.47C248.257 350.404 249.391 351.942 249.815 353.73C250.719 357.358 248.254 360.982 244.661 361.778C244.35 361.872 244.124 362.138 244.082 362.46C244.04 362.781 244.19 363.097 244.466 363.267C245.424 363.736 244.582 365.248 244.126 365.8C243.391 366.671 242.424 367.318 241.337 367.664C239.149 368.442 236.711 367.996 234.941 366.494C234.169 365.786 233.013 366.935 233.788 367.646C236.216 369.753 239.649 370.252 242.577 368.924C244.021 368.332 245.226 367.277 246.004 365.925C246.681 364.626 246.828 362.613 245.289 361.86L245.094 363.349C248.62 362.535 251.239 359.572 251.614 355.975C251.943 352.354 249.587 348.454 246.018 347.432C243.931 346.85 241.697 347.554 240.321 349.227L241.712 349.803C241.966 344.972 239.628 339.668 235.292 337.246C233.251 336.014 230.736 335.856 228.557 336.823C226.562 337.827 225.069 339.607 224.428 341.745C223.543 344.588 224.197 347.664 225.487 350.27L225.974 349.073C222.392 350.219 220.576 354.069 221.117 357.64C221.74 361.755 224.964 364.842 228.43 366.81C229.431 367.414 230.481 367.934 231.568 368.365C232.36 368.651 233.79 368.226 233.357 367.12C232.979 366.154 231.402 366.575 231.785 367.554Z" fill="#7BA84F"/>
<path d="M238.491 356.623L233.91 359.992C233.53 360.226 233.402 360.717 233.617 361.107C233.848 361.492 234.343 361.622 234.733 361.4L239.314 358.03C239.693 357.796 239.822 357.305 239.606 356.915C239.376 356.531 238.88 356.401 238.491 356.623Z" fill="#7BA84F"/>
<path d="M242.106 388.62C240.74 387.719 241.696 385.911 242.643 385.131C243.229 384.647 244.047 384.206 244.823 384.446C245.533 384.764 246.147 385.261 246.605 385.889C246.841 386.114 247.188 386.179 247.489 386.054C247.79 385.929 247.989 385.639 247.997 385.313C247.979 384.313 248.378 383.35 249.099 382.655C249.743 382.031 250.947 381.423 251.793 382.006C252.454 382.461 252.6 383.427 252.543 384.167C252.449 385.394 251.88 386.555 251.645 387.757C251.446 388.775 252.935 389.214 253.217 388.191C253.563 386.933 255.184 387.225 255.868 387.978C256.827 389.046 257.02 390.597 256.352 391.866C255.807 392.766 257.217 393.586 257.76 392.689C258.898 390.594 258.414 387.99 256.6 386.442C254.978 385.152 252.243 385.586 251.645 387.757L253.217 388.191C253.523 386.626 254.315 385.1 254.164 383.471C254.044 382.166 253.412 380.856 252.126 380.359C250.674 379.797 249.009 380.473 247.946 381.503C246.921 382.504 246.35 383.881 246.367 385.313L247.758 384.737C246.977 383.873 246.08 382.987 244.88 382.794C243.56 382.582 242.29 383.245 241.338 384.111C239.611 385.681 239.11 388.594 241.283 390.027C242.162 390.606 242.979 389.195 242.106 388.62Z" fill="#7BA84F"/>
<path d="M257.573 399.319C258.012 399.304 258.361 398.944 258.361 398.504C258.361 398.064 258.012 397.704 257.573 397.689C257.133 397.704 256.785 398.064 256.785 398.504C256.785 398.944 257.133 399.304 257.573 399.319Z" fill="#7BA84F"/>
<path d="M249.837 395.681C250.276 395.666 250.624 395.305 250.624 394.866C250.624 394.426 250.276 394.066 249.837 394.05C249.398 394.066 249.05 394.426 249.05 394.866C249.05 395.305 249.398 395.666 249.837 395.681Z" fill="#7BA84F"/>
<path d="M265.01 419.627L305.65 450.017C306.92 450.966 308.212 452.168 309.768 452.619C311.242 453.047 312.735 452.634 314.083 452.004C315.668 451.262 317.166 450.296 318.677 449.415C325.024 445.71 331.281 441.851 337.494 437.926C349.961 430.05 362.3 421.971 374.625 413.874C386.909 405.805 399.17 397.7 411.491 389.687C423.861 381.642 436.292 373.689 448.862 365.96C450.421 365.002 451.981 364.047 453.544 363.096C454.439 362.551 453.621 361.141 452.721 361.689C440.272 369.267 427.966 377.076 415.732 384.994C403.547 392.88 391.431 400.872 379.306 408.849C367.13 416.858 354.945 424.852 342.668 432.705C336.579 436.599 330.464 440.456 324.276 444.192C321.209 446.044 318.122 447.864 315.015 449.65C313.596 450.463 311.906 451.539 310.201 451.048C308.613 450.59 307.172 449.133 305.875 448.162L265.833 418.22C264.992 417.591 264.178 419.005 265.01 419.627Z" fill="#7BA84F"/>
<path d="M209.396 268.19C209.369 268.648 209.154 269.073 208.8 269.365C208.367 269.74 207.847 270.002 207.288 270.127C206.021 270.476 204.665 270.246 203.584 269.5C203.389 269.35 203.219 269.17 203.081 268.966C202.964 268.787 202.882 268.587 202.841 268.377C202.791 267.958 202.929 267.539 203.218 267.232C204.056 266.263 205.55 265.986 206.766 266.149C207.445 266.226 208.092 266.478 208.644 266.881C208.88 267.057 209.076 267.28 209.221 267.537C209.334 267.736 209.394 267.961 209.396 268.19C209.42 269.237 211.05 269.241 211.026 268.19C210.985 266.354 209.383 265.104 207.721 264.683C205.857 264.171 203.86 264.585 202.352 265.795C201.715 266.325 201.317 267.087 201.245 267.912C201.173 268.737 201.434 269.557 201.97 270.189C203.177 271.653 205.313 272.078 207.109 271.817C208.984 271.544 210.979 270.267 211.026 268.19C211.05 267.141 209.419 267.141 209.396 268.19Z" fill="#7BA84F"/>
<path d="M232.565 223.066C232.562 211.801 225.418 201.776 214.768 198.091C204.118 194.406 192.3 197.87 185.33 206.722C178.359 215.573 177.766 227.867 183.853 237.348C184.691 238.646 185.639 239.869 186.687 241.005C187.834 242.249 189.119 243.36 190.323 244.548C192.841 247.036 195.232 249.649 197.486 252.379C199.592 254.924 201.559 257.573 203.444 260.284C204.029 261.284 205.112 261.887 206.271 261.859C207.558 261.787 208.303 260.974 208.988 259.99C213.089 254.14 217.722 248.682 222.83 243.686C225.093 241.459 227.247 239.281 228.881 236.53C230.494 233.818 231.602 230.837 232.151 227.73C232.42 226.189 232.559 224.629 232.565 223.066C232.55 222.627 232.189 222.279 231.75 222.279C231.31 222.279 230.95 222.627 230.934 223.066C230.924 229.057 228.755 234.844 224.824 239.368C223.789 240.548 222.622 241.6 221.507 242.702C220.258 243.936 219.035 245.195 217.839 246.48C215.502 248.988 213.278 251.596 211.166 254.301C210.144 255.615 209.15 256.951 208.184 258.307C207.673 259.029 207.146 260.235 206.114 260.235C205.198 260.235 204.792 259.372 204.336 258.72C203.344 257.3 202.321 255.903 201.267 254.529C199.212 251.854 197.048 249.264 194.758 246.787C193.636 245.574 192.486 244.388 191.307 243.23C190.156 242.1 188.934 241.039 187.84 239.853C180.29 231.681 179.099 219.489 184.924 210.012C190.749 200.536 202.17 196.087 212.875 199.124C223.581 202.161 230.96 211.943 230.934 223.066C230.946 223.507 231.307 223.859 231.75 223.859C232.192 223.859 232.553 223.507 232.565 223.066Z" fill="#7BA84F"/>
<path d="M218.158 222.946C218.118 227.714 214.602 231.61 210.172 233.006C205.541 234.464 200.154 233.318 196.804 229.721C193.644 226.374 193.218 221.288 195.777 217.462C198.486 213.416 203.768 211.615 208.466 212.466C213.614 213.399 218.113 217.49 218.158 222.946C218.173 223.385 218.534 223.733 218.973 223.733C219.413 223.733 219.773 223.385 219.788 222.946C219.743 217.504 215.824 213.035 210.779 211.372C205.535 209.643 199.286 211.002 195.536 215.144C191.957 219.024 191.476 224.839 194.369 229.253C197.494 233.921 203.375 235.962 208.807 235.014C214.708 233.985 219.737 229.122 219.788 222.946C219.773 222.508 219.413 222.16 218.973 222.16C218.534 222.16 218.173 222.508 218.158 222.946Z" fill="#7BA84F"/>
<path d="M115.213 282.961C115.212 283.016 115.211 283.073 115.205 283.128C115.22 282.99 115.196 283.163 115.186 283.197C115.17 283.25 115.156 283.303 115.139 283.356C115.095 283.485 115.184 283.267 115.126 283.392C115.033 283.611 114.888 283.804 114.703 283.954C114.323 284.276 113.871 284.502 113.385 284.615C112.279 284.91 111.099 284.713 110.148 284.075C109.978 283.946 109.83 283.79 109.711 283.613C109.674 283.552 109.638 283.493 109.605 283.43C109.597 283.414 109.546 283.287 109.587 283.395C109.567 283.344 109.551 283.29 109.537 283.237C109.528 283.207 109.491 282.981 109.507 283.128C109.47 282.953 109.488 282.77 109.56 282.606C109.606 282.457 109.584 282.531 109.568 282.568C109.597 282.504 109.63 282.441 109.666 282.381C109.707 282.301 109.758 282.227 109.82 282.161C111.14 280.977 113.099 280.847 114.564 281.847C114.772 281.997 114.945 282.192 115.068 282.418C115.163 282.583 115.212 282.77 115.213 282.961C115.236 284.008 116.867 284.012 116.843 282.961C116.806 281.277 115.346 280.123 113.819 279.736C112.118 279.27 110.298 279.649 108.925 280.755C108.338 281.245 107.972 281.95 107.908 282.712C107.843 283.474 108.086 284.23 108.582 284.812C109.685 286.147 111.631 286.533 113.271 286.293C114.991 286.041 116.801 284.861 116.843 282.961C116.867 281.912 115.236 281.912 115.213 282.961Z" fill="#7BA84F"/>
<path d="M136.149 242.516C136.155 232.355 129.702 223.313 120.088 220.01C110.473 216.707 99.8215 219.872 93.5753 227.889C87.3291 235.906 86.8683 247.003 92.4284 255.509C94.0359 257.955 96.132 259.844 98.1975 261.884C100.486 264.149 102.657 266.529 104.701 269.016C106.537 271.245 108.237 273.568 109.898 275.929C110.457 276.874 111.499 277.427 112.596 277.362C113.729 277.257 114.384 276.546 114.995 275.67C118.674 270.422 122.831 265.525 127.414 261.043C129.465 259.024 131.413 257.046 132.883 254.547C134.304 252.136 135.282 249.49 135.772 246.735C136.016 245.342 136.142 243.93 136.149 242.516C136.134 242.077 135.773 241.729 135.334 241.729C134.894 241.729 134.533 242.077 134.518 242.516C134.509 247.82 132.606 252.946 129.151 256.972C128.226 258.038 127.18 258.985 126.176 259.974C125.072 261.064 123.99 262.175 122.93 263.308C120.841 265.545 118.851 267.868 116.96 270.279C116.012 271.493 115.09 272.727 114.195 273.982C113.771 274.578 113.28 275.692 112.436 275.745C111.602 275.797 111.23 274.994 110.822 274.41C109.944 273.155 109.039 271.919 108.107 270.703C106.272 268.311 104.341 265.996 102.296 263.781C101.284 262.685 100.247 261.613 99.1825 260.567C98.1642 259.566 97.0823 258.625 96.1089 257.58C89.3244 250.306 88.2165 239.406 93.3987 230.917C98.5809 222.427 108.785 218.425 118.361 221.127C127.937 223.828 134.542 232.572 134.518 242.516C134.532 242.956 134.893 243.305 135.334 243.305C135.774 243.305 136.135 242.956 136.149 242.516Z" fill="#7BA84F"/>
<path d="M123.066 242.409C123.027 246.622 119.939 250.073 116.027 251.326C111.881 252.653 107.049 251.635 104.053 248.402C101.254 245.418 100.894 240.894 103.186 237.504C105.592 233.943 110.265 232.346 114.416 233.093C119.007 233.918 123.021 237.542 123.066 242.409C123.082 242.848 123.442 243.196 123.882 243.196C124.321 243.196 124.681 242.848 124.697 242.409C124.652 237.518 121.159 233.501 116.633 231.978C111.903 230.386 106.245 231.597 102.843 235.326C99.5748 238.84 99.1347 244.132 101.778 248.137C104.621 252.348 109.938 254.177 114.85 253.297C120.156 252.346 124.646 247.958 124.697 242.409C124.681 241.97 124.321 241.622 123.882 241.622C123.442 241.622 123.082 241.97 123.066 242.409Z" fill="#7BA84F"/>
<path d="M381.389 292.67C381.388 292.725 381.388 292.782 381.382 292.837C381.397 292.699 381.372 292.872 381.362 292.906C381.347 292.959 381.333 293.012 381.315 293.064C381.272 293.194 381.361 292.975 381.302 293.1C381.21 293.319 381.065 293.512 380.88 293.662C380.5 293.984 380.048 294.211 379.562 294.324C378.456 294.619 377.275 294.422 376.325 293.784C376.155 293.655 376.007 293.499 375.887 293.322C375.851 293.261 375.814 293.201 375.782 293.138C375.773 293.123 375.723 292.996 375.764 293.103C375.744 293.052 375.728 292.999 375.713 292.946C375.705 292.916 375.668 292.69 375.684 292.837C375.647 292.661 375.665 292.479 375.737 292.314C375.782 292.166 375.761 292.239 375.745 292.276C375.774 292.212 375.806 292.15 375.843 292.09C375.883 292.01 375.935 291.936 375.996 291.87C377.316 290.685 379.276 290.555 380.741 291.555C380.949 291.706 381.121 291.901 381.244 292.127C381.339 292.292 381.389 292.479 381.389 292.67C381.413 293.717 383.044 293.72 383.02 292.67C382.982 290.986 381.523 289.832 379.996 289.444C378.295 288.978 376.474 289.358 375.101 290.463C374.515 290.954 374.149 291.659 374.084 292.42C374.02 293.182 374.263 293.938 374.759 294.52C375.862 295.856 377.808 296.241 379.448 296.002C381.168 295.75 382.978 294.569 383.02 292.67C383.044 291.621 381.413 291.621 381.389 292.67Z" fill="#7BA84F"/>
<path d="M402.325 252.225C402.332 242.064 395.879 233.022 386.264 229.718C376.65 226.415 365.998 229.581 359.752 237.598C353.506 245.615 353.045 256.712 358.605 265.218C360.213 267.664 362.309 269.552 364.374 271.593C366.663 273.857 368.834 276.238 370.878 278.725C372.714 280.954 374.414 283.277 376.075 285.637C376.634 286.583 377.676 287.136 378.772 287.07C379.906 286.965 380.561 286.255 381.171 285.379C384.85 280.13 389.008 275.234 393.591 270.752C395.641 268.733 397.59 266.755 399.06 264.256C400.48 261.844 401.459 259.199 401.949 256.444C402.193 255.051 402.319 253.639 402.325 252.225C402.31 251.786 401.95 251.438 401.51 251.438C401.071 251.438 400.71 251.786 400.695 252.225C400.686 257.529 398.783 262.655 395.327 266.681C394.403 267.747 393.357 268.694 392.353 269.683C391.248 270.773 390.166 271.884 389.107 273.017C387.018 275.254 385.028 277.577 383.137 279.988C382.188 281.202 381.267 282.436 380.371 283.691C379.948 284.287 379.457 285.401 378.613 285.454C377.779 285.506 377.406 284.703 376.998 284.119C376.121 282.864 375.216 281.628 374.283 280.412C372.449 278.02 370.517 275.705 368.473 273.49C367.461 272.394 366.423 271.322 365.359 270.276C364.341 269.275 363.259 268.334 362.286 267.289C355.501 260.014 354.393 249.115 359.575 240.626C364.758 232.136 374.962 228.134 384.538 230.836C394.114 233.537 400.719 242.281 400.695 252.225C400.71 252.664 401.071 253.013 401.51 253.012C401.95 253.012 402.311 252.664 402.325 252.225Z" fill="#7BA84F"/>
<path d="M389.243 252.118C389.204 256.33 386.116 259.782 382.203 261.034C378.058 262.362 373.226 261.344 370.23 258.111C367.431 255.126 367.071 250.602 369.363 247.212C371.769 243.652 376.442 242.055 380.593 242.801C385.184 243.626 389.198 247.251 389.243 252.118C389.259 252.557 389.619 252.904 390.059 252.904C390.498 252.904 390.858 252.557 390.874 252.118C390.829 247.227 387.336 243.21 382.81 241.686C378.08 240.094 372.422 241.306 369.02 245.035C365.752 248.548 365.312 253.84 367.955 257.845C370.798 262.057 376.115 263.885 381.027 263.006C386.333 262.055 390.823 257.667 390.874 252.118C390.858 251.679 390.498 251.331 390.059 251.331C389.619 251.331 389.259 251.679 389.243 252.118Z" fill="#7BA84F"/>
</svg>
