<svg width="500" height="500" viewBox="0 0 500 500" fill="none" xmlns="http://www.w3.org/2000/svg">
<path d="M321.36 128.894C321.184 128.764 321.053 128.582 320.984 128.373C320.884 128.007 321.014 127.617 321.315 127.386C321.616 127.154 322.027 127.128 322.355 127.32C322.665 127.526 322.922 127.803 323.106 128.127C323.281 128.457 323.386 128.82 323.414 129.193C323.47 129.875 323.231 130.548 322.758 131.042C322.582 131.215 322.346 131.313 322.099 131.315C321.852 131.315 321.615 131.217 321.439 131.042C321.266 130.866 321.168 130.63 321.166 130.383C321.17 130.136 321.268 129.9 321.439 129.723L321.458 129.703C321.478 129.672 321.497 129.64 321.514 129.607C321.521 129.586 321.527 129.565 321.533 129.544C321.541 129.515 321.548 129.486 321.555 129.457C321.558 129.394 321.558 129.331 321.555 129.267C321.542 129.207 321.526 129.148 321.506 129.09C321.485 129.049 321.462 129.009 321.437 128.97L321.419 128.951L321.401 128.933L321.395 128.927C321.384 128.916 321.372 128.905 321.36 128.894Z" fill="#A3A9B6"/>
<path fill-rule="evenodd" clip-rule="evenodd" d="M322.688 157.375L323.456 156.682C323.891 158.011 324.349 159.332 324.831 160.646C325.194 161.629 325.642 162.718 326.728 163.073C329.014 163.818 330.958 160.703 331.776 159.011C332.799 156.935 333.208 154.609 332.955 152.308C332.826 151.241 332.622 150.046 331.698 149.365C330.661 148.602 329.399 148.999 328.454 149.704C327.579 150.356 326.771 151.117 325.968 151.873C325.631 152.191 325.294 152.508 324.954 152.815L321.369 156.056C320.477 156.863 321.799 158.179 322.688 157.375ZM325.241 156.145C325.14 155.837 324.935 155.649 324.696 155.56L327.618 152.918C327.812 152.742 328.008 152.55 328.207 152.354C328.749 151.82 329.317 151.26 329.966 150.941C330.768 150.546 330.919 151.344 331.037 151.989C331.32 153.689 331.163 155.433 330.582 157.055C330.292 157.883 329.897 158.669 329.408 159.397C328.999 160.128 328.42 160.75 327.719 161.209C327.041 161.543 326.748 160.599 326.559 159.988C326.526 159.881 326.496 159.785 326.468 159.708C326.039 158.527 325.63 157.339 325.241 156.145Z" fill="#A3A9B6"/>
<path fill-rule="evenodd" clip-rule="evenodd" d="M396.761 215.977C396.183 206.382 395.808 196.774 395.793 187.162C395.781 179.515 396.016 171.872 396.399 164.235C396.587 160.498 396.802 156.762 397.017 153.027C397.233 149.263 397.45 145.5 397.638 141.735C398.068 133.161 398.386 124.556 397.745 115.984C397.114 107.538 395.58 99.0276 391.955 91.3153C388.51 83.9844 382.969 77.5016 375.744 73.698C368.723 70.0018 360.547 68.822 352.717 69.8614C344.749 70.8581 337.267 74.236 331.25 79.5534C328.661 81.8917 326.469 84.5787 324.589 87.483C324.446 86.1608 324.376 84.8292 324.381 83.4945C324.389 82.294 322.524 82.2927 322.516 83.4945C322.52 85.6788 322.71 87.8477 323.077 89.9803C320.635 94.2835 318.781 98.9537 317.266 103.609C315.78 108.175 314.587 112.828 313.394 117.478L306.809 143.145C306.687 143.64 306.973 144.144 307.461 144.293C311.801 145.957 313.756 151.015 314.214 155.302C314.447 157.484 314.451 159.707 314.454 161.931C314.46 165.627 314.467 169.33 315.525 172.869C317.834 180.594 325.024 185.468 332.673 186.939C336.59 187.727 340.627 187.643 344.501 186.7C345.022 193.795 345.207 200.906 345.392 208.017C345.443 209.983 345.494 211.949 345.553 213.914C345.651 217.235 345.768 220.555 345.902 223.874C344.058 223.569 342.164 223.421 340.299 223.275L340.298 223.274C338.975 223.171 337.666 223.068 336.399 222.911C330.412 222.171 324.402 221.666 318.37 221.398C312.941 221.159 307.441 220.919 302.044 221.697C292.615 223.055 284.621 227.924 279.646 236.109C278.295 238.331 277.181 240.669 276.243 243.083C275.723 240.397 274.722 237.817 273.278 235.47C271.57 232.717 268.484 229.091 264.8 230.404C264.46 230.526 264.128 230.686 263.817 230.88C263.478 230.236 263.035 229.65 262.587 229.206C260.815 227.401 258.543 226.167 256.063 225.665C253.884 225.289 251.403 225.636 249.781 227.263C249.232 227.837 248.794 228.497 248.479 229.209C246.013 226.279 242.781 224.022 239.082 222.729C236.224 221.654 233.137 221.335 230.121 221.804C227.46 222.294 224.492 223.725 223.231 226.257C222.084 228.663 222.653 231.538 224.63 233.326C226.032 234.669 227.782 235.556 229.514 236.433C230.089 236.724 230.663 237.015 231.221 237.321C232.412 237.923 233.509 238.693 234.48 239.607C235.547 240.714 236.357 242.043 236.853 243.499C237.966 246.618 238.111 250.035 238.036 253.316C237.959 256.712 237.426 260.504 235.035 263.108C233.086 265.229 229.928 266.612 227.154 265.264C225.279 264.353 223.873 262.735 222.512 261.168C222.244 260.859 221.977 260.553 221.71 260.254C220.193 258.562 218.403 256.716 216.064 256.299C213.287 255.805 210.801 257.269 209.455 259.671C207.989 262.29 207.8 265.356 208.224 268.268C209.271 275.071 213.233 281.08 219.074 284.722C222.342 286.771 225.938 288.137 229.536 289.503C232.673 290.695 235.813 291.887 238.739 293.534C245.224 297.184 250.788 302.201 256.084 307.376C257.328 308.592 258.565 309.817 259.793 311.05C259.8 311.059 259.808 311.068 259.816 311.077C259.84 311.102 259.865 311.127 259.893 311.152C260.144 311.374 260.395 311.597 260.646 311.819C259.084 317.246 257.404 322.642 255.607 328.006C253.748 333.55 251.765 339.051 249.659 344.508L249.466 345.007C248.406 347.747 247.276 350.668 246.942 353.615L246.392 353.45C240.644 351.732 234.879 350.072 229.096 348.472C217.533 345.27 205.907 342.305 194.219 339.576C182.64 336.872 171.004 334.447 159.334 332.168C154.258 331.176 149.156 330.114 144.319 328.242C139.4 326.324 134.964 323.343 131.33 319.513C129.615 317.736 127.999 315.834 126.382 313.932C121.939 308.704 117.49 303.468 110.968 300.782C107.413 299.318 103.439 298.594 99.6282 299.351C96.1997 300.033 92.1485 302.415 90.9429 305.894C90.2385 307.808 90.6967 309.957 92.1208 311.418C93.0423 312.297 94.2189 312.609 95.3992 312.922C95.9787 313.076 96.5592 313.23 97.1107 313.451C100.643 314.869 101.585 319.19 100.782 322.573C99.7305 326.998 95.8093 329.522 91.4322 329.964C86.4782 330.465 81.5719 328.732 77.4402 326.1C75.2094 324.675 73.1784 322.96 71.4008 320.999C70.7091 320.237 70.0893 319.414 69.4697 318.59C68.7407 317.622 68.0119 316.654 67.1665 315.787C64.2013 312.747 59.6284 312.628 56.7851 315.953C53.8251 319.414 54.1771 324.424 55.5683 328.472C56.5852 331.362 58.1288 333.977 60.0774 336.213L58.2665 335.457C57.7701 335.25 57.2479 335.016 56.7073 334.773C53.0807 333.145 48.6258 331.145 45.5642 334.554C42.698 337.746 43.9473 342.363 46.3752 345.385C49.2384 348.95 53.5104 351.668 57.4565 353.874C59.4972 355.012 61.6041 356.019 63.7644 356.892L63.5097 356.85C62.7189 356.721 61.9279 356.593 61.1362 356.471C59.6796 356.246 58.2282 355.945 56.7767 355.644L56.7752 355.644C54.85 355.245 52.9245 354.845 50.9863 354.624C48.3251 354.32 45.1397 354.673 43.4256 356.996C42.0047 358.921 42.0652 361.572 42.6795 363.782C44.1622 369.113 49.2325 372.274 54.1738 373.973C57.0967 374.903 60.0768 375.643 63.0954 376.188C66.4929 376.881 69.8386 377.719 73.1713 378.68C88.0017 382.956 102.218 389.012 116.398 395.052C117.361 395.462 118.325 395.873 119.288 396.282C134.53 402.764 149.968 408.762 165.737 413.843C181.356 418.875 197.22 422.644 213.265 426.024C228.267 429.185 243.818 432.026 259.144 429.572C271.081 427.682 282.163 422.211 290.923 413.885C297.273 407.795 302.114 400.374 305.891 392.467C316.861 400.753 328.682 407.906 341.465 413.032C354.199 418.137 367.975 421.418 381.72 421.8C394.867 422.166 408.162 419.844 420.198 414.473C432.407 409.021 442.833 400.242 450.285 389.141C457.916 377.819 462.566 364.624 464.972 351.244C467.862 335.176 467.691 318.761 466.86 302.517C466.02 286.092 465.097 269.578 463.041 253.253C462.216 246.701 460.992 239.937 457.495 234.22C454.127 228.713 448.799 225.05 442.766 222.968C436.547 220.821 429.883 220.257 423.348 220.079C415.38 219.861 407.239 220.108 399.352 221.332C398.724 221.429 398.091 221.543 397.462 221.682C397.397 221.188 397.33 220.694 397.262 220.2C397.069 218.795 396.876 217.391 396.762 215.98C396.761 215.979 396.761 215.978 396.761 215.977ZM347.343 210.269C347.465 214.902 347.587 219.535 347.779 224.165C347.78 224.179 347.78 224.193 347.78 224.207C347.78 224.217 347.78 224.227 347.78 224.237L347.78 224.25C349.327 224.619 350.819 225.143 352.207 225.92C354.251 227.063 355.64 228.988 355.251 231.407C354.941 233.335 353.881 234.965 351.928 235.479C350.099 235.953 348.167 235.244 347.078 233.699C345.471 231.503 345.42 228.519 345.702 225.811C345.472 225.772 345.244 225.735 345.021 225.7C343.296 225.423 341.559 225.272 339.821 225.122C339.173 225.066 338.524 225.009 337.877 224.947C336.43 224.807 334.982 224.661 333.534 224.515L333.519 224.514C324.834 223.639 316.128 222.762 307.385 223.085C298.119 223.427 289.237 226.476 283.375 233.968C278.274 240.487 276.012 248.788 274.41 256.769C273.539 261.11 272.793 265.472 272.046 269.835C271.175 274.928 270.303 280.021 269.233 285.08C267.359 293.855 265.192 302.56 262.736 311.183C263.451 311.814 264.167 312.444 264.884 313.072C274.482 321.482 284.304 329.632 294.238 337.642C295.107 338.342 295.975 339.045 296.843 339.747L296.864 339.764L296.868 339.768C300.506 342.712 304.148 345.659 307.873 348.489C310.478 350.469 313.225 352.386 316.178 353.833C316.714 351.482 317.238 349.129 317.761 346.775C319.848 337.395 321.935 328.015 324.793 318.839C325.131 317.554 325.582 316.302 326.139 315.096C327.855 311.411 331.031 308.232 335.168 307.556C339.289 306.883 343.208 308.727 345.935 311.787C349.475 315.76 350.961 321.167 351.341 326.372C351.807 332.244 350.738 338.136 348.237 343.47C345.83 348.533 341.873 352.698 336.939 355.361C331.993 358.063 326.221 358.832 320.74 357.521C319.638 357.244 318.566 356.892 317.521 356.476C315.018 367.223 312.174 377.87 307.865 388.072C307.486 388.969 307.095 389.863 306.691 390.751C309.265 392.707 311.888 394.595 314.561 396.413C325.457 403.829 337.224 409.974 349.771 414.072C362.108 418.101 375.142 420.416 388.144 419.896C400.704 419.395 413.277 416.348 424.365 410.347C435.711 404.207 444.878 394.999 451.383 383.889C458.075 372.458 461.956 359.559 463.863 346.502C466.123 331.027 465.707 315.299 464.846 299.731L464.826 299.357C463.97 283.875 463.11 268.315 461.134 252.929C460.323 246.611 459.058 240.053 455.545 234.621C452.17 229.404 446.809 226.131 440.957 224.339C434.812 222.457 428.337 222.028 421.946 221.912C418.005 221.841 414.069 221.922 410.138 222.155C406.451 222.306 402.775 222.672 399.13 223.249C398.653 223.334 398.167 223.429 397.681 223.54C397.756 224.275 397.814 225.011 397.844 225.749C397.946 228.276 397.598 231.074 395.478 232.742C393.409 234.37 390.267 234.417 388.96 231.83C387.629 229.196 389.225 226.145 391.298 224.428C392.577 223.369 394.078 222.658 395.655 222.16C395.574 221.512 395.486 220.864 395.397 220.216C395.254 219.167 395.11 218.118 394.999 217.067C394.97 216.984 394.952 216.894 394.946 216.795C394.779 214.104 394.63 211.413 394.499 208.72C394.061 199.707 393.845 190.684 393.958 181.661C394.033 175.654 394.262 169.652 394.565 163.653C394.537 163.654 394.508 163.654 394.479 163.653C394.429 163.651 394.377 163.645 394.323 163.636C388.568 162.524 383.199 159.942 378.739 156.139C376.746 154.449 374.951 152.538 373.389 150.444C372.62 149.419 371.913 148.35 371.272 147.242C371.104 146.952 370.941 146.66 370.783 146.366C370.396 146.43 369.991 146.415 369.571 146.295C368.212 145.904 367.263 144.382 368.152 143.1C368.546 142.52 369.203 142.174 369.904 142.175C370.698 142.199 371.1 142.726 371.397 143.392C371.471 143.558 371.546 143.722 371.623 143.886C372.392 143.211 373.012 142.226 373.528 141.404L373.576 141.328C374.998 139.052 375.928 136.504 376.304 133.847C376.684 131.21 376.491 128.521 375.739 125.965C374.952 123.312 373.535 120.764 370.974 119.49C368.647 118.332 365.895 118.411 363.638 119.701C361.488 120.987 360.069 123.21 359.808 125.701C359.793 126.159 359.45 126.538 358.997 126.6C358.544 126.661 358.112 126.386 357.976 125.949C357.328 124.057 355.554 122.964 353.804 122.212C352.697 121.736 351.547 121.376 350.397 121.017C349.562 120.755 348.726 120.494 347.907 120.188C340.472 117.329 334.08 112.281 329.577 105.711C326.811 101.781 324.816 97.3939 323.666 92.7827C320.62 98.6603 318.62 105.107 316.896 111.46C314.887 118.86 313.006 126.298 311.125 133.734L311.124 133.741C310.354 136.783 309.585 139.825 308.807 142.864C313.267 145.044 315.409 150.037 316.019 154.793C316.316 157.112 316.314 159.476 316.312 161.84C316.309 165.308 316.306 168.777 317.247 172.112C318.304 175.743 320.548 178.914 323.62 181.119C329.642 185.5 337.994 186.741 345.094 184.612C345.375 184.54 345.672 184.6 345.903 184.775C346.133 184.951 346.27 185.222 346.275 185.511C346.476 188.087 346.64 190.666 346.766 193.246C347.043 198.917 347.193 204.593 347.343 210.269ZM395.863 224.048C394.257 224.592 392.754 225.4 391.641 226.689C390.755 227.715 390.051 229.182 390.454 230.557C390.599 231.123 390.982 231.599 391.504 231.861C392.026 232.123 392.636 232.146 393.177 231.924C395.84 231.009 396.085 228.001 395.972 225.604C395.948 225.084 395.91 224.566 395.863 224.048ZM250.94 346.341C255.165 335.446 258.91 324.376 262.167 313.162C271.568 321.438 281.185 329.466 290.92 337.346C295.677 341.196 300.441 345.043 305.263 348.812C308.537 351.371 311.973 353.912 315.749 355.703C314.003 363.253 312.098 370.761 309.628 378.121C306.404 387.725 302.209 397.131 296.084 405.258C289.831 413.611 281.442 420.124 271.8 424.112C257.703 429.895 242.211 429.262 227.45 426.849C221.255 425.837 215.118 424.522 208.982 423.207L208.977 423.206L208.959 423.202L208.941 423.198C207.691 422.931 206.442 422.663 205.191 422.398C197.491 420.765 189.84 418.953 182.252 416.851C166.905 412.535 151.791 407.43 136.971 401.555C130.093 398.86 123.296 395.969 116.498 393.078L116.494 393.076L116.493 393.076C108.706 389.764 100.92 386.453 93.0132 383.435C85.5701 380.547 77.9832 378.046 70.2825 375.94C68.2258 375.389 66.1237 374.962 64.0192 374.534C60.3047 373.78 56.5824 373.023 53.0904 371.585C48.5123 369.699 42.9189 365.207 44.2841 359.531C45.1749 355.828 49.77 356.195 52.6628 356.775C55.9855 357.44 59.2719 358.04 62.6189 358.586L63.0833 358.662C66.5861 359.235 70.0956 359.809 73.6537 359.842C74.6818 359.852 74.9514 358.229 73.9016 358.01C68.471 356.896 63.2427 354.958 58.398 352.264C55.8588 350.853 53.4416 349.233 51.1715 347.42C49.3488 345.956 47.5201 344.308 46.4977 342.164C45.3641 339.786 45.3964 336.405 47.976 334.977C50.1496 333.774 52.9796 335.096 55.2704 336.166C55.7576 336.393 56.2203 336.609 56.6472 336.788L64.1451 339.915C67.0434 341.996 70.4202 343.434 74.0621 344.05C74.5507 344.166 75.043 343.874 75.1764 343.39C75.3098 342.906 75.0366 342.403 74.5579 342.252L65.1652 338.334C61.1383 335.421 58.0842 331.182 56.8624 326.272C55.859 322.241 56.5653 315.107 62.2233 315.267C64.488 315.332 66.0363 317.177 67.3024 318.838C68.5248 320.522 69.8683 322.115 71.3222 323.604C77.1294 329.29 86.1065 333.659 94.3458 331.292C97.7235 330.322 100.619 328.139 101.991 324.857C103.209 322.005 103.228 318.782 102.044 315.916C101.486 314.612 100.592 313.48 99.4528 312.636C98.4413 311.9 97.32 311.579 96.1697 311.249C95.7845 311.139 95.3956 311.028 95.007 310.899C92.1607 309.961 91.901 307.043 93.7065 304.88C94.889 303.462 96.4158 302.371 98.1408 301.711C105.575 298.893 113.848 303.391 119.039 308.522C121.161 310.621 123.107 312.895 125.05 315.164C129.047 319.834 133.03 324.487 138.511 327.569C145.52 331.509 153.556 333.016 161.428 334.493L161.435 334.494C162.923 334.773 164.405 335.051 165.873 335.344C187.347 339.632 208.642 344.715 229.757 350.591C235.055 352.066 240.339 353.59 245.609 355.163C246.021 355.286 246.434 355.41 246.846 355.534C246.869 356.792 247.07 358.049 247.518 359.292C248.639 362.407 251.902 366.138 255.633 365.093C258.256 364.358 259.491 361.165 258.445 358.748C257.79 357.234 256.504 356.549 255.001 356.072C252.932 355.415 250.853 354.786 248.774 354.163C249.009 351.486 250.001 348.778 250.94 346.341ZM322.709 356.039C321.061 355.744 319.476 355.256 317.948 354.63C318.553 351.994 319.141 349.353 319.729 346.712C321.27 339.793 322.811 332.875 324.65 326.049C325.247 323.829 325.886 321.621 326.565 319.424C326.57 319.41 326.574 319.396 326.579 319.381C326.581 319.372 326.584 319.363 326.587 319.354C326.633 319.204 326.679 319.055 326.726 318.905C326.747 318.837 326.761 318.772 326.768 318.709C327.861 315.039 329.99 311.344 333.708 309.884C336.951 308.611 340.446 309.433 343.089 311.627C346.856 314.754 348.65 319.714 349.282 324.442C350.03 329.898 349.403 335.455 347.458 340.608C345.562 345.643 342.093 349.934 337.565 352.842C333.184 355.6 327.855 356.962 322.709 356.039ZM274.884 246.997C274.822 246.88 274.784 246.742 274.778 246.583C274.614 242.457 273.232 238.472 270.807 235.13C269.807 233.756 268.375 232.199 266.575 232.019C265.809 231.942 264.975 232.219 264.406 232.736C264.483 233.607 264.237 234.449 263.454 235.086C263.182 235.339 262.788 235.41 262.446 235.268C262.103 235.126 261.875 234.797 261.862 234.427C261.773 233.617 261.994 232.871 262.406 232.236C262.327 232.021 262.221 231.811 262.111 231.618C261.584 230.779 260.891 230.058 260.075 229.498C258.552 228.279 256.7 227.543 254.756 227.384C253.257 227.326 251.66 227.756 250.728 229.005C250.327 229.542 250.018 230.275 249.866 231.046C250.813 232.453 251.601 233.978 252.202 235.599C252.288 235.922 252.195 236.266 251.959 236.503C251.722 236.739 251.378 236.832 251.055 236.746C249.045 236.081 247.973 234.233 247.905 232.177C247.896 231.935 247.901 231.695 247.919 231.456C244.522 226.835 239.268 223.91 233.522 223.475C230.86 223.318 227.895 223.894 225.898 225.793C225.076 226.515 224.577 227.537 224.514 228.63C224.451 229.723 224.829 230.796 225.562 231.608C226.832 233.03 228.61 233.913 230.332 234.767C230.807 235.003 231.278 235.237 231.733 235.479C234.249 236.82 236.452 238.468 237.805 241.048C239.296 243.891 239.747 247.168 239.873 250.338C240.013 253.811 239.923 257.484 238.609 260.751C237.481 263.782 235.073 266.161 232.029 267.254C229.191 268.197 226.447 267.372 224.199 265.537C223.055 264.603 222.084 263.497 221.113 262.389C220.478 261.666 219.844 260.943 219.161 260.268C217.679 258.802 215.801 257.562 213.642 258.267C211.259 259.045 210.23 261.942 209.952 264.191C209.579 267.204 210.352 270.428 211.526 273.191C212.796 276.178 214.717 278.844 217.149 280.994C219.711 283.253 222.832 284.798 225.974 286.079C227.267 286.606 228.575 287.099 229.882 287.592C231.915 288.358 233.948 289.125 235.928 290.021C239.15 291.502 242.217 293.302 245.081 295.394C250.953 299.625 256.104 304.732 261.212 309.832C262.665 304.678 264.013 299.495 265.254 294.283C267.844 283.411 269.761 272.446 271.657 261.438C272.486 256.626 273.424 251.717 274.884 246.997ZM349.082 233.156C347.272 231.629 347.258 228.602 347.517 226.154C349.195 226.524 350.872 227.081 352.158 228.111C355.034 230.416 352.18 235.767 349.082 233.156ZM250.165 360.514C249.272 359.119 248.852 357.63 248.748 356.107C250.286 356.572 251.823 357.042 253.359 357.516C253.472 357.551 253.586 357.585 253.7 357.62C255.264 358.092 256.906 358.587 256.961 360.522C256.995 361.751 256.259 363.05 255.001 363.326C253.06 363.752 251.125 362.015 250.165 360.514ZM325.017 90.3366C325.406 92.3719 325.973 94.3737 326.713 96.3187C329.489 103.648 334.424 109.964 340.865 114.43C344.033 116.562 347.504 118.206 351.162 119.307C353.77 120.129 356.673 121.112 358.467 123.183C359.31 120.8 361.076 118.809 363.427 117.703C366.568 116.227 370.262 116.563 373.085 118.582C375.763 120.5 377.209 123.691 377.887 126.836C378.538 129.903 378.495 133.077 377.759 136.125C377.021 139.236 375.56 142.129 373.494 144.57C373.191 144.925 372.847 145.271 372.47 145.566C372.787 146.15 373.123 146.724 373.477 147.287C378.247 154.831 385.908 160.079 394.66 161.806C394.697 161.12 394.734 160.434 394.772 159.749C394.891 157.576 395.017 155.404 395.142 153.231L395.142 153.225C395.45 147.883 395.758 142.541 395.987 137.195C396.353 128.662 396.459 120.073 395.459 111.576C394.508 103.502 392.479 95.3559 388.256 88.3353C384.179 81.5555 378.067 76.1169 370.566 73.4532C363.202 70.9178 355.242 70.6724 347.736 72.7494C340.047 74.7752 333.225 79.2465 328.3 85.4889C327.092 87.0362 326.005 88.6578 325.017 90.3366ZM369.802 144.368L369.787 144.334L369.746 144.243L369.698 144.133C369.695 144.136 369.692 144.139 369.69 144.142C369.688 144.144 369.687 144.145 369.686 144.147C369.685 144.149 369.684 144.151 369.683 144.152C369.682 144.154 369.682 144.155 369.682 144.157L369.679 144.17C369.668 144.225 369.66 144.264 369.782 144.356L369.802 144.368ZM369.894 144.026L369.834 144.027C369.854 144.023 369.874 144.022 369.894 144.026Z" fill="#A3A9B6"/>
<path d="M181.966 148.2L179.123 146.877C179.648 146.765 180.174 146.655 180.7 146.548C182.36 146.209 184.028 145.894 185.697 145.579L185.698 145.579C192.011 144.387 198.339 143.192 204.291 140.704C204.788 140.57 205.299 140.861 205.439 141.356C205.558 141.85 205.273 142.352 204.787 142.503C200.269 144.391 195.502 145.549 190.712 146.51C189.185 146.816 187.655 147.107 186.126 147.398L186.125 147.398L186.122 147.398L186.118 147.399L186.114 147.4L186.113 147.4C184.73 147.663 183.347 147.926 181.966 148.2Z" fill="#7BA84F"/>
<path fill-rule="evenodd" clip-rule="evenodd" d="M95.4321 106.437C95.5541 106.993 95.6794 107.547 95.808 108.101L44.0612 114.811C41.2088 115.179 38.1376 115.575 35.7299 117.264C32.7888 119.327 32.3111 122.594 32.7528 125.957C33.5072 131.701 34.443 137.429 35.3782 143.154L35.379 143.159C35.831 145.926 36.2829 148.693 36.7141 151.46L61.9849 313.596C62.1692 314.778 63.9668 314.276 63.7835 313.1L35.0869 128.983C35.0262 128.593 34.9594 128.202 34.8922 127.808C34.6274 126.257 34.3579 124.679 34.4463 123.117C34.6463 119.58 37.4979 117.991 40.6173 117.259C43.2855 116.633 46.0519 116.326 48.7992 116.022C49.8765 115.902 50.9515 115.783 52.0159 115.645L96.2405 109.91C96.4409 110.725 96.6486 111.538 96.8634 112.35C96.9383 112.632 97.0087 112.924 97.0804 113.222L97.0808 113.224C97.402 114.559 97.7484 115.999 98.6288 117.02C99.8469 118.433 101.624 118.141 103.262 117.854L113.074 116.137L179.122 146.877C172.462 148.3 165.887 150.099 159.318 151.896L159.311 151.898L159.307 151.899C158.034 152.247 156.761 152.595 155.488 152.94C155.149 153.032 154.811 153.128 154.472 153.223C153.686 153.445 152.899 153.667 152.105 153.846C151.319 154.1 150.461 153.987 149.767 153.539C148.873 152.884 148.343 151.643 148.624 150.563C148.724 150.325 148.82 150.085 148.913 149.846C149.295 148.855 147.705 148.21 147.208 149.128C147.062 149.397 146.95 149.676 146.869 149.961C146.129 151.727 145.124 153.45 143.611 154.648C142.1 155.845 139.851 156.517 138.016 155.684C137.684 155.533 137.37 155.323 137.089 155.069C137.329 154.497 137.5 153.895 137.596 153.276C137.768 152.04 137.693 150.297 136.358 149.709C134.851 149.046 134.107 150.787 133.99 151.981C133.898 153.156 134.207 154.328 134.866 155.304C134.732 155.508 134.585 155.704 134.425 155.89C132.372 158.308 128.204 159.287 125.571 157.35C127.088 155.344 127.877 152.775 127.529 150.273C127.35 148.994 126.824 147.592 125.285 147.666C124.006 147.727 122.972 148.835 122.395 149.887C121.309 152.015 121.359 154.545 122.529 156.629C122.673 156.893 122.83 157.141 123 157.374C121.964 158.274 120.686 158.917 119.253 159.188C118.759 159.328 118.469 159.839 118.602 160.335C118.748 160.824 119.254 161.111 119.749 160.986C121.478 160.707 123.044 159.887 124.315 158.728C127.695 161.324 133.24 160.349 135.938 156.973C136.014 156.88 136.089 156.786 136.161 156.69C138.07 158.143 140.726 158.202 143.001 157.18C144.826 156.359 146.182 154.943 147.223 153.296C147.927 154.706 149.292 155.78 150.972 155.838C152.049 155.797 153.115 155.596 154.133 155.241L157.588 154.304C159.801 153.704 162.014 153.104 164.228 152.505C168.713 151.294 173.208 150.109 177.742 149.089C179.145 148.773 180.554 148.481 181.964 148.2L245.783 177.903C247.126 188.449 248.503 198.99 250.082 209.504C250.314 211.051 250.551 212.597 250.792 214.143C243.153 219.367 235.507 224.583 227.855 229.788C219.052 235.769 210.228 241.72 201.384 247.641C199.23 249.08 197.075 250.516 194.918 251.95C194.36 252.321 193.796 252.686 193.232 253.051C191.704 254.041 190.171 255.034 188.738 256.147C188.075 256.671 187.464 257.251 186.911 257.879C186.662 257.995 186.463 258.206 186.405 258.488C185.606 259.505 184.95 260.632 184.457 261.839C183.7 263.571 182.971 265.316 182.242 267.061L182.241 267.062L182.238 267.069C181.899 267.881 181.559 268.694 181.217 269.505L178.778 275.284C178.755 275.338 178.73 275.393 178.703 275.45C178.677 275.506 178.649 275.564 178.62 275.623C178.396 276.084 178.141 276.607 178.335 277.069C178.665 277.85 179.877 277.852 180.733 277.853H180.734C180.889 277.853 181.033 277.853 181.157 277.858C183.838 277.982 186.524 277.956 189.203 277.779C191.807 277.646 194.389 277.223 196.899 276.518C196.953 276.501 197.006 276.484 197.06 276.467L197.184 276.426C197.278 276.411 197.366 276.38 197.448 276.337C199.676 275.573 201.801 274.536 203.774 273.247C205.637 272.063 207.391 270.717 209.143 269.373C209.346 269.217 209.55 269.061 209.753 268.905C209.892 268.8 210.03 268.694 210.169 268.588L210.63 268.237C212.619 266.721 214.608 265.206 216.618 263.718C223.233 258.823 230.13 254.309 237.021 249.8L237.023 249.799L237.026 249.797L237.027 249.796L237.03 249.794L237.031 249.793C239.5 248.178 241.968 246.562 244.422 244.93C251.014 240.547 257.581 236.126 264.147 231.706L264.153 231.702C267.031 229.764 269.909 227.827 272.79 225.892C274.308 224.873 275.828 223.855 277.348 222.837L277.362 222.828L277.369 222.823C280.495 220.729 283.621 218.636 286.735 216.526C290.188 214.186 293.93 211.47 295.693 207.55C297.215 204.123 296.905 200.159 294.869 197.01C292.971 193.969 289.673 191.697 285.984 191.87C283.922 192.012 281.943 192.735 280.276 193.954L247.764 178.823C247.483 176.62 247.204 174.416 246.924 172.212C246.814 171.343 246.704 170.473 246.594 169.604L246.594 169.603C245.11 157.868 243.626 146.128 241.707 134.456C240.031 124.258 238.082 114.013 234.842 104.18L234.659 103.624C233.12 98.9302 231.254 93.2394 226.054 91.6867C223.403 90.8951 220.548 91.2137 217.826 91.5174L217.165 91.5906C214.337 91.8987 211.516 92.2781 208.7 92.6877C203.313 93.4714 197.943 94.3702 192.574 95.2691L192.573 95.2692C185.609 96.4349 178.645 97.6005 171.644 98.515C170.195 98.7042 168.745 98.8805 167.293 99.0437C166.942 99.0543 166.638 99.2527 166.479 99.5422L166.472 99.4873C166.401 98.8972 166.34 98.3029 166.278 97.7075C166.141 96.3895 166.003 95.0662 165.763 93.7721C165.516 92.0178 164.119 90.6494 162.36 90.4386C160.809 90.2054 159.174 90.3794 157.591 90.5477H157.59C157.219 90.5871 156.851 90.6263 156.487 90.6598C153.118 90.9714 149.765 91.4255 146.435 92.0209C146.145 91.2643 145.673 90.5408 145.266 90.0231C140.463 84.1433 132.707 81.5494 125.333 83.3567C121.772 84.3235 118.567 86.3031 116.108 89.0552C113.828 91.558 112.246 94.5988 111.498 97.8732C108.446 98.3377 105.412 98.9243 102.406 99.6317C102.185 99.6839 101.919 99.7408 101.62 99.8046C98.9373 100.377 93.6274 101.511 95.2098 104.887C95.3832 105.257 95.6841 105.392 95.9855 105.365C95.6066 105.533 95.3183 105.919 95.4321 106.437ZM247.765 178.826L245.783 177.903L245.782 177.901L247.764 178.823L247.765 178.826ZM247.765 178.826L280.274 193.956L280.267 193.96C271.625 199.873 262.985 205.789 254.348 211.709L252.488 212.983C250.726 201.623 249.221 190.228 247.765 178.826ZM181.966 148.2L245.782 177.901C245.52 175.845 245.26 173.789 244.999 171.732C244.855 170.595 244.71 169.459 244.566 168.322L244.545 168.155C243 155.994 241.455 143.824 239.368 131.743C237.669 121.911 235.673 112.027 232.335 102.602L232.259 102.387C231.439 100.07 230.567 97.6046 228.936 95.7282C228.048 94.6722 226.876 93.8936 225.558 93.4851C224.068 93.0961 222.522 92.9686 220.988 93.108C215.9 93.3866 210.809 94.1954 205.77 94.9961L205.767 94.9965C205.199 95.0868 204.631 95.1769 204.065 95.2662C200.427 95.8392 196.794 96.4479 193.16 97.0566L193.157 97.0571L193.154 97.0576C184.557 98.4979 175.957 99.9386 167.294 100.909C167.022 100.907 166.777 100.79 166.607 100.604L166.875 102.834C167.049 103.639 167.098 104.467 167.019 105.287C166.702 106.886 165.025 107.118 163.601 107.314C163.353 107.349 163.113 107.382 162.889 107.421L113.074 116.137L179.123 146.877L179.122 146.877L181.964 148.2L181.966 148.2ZM110.131 114.767L163.794 105.378C164.198 105.358 164.597 105.279 164.978 105.145C165.342 104.943 165.233 104.345 165.15 103.893C165.131 103.787 165.113 103.689 165.103 103.606L164.422 97.9433C164.309 96.9994 164.195 96.0555 164.081 95.1118C164.061 94.4219 163.894 93.7442 163.592 93.1236C162.934 92.0599 161.37 92.1642 160.238 92.2396L160.236 92.2398L160.213 92.2413C160.138 92.2463 160.066 92.2511 159.995 92.2554C158.197 92.3665 156.403 92.5193 154.612 92.7137C151.941 93.0037 149.282 93.3932 146.639 93.8726C146.52 94.3234 146.237 94.7274 145.721 95.0369C144.35 95.8602 142.391 94.9843 142.671 93.2715C142.753 92.9518 143.003 92.7021 143.322 92.6201C143.766 92.5286 144.21 92.4397 144.654 92.3532C144.419 91.9118 144.058 91.472 143.847 91.2145C143.819 91.1804 143.793 91.1494 143.771 91.1222C142.718 89.8217 141.478 88.6854 140.09 87.7508C135.121 84.4113 128.47 83.5598 122.998 86.1839C118.393 88.3926 114.792 92.6624 113.46 97.592C113.824 97.543 114.188 97.4957 114.552 97.4502C115.209 97.3672 115.544 98.1092 115.451 98.6307C115.13 100.222 113.659 101.313 112.043 101.159C111.585 101.101 111.057 100.773 111.11 100.227C111.116 100.169 111.122 100.111 111.129 100.054C111.134 100.008 111.139 99.963 111.144 99.9177C111.149 99.8786 111.154 99.8395 111.159 99.8005C108.879 100.162 106.613 100.594 104.36 101.095C104.325 101.103 104.277 101.113 104.217 101.126C104.159 101.138 104.088 101.152 104.008 101.169C102.341 101.51 96.2613 102.753 96.8204 103.946C97.093 104.528 96.7538 105.07 96.3027 105.278C96.7063 105.233 97.1179 105.426 97.2311 105.941C97.4623 106.998 97.7059 108.053 97.962 109.104C98.2059 110.105 98.4612 111.103 98.7277 112.099C98.7799 112.294 98.8308 112.489 98.8819 112.685C99.0656 113.39 99.2504 114.1 99.4936 114.783C99.728 115.443 100.08 116.114 100.832 116.241C101.49 116.352 102.215 116.196 102.897 116.05C103.114 116.004 103.327 115.958 103.531 115.922L110.131 114.767ZM197.725 274.267C197.532 274.334 197.339 274.4 197.145 274.463C195.072 273.127 193.667 270.824 192.479 268.643C196.128 265.978 199.864 263.43 203.598 260.884L203.6 260.883L203.602 260.882C204.124 260.526 204.646 260.17 205.168 259.813C211.792 255.291 218.432 250.795 225.09 246.323C232.634 241.239 240.18 236.159 247.729 231.084C254.564 226.482 261.391 221.87 268.212 217.247L269.413 216.431C273.662 213.544 277.914 210.656 282.096 207.672C282.327 207.507 282.557 207.342 282.787 207.176C283.437 208.1 284.119 209 284.833 209.875C285.916 211.103 287.194 212.143 288.615 212.953C287.233 214.017 285.758 214.982 284.326 215.92C283.778 216.279 283.235 216.634 282.706 216.989L266.903 227.602C265.42 228.599 263.937 229.595 262.453 230.592L262.452 230.593C253.427 236.657 244.401 242.721 235.329 248.714C234.446 249.297 233.561 249.88 232.677 250.463L232.675 250.464L232.671 250.466C228.322 253.332 223.969 256.199 219.709 259.193C216.948 261.133 214.268 263.179 211.588 265.225C209.446 266.86 207.304 268.494 205.121 270.075C202.851 271.793 200.364 273.202 197.725 274.267ZM290.095 211.737C291.583 210.422 292.885 208.942 293.8 207.19C295.647 203.654 294.811 199.399 292.162 196.499C290.917 195.07 289.217 194.113 287.349 193.791C285.129 193.465 283.009 194.316 281.215 195.566L281.194 195.581L279.898 196.467C280.243 199.505 281.734 202.26 283.404 204.768C284.251 206.079 285.169 207.344 286.152 208.556C287.197 209.749 288.446 210.746 289.841 211.501C289.943 211.565 290.028 211.646 290.095 211.737ZM278.208 197.625C271.303 202.354 264.399 207.083 257.493 211.811C250.266 216.763 243.033 221.706 235.792 226.638C228.563 231.568 221.321 236.479 214.065 241.369C207.015 246.128 199.944 250.857 192.853 255.554C192.766 255.612 192.679 255.669 192.592 255.726L192.332 255.898C190.936 256.815 189.527 257.741 188.377 258.96C189.194 261.732 190.272 264.421 191.597 266.989C191.884 266.78 192.171 266.572 192.459 266.365C196.648 263.359 200.912 260.457 205.174 257.556L206.329 256.77C213.145 252.142 219.971 247.526 226.804 242.923C234.352 237.846 241.899 232.767 249.443 227.685C256.102 223.214 262.745 218.721 269.374 214.205C269.9 213.847 270.427 213.488 270.954 213.129C274.574 210.666 278.197 208.201 281.746 205.638C280.112 203.172 278.758 200.525 278.208 197.625ZM185.625 263.812C186.043 262.806 186.468 261.784 187.009 260.836C187.898 263.548 189.029 266.176 190.387 268.689C191.596 270.922 192.964 273.368 194.91 275.098C193.079 275.542 191.207 275.812 189.321 275.905C188.229 275.985 187.135 276.037 186.042 276.063C186.015 276.025 185.984 275.989 185.951 275.954C185.761 275.751 185.577 275.541 185.401 275.325C185.359 275.274 185.318 275.223 185.278 275.172C185.276 275.168 185.273 275.165 185.271 275.162C185.266 275.155 185.258 275.144 185.245 275.127C185.167 275.022 185.089 274.917 185.014 274.81C184.693 274.354 184.399 273.879 184.123 273.394C183.618 272.503 183.176 271.578 182.741 270.651L185.366 264.43C185.411 264.323 185.456 264.216 185.501 264.108L185.625 263.812ZM181.778 272.933L180.5 275.962C181.546 276.025 182.594 276.063 183.642 276.076C182.92 275.094 182.325 274.027 181.778 272.933ZM179.533 275.862C179.557 275.845 179.594 275.862 179.639 275.898L179.63 275.894C179.628 275.893 179.625 275.891 179.622 275.89C179.618 275.887 179.614 275.885 179.61 275.882C179.613 275.884 179.597 275.879 179.578 275.874C179.558 275.868 179.535 275.861 179.533 275.862ZM144.383 93.4509C144.319 93.4162 144.315 93.4118 144.369 93.4379C144.374 93.4421 144.378 93.4464 144.383 93.4509ZM124.287 155.951C125.302 154.513 125.847 152.737 125.732 150.863C125.729 150.828 125.726 150.783 125.723 150.733C125.701 150.39 125.662 149.768 125.472 149.592C125.3 149.432 124.955 149.688 124.765 149.847C124.193 150.37 123.795 151.057 123.626 151.813C123.284 153.232 123.528 154.721 124.287 155.951Z" fill="#7BA84F"/>
<path d="M83.421 143.679C79.5878 144.14 75.7547 144.601 71.9214 145.062C70.2833 145.187 68.6544 145.412 67.0436 145.735C65.7663 146.051 64.4765 146.685 63.8378 147.895C63.137 149.222 63.4677 150.825 63.7682 152.281C63.8281 152.571 63.8868 152.856 63.9359 153.131C64.2678 154.992 64.6093 156.851 64.9603 158.709C65.6214 162.207 66.2781 165.694 66.8476 169.208C67.0863 170.819 67.4202 172.415 67.8474 173.987L67.8849 174.118C68.2829 175.512 68.7407 177.115 70.2659 177.606C72.6887 178.386 75.283 177.783 77.7743 177.204C78.6275 177.006 79.4687 176.811 80.2868 176.674C81.8962 176.407 83.5175 176.228 85.1388 176.049C87.1143 175.831 89.0897 175.613 91.0434 175.234C92.6582 174.921 94.3925 174.562 95.7483 173.576C96.8762 172.726 97.645 171.485 97.9032 170.097C98.1498 168.573 98.1413 167.019 97.8779 165.498C97.6626 163.775 97.4015 162.057 97.0948 160.347C96.558 157.054 95.7125 153.819 94.5695 150.685L98.6215 146.06C99.4095 145.16 98.0953 143.836 97.3026 144.741L81.9425 162.276C81.7164 162.473 81.5142 162.696 81.3398 162.939L77.7672 159.646C76.8857 158.833 75.5634 160.149 76.4483 160.965L79.3912 163.678C79.4312 163.715 79.4716 163.752 79.5124 163.79C80.3542 164.571 81.3778 165.521 82.4608 164.502C83.1133 163.888 83.7023 163.174 84.2848 162.467C84.5686 162.123 84.8511 161.78 85.1387 161.452L93.1655 152.288C93.9067 154.457 94.4951 156.677 94.9263 158.929C95.5169 161.643 95.9419 164.39 96.1989 167.156C96.3522 168.346 96.2072 169.556 95.7769 170.677C95.22 171.922 94.065 172.535 92.8082 172.908C90.2697 173.662 87.6028 173.945 84.9623 174.226L84.9584 174.226L84.9574 174.227L84.9564 174.227C84.2845 174.298 83.6141 174.369 82.9482 174.448C81.3818 174.634 79.8197 174.839 78.2771 175.172C76.7714 175.559 75.2414 175.845 73.6975 176.026C73.0061 176.093 72.3096 176.082 71.6205 175.996C70.8053 175.878 70.3965 175.693 70.1057 174.909C69.6208 173.539 69.2492 172.133 68.9945 170.703C68.7058 169.206 68.4584 167.701 68.211 166.197C67.9532 164.63 67.6954 163.063 67.3908 161.503C66.7155 158.046 66.0733 154.582 65.4644 151.112C65.4572 151.07 65.4497 151.029 65.442 150.987L65.4231 150.883C65.2908 150.162 65.14 149.34 65.5267 148.691C65.8489 148.228 66.3205 147.89 66.8626 147.733C68.0234 147.32 69.2932 147.197 70.5351 147.077C70.9156 147.04 71.2941 147.003 71.6655 146.958L83.4206 145.544C83.9289 145.528 84.3374 145.12 84.3532 144.612C84.3505 144.098 83.935 143.681 83.421 143.679Z" fill="#7BA84F"/>
<path d="M82.0523 198.839C85.8855 198.378 89.7187 197.917 93.5519 197.455L93.5505 197.455C94.0645 197.458 94.4805 197.874 94.4832 198.388C94.4673 198.896 94.0589 199.304 93.5505 199.32L81.7954 200.734C81.424 200.779 81.0461 200.816 80.6656 200.853C79.4235 200.973 78.1535 201.097 76.9925 201.51C76.4506 201.666 75.9792 202.005 75.6573 202.468C75.2706 203.116 75.4214 203.938 75.5537 204.66L75.5755 204.779C75.5822 204.816 75.5887 204.852 75.595 204.888C76.2039 208.359 76.846 211.822 77.5213 215.28C77.8259 216.84 78.0837 218.406 78.3414 219.973L78.3416 219.975C78.589 221.479 78.8364 222.982 79.1251 224.479C79.3797 225.909 79.7514 227.316 80.2363 228.685C80.5271 229.47 80.9359 229.654 81.7511 229.772C82.4402 229.859 83.1367 229.869 83.8281 229.803C85.372 229.621 86.902 229.336 88.4077 228.949C89.9503 228.616 91.5124 228.41 93.0788 228.225C93.7465 228.146 94.4185 228.074 95.0922 228.003C97.7326 227.722 100.4 227.438 102.939 226.685C104.196 226.312 105.351 225.698 105.908 224.453C106.338 223.333 106.483 222.123 106.329 220.933C106.073 218.167 105.648 215.42 105.057 212.706C104.626 210.454 104.038 208.235 103.297 206.066L95.2701 215.229C94.9828 215.557 94.7007 215.899 94.4172 216.243L94.4165 216.244L94.4158 216.245C93.8333 216.952 93.2447 217.666 92.5922 218.279C91.5092 219.298 90.4856 218.348 89.6437 217.567C89.6029 217.529 89.5626 217.492 89.5226 217.455L86.5797 214.742C85.6948 213.926 87.0171 212.611 87.8985 213.423L91.4711 216.717C91.6455 216.473 91.8478 216.251 92.0739 216.053L107.434 198.518C108.227 197.613 109.541 198.937 108.753 199.837L104.701 204.463C105.844 207.597 106.689 210.831 107.226 214.124C107.532 215.834 107.793 217.551 108.009 219.275C108.272 220.796 108.281 222.35 108.034 223.874C107.776 225.262 107.007 226.503 105.879 227.352C104.523 228.339 102.789 228.698 101.174 229.011C99.2205 229.389 97.245 229.607 95.2696 229.826C93.6483 230.004 92.027 230.183 90.4177 230.451C89.5996 230.587 88.7584 230.783 87.9052 230.981C85.4139 231.56 82.8196 232.162 80.3967 231.383C78.8716 230.892 78.4137 229.289 78.0158 227.895L77.9783 227.764C77.5511 226.192 77.2172 224.596 76.9784 222.984C76.409 219.47 75.7522 215.983 75.0911 212.485C74.7401 210.628 74.3987 208.768 74.0667 206.908C74.0177 206.632 73.959 206.348 73.8991 206.058C73.5986 204.601 73.2678 202.998 73.9687 201.671C74.6074 200.462 75.8972 199.828 77.1745 199.512C78.7852 199.188 80.4142 198.964 82.0523 198.839Z" fill="#7BA84F"/>
<path d="M103.684 251.231C99.8508 251.693 96.0176 252.154 92.1844 252.615C90.5463 252.74 88.9173 252.964 87.3066 253.288C86.0292 253.604 84.7394 254.238 84.1008 255.447C83.3999 256.775 83.7306 258.377 84.0311 259.834C84.091 260.124 84.1497 260.408 84.1988 260.684C84.5308 262.545 84.8723 264.404 85.2232 266.261C85.8843 269.76 86.541 273.246 87.1105 276.761C87.3493 278.372 87.6832 279.968 88.1104 281.54L88.1478 281.671C88.5458 283.065 89.0037 284.668 90.5288 285.159C92.9517 285.938 95.5459 285.336 98.0373 284.757C98.8905 284.559 99.7317 284.363 100.55 284.227C102.159 283.96 103.781 283.781 105.402 283.602C107.377 283.384 109.353 283.166 111.306 282.787C112.921 282.474 114.655 282.115 116.011 281.128C117.139 280.279 117.908 279.038 118.166 277.65C118.413 276.126 118.404 274.572 118.141 273.051C117.926 271.327 117.664 269.61 117.358 267.9C116.821 264.607 115.976 261.372 114.833 258.239L118.884 253.613C119.672 252.714 118.358 251.389 117.565 252.294L102.205 269.83C101.979 270.027 101.777 270.249 101.602 270.493L98.0299 267.199C97.1484 266.387 95.826 267.703 96.711 268.518L99.6539 271.232L99.7137 271.287L99.7751 271.344C100.617 272.125 101.64 273.074 102.723 272.056C103.376 271.442 103.965 270.728 104.547 270.021C104.831 269.677 105.114 269.334 105.401 269.005L113.429 259.842C114.17 262.011 114.758 264.23 115.189 266.482C115.78 269.196 116.205 271.943 116.462 274.709C116.615 275.899 116.47 277.109 116.04 278.23C115.483 279.474 114.328 280.088 113.071 280.461C110.533 281.214 107.866 281.498 105.226 281.779C104.552 281.85 103.879 281.922 103.211 282.001C101.645 282.186 100.083 282.392 98.5401 282.725C97.0344 283.112 95.5044 283.397 93.9604 283.579C93.2691 283.645 92.5725 283.635 91.8835 283.548C91.0683 283.43 90.6594 283.246 90.3686 282.461C89.8837 281.092 89.5121 279.686 89.2574 278.256C88.9687 276.759 88.7214 275.255 88.474 273.751C88.2162 272.184 87.9584 270.616 87.6537 269.056C86.9783 265.599 86.3362 262.135 85.7273 258.664L85.7166 258.604L85.7075 258.554L85.686 258.436C85.5537 257.715 85.4029 256.892 85.7896 256.244C86.1115 255.781 86.583 255.443 87.1248 255.286C88.2858 254.873 89.5554 254.749 90.7975 254.629L90.7986 254.629C91.1789 254.592 91.5566 254.555 91.9278 254.51L103.683 253.096C104.191 253.081 104.6 252.672 104.615 252.164C104.613 251.65 104.197 251.234 103.683 251.231L103.684 251.231Z" fill="#7BA84F"/>
<path fill-rule="evenodd" clip-rule="evenodd" d="M130.269 207.906L154.747 205.021C156.02 204.871 157.295 204.724 158.569 204.577C161.258 204.267 163.947 203.957 166.631 203.616C169.227 203.286 172.003 202.821 174.271 201.445C174.569 202.066 174.94 202.65 175.38 203.175C178.485 206.88 184.279 206.081 187.328 202.741C187.736 202.301 188.092 201.818 188.389 201.301C189.802 201.272 191.167 200.571 192.34 199.846C193.293 199.248 194.189 198.568 195.019 197.816C195.31 199.239 195.819 200.624 196.777 201.734C198.25 203.44 200.6 203.692 202.577 202.761C203.65 202.21 204.621 201.479 205.447 200.6C206.333 199.777 207.081 198.816 207.661 197.754C207.749 197.599 207.827 197.44 207.893 197.277C208.454 197.087 209.003 196.843 209.539 196.604C209.746 196.512 209.951 196.421 210.153 196.334L219.298 192.415C219.74 192.153 219.889 191.585 219.633 191.139C219.365 190.705 218.803 190.558 218.357 190.805L208.626 194.974L208.532 195.015L208.408 195.069L208.169 195.174C208.134 194.904 208.072 194.636 207.983 194.374C207.598 193.52 206.872 192.866 205.982 192.571C205.19 192.263 204.299 192.346 203.578 192.795C202.738 193.41 202.406 194.508 202.767 195.485C203.224 196.671 204.314 197.49 205.572 197.606C205.421 197.829 205.266 198.031 205.126 198.198C204.006 199.53 202.473 201.187 200.653 201.441C199.182 201.645 198.107 200.689 197.492 199.453C197.034 198.413 196.738 197.312 196.612 196.187C197.068 195.661 197.496 195.11 197.894 194.535C201.229 189.802 202.333 183.849 200.916 178.234C200.822 177.918 200.571 177.674 200.252 177.59C199.933 177.506 199.594 177.594 199.357 177.823C195.994 180.891 194.93 185.476 194.683 189.857C194.549 191.742 194.558 193.633 194.71 195.515C193.29 197.019 191.471 198.529 189.486 199.202C189.394 199.233 189.299 199.262 189.203 199.288C189.459 198.257 189.534 197.022 188.777 196.24C188.017 195.456 186.712 195.486 185.814 195.999C184.714 196.65 184.297 198.036 184.853 199.187C185.197 199.922 185.767 200.507 186.459 200.872C186.351 201.021 186.236 201.165 186.114 201.304C183.954 203.771 179.801 204.848 177.21 202.399C176.587 201.81 176.109 201.095 175.778 200.314L175.806 200.288C178.12 198.125 179.323 194.394 177.542 191.547C177.392 191.302 177.139 191.139 176.855 191.103C176.57 191.066 176.284 191.16 176.077 191.358C173.656 193.349 172.919 196.688 173.635 199.653C171.415 201.184 168.433 201.539 165.837 201.848L165.78 201.854C158.238 202.752 150.696 203.642 143.152 204.522L130.269 206.04C129.76 206.056 129.352 206.465 129.336 206.973C129.339 207.487 129.755 207.903 130.269 207.906ZM205.516 194.385C206.186 194.683 206.392 195.19 206.346 195.753C206.071 195.784 205.797 195.778 205.529 195.719C205.09 195.621 204.219 195.006 204.534 194.448C204.717 194.124 205.221 194.253 205.516 194.385ZM198.043 190.517C197.604 191.49 197.081 192.421 196.482 193.3C196.463 192.119 196.487 190.938 196.554 189.758C196.749 186.47 197.444 183.063 199.469 180.45C199.992 183.86 199.503 187.363 198.043 190.517ZM187.298 199.175L187.289 199.207C187.047 199.081 186.832 198.895 186.658 198.633C186.304 198.098 186.497 197.523 187.164 197.491C187.805 197.461 187.472 198.586 187.333 199.058C187.324 199.089 187.316 199.117 187.309 199.141L187.298 199.175ZM176.433 193.698C176.783 195.218 176.217 196.854 175.249 198.123C175.127 196.557 175.516 194.955 176.433 193.698Z" fill="#7BA84F"/>
<path fill-rule="evenodd" clip-rule="evenodd" d="M134.959 263.477C140.444 263.739 145.858 262.352 150.516 259.531C150.577 259.929 150.693 260.318 150.856 260.673C151.781 262.691 154.065 263.24 156.077 262.633C157.042 262.342 157.939 261.857 158.763 261.254C158.92 263.304 159.286 265.428 160.361 267.17C161.76 269.45 164.402 270.655 167.041 270.217C167.345 270.159 167.642 270.079 167.93 269.981C167.897 270.738 167.973 271.507 168.165 272.264C168.891 275.126 171.156 277.343 174.033 278.009C175.199 278.29 175.697 276.492 174.529 276.211C172.292 275.721 170.526 274.007 169.969 271.786C169.721 270.796 169.732 269.782 169.975 268.829C171.038 267.944 171.813 266.725 172.142 265.323C172.241 264.918 172.062 264.496 171.702 264.287C171.342 264.077 170.887 264.129 170.584 264.415C169.55 265.33 168.795 266.479 168.359 267.736C168.01 267.961 167.628 268.14 167.219 268.265C165.626 268.751 163.894 268.326 162.707 267.157C161.42 265.889 160.972 263.995 160.746 262.262C160.637 261.406 160.567 260.547 160.536 259.687C160.967 259.239 161.369 258.77 161.741 258.297C163.217 256.435 164.312 254.301 164.963 252.015C165.47 250.211 166.206 246.506 163.246 246.49C160.642 246.477 159.941 249.557 159.476 251.601L159.435 251.78C158.898 254.115 158.638 256.503 158.658 258.895C158.461 259.079 158.258 259.259 158.051 259.433C156.877 260.411 154.479 261.827 153.036 260.565C152.408 260.016 152.027 258.83 152.556 258.168C152.702 258.06 152.847 257.952 152.991 257.841L152.992 257.841C153.416 257.571 153.551 257.015 153.297 256.582C153.044 256.148 152.493 255.993 152.051 256.23C151.672 256.396 151.368 256.629 151.132 256.909C146.424 260.228 140.734 261.889 134.959 261.612C133.759 261.552 133.763 263.417 134.959 263.477ZM160.579 256.754C160.596 256.499 160.616 256.244 160.64 255.989C160.817 253.878 161.247 251.796 161.923 249.788C162.101 249.271 162.542 248.197 163.284 248.359C163.854 248.484 163.629 249.508 163.513 250.036L163.513 250.037C163.498 250.104 163.485 250.162 163.476 250.21C163.012 252.597 162.016 254.831 160.579 256.754Z" fill="#7BA84F"/>
</svg>
